G04*
G04 #@! TF.GenerationSoftware,Altium Limited,Altium Designer,21.6.1 (37)*
G04*
G04 Layer_Physical_Order=1*
G04 Layer_Color=255*
%FSLAX25Y25*%
%MOIN*%
G70*
G04*
G04 #@! TF.SameCoordinates,7A2AF629-CEF6-4696-9375-0D09EAA51E4D*
G04*
G04*
G04 #@! TF.FilePolarity,Positive*
G04*
G01*
G75*
%ADD10C,0.00984*%
%ADD11C,0.00787*%
G04:AMPARAMS|DCode=13|XSize=11.81mil|YSize=27.56mil|CornerRadius=2.95mil|HoleSize=0mil|Usage=FLASHONLY|Rotation=0.000|XOffset=0mil|YOffset=0mil|HoleType=Round|Shape=RoundedRectangle|*
%AMROUNDEDRECTD13*
21,1,0.01181,0.02165,0,0,0.0*
21,1,0.00591,0.02756,0,0,0.0*
1,1,0.00591,0.00295,-0.01083*
1,1,0.00591,-0.00295,-0.01083*
1,1,0.00591,-0.00295,0.01083*
1,1,0.00591,0.00295,0.01083*
%
%ADD13ROUNDEDRECTD13*%
G04:AMPARAMS|DCode=14|XSize=11.81mil|YSize=27.56mil|CornerRadius=2.95mil|HoleSize=0mil|Usage=FLASHONLY|Rotation=270.000|XOffset=0mil|YOffset=0mil|HoleType=Round|Shape=RoundedRectangle|*
%AMROUNDEDRECTD14*
21,1,0.01181,0.02165,0,0,270.0*
21,1,0.00591,0.02756,0,0,270.0*
1,1,0.00591,-0.01083,-0.00295*
1,1,0.00591,-0.01083,0.00295*
1,1,0.00591,0.01083,0.00295*
1,1,0.00591,0.01083,-0.00295*
%
%ADD14ROUNDEDRECTD14*%
%ADD15R,0.13583X0.13583*%
G04:AMPARAMS|DCode=16|XSize=11.81mil|YSize=23.62mil|CornerRadius=2.95mil|HoleSize=0mil|Usage=FLASHONLY|Rotation=0.000|XOffset=0mil|YOffset=0mil|HoleType=Round|Shape=RoundedRectangle|*
%AMROUNDEDRECTD16*
21,1,0.01181,0.01772,0,0,0.0*
21,1,0.00591,0.02362,0,0,0.0*
1,1,0.00591,0.00295,-0.00886*
1,1,0.00591,-0.00295,-0.00886*
1,1,0.00591,-0.00295,0.00886*
1,1,0.00591,0.00295,0.00886*
%
%ADD16ROUNDEDRECTD16*%
G04:AMPARAMS|DCode=17|XSize=11.81mil|YSize=23.62mil|CornerRadius=2.95mil|HoleSize=0mil|Usage=FLASHONLY|Rotation=90.000|XOffset=0mil|YOffset=0mil|HoleType=Round|Shape=RoundedRectangle|*
%AMROUNDEDRECTD17*
21,1,0.01181,0.01772,0,0,90.0*
21,1,0.00591,0.02362,0,0,90.0*
1,1,0.00591,0.00886,0.00295*
1,1,0.00591,0.00886,-0.00295*
1,1,0.00591,-0.00886,-0.00295*
1,1,0.00591,-0.00886,0.00295*
%
%ADD17ROUNDEDRECTD17*%
%ADD18P,0.01114X4X285.0*%
%ADD19P,0.00557X4X285.0*%
%ADD20P,0.01114X4X255.0*%
%ADD21P,0.00557X4X255.0*%
%ADD22R,0.00787X0.00787*%
%ADD23R,0.00394X0.00394*%
%ADD24P,0.01114X4X195.0*%
%ADD25P,0.00557X4X195.0*%
%ADD26P,0.01114X4X165.0*%
%ADD27P,0.00557X4X165.0*%
%ADD28R,0.00787X0.00787*%
%ADD29R,0.00394X0.00394*%
G04:AMPARAMS|DCode=30|XSize=23.62mil|YSize=23.62mil|CornerRadius=2.36mil|HoleSize=0mil|Usage=FLASHONLY|Rotation=90.000|XOffset=0mil|YOffset=0mil|HoleType=Round|Shape=RoundedRectangle|*
%AMROUNDEDRECTD30*
21,1,0.02362,0.01890,0,0,90.0*
21,1,0.01890,0.02362,0,0,90.0*
1,1,0.00472,0.00945,0.00945*
1,1,0.00472,0.00945,-0.00945*
1,1,0.00472,-0.00945,-0.00945*
1,1,0.00472,-0.00945,0.00945*
%
%ADD30ROUNDEDRECTD30*%
%ADD31R,0.01654X0.01890*%
%ADD32R,0.01890X0.01654*%
G04:AMPARAMS|DCode=33|XSize=31.5mil|YSize=31.5mil|CornerRadius=3.94mil|HoleSize=0mil|Usage=FLASHONLY|Rotation=90.000|XOffset=0mil|YOffset=0mil|HoleType=Round|Shape=RoundedRectangle|*
%AMROUNDEDRECTD33*
21,1,0.03150,0.02362,0,0,90.0*
21,1,0.02362,0.03150,0,0,90.0*
1,1,0.00787,0.01181,0.01181*
1,1,0.00787,0.01181,-0.01181*
1,1,0.00787,-0.01181,-0.01181*
1,1,0.00787,-0.01181,0.01181*
%
%ADD33ROUNDEDRECTD33*%
G04:AMPARAMS|DCode=34|XSize=23.62mil|YSize=23.62mil|CornerRadius=2.36mil|HoleSize=0mil|Usage=FLASHONLY|Rotation=120.000|XOffset=0mil|YOffset=0mil|HoleType=Round|Shape=RoundedRectangle|*
%AMROUNDEDRECTD34*
21,1,0.02362,0.01890,0,0,120.0*
21,1,0.01890,0.02362,0,0,120.0*
1,1,0.00472,0.00346,0.01291*
1,1,0.00472,0.01291,-0.00346*
1,1,0.00472,-0.00346,-0.01291*
1,1,0.00472,-0.01291,0.00346*
%
%ADD34ROUNDEDRECTD34*%
G04:AMPARAMS|DCode=35|XSize=23.62mil|YSize=23.62mil|CornerRadius=2.36mil|HoleSize=0mil|Usage=FLASHONLY|Rotation=180.000|XOffset=0mil|YOffset=0mil|HoleType=Round|Shape=RoundedRectangle|*
%AMROUNDEDRECTD35*
21,1,0.02362,0.01890,0,0,180.0*
21,1,0.01890,0.02362,0,0,180.0*
1,1,0.00472,-0.00945,0.00945*
1,1,0.00472,0.00945,0.00945*
1,1,0.00472,0.00945,-0.00945*
1,1,0.00472,-0.00945,-0.00945*
%
%ADD35ROUNDEDRECTD35*%
G04:AMPARAMS|DCode=36|XSize=23.62mil|YSize=23.62mil|CornerRadius=2.36mil|HoleSize=0mil|Usage=FLASHONLY|Rotation=60.000|XOffset=0mil|YOffset=0mil|HoleType=Round|Shape=RoundedRectangle|*
%AMROUNDEDRECTD36*
21,1,0.02362,0.01890,0,0,60.0*
21,1,0.01890,0.02362,0,0,60.0*
1,1,0.00472,0.01291,0.00346*
1,1,0.00472,0.00346,-0.01291*
1,1,0.00472,-0.01291,-0.00346*
1,1,0.00472,-0.00346,0.01291*
%
%ADD36ROUNDEDRECTD36*%
G04:AMPARAMS|DCode=37|XSize=23.62mil|YSize=23.62mil|CornerRadius=2.36mil|HoleSize=0mil|Usage=FLASHONLY|Rotation=30.000|XOffset=0mil|YOffset=0mil|HoleType=Round|Shape=RoundedRectangle|*
%AMROUNDEDRECTD37*
21,1,0.02362,0.01890,0,0,30.0*
21,1,0.01890,0.02362,0,0,30.0*
1,1,0.00472,0.01291,-0.00346*
1,1,0.00472,-0.00346,-0.01291*
1,1,0.00472,-0.01291,0.00346*
1,1,0.00472,0.00346,0.01291*
%
%ADD37ROUNDEDRECTD37*%
G04:AMPARAMS|DCode=38|XSize=23.62mil|YSize=23.62mil|CornerRadius=2.36mil|HoleSize=0mil|Usage=FLASHONLY|Rotation=330.000|XOffset=0mil|YOffset=0mil|HoleType=Round|Shape=RoundedRectangle|*
%AMROUNDEDRECTD38*
21,1,0.02362,0.01890,0,0,330.0*
21,1,0.01890,0.02362,0,0,330.0*
1,1,0.00472,0.00346,-0.01291*
1,1,0.00472,-0.01291,-0.00346*
1,1,0.00472,-0.00346,0.01291*
1,1,0.00472,0.01291,0.00346*
%
%ADD38ROUNDEDRECTD38*%
G04:AMPARAMS|DCode=39|XSize=31.5mil|YSize=31.5mil|CornerRadius=3.94mil|HoleSize=0mil|Usage=FLASHONLY|Rotation=180.000|XOffset=0mil|YOffset=0mil|HoleType=Round|Shape=RoundedRectangle|*
%AMROUNDEDRECTD39*
21,1,0.03150,0.02362,0,0,180.0*
21,1,0.02362,0.03150,0,0,180.0*
1,1,0.00787,-0.01181,0.01181*
1,1,0.00787,0.01181,0.01181*
1,1,0.00787,0.01181,-0.01181*
1,1,0.00787,-0.01181,-0.01181*
%
%ADD39ROUNDEDRECTD39*%
G04:AMPARAMS|DCode=40|XSize=19.68mil|YSize=23.62mil|CornerRadius=1.97mil|HoleSize=0mil|Usage=FLASHONLY|Rotation=270.000|XOffset=0mil|YOffset=0mil|HoleType=Round|Shape=RoundedRectangle|*
%AMROUNDEDRECTD40*
21,1,0.01968,0.01968,0,0,270.0*
21,1,0.01575,0.02362,0,0,270.0*
1,1,0.00394,-0.00984,-0.00787*
1,1,0.00394,-0.00984,0.00787*
1,1,0.00394,0.00984,0.00787*
1,1,0.00394,0.00984,-0.00787*
%
%ADD40ROUNDEDRECTD40*%
G04:AMPARAMS|DCode=41|XSize=19.68mil|YSize=23.62mil|CornerRadius=1.97mil|HoleSize=0mil|Usage=FLASHONLY|Rotation=0.000|XOffset=0mil|YOffset=0mil|HoleType=Round|Shape=RoundedRectangle|*
%AMROUNDEDRECTD41*
21,1,0.01968,0.01968,0,0,0.0*
21,1,0.01575,0.02362,0,0,0.0*
1,1,0.00394,0.00787,-0.00984*
1,1,0.00394,-0.00787,-0.00984*
1,1,0.00394,-0.00787,0.00984*
1,1,0.00394,0.00787,0.00984*
%
%ADD41ROUNDEDRECTD41*%
%ADD42R,0.03937X0.02362*%
G04:AMPARAMS|DCode=43|XSize=23.62mil|YSize=39.37mil|CornerRadius=0mil|HoleSize=0mil|Usage=FLASHONLY|Rotation=120.000|XOffset=0mil|YOffset=0mil|HoleType=Round|Shape=Rectangle|*
%AMROTATEDRECTD43*
4,1,4,0.02295,-0.00039,-0.01114,-0.02007,-0.02295,0.00039,0.01114,0.02007,0.02295,-0.00039,0.0*
%
%ADD43ROTATEDRECTD43*%

G04:AMPARAMS|DCode=44|XSize=23.62mil|YSize=39.37mil|CornerRadius=0mil|HoleSize=0mil|Usage=FLASHONLY|Rotation=60.000|XOffset=0mil|YOffset=0mil|HoleType=Round|Shape=Rectangle|*
%AMROTATEDRECTD44*
4,1,4,0.01114,-0.02007,-0.02295,-0.00039,-0.01114,0.02007,0.02295,0.00039,0.01114,-0.02007,0.0*
%
%ADD44ROTATEDRECTD44*%

G04:AMPARAMS|DCode=45|XSize=23.62mil|YSize=39.37mil|CornerRadius=0mil|HoleSize=0mil|Usage=FLASHONLY|Rotation=30.000|XOffset=0mil|YOffset=0mil|HoleType=Round|Shape=Rectangle|*
%AMROTATEDRECTD45*
4,1,4,-0.00039,-0.02295,-0.02007,0.01114,0.00039,0.02295,0.02007,-0.01114,-0.00039,-0.02295,0.0*
%
%ADD45ROTATEDRECTD45*%

%ADD46R,0.02362X0.03937*%
G04:AMPARAMS|DCode=47|XSize=23.62mil|YSize=39.37mil|CornerRadius=0mil|HoleSize=0mil|Usage=FLASHONLY|Rotation=150.000|XOffset=0mil|YOffset=0mil|HoleType=Round|Shape=Rectangle|*
%AMROTATEDRECTD47*
4,1,4,0.02007,0.01114,0.00039,-0.02295,-0.02007,-0.01114,-0.00039,0.02295,0.02007,0.01114,0.0*
%
%ADD47ROTATEDRECTD47*%

%ADD48R,0.03937X0.03543*%
G04:AMPARAMS|DCode=49|XSize=19.68mil|YSize=23.62mil|CornerRadius=1.97mil|HoleSize=0mil|Usage=FLASHONLY|Rotation=150.000|XOffset=0mil|YOffset=0mil|HoleType=Round|Shape=RoundedRectangle|*
%AMROUNDEDRECTD49*
21,1,0.01968,0.01968,0,0,150.0*
21,1,0.01575,0.02362,0,0,150.0*
1,1,0.00394,-0.00190,0.01246*
1,1,0.00394,0.01174,0.00459*
1,1,0.00394,0.00190,-0.01246*
1,1,0.00394,-0.01174,-0.00459*
%
%ADD49ROUNDEDRECTD49*%
G04:AMPARAMS|DCode=50|XSize=19.68mil|YSize=23.62mil|CornerRadius=1.97mil|HoleSize=0mil|Usage=FLASHONLY|Rotation=60.000|XOffset=0mil|YOffset=0mil|HoleType=Round|Shape=RoundedRectangle|*
%AMROUNDEDRECTD50*
21,1,0.01968,0.01968,0,0,60.0*
21,1,0.01575,0.02362,0,0,60.0*
1,1,0.00394,0.01246,0.00190*
1,1,0.00394,0.00459,-0.01174*
1,1,0.00394,-0.01246,-0.00190*
1,1,0.00394,-0.00459,0.01174*
%
%ADD50ROUNDEDRECTD50*%
G04:AMPARAMS|DCode=51|XSize=19.68mil|YSize=23.62mil|CornerRadius=1.97mil|HoleSize=0mil|Usage=FLASHONLY|Rotation=120.000|XOffset=0mil|YOffset=0mil|HoleType=Round|Shape=RoundedRectangle|*
%AMROUNDEDRECTD51*
21,1,0.01968,0.01968,0,0,120.0*
21,1,0.01575,0.02362,0,0,120.0*
1,1,0.00394,0.00459,0.01174*
1,1,0.00394,0.01246,-0.00190*
1,1,0.00394,-0.00459,-0.01174*
1,1,0.00394,-0.01246,0.00190*
%
%ADD51ROUNDEDRECTD51*%
G04:AMPARAMS|DCode=52|XSize=19.68mil|YSize=23.62mil|CornerRadius=1.97mil|HoleSize=0mil|Usage=FLASHONLY|Rotation=30.000|XOffset=0mil|YOffset=0mil|HoleType=Round|Shape=RoundedRectangle|*
%AMROUNDEDRECTD52*
21,1,0.01968,0.01968,0,0,30.0*
21,1,0.01575,0.02362,0,0,30.0*
1,1,0.00394,0.01174,-0.00459*
1,1,0.00394,-0.00190,-0.01246*
1,1,0.00394,-0.01174,0.00459*
1,1,0.00394,0.00190,0.01246*
%
%ADD52ROUNDEDRECTD52*%
%ADD83C,0.01181*%
%ADD84C,0.01772*%
%ADD85C,0.01968*%
%ADD86C,0.01575*%
%ADD87C,0.02362*%
%ADD88C,0.03150*%
%ADD89C,0.02362*%
%ADD90O,0.03150X0.04724*%
%ADD91C,0.01772*%
G36*
X-9921Y50492D02*
X-10630Y50492D01*
X-11339Y51201D01*
Y51476D01*
X-9921D01*
Y50492D01*
D02*
G37*
G36*
X-13307Y51201D02*
X-14016Y50492D01*
X-14724Y50492D01*
Y51476D01*
X-13307D01*
Y51201D01*
D02*
G37*
G36*
X13813Y50452D02*
X13675Y50213D01*
X12707Y49954D01*
X12093Y50308D01*
X12585Y51160D01*
X13813Y50452D01*
D02*
G37*
G36*
X-10987Y49705D02*
X-12323Y48368D01*
X-13659Y49705D01*
X-12323Y51041D01*
X-10987Y49705D01*
D02*
G37*
G36*
X-9921Y48917D02*
Y47933D01*
X-11339D01*
Y48209D01*
X-10630Y48917D01*
X-9921Y48917D01*
D02*
G37*
G36*
X-13307Y48209D02*
Y47933D01*
X-14724D01*
Y48917D01*
X-14016Y48917D01*
X-13307Y48209D01*
D02*
G37*
G36*
X16745Y48759D02*
X16253Y47906D01*
X15639Y48261D01*
X15380Y49229D01*
X15518Y49467D01*
X16745Y48759D01*
D02*
G37*
G36*
X11920Y48590D02*
X12179Y47622D01*
X12041Y47383D01*
X10814Y48092D01*
X11306Y48944D01*
X11920Y48590D01*
D02*
G37*
G36*
X14937Y47757D02*
X13111Y47268D01*
X12622Y49093D01*
X14448Y49582D01*
X14937Y47757D01*
D02*
G37*
G36*
X15466Y46543D02*
X14974Y45690D01*
X13746Y46399D01*
X13884Y46637D01*
X14852Y46897D01*
X15466Y46543D01*
D02*
G37*
G36*
X-34180Y38117D02*
X-34793Y37763D01*
X-35761Y38022D01*
X-35899Y38261D01*
X-34672Y38969D01*
X-34180Y38117D01*
D02*
G37*
G36*
X37524Y37702D02*
X37286Y37565D01*
X36318Y37824D01*
X35963Y38438D01*
X36816Y38930D01*
X37524Y37702D01*
D02*
G37*
G36*
X34954Y37037D02*
X34694Y36068D01*
X34456Y35931D01*
X33747Y37158D01*
X34599Y37650D01*
X34954Y37037D01*
D02*
G37*
G36*
X-37466Y37038D02*
X-37725Y36070D01*
X-38339Y35715D01*
X-38831Y36568D01*
X-37604Y37277D01*
X-37466Y37038D01*
D02*
G37*
G36*
X-32900Y35901D02*
X-34128Y35192D01*
X-34265Y35431D01*
X-34006Y36399D01*
X-33392Y36753D01*
X-32900Y35901D01*
D02*
G37*
G36*
X-34708Y36902D02*
X-35198Y35077D01*
X-37023Y35566D01*
X-36534Y37392D01*
X-34708Y36902D01*
D02*
G37*
G36*
X37639Y36632D02*
X37150Y34807D01*
X35325Y35296D01*
X35814Y37121D01*
X37639Y36632D01*
D02*
G37*
G36*
X39217Y34770D02*
X38365Y34278D01*
X38010Y34892D01*
X38270Y35860D01*
X38508Y35998D01*
X39217Y34770D01*
D02*
G37*
G36*
X-35970Y34447D02*
X-35832Y34208D01*
X-37060Y33499D01*
X-37552Y34352D01*
X-36938Y34706D01*
X-35970Y34447D01*
D02*
G37*
G36*
X36647Y34104D02*
X37001Y33491D01*
X36149Y32998D01*
X35440Y34226D01*
X35679Y34364D01*
X36647Y34104D01*
D02*
G37*
G36*
X-48955Y15997D02*
X-49310Y15383D01*
X-50278Y15124D01*
X-50516Y15261D01*
X-49808Y16489D01*
X-48955Y15997D01*
D02*
G37*
G36*
X50984Y13583D02*
X50709D01*
X50000Y14291D01*
X50000Y15000D01*
X50984D01*
Y13583D01*
D02*
G37*
G36*
X48425Y14291D02*
X47717Y13583D01*
X47441D01*
Y15000D01*
X48425D01*
X48425Y14291D01*
D02*
G37*
G36*
X-46739Y14717D02*
X-47448Y13490D01*
X-47686Y13627D01*
X-47946Y14596D01*
X-47592Y15209D01*
X-46739Y14717D01*
D02*
G37*
G36*
X-48317Y12855D02*
X-50142Y12366D01*
X-50631Y14191D01*
X-48806Y14680D01*
X-48317Y12855D01*
D02*
G37*
G36*
X-51262Y13419D02*
X-51003Y12451D01*
X-51357Y11837D01*
X-52209Y12329D01*
X-51501Y13557D01*
X-51262Y13419D01*
D02*
G37*
G36*
X50549Y12598D02*
X49213Y11262D01*
X47876Y12598D01*
X49213Y13935D01*
X50549Y12598D01*
D02*
G37*
G36*
X-48432Y11785D02*
X-49141Y10558D01*
X-49993Y11050D01*
X-49639Y11663D01*
X-48671Y11923D01*
X-48432Y11785D01*
D02*
G37*
G36*
X50984Y10197D02*
X50000D01*
X50000Y10905D01*
X50709Y11614D01*
X50984D01*
Y10197D01*
D02*
G37*
G36*
X48425Y10905D02*
X48425Y10197D01*
X47441D01*
Y11614D01*
X47717D01*
X48425Y10905D01*
D02*
G37*
G36*
X-17912Y17323D02*
X-17797D01*
X-17244Y17093D01*
X-17070Y16595D01*
Y16433D01*
X-17067Y16427D01*
Y15216D01*
X-14232D01*
Y15331D01*
X-12205D01*
X-12176Y15337D01*
X-11122D01*
X-10925Y15376D01*
X-10392Y15093D01*
X-10138Y14886D01*
Y13803D01*
X-12205D01*
X-12234Y13797D01*
X-13287D01*
X-13633Y13728D01*
X-13926Y13532D01*
X-14122Y13239D01*
X-14191Y12894D01*
Y12303D01*
X-14122Y11958D01*
X-13926Y11665D01*
X-13633Y11469D01*
X-13287Y11400D01*
X-12234D01*
X-12205Y11394D01*
X-9941D01*
X-9938Y11395D01*
X-9935Y11394D01*
X-9932Y11395D01*
X-9929Y11394D01*
X-9923Y11394D01*
X-9845Y11411D01*
X-9615Y11441D01*
X-9406Y11351D01*
X-9019Y11023D01*
X-8876Y10815D01*
Y9211D01*
X-9522Y7090D01*
X-9531Y7057D01*
X-9767Y6349D01*
X-9770Y6342D01*
X-10313Y5966D01*
X-10314Y5966D01*
X-10379Y5901D01*
X-10729Y5550D01*
X-10739Y5525D01*
X-11001Y5327D01*
X-11570Y5253D01*
X-11740Y5740D01*
X-11740D01*
X-11740Y5740D01*
Y6831D01*
X-11703Y6921D01*
Y7508D01*
X-11740Y7598D01*
Y8575D01*
X-12607D01*
X-12886Y8691D01*
X-13473D01*
X-13681Y8829D01*
Y9154D01*
X-14173Y9646D01*
X-17126D01*
X-17618Y9154D01*
Y7685D01*
X-17669Y7664D01*
X-18084Y7249D01*
X-18309Y6706D01*
Y6119D01*
X-18084Y5576D01*
X-17669Y5161D01*
X-17126Y4936D01*
X-17065D01*
X-17005Y4846D01*
X-16744Y4672D01*
X-16437Y4611D01*
X-14862D01*
X-14830Y4617D01*
X-14762Y4561D01*
X-14537Y4018D01*
X-14282Y3763D01*
X-14156Y3380D01*
X-14246Y2802D01*
X-14451Y2598D01*
X-14675Y2055D01*
Y1468D01*
X-14451Y925D01*
X-14036Y510D01*
X-13493Y285D01*
X-12905D01*
X-12363Y510D01*
X-12222Y651D01*
X-11255Y697D01*
X-10676Y-37D01*
X-10251Y-639D01*
X-10001Y-1322D01*
X-10001D01*
X-9832Y-2090D01*
X-9785Y-2327D01*
X-9778Y-2344D01*
X-9677Y-3125D01*
X-9640Y-3448D01*
X-10165Y-4035D01*
X-12205D01*
X-12697Y-4528D01*
Y-6102D01*
X-12319Y-6481D01*
Y-8268D01*
X-12257Y-8575D01*
X-12083Y-8835D01*
X-11823Y-9009D01*
X-11516Y-9070D01*
X-9941D01*
X-9634Y-9009D01*
X-9373Y-8835D01*
X-9199Y-8575D01*
X-8561Y-8160D01*
X-7974D01*
X-7579Y-8424D01*
Y-8760D01*
X-7201Y-9138D01*
Y-10925D01*
X-7139Y-11232D01*
X-6965Y-11493D01*
X-6705Y-11667D01*
X-6398Y-11728D01*
X-4823D01*
X-4516Y-11667D01*
X-4255Y-11493D01*
X-4081Y-11232D01*
X-4020Y-10925D01*
Y-9138D01*
X-3642Y-8760D01*
Y-7185D01*
X-4134Y-6693D01*
X-6791D01*
Y-6390D01*
X-7016Y-5847D01*
X-7394Y-5469D01*
X-7642Y-3259D01*
X-7060Y-2961D01*
X-6887Y-2927D01*
X-6457Y-3257D01*
X-6371Y-3292D01*
X-6328Y-3326D01*
X-6189Y-3394D01*
X-6149Y-3594D01*
X-5954Y-3887D01*
X-5661Y-4082D01*
X-5315Y-4151D01*
X-3543D01*
X-3198Y-4082D01*
X-2905Y-3887D01*
X-2709Y-3594D01*
X-2640Y-3248D01*
Y-2669D01*
X-1199D01*
Y-3416D01*
X-1204Y-3445D01*
Y-4882D01*
X-1417D01*
Y-7308D01*
X-1647Y-7537D01*
X-1871Y-8080D01*
Y-8668D01*
X-1647Y-9210D01*
X-1231Y-9625D01*
X-689Y-9850D01*
X-101D01*
X441Y-9625D01*
X857Y-9210D01*
X1081Y-8668D01*
Y-8080D01*
X1654Y-7717D01*
X1654D01*
Y-6950D01*
X2071Y-6629D01*
X2450Y-6136D01*
X2613Y-5741D01*
X2644Y-5695D01*
X2644Y-5695D01*
X2713Y-5534D01*
X2732Y-5440D01*
X3053Y-4744D01*
X3098Y-4676D01*
X3167Y-4331D01*
Y-4064D01*
X3173Y-4035D01*
Y-3445D01*
X3167Y-3416D01*
Y-2646D01*
X3282Y-2623D01*
X3477Y-2493D01*
X3607Y-2297D01*
X3630Y-2183D01*
X5315D01*
X5661Y-2114D01*
X5954Y-1918D01*
X6149Y-1625D01*
X6189Y-1426D01*
X6328Y-1357D01*
X6371Y-1324D01*
X6457Y-1288D01*
X6929Y-926D01*
X7292Y-453D01*
X7462Y-42D01*
X7520Y98D01*
X7598Y689D01*
X8223Y1083D01*
X10531D01*
X11024Y1575D01*
Y3150D01*
X10645Y3528D01*
Y4621D01*
X11273Y5097D01*
X13128Y4574D01*
X13124Y4557D01*
X13172Y4548D01*
X13916Y4305D01*
X17913Y2928D01*
Y-31890D01*
X11821Y-37982D01*
X11555Y-37716D01*
X11012Y-37491D01*
X10531D01*
Y-36911D01*
X10307Y-36368D01*
X9891Y-35953D01*
X9349Y-35728D01*
X8761D01*
X8219Y-35953D01*
X7803Y-36368D01*
X7579Y-36911D01*
Y-37498D01*
X6893Y-37900D01*
X6841Y-37922D01*
X6426Y-38337D01*
X6201Y-38880D01*
Y-39467D01*
X6426Y-40009D01*
X6841Y-40425D01*
X7384Y-40650D01*
X7971D01*
X8253Y-41377D01*
X8268Y-41535D01*
X2864Y-46939D01*
X2767Y-46920D01*
X2352Y-46504D01*
X1809Y-46279D01*
X1222D01*
X679Y-46504D01*
X264Y-46920D01*
X39Y-47462D01*
Y-48050D01*
X264Y-48592D01*
X679Y-49007D01*
X699Y-49104D01*
X-1378Y-51181D01*
X-3215D01*
X-3276Y-51034D01*
X-3691Y-50618D01*
X-4234Y-50394D01*
X-4821D01*
X-5364Y-50618D01*
X-5779Y-51034D01*
X-5840Y-51181D01*
X-8562D01*
X-9067Y-50572D01*
X-9066Y-50537D01*
X-9049Y-50412D01*
X-8957Y-50156D01*
X-8934Y-50052D01*
X-8797Y-49722D01*
X-8695Y-48951D01*
X-8719Y-48774D01*
X-8711Y-48711D01*
X-8893Y-46463D01*
X-8730Y-46299D01*
X-8505Y-45757D01*
Y-45169D01*
X-8730Y-44627D01*
X-9145Y-44212D01*
X-9687Y-43987D01*
X-10275D01*
X-10818Y-44212D01*
X-11159Y-44553D01*
X-11445Y-44567D01*
X-11468Y-44564D01*
X-12001Y-44423D01*
X-12156Y-44048D01*
X-12571Y-43633D01*
X-12603Y-43620D01*
X-12617Y-43537D01*
X-12644Y-43465D01*
X-12661Y-43334D01*
X-12879Y-42807D01*
X-13227Y-42355D01*
X-13672Y-42013D01*
X-13679Y-42008D01*
X-14118Y-41754D01*
X-14078Y-40992D01*
X-13424Y-40650D01*
X-13187Y-40748D01*
X-12600D01*
X-12057Y-40523D01*
X-11642Y-40108D01*
X-11417Y-39565D01*
Y-38978D01*
X-11642Y-38435D01*
X-12057Y-38020D01*
X-12570Y-37808D01*
X-12402Y-37400D01*
Y-36813D01*
X-12626Y-36270D01*
X-13042Y-35855D01*
X-13584Y-35630D01*
X-14172D01*
X-14714Y-35855D01*
X-15130Y-36270D01*
X-15155Y-36332D01*
X-15515Y-36820D01*
X-16344Y-36817D01*
X-16673Y-36360D01*
X-17088Y-35945D01*
X-17631Y-35720D01*
X-18218D01*
X-18761Y-35945D01*
X-19176Y-36360D01*
X-19231Y-36492D01*
X-19464Y-36956D01*
X-20309Y-37111D01*
X-20965Y-36673D01*
Y-35827D01*
X-20494Y-35715D01*
X-19925Y-35454D01*
X-19499Y-34995D01*
X-19281Y-34408D01*
X-19304Y-33782D01*
X-19565Y-33212D01*
X-19552Y-33043D01*
X-19413Y-32950D01*
X-19239Y-32689D01*
X-19177Y-32382D01*
Y-30807D01*
X-19239Y-30500D01*
X-19413Y-30239D01*
X-19673Y-30065D01*
X-19980Y-30004D01*
X-21767D01*
X-22146Y-29626D01*
X-23720D01*
X-24213Y-30118D01*
Y-33043D01*
X-24288Y-33094D01*
X-24462Y-33354D01*
X-24523Y-33661D01*
Y-35449D01*
X-24902Y-35827D01*
Y-37402D01*
X-24409Y-37894D01*
X-22006D01*
X-21560Y-38227D01*
X-21459Y-39085D01*
X-23820Y-42161D01*
X-23835Y-42150D01*
X-24049Y-42346D01*
X-24040Y-42360D01*
X-24041Y-42364D01*
X-24896Y-42919D01*
X-25528Y-42287D01*
X-25533Y-42274D01*
X-25949Y-41859D01*
X-25962Y-41853D01*
X-29921Y-37894D01*
Y-31956D01*
X-29706Y-31435D01*
Y-30848D01*
X-29921Y-30327D01*
Y-13387D01*
X-29575Y-13041D01*
X-29350Y-12498D01*
Y-11911D01*
X-28735Y-11338D01*
X-28640Y-11378D01*
X-28053D01*
X-27510Y-11153D01*
X-27095Y-10738D01*
X-26870Y-10195D01*
Y-9608D01*
X-27095Y-9065D01*
X-27403Y-8757D01*
X-27542Y-6202D01*
X-27530Y-6201D01*
X-27513Y-6021D01*
X-27409Y-5249D01*
X-27268Y-4368D01*
X-26397Y-3905D01*
X-26376Y-3914D01*
X-25789D01*
X-25246Y-3689D01*
X-24831Y-3274D01*
X-24278Y-2828D01*
X-23691D01*
X-23148Y-2603D01*
X-22733Y-2188D01*
X-22725Y-2169D01*
X-22341Y-1476D01*
X-21754D01*
X-21211Y-1252D01*
X-20796Y-836D01*
X-20571Y-294D01*
Y294D01*
X-20796Y836D01*
X-20981Y1022D01*
X-20692Y5861D01*
X-20635Y6642D01*
X-20577Y7082D01*
X-20593Y7085D01*
X-18837Y16902D01*
X-17959Y17342D01*
X-17912Y17323D01*
D02*
G37*
G36*
X-47539Y-11890D02*
X-47815D01*
X-48524Y-11181D01*
X-48524Y-10473D01*
X-47539D01*
Y-11890D01*
D02*
G37*
G36*
X-50098Y-11181D02*
X-50807Y-11890D01*
X-51083D01*
Y-10473D01*
X-50098D01*
X-50098Y-11181D01*
D02*
G37*
G36*
X49718Y-11661D02*
X49363Y-12274D01*
X48395Y-12534D01*
X48156Y-12396D01*
X48865Y-11169D01*
X49718Y-11661D01*
D02*
G37*
G36*
X51934Y-12940D02*
X51225Y-14168D01*
X50986Y-14030D01*
X50727Y-13062D01*
X51081Y-12448D01*
X51934Y-12940D01*
D02*
G37*
G36*
X-47975Y-12874D02*
X-49311Y-14210D01*
X-50647Y-12874D01*
X-49311Y-11538D01*
X-47975Y-12874D01*
D02*
G37*
G36*
X-47539Y-15276D02*
X-48524D01*
X-48524Y-14567D01*
X-47815Y-13858D01*
X-47539D01*
Y-15276D01*
D02*
G37*
G36*
X-50098Y-14567D02*
X-50098Y-15276D01*
X-51083D01*
Y-13858D01*
X-50807D01*
X-50098Y-14567D01*
D02*
G37*
G36*
X50356Y-14802D02*
X48531Y-15292D01*
X48041Y-13466D01*
X49867Y-12977D01*
X50356Y-14802D01*
D02*
G37*
G36*
X47411Y-14239D02*
X47670Y-15207D01*
X47316Y-15820D01*
X46464Y-15328D01*
X47172Y-14101D01*
X47411Y-14239D01*
D02*
G37*
G36*
X50241Y-15872D02*
X49532Y-17100D01*
X48680Y-16608D01*
X49034Y-15994D01*
X50002Y-15735D01*
X50241Y-15872D01*
D02*
G37*
G36*
X-35192Y-34128D02*
X-35431Y-34265D01*
X-36399Y-34006D01*
X-36753Y-33392D01*
X-35901Y-32900D01*
X-35192Y-34128D01*
D02*
G37*
G36*
X37552Y-34352D02*
X36938Y-34706D01*
X35970Y-34447D01*
X35832Y-34208D01*
X37060Y-33499D01*
X37552Y-34352D01*
D02*
G37*
G36*
X-37763Y-34793D02*
X-38022Y-35761D01*
X-38261Y-35899D01*
X-38969Y-34672D01*
X-38117Y-34180D01*
X-37763Y-34793D01*
D02*
G37*
G36*
X34265Y-35431D02*
X34006Y-36399D01*
X33392Y-36753D01*
X32900Y-35901D01*
X34128Y-35192D01*
X34265Y-35431D01*
D02*
G37*
G36*
X-35077Y-35198D02*
X-35566Y-37023D01*
X-37392Y-36534D01*
X-36902Y-34708D01*
X-35077Y-35198D01*
D02*
G37*
G36*
X38831Y-36568D02*
X37604Y-37277D01*
X37466Y-37038D01*
X37725Y-36070D01*
X38339Y-35715D01*
X38831Y-36568D01*
D02*
G37*
G36*
X37023Y-35566D02*
X36534Y-37392D01*
X34708Y-36902D01*
X35198Y-35077D01*
X37023Y-35566D01*
D02*
G37*
G36*
X-33499Y-37060D02*
X-34352Y-37552D01*
X-34706Y-36938D01*
X-34447Y-35970D01*
X-34208Y-35832D01*
X-33499Y-37060D01*
D02*
G37*
G36*
X-36070Y-37725D02*
X-35715Y-38339D01*
X-36568Y-38831D01*
X-37277Y-37604D01*
X-37038Y-37466D01*
X-36070Y-37725D01*
D02*
G37*
G36*
X35761Y-38022D02*
X35899Y-38261D01*
X34672Y-38969D01*
X34180Y-38117D01*
X34793Y-37763D01*
X35761Y-38022D01*
D02*
G37*
G36*
X-13746Y-47186D02*
X-13884Y-47425D01*
X-14852Y-47684D01*
X-15466Y-47330D01*
X-14974Y-46477D01*
X-13746Y-47186D01*
D02*
G37*
G36*
X14882Y-49114D02*
X14173Y-49114D01*
X13465Y-48406D01*
Y-48130D01*
X14882D01*
Y-49114D01*
D02*
G37*
G36*
X11496Y-48406D02*
X10787Y-49114D01*
X10079Y-49114D01*
Y-48130D01*
X11496D01*
Y-48406D01*
D02*
G37*
G36*
X-10814Y-48879D02*
X-11306Y-49731D01*
X-11920Y-49377D01*
X-12179Y-48409D01*
X-12041Y-48170D01*
X-10814Y-48879D01*
D02*
G37*
G36*
X-15639Y-49048D02*
X-15380Y-50016D01*
X-15518Y-50255D01*
X-16745Y-49546D01*
X-16253Y-48694D01*
X-15639Y-49048D01*
D02*
G37*
G36*
X-12622Y-49881D02*
X-14448Y-50370D01*
X-14937Y-48544D01*
X-13111Y-48055D01*
X-12622Y-49881D01*
D02*
G37*
G36*
X13817Y-49902D02*
X12480Y-51238D01*
X11144Y-49902D01*
X12480Y-48565D01*
X13817Y-49902D01*
D02*
G37*
G36*
X14882Y-50689D02*
Y-51673D01*
X13465D01*
Y-51398D01*
X14173Y-50689D01*
X14882Y-50689D01*
D02*
G37*
G36*
X11496Y-51398D02*
Y-51673D01*
X10079D01*
Y-50689D01*
X10787Y-50689D01*
X11496Y-51398D01*
D02*
G37*
G36*
X-12093Y-51095D02*
X-12585Y-51948D01*
X-13813Y-51239D01*
X-13675Y-51000D01*
X-12707Y-50741D01*
X-12093Y-51095D01*
D02*
G37*
%LPC*%
G36*
X-22638Y-4626D02*
X-24213D01*
X-24705Y-5118D01*
Y-8071D01*
X-24213Y-8563D01*
X-22638D01*
X-22260Y-8185D01*
X-20472D01*
X-20165Y-8124D01*
X-19905Y-7950D01*
X-19731Y-7689D01*
X-19670Y-7382D01*
Y-5807D01*
X-19731Y-5500D01*
X-19905Y-5239D01*
X-20165Y-5065D01*
X-20472Y-5004D01*
X-22260D01*
X-22638Y-4626D01*
D02*
G37*
G36*
X6983Y-4135D02*
X6811Y-4193D01*
X5768D01*
Y-5042D01*
X5636Y-5305D01*
X5592Y-5930D01*
X5768Y-6456D01*
X5768Y-7264D01*
X5029Y-7382D01*
X2953D01*
X2461Y-7874D01*
Y-9449D01*
X2839Y-9827D01*
Y-11614D01*
X2900Y-11921D01*
X3074Y-12182D01*
X3334Y-12356D01*
X3642Y-12417D01*
X5217D01*
X5524Y-12356D01*
X5784Y-12182D01*
X5958Y-11921D01*
X6019Y-11614D01*
Y-9827D01*
X6398Y-9449D01*
Y-9176D01*
X7185Y-8967D01*
X8055Y-10492D01*
Y-10827D01*
X8117Y-11134D01*
X8291Y-11394D01*
X8551Y-11569D01*
X8858Y-11630D01*
X9568D01*
X9646Y-11645D01*
X9843D01*
X9920Y-11630D01*
X10645D01*
X11024Y-12008D01*
X12598D01*
X13091Y-11516D01*
Y-8563D01*
X12598Y-8071D01*
X11024D01*
X10203Y-7778D01*
X8602Y-4972D01*
Y-4193D01*
X7635D01*
X7608Y-4180D01*
X6983Y-4135D01*
D02*
G37*
G36*
X-22539Y-10138D02*
X-24114D01*
X-24606Y-10630D01*
Y-13583D01*
X-24114Y-14075D01*
X-22539D01*
X-22161Y-13697D01*
X-20374D01*
X-20067Y-13635D01*
X-19806Y-13461D01*
X-19632Y-13201D01*
X-19571Y-12894D01*
Y-11319D01*
X-19632Y-11012D01*
X-19806Y-10751D01*
X-20067Y-10577D01*
X-20374Y-10516D01*
X-22161D01*
X-22539Y-10138D01*
D02*
G37*
G36*
X12598Y-13878D02*
X11024D01*
X10645Y-14256D01*
X8858D01*
X8551Y-14317D01*
X8291Y-14491D01*
X8117Y-14752D01*
X8055Y-15059D01*
Y-16634D01*
X8117Y-16941D01*
X8291Y-17202D01*
X8551Y-17376D01*
X8858Y-17437D01*
X10645D01*
X11024Y-17815D01*
X12598D01*
X13091Y-17323D01*
Y-14370D01*
X12598Y-13878D01*
D02*
G37*
G36*
X-20966Y-16535D02*
X-21553D01*
X-22096Y-16760D01*
X-22511Y-17176D01*
X-22736Y-17718D01*
Y-18305D01*
X-22511Y-18848D01*
X-22096Y-19263D01*
X-21553Y-19488D01*
X-20966D01*
X-20424Y-19263D01*
X-20008Y-18848D01*
X-19783Y-18305D01*
Y-17718D01*
X-20008Y-17176D01*
X-20424Y-16760D01*
X-20966Y-16535D01*
D02*
G37*
G36*
X-5218Y-21358D02*
X-5805D01*
X-6348Y-21583D01*
X-6763Y-21998D01*
X-6988Y-22541D01*
Y-23128D01*
X-6763Y-23671D01*
X-6348Y-24086D01*
X-5805Y-24311D01*
X-5218D01*
X-4676Y-24086D01*
X-4260Y-23671D01*
X-4035Y-23128D01*
Y-22541D01*
X-4260Y-21998D01*
X-4676Y-21583D01*
X-5218Y-21358D01*
D02*
G37*
G36*
X-21163Y-24409D02*
X-21750D01*
X-22293Y-24634D01*
X-22708Y-25049D01*
X-22933Y-25592D01*
Y-26180D01*
X-22708Y-26722D01*
X-22293Y-27137D01*
X-21750Y-27362D01*
X-21163D01*
X-20620Y-27137D01*
X-20205Y-26722D01*
X-19980Y-26180D01*
Y-25592D01*
X-20205Y-25049D01*
X-20620Y-24634D01*
X-21163Y-24409D01*
D02*
G37*
G36*
X1969Y-27146D02*
X-394D01*
X-778Y-27222D01*
X-987Y-27362D01*
X-4131D01*
X-4340Y-27222D01*
X-4724Y-27146D01*
X-7087D01*
X-7471Y-27222D01*
X-7796Y-27440D01*
X-8014Y-27766D01*
X-8090Y-28150D01*
Y-30512D01*
X-8014Y-30896D01*
X-7796Y-31221D01*
X-7471Y-31439D01*
X-7087Y-31515D01*
X-4724D01*
X-4340Y-31439D01*
X-4016Y-31565D01*
X-3739Y-32286D01*
X-3733Y-32476D01*
X-3897Y-32871D01*
X-4100Y-33006D01*
X-4188Y-33138D01*
X-4610Y-33202D01*
X-4678Y-33200D01*
X-5054Y-33125D01*
X-5141Y-32995D01*
X-5401Y-32821D01*
X-5709Y-32760D01*
X-7283D01*
X-7591Y-32821D01*
X-7851Y-32995D01*
X-8025Y-33256D01*
X-8086Y-33563D01*
Y-35350D01*
X-8465Y-35728D01*
Y-37303D01*
X-7972Y-37795D01*
X-5020D01*
X-4347Y-38236D01*
Y-39429D01*
X-4283Y-39752D01*
X-4100Y-40025D01*
X-3827Y-40208D01*
X-3504Y-40272D01*
X-1614D01*
X-1292Y-40208D01*
X-1018Y-40025D01*
X-835Y-39752D01*
X-771Y-39429D01*
Y-37817D01*
X-58Y-37524D01*
X82Y-37582D01*
X295Y-37795D01*
X3248D01*
X3740Y-37303D01*
Y-35728D01*
X3362Y-35350D01*
Y-33563D01*
X3301Y-33256D01*
X3127Y-32995D01*
X2866Y-32821D01*
X2559Y-32760D01*
X984D01*
X677Y-32821D01*
X417Y-32995D01*
X243Y-33256D01*
X181Y-33563D01*
Y-34755D01*
X16Y-34865D01*
X-771Y-34445D01*
Y-33602D01*
X-835Y-33280D01*
X-1018Y-33006D01*
X-1023Y-32962D01*
X329Y-31515D01*
X1969D01*
X2352Y-31439D01*
X2678Y-31221D01*
X2896Y-30896D01*
X2972Y-30512D01*
Y-28150D01*
X2896Y-27766D01*
X2678Y-27440D01*
X2352Y-27222D01*
X1969Y-27146D01*
D02*
G37*
G36*
X12598Y-21555D02*
X11024D01*
X10645Y-21933D01*
X8858D01*
X8551Y-21994D01*
X8291Y-22169D01*
X8117Y-22429D01*
X8055Y-22736D01*
Y-24311D01*
X8117Y-24618D01*
X8291Y-24879D01*
X8551Y-25053D01*
X8858Y-25114D01*
X10387D01*
X10723Y-25689D01*
X10387Y-26264D01*
X8858D01*
X8551Y-26325D01*
X8291Y-26499D01*
X8117Y-26760D01*
X8055Y-27067D01*
Y-28642D01*
X8117Y-28949D01*
X8291Y-29209D01*
X8551Y-29383D01*
X8858Y-29445D01*
X10645D01*
X11024Y-29823D01*
X12598D01*
X13091Y-29331D01*
Y-26378D01*
X12877Y-26164D01*
X12680Y-25689D01*
X12877Y-25214D01*
X13091Y-25000D01*
Y-22047D01*
X12598Y-21555D01*
D02*
G37*
G36*
X-3520Y-45564D02*
X-4107D01*
X-4650Y-45789D01*
X-5065Y-46204D01*
X-5290Y-46747D01*
Y-47334D01*
X-5065Y-47877D01*
X-4650Y-48292D01*
X-4107Y-48517D01*
X-3520D01*
X-2977Y-48292D01*
X-2562Y-47877D01*
X-2337Y-47334D01*
Y-46747D01*
X-2562Y-46204D01*
X-2977Y-45789D01*
X-3520Y-45564D01*
D02*
G37*
%LPD*%
D10*
X32592Y-37452D02*
G03*
X32441Y-38635I701J-691D01*
G01*
X32694Y-37338D02*
G03*
X32694Y-37337I-1008J788D01*
G01*
X32595Y-37450D02*
G03*
X32694Y-37338I-909J901D01*
G01*
X18205Y45524D02*
G03*
X18213Y46126I-933J314D01*
G01*
X17442Y47942D02*
G03*
X17365Y47983I-496J-850D01*
G01*
X17726Y47693D02*
G03*
X17445Y47940I-780J-600D01*
G01*
X-17913Y-47768D02*
X-17797Y-48197D01*
X-17732Y-48437D01*
X-17257Y-48711D02*
X-15885Y-49474D01*
X-16518Y-47378D02*
X-14606Y-47258D01*
X-17913Y-47768D02*
X-16618Y-47406D01*
X-16518Y-47378D01*
X32441Y-38635D02*
X32481Y-38704D01*
X32592Y-37452D02*
X32595Y-37450D01*
X32694Y-37337D02*
X33760Y-35973D01*
X32694Y-37338D02*
X32694Y-37337D01*
X32283Y-39370D02*
X32481Y-38704D01*
X32283Y-39370D02*
X32562Y-38657D01*
X32979Y-39379D02*
X35039Y-38189D01*
X18110Y46457D02*
X18212Y46130D01*
X18213Y46126D01*
X18036Y45022D02*
X18205Y45524D01*
X-17732Y-48437D02*
X-17257Y-48711D01*
X17442Y47942D02*
X17445Y47940D01*
X15885Y48687D02*
X17365Y47983D01*
X17365Y47983D02*
X17365Y47983D01*
X17340Y46106D02*
X17913Y46660D01*
X47023Y-17143D02*
X47208Y-17951D01*
Y-17951D02*
X47244Y-18110D01*
X8022Y-50461D02*
X8366Y-49705D01*
X7874Y-50787D02*
X8022Y-50461D01*
X-49283Y-9198D02*
X-48031Y-11181D01*
X-50591D02*
Y-9154D01*
X-39019Y-32140D02*
X-38652Y-32234D01*
X-13681Y53051D02*
X-13681Y53051D01*
X-14016Y50984D02*
X-13681Y53051D01*
X37102Y38277D02*
X38796Y38670D01*
X39567Y38319D01*
X-38652Y-32234D02*
X-38586Y-32251D01*
X-49311Y-9154D02*
X-49283Y-9198D01*
X-38750Y-32614D02*
X-38264Y-32562D01*
X-39352Y-32054D02*
X-39106Y-32480D01*
X-39352Y-32054D02*
X-39019Y-32140D01*
X-38264Y-32562D02*
X-35973Y-33760D01*
X-33760Y35973D02*
X-32759Y38394D01*
X17726Y47693D02*
X18029Y47299D01*
X18110Y46457D01*
X8366Y-49705D02*
X10787Y-48622D01*
X7874Y-50787D02*
X8366Y-51083D01*
X47208Y-17951D02*
Y-17951D01*
X8366Y-51083D02*
X10787Y-51181D01*
X16929Y46108D02*
X17340Y46106D01*
X15220Y46116D02*
X16929Y46108D01*
X-35039Y38189D02*
X-33240Y39228D01*
X-38670Y38796D02*
X-38319Y39567D01*
X-38670Y38796D02*
X-37972Y36496D01*
X-49736Y15629D02*
X-48770Y17303D01*
X-47811Y16749D02*
X-47520Y14349D01*
X-52871Y13988D02*
X-51429Y12697D01*
X-52953Y14831D02*
X-52871Y13988D01*
X-53150Y-13386D02*
X-52658Y-14075D01*
X-50591Y-14567D01*
X-39280Y-33149D02*
X-38189Y-35039D01*
X-15224Y-52953D02*
X-14382Y-52871D01*
X-12953Y-51167D01*
X14075Y-53051D02*
X14173Y-51181D01*
X13386Y-53543D02*
X14075Y-53051D01*
X38319Y-39567D02*
X38670Y-38796D01*
X37972Y-36496D02*
X38670Y-38796D01*
X46890Y-15574D02*
X47023Y-17143D01*
X48217Y-17832D02*
X49460Y-16240D01*
X52674Y-14252D02*
X52756Y-15094D01*
X51153Y-13308D02*
X52674Y-14252D01*
X49311Y8760D02*
X50000Y8268D01*
X47933Y10905D02*
X49311Y8760D01*
X50000Y8268D02*
X50492Y8760D01*
Y10905D01*
Y14291D02*
X52658Y14075D01*
X53150Y13386D01*
X36220Y33858D02*
X38527Y32759D01*
X39370Y32677D01*
X39489Y33314D01*
X38437Y35138D02*
X39489Y33314D01*
X14382Y52084D02*
X15224Y52165D01*
X12953Y50380D02*
X14382Y52084D01*
D11*
X3452Y40941D02*
G03*
X3307Y40945I-145J-2594D01*
G01*
X3682Y39508D02*
G03*
X3307Y39567I-375J-1161D01*
G01*
X-6817Y38713D02*
G03*
X-6599Y38681I222J755D01*
G01*
X8878Y40321D02*
G03*
X7630Y40698I-1398J-2375D01*
G01*
X3552Y40934D02*
G03*
X3508Y40938I-92J-782D01*
G01*
X-5439Y40059D02*
G03*
X-5451Y40059I-13J-1378D01*
G01*
X4644Y40871D02*
G03*
X4469Y40863I-52J-786D01*
G01*
X25559Y28835D02*
G03*
X25552Y28847I-855J-489D01*
G01*
X3467Y40940D02*
G03*
X3452Y40941I-160J-2593D01*
G01*
X-6613Y40102D02*
G03*
X-6361Y40059I257J744D01*
G01*
X3964Y40861D02*
G03*
X4155Y40837I191J764D01*
G01*
X-7066Y40152D02*
G03*
X-7078Y40150I132J-776D01*
G01*
X4563Y39485D02*
G03*
X4559Y39484I83J-783D01*
G01*
X3964Y40861D02*
G03*
X3589Y40930I-657J-2514D01*
G01*
X3857Y39473D02*
G03*
X4559Y39484I297J3234D01*
G01*
X4155Y40837D02*
G03*
X4469Y40863I0J1870D01*
G01*
X25552Y28847D02*
G03*
X25196Y29199I-847J-501D01*
G01*
X4780Y40863D02*
G03*
X4767Y40864I-130J-2161D01*
G01*
X3685Y39507D02*
G03*
X3857Y39473I239J750D01*
G01*
X4701Y39488D02*
G03*
X4566Y39485I-51J-786D01*
G01*
X-6664Y40119D02*
G03*
X-7066Y40152I-262J-742D01*
G01*
X-3794Y44545D02*
G03*
X-4867Y43700I540J-1790D01*
G01*
X-6708Y44354D02*
G03*
X-6407Y44507I-379J1119D01*
G01*
X-3038Y46212D02*
G03*
X-2165Y47382I-348J1170D01*
G01*
X-3004Y40899D02*
G03*
X-4276Y40262I484J-2553D01*
G01*
X-2520Y40945D02*
G03*
X-3004Y40899I0J-2598D01*
G01*
X-4810Y40055D02*
G03*
X-4276Y40262I2J787D01*
G01*
X-4192Y38673D02*
G03*
X-3534Y39026I2J787D01*
G01*
X-2755Y39544D02*
G03*
X-3534Y39026I235J-1198D01*
G01*
X-2520Y39567D02*
G03*
X-2755Y39544I0J-1221D01*
G01*
X-6817Y38713D02*
G03*
X-7181Y38730I-219J-756D01*
G01*
X-2635Y44894D02*
G03*
X-787Y47382I-751J2488D01*
G01*
X-9266Y31365D02*
G03*
X-9270Y31367I-299J-728D01*
G01*
X-8199Y30578D02*
G03*
X-8881Y31210I-1151J-558D01*
G01*
X-7564Y38661D02*
G03*
X-7647Y38642I222J-1200D01*
G01*
X-7810Y40017D02*
G03*
X-7991Y39977I467J-2556D01*
G01*
X-7559Y38662D02*
G03*
X-7564Y38661I216J-1201D01*
G01*
X-7803Y40018D02*
G03*
X-7810Y40017I461J-2557D01*
G01*
X26513Y29867D02*
G03*
X25892Y30389I-1808J-1520D01*
G01*
X-2165Y53209D02*
G03*
X-2170Y53315I-1221J0D01*
G01*
X-4192Y45864D02*
G03*
X-5123Y45410I938J-3109D01*
G01*
X3245Y45339D02*
G03*
X3251Y45348I-685J388D01*
G01*
X7858Y12119D02*
G03*
X7350Y12467I-663J-424D01*
G01*
X7564Y39321D02*
G03*
X7556Y39322I-84J-1375D01*
G01*
X8175Y39136D02*
G03*
X7564Y39321I-695J-1190D01*
G01*
X5196Y54649D02*
G03*
X5200Y54657I-865J469D01*
G01*
D02*
G03*
X5260Y54792I-870J461D01*
G01*
X8330Y54621D02*
G03*
X8340Y54639I-850J497D01*
G01*
D02*
G03*
X8409Y54792I-860J479D01*
G01*
X236Y30000D02*
G03*
X224Y30164I-787J25D01*
G01*
X2175Y29121D02*
G03*
X2165Y28978I777J-130D01*
G01*
X-15810Y20709D02*
G03*
X-15945Y20606I1065J-1538D01*
G01*
D02*
G03*
X-16127Y20432I1199J-1435D01*
G01*
X-15716Y20770D02*
G03*
X-15810Y20709I970J-1599D01*
G01*
X-14742Y19170D02*
G03*
X-14690Y19155I249J747D01*
G01*
X-14555Y19120D02*
G03*
X-14561Y19122I-199J-762D01*
G01*
X-15647Y20810D02*
G03*
X-15716Y20770I901J-1639D01*
G01*
X-18712Y20316D02*
G03*
X-19459Y19128I1094J-1517D01*
G01*
X-19518Y21434D02*
G03*
X-20788Y19508I1899J-2635D01*
G01*
X-15675Y23703D02*
G03*
X-17450Y22924I929J-4532D01*
G01*
X-12359Y18537D02*
G03*
X-12314Y18526I207J760D01*
G01*
X-22824Y49913D02*
G03*
X-22842Y50085I-984J-14D01*
G01*
X-24750Y38490D02*
G03*
X-24747Y38502I-2503J699D01*
G01*
X-26860Y30874D02*
G03*
X-26807Y31014I-708J345D01*
G01*
X-24747Y38502D02*
G03*
X-24909Y40312I-2506J688D01*
G01*
X-15279Y20964D02*
G03*
X-15647Y20810I533J-1792D01*
G01*
X-14745Y22419D02*
G03*
X-16645Y21806I-0J-3248D01*
G01*
X-27890Y-1960D02*
G03*
X-27928Y-2138I1808J-478D01*
G01*
X-21580Y7261D02*
G03*
X-21647Y6703I4748J-849D01*
G01*
X-20323Y22552D02*
G03*
X-22099Y19948I2705J-3752D01*
G01*
X-28523Y-5861D02*
G03*
X-28544Y-6256I1847J-294D01*
G01*
X-13468Y20537D02*
G03*
X-15279Y20964I-1278J-1366D01*
G01*
X-22049Y13922D02*
G03*
X-22040Y13961I-1335J342D01*
G01*
X-16872Y24786D02*
G03*
X-18256Y24042I2127J-5615D01*
G01*
X9920Y14218D02*
G03*
X9663Y14276I-299J-728D01*
G01*
X7640Y16445D02*
G03*
X7676Y16443I71J784D01*
G01*
X7459Y14414D02*
G03*
X7570Y14399I157J772D01*
G01*
X7736Y16438D02*
G03*
X7678Y16443I-95J-782D01*
G01*
X-15337Y-40235D02*
G03*
X-15244Y-40201I-592J1774D01*
G01*
X-15483Y-40282D02*
G03*
X-15444Y-40271I-211J759D01*
G01*
X-18083Y-39691D02*
G03*
X-18119Y-39712I1948J-3421D01*
G01*
X-15930Y-38461D02*
G03*
X-15933Y-38467I663J-425D01*
G01*
X-18119Y-39712D02*
G03*
X-19045Y-40461I1984J-3400D01*
G01*
X-28244Y-46012D02*
G03*
X-25018Y-45836I1459J2902D01*
G01*
X-30856Y-44695D02*
G03*
X-30851Y-44698I626J1228D01*
G01*
X9726Y-40597D02*
G03*
X9641Y-40529I-533J-580D01*
G01*
X17047Y-43985D02*
G03*
X17503Y-44251I1162J1465D01*
G01*
X29223Y-46397D02*
G03*
X28975Y-46241I-642J-746D01*
G01*
D02*
G03*
X28903Y-46213I-393J-902D01*
G01*
X26496Y-47971D02*
G03*
X26226Y-47807I-642J-746D01*
G01*
X7572Y-89980D02*
G03*
X7574Y-89976I-1759J635D01*
G01*
X20231Y-53990D02*
G03*
X20193Y-53948I-610J-499D01*
G01*
X18729Y-52170D02*
G03*
X18935Y-52616I782J91D01*
G01*
X18729Y-52170D02*
G03*
X18723Y-52130I-782J-94D01*
G01*
X20306Y-54085D02*
G03*
X20271Y-54040I-644J-453D01*
G01*
X17070Y-54713D02*
G03*
X17061Y-54696I-687J-384D01*
G01*
X7508Y-90135D02*
G03*
X7572Y-89980I-1695J790D01*
G01*
X24082Y-63389D02*
G03*
X24146Y-63195I-899J400D01*
G01*
X-9875Y-49751D02*
G03*
X-9712Y-48792I-1799J800D01*
G01*
X-9920Y-49854D02*
G03*
X-10018Y-50112I2342J-1032D01*
G01*
X-10430Y-51413D02*
G03*
X-10523Y-52257I2064J-654D01*
G01*
X32823Y37775D02*
G03*
X32604Y37210I1705J-984D01*
G01*
X31853Y34135D02*
G03*
X32044Y34641I-1637J905D01*
G01*
X-30856Y-44695D02*
G03*
X-31951Y-44822I-453J-874D01*
G01*
X2362Y-53051D02*
G03*
X2336Y-52737I-1870J0D01*
G01*
X-4973Y-54372D02*
G03*
X-5260Y-54792I642J-746D01*
G01*
X-4653Y-54188D02*
G03*
X-4973Y-54372I322J-930D01*
G01*
X47971Y26496D02*
G03*
X47863Y26342I746J-642D01*
G01*
X14331Y7687D02*
G03*
X14413Y7679I138J974D01*
G01*
X10163Y6452D02*
G03*
X10100Y6468I-320J-1137D01*
G01*
X25682Y8544D02*
G03*
X25689Y8661I-977J117D01*
G01*
Y12205D02*
G03*
X25318Y12975I-984J0D01*
G01*
X20289Y-54062D02*
G03*
X20213Y-53968I-646J-450D01*
G01*
X21269Y-28185D02*
G03*
X21286Y-28075I-1840J333D01*
G01*
X46893Y-28275D02*
G03*
X47032Y-28315I290J732D01*
G01*
X44645Y-27385D02*
G03*
X44582Y-27363I-293J-731D01*
G01*
X47828Y-24123D02*
G03*
X47712Y-24013I-597J-513D01*
G01*
X48958Y-25450D02*
G03*
X49507Y-25725I599J511D01*
G01*
X44315Y-33565D02*
G03*
X44920Y-33917I657J435D01*
G01*
X44546Y-36628D02*
G03*
X44469Y-36590I-387J-686D01*
G01*
X17901Y18881D02*
G03*
X17784Y18968I-1169J-1460D01*
G01*
X18756Y19962D02*
G03*
X18558Y20108I-2023J-2541D01*
G01*
X27067Y12205D02*
G03*
X26176Y14053I-2362J0D01*
G01*
X51789Y818D02*
G03*
X51779Y813I336J-712D01*
G01*
X51792Y819D02*
G03*
X51810Y828I-916J1962D01*
G01*
X51921Y879D02*
G03*
X52367Y1113I-977J2408D01*
G01*
X51920Y879D02*
G03*
X51880Y861I300J-728D01*
G01*
X54800Y-1037D02*
G03*
X54698Y-1078I318J-931D01*
G01*
D02*
G03*
X54632Y-1113I420J-890D01*
G01*
X55413Y-7122D02*
G03*
X55542Y-7072I-219J756D01*
G01*
X5039Y7599D02*
G03*
X4331Y7677I-709J-3170D01*
G01*
X13503Y5508D02*
G03*
X13400Y5540I-609J-1768D01*
G01*
X6117Y4983D02*
G03*
X4331Y6299I-1786J-554D01*
G01*
X20691Y23194D02*
G03*
X20502Y23354I-1301J-1343D01*
G01*
X-13878Y34154D02*
G03*
X-13019Y32877I1378J0D01*
G01*
X-9923Y38099D02*
G03*
X-9451Y38177I-214J2748D01*
G01*
X52435Y1152D02*
G03*
X52367Y1113I361J-700D01*
G01*
X51396Y2153D02*
G03*
X51292Y2107I824J-2003D01*
G01*
X51396Y2153D02*
G03*
X51860Y2480I-451J1134D01*
G01*
X55371Y5497D02*
G03*
X55640Y5576I-84J783D01*
G01*
X53371Y5350D02*
G03*
X51907Y5198I-554J-1786D01*
G01*
X53371Y5350D02*
G03*
X53675Y5320I227J754D01*
G01*
X51614Y5106D02*
G03*
X51907Y5198I-86J783D01*
G01*
X55599Y2778D02*
G03*
X55429Y2713I194J-763D01*
G01*
X25663Y38484D02*
G03*
X25808Y38837I-1647J886D01*
G01*
X24121Y44053D02*
G03*
X24194Y44306I-709J342D01*
G01*
X24230Y44468D02*
G03*
X24194Y44306I746J-251D01*
G01*
X-2165Y49272D02*
G03*
X-2165Y49275I-1221J0D01*
G01*
X-4090Y30898D02*
G03*
X-4077Y30772I984J34D01*
G01*
X-4195Y34607D02*
G03*
X-4208Y34320I1857J-223D01*
G01*
X-3339Y36377D02*
G03*
X-4084Y35538I233J-956D01*
G01*
X-3939Y29931D02*
G03*
X-3934Y29908I776J132D01*
G01*
X12448Y32269D02*
G03*
X11741Y32829I-1031J-576D01*
G01*
X8813Y33663D02*
G03*
X8680Y33691I-270J-947D01*
G01*
X32116Y17495D02*
G03*
X32192Y17375I1619J936D01*
G01*
X-10034Y39472D02*
G03*
X-9791Y39513I-104J1374D01*
G01*
X-12607Y37890D02*
G03*
X-13878Y36516I107J-1374D01*
G01*
X-20098Y51433D02*
G03*
X-20114Y51656I-983J41D01*
G01*
X-20372Y44862D02*
G03*
X-20366Y44610I1868J-78D01*
G01*
X-43748Y-25596D02*
G03*
X-44833Y-25841I-149J-1864D01*
G01*
X-44523Y6522D02*
G03*
X-44532Y6524I-366J-1834D01*
G01*
X-48776Y5042D02*
G03*
X-48793Y5043I-147J-1864D01*
G01*
X-49724Y-2345D02*
G03*
X-49628Y-2342I-6J1870D01*
G01*
X-49325Y1351D02*
G03*
X-49928Y1385I-405J-1826D01*
G01*
X-49325Y1351D02*
G03*
X-49145Y1321I402J1826D01*
G01*
X-26190Y38589D02*
G03*
X-26198Y39805I-1063J600D01*
G01*
X1978Y7059D02*
G03*
X3839Y6299I1860J1898D01*
G01*
X723Y8389D02*
G03*
X982Y8035I1147J568D01*
G01*
X6594Y3248D02*
G03*
X6537Y3627I-1280J0D01*
G01*
X2692Y8389D02*
G03*
X3839Y7677I1147J568D01*
G01*
X984Y8033D02*
G03*
X982Y8035I-1309J-1335D01*
G01*
X-3573Y6695D02*
G03*
X-3564Y6462I3248J3D01*
G01*
X-3513Y4608D02*
G03*
X-3539Y4433I1249J-277D01*
G01*
X-3513Y4608D02*
G03*
X-3469Y5173I-1821J427D01*
G01*
X-7098Y5654D02*
G03*
X-7195Y4855I1765J-619D01*
G01*
X-2186Y6879D02*
G03*
X-2190Y6561I1861J-182D01*
G01*
X-6588Y-1403D02*
G03*
X-5883Y-2426I1274J123D01*
G01*
X-8863Y5869D02*
G03*
X-8791Y6044I-869J462D01*
G01*
X-9348Y-169D02*
G03*
X-9567Y177I-1764J-874D01*
G01*
X-9013Y-1103D02*
G03*
X-9335Y-194I-3843J-854D01*
G01*
X-11731Y2920D02*
G03*
X-11741Y2933I-1468J-1158D01*
G01*
X-8767Y-2231D02*
G03*
X-8788Y-2104I-1174J-132D01*
G01*
X-2086Y5035D02*
G03*
X-2094Y5275I-3248J0D01*
G01*
X-325Y6698D02*
G03*
X-419Y6173I682J-393D01*
G01*
X-66Y4135D02*
G03*
X-75Y4204I-784J-74D01*
G01*
X15777Y20332D02*
G03*
X14732Y20655I-1051J-1547D01*
G01*
X16551Y21471D02*
G03*
X14822Y22032I-1826J-2686D01*
G01*
X14031Y18395D02*
G03*
X14702Y18788I-11J787D01*
G01*
X29391Y-5749D02*
G03*
X30449Y-4514I-749J1713D01*
G01*
X27062Y8504D02*
G03*
X27067Y8661I-2357J158D01*
G01*
X44876Y14846D02*
G03*
X44691Y14732I1969J-3409D01*
G01*
X43771Y15770D02*
G03*
X42836Y14692I2001J-2682D01*
G01*
X44691Y14732D02*
G03*
X44005Y13954I1082J-1645D01*
G01*
X51065Y5049D02*
G03*
X50590Y4822I82J-783D01*
G01*
X-20222Y-45838D02*
G03*
X-20070Y-45678I-4286J4204D01*
G01*
X-13606Y-43704D02*
G03*
X-14180Y-42877I-1165J-196D01*
G01*
X-25797Y-893D02*
G03*
X-25824Y-1017I1813J-459D01*
G01*
X-29166Y38219D02*
G03*
X-29258Y38141I466J-635D01*
G01*
X7595Y18328D02*
G03*
X7754Y18314I149J773D01*
G01*
X46397Y29223D02*
G03*
X46289Y29071I746J-642D01*
G01*
X-26169Y-47785D02*
G03*
X-26496Y-47971I315J-932D01*
G01*
X-25300Y-47491D02*
G03*
X-24273Y-46995I-1485J4381D01*
G01*
X-30246Y-43459D02*
G03*
X-31143Y-43212I-1064J-2109D01*
G01*
X-23495Y-43206D02*
G03*
X-23024Y-42772I-1013J1572D01*
G01*
X-16807Y-40643D02*
G03*
X-18029Y-41392I672J-2469D01*
G01*
X-21991Y-45515D02*
G03*
X-21088Y-44750I-2517J3881D01*
G01*
X-22743Y-44361D02*
G03*
X-22107Y-43821I-1764J2727D01*
G01*
X-28839Y-36417D02*
G03*
X-28176Y-37106I782J90D01*
G01*
X-12714Y39263D02*
G03*
X-15256Y36516I214J-2748D01*
G01*
Y34154D02*
G03*
X-13643Y31646I2756J0D01*
G01*
X28752Y36348D02*
G03*
X28986Y36670I-1390J1251D01*
G01*
X36313Y-1736D02*
G03*
X36162Y-2173I1679J-823D01*
G01*
X4698Y34271D02*
G03*
X4926Y34219I420J1312D01*
G01*
X1967Y35146D02*
G03*
X-470Y33476I-570J-1781D01*
G01*
X-1229Y32572D02*
G03*
X-470Y33476I-223J959D01*
G01*
X25569Y48507D02*
G03*
X25556Y48411I967J-182D01*
G01*
X25517Y48231D02*
G03*
X25556Y48411I-745J255D01*
G01*
X-8321Y36357D02*
G03*
X-8169Y36372I0J787D01*
G01*
X-7271Y36538D02*
G03*
X-7423Y36523I0J-787D01*
G01*
X-27622Y-44783D02*
G03*
X-25763Y-44677I837J1672D01*
G01*
X55421Y-825D02*
G03*
X55519Y-784I-255J745D01*
G01*
X-51513Y-20098D02*
G03*
X-51656Y-20114I39J-984D01*
G01*
X-33968Y-43012D02*
G03*
X-34679Y-43247I-70J-982D01*
G01*
X-15544Y-42089D02*
G03*
X-17011Y-42321I-591J-1023D01*
G01*
X-46782Y-31206D02*
G03*
X-46326Y-31023I-51J786D01*
G01*
X22039Y47242D02*
G03*
X22072Y47354I-1776J586D01*
G01*
X-49785Y-22831D02*
G03*
X-50081Y-22841I-114J-978D01*
G01*
X-42052Y-23730D02*
G03*
X-41925Y-23740I216J1858D01*
G01*
X-66Y4135D02*
G03*
X-65Y4128I784J76D01*
G01*
X200Y28976D02*
G03*
X201Y28992I-785J61D01*
G01*
X201Y28996D02*
G03*
X202Y29010I-786J41D01*
G01*
X4984Y9009D02*
G03*
X4331Y9055I-653J-4580D01*
G01*
X5883Y-458D02*
G03*
X6594Y689I-568J1147D01*
G01*
X30758Y-3600D02*
G03*
X30575Y-4044I1624J-928D01*
G01*
X3467Y40940D02*
X3508Y40938D01*
X-5439Y40059D02*
X-4812Y40055D01*
X4563Y39485D02*
X4566Y39485D01*
X3964Y40861D02*
Y40861D01*
X-6599Y38681D02*
X-5453D01*
X4780Y40863D02*
X7630Y40698D01*
X3682Y39508D02*
X3685Y39507D01*
X1880Y42928D02*
X3245Y45339D01*
X-2520Y40945D02*
X3307D01*
X4701Y39488D02*
X7556Y39322D01*
X25560Y28833D02*
X32116Y17495D01*
X4644Y40871D02*
X4767Y40864D01*
X-2520Y39567D02*
X3307D01*
X4155Y40837D02*
Y40837D01*
X25559Y28835D02*
X25560Y28833D01*
X-3534Y39026D02*
Y39026D01*
X3857Y39473D02*
Y39473D01*
X-7066Y40152D02*
X-7066Y40152D01*
X4469Y40863D02*
Y40863D01*
X3552Y40934D02*
X3589Y40930D01*
X-6664Y40119D02*
X-6613Y40102D01*
X-6817Y38713D02*
X-6817Y38713D01*
X4559Y39484D02*
Y39484D01*
X-6361Y40059D02*
X-5451Y40059D01*
X-7803Y40018D02*
X-7078Y40150D01*
X-5906Y41929D02*
X-4867Y43700D01*
X-984Y43409D02*
X5196Y54649D01*
X-2165Y47382D02*
Y49272D01*
X-2165Y49275D02*
X-2165Y53209D01*
X-787Y55512D02*
X-0Y55680D01*
X-4812Y40055D02*
X-4810Y40055D01*
X-4195Y38673D02*
X-4192Y38673D01*
X-5139Y38679D02*
X-4195Y38673D01*
X-5437Y38681D02*
X-5139Y38679D01*
X-5453Y38681D02*
X-5437Y38681D01*
X-787Y47382D02*
X-787Y55512D01*
X-3794Y44545D02*
X-2635Y44894D01*
X-9266Y31365D02*
X-8881Y31210D01*
X-8199Y30578D02*
X-8199Y30578D01*
X-13019Y32877D02*
X-9270Y31367D01*
X26513Y29867D02*
X26515Y29864D01*
X25887Y30392D02*
X25892Y30389D01*
X8878Y40321D02*
X25887Y30392D01*
X-7559Y38662D02*
X-7181Y38730D01*
X-8199Y30578D02*
X-7874Y29921D01*
X26515Y29864D02*
X36122Y18504D01*
X-7185Y44194D02*
X-6708Y44354D01*
X-2362Y55512D02*
X-2170Y53315D01*
X-6407Y44507D02*
X-5123Y45410D01*
X3251Y45348D02*
X8330Y54621D01*
X7349Y12467D02*
X7350Y12467D01*
X8175Y39136D02*
X25196Y29199D01*
X55Y31107D02*
X224Y30164D01*
X236Y29998D02*
X236Y30000D01*
X202Y29010D02*
X236Y29998D01*
X2175Y29121D02*
X2528Y31225D01*
X2165Y28978D02*
X2165Y28937D01*
X-17618Y18799D02*
X-16127Y20432D01*
X-14690Y19155D02*
X-14611Y19135D01*
X-14746Y19171D02*
X-14742Y19170D01*
X-14611Y19135D02*
X-14561Y19122D01*
X-14555Y19120D02*
X-14539Y19116D01*
X-12359Y18537D01*
X-22047Y0D02*
X-21647Y6703D01*
X-25797Y-893D02*
X-22049Y13922D01*
X-21580Y7261D02*
X-19459Y19128D01*
X-22040Y13961D02*
X-20788Y19508D01*
X-15675Y23703D02*
X-13189Y24213D01*
X-12314Y18526D02*
X-12310Y18525D01*
X-12205Y18504D01*
X-26807Y31014D02*
X-24750Y38490D01*
X-22824Y49913D02*
X-22547Y30656D01*
X-22983Y50831D02*
X-22842Y50085D01*
X-13189Y22419D02*
X-12205Y22441D01*
X-27890Y-1960D02*
X-22099Y19948D01*
X-28523Y-5861D02*
X-27928Y-2138D01*
X-18712Y20316D02*
X-16645Y21806D01*
X-13189Y24213D02*
X-12205Y24409D01*
X-28544Y-6256D02*
X-28346Y-9902D01*
X-19518Y21434D02*
X-17450Y22924D01*
X-20323Y22552D02*
X-18256Y24042D01*
X-16872Y24786D02*
X-13189Y26181D01*
X7676Y16443D02*
X7678Y16443D01*
X7570Y14399D02*
X9663Y14276D01*
X6693Y14567D02*
X7459Y14414D01*
X9920Y14218D02*
X9920Y14218D01*
X7736Y16438D02*
X14674Y15596D01*
X6693Y12598D02*
X7349Y12467D01*
X7858Y12119D02*
X8399Y11272D01*
X-15244Y-40201D02*
X-12894Y-39272D01*
X-15930Y-38461D02*
X-15930Y-38461D01*
X-30851Y-44698D02*
X-28244Y-46012D01*
X-15444Y-40271D02*
X-15337Y-40235D01*
X-16807Y-40643D02*
X-15483Y-40282D01*
X-18083Y-39691D02*
X-15933Y-38467D01*
X9726Y-40597D02*
X9729Y-40599D01*
X21619Y-51618D01*
X7677Y-39173D02*
X9641Y-40529D01*
X10719Y-38967D02*
X17047Y-43985D01*
X26496Y-47971D02*
X27074Y-48468D01*
X17503Y-44251D02*
X26226Y-47807D01*
X18209Y-42520D02*
X28903Y-46213D01*
X-4653Y-54188D02*
X-2603Y-53477D01*
X-9981Y-45463D02*
X-9712Y-48792D01*
X16868Y-54361D02*
X17061Y-54696D01*
X17070Y-54713D02*
X17075Y-54721D01*
X17633Y-55738D01*
X16868Y-54361D02*
X17271Y-54128D01*
X17527Y-53980D01*
X7574Y-89976D02*
X16929Y-63189D01*
X17118Y-53863D02*
X17527Y-53980D01*
X20306Y-54085D02*
X20360Y-54163D01*
X20231Y-53990D02*
X20271Y-54040D01*
X18935Y-52616D02*
X20193Y-53948D01*
X24146Y-63195D02*
X25526Y-56747D01*
X54487Y-9831D02*
X55512D01*
X57087Y-9449D01*
X-10236Y-55512D02*
X-9449Y-57087D01*
X-10523Y-52257D02*
X-10236Y-55512D01*
X-10430Y-51413D02*
X-10018Y-50112D01*
X-9920Y-49854D02*
X-9875Y-49751D01*
X32823Y37775D02*
X36016Y43306D01*
X32044Y34641D02*
X32604Y37210D01*
X31155Y32872D02*
X31853Y34135D01*
X-33999Y-46289D02*
X-32529Y-45319D01*
X-31951Y-44822D01*
X-492Y-58169D02*
X3Y-57085D01*
X2362Y-55512D02*
Y-53051D01*
X1899Y-50177D02*
X2336Y-52737D01*
X2362Y-55512D02*
X3150Y-57087D01*
X28642Y-1673D02*
X46289Y29071D01*
X30758Y-3600D02*
X47863Y26342D01*
X28069Y-6327D02*
X29391Y-5749D01*
X43771Y15770D02*
X51618Y21619D01*
X35421Y-5714D02*
X36162Y-2173D01*
X15650Y-1870D02*
X20522Y-1906D01*
X10163Y6452D02*
X13400Y5540D01*
X5039Y7599D02*
X10100Y6468D01*
X4134Y10039D02*
X4331Y9055D01*
X4984Y9009D02*
X14331Y7687D01*
X13503Y5508D02*
X21813Y2646D01*
X17901Y18881D02*
X25318Y12975D01*
X21286Y-28075D02*
X25682Y8544D01*
X7283Y-101969D02*
Y-101181D01*
X2362Y-101969D02*
Y-101181D01*
X21619Y-51618D02*
X23088Y-52588D01*
X25689Y8661D02*
Y12205D01*
X47032Y-28315D02*
X47037Y-28316D01*
X44645Y-27385D02*
X46893Y-28275D01*
X47678Y-23987D02*
X47712Y-24013D01*
X44582Y-27363D02*
X44582Y-27363D01*
X47828Y-24123D02*
X47830Y-24126D01*
X47037Y-28316D02*
X47681Y-28438D01*
X47830Y-24126D02*
X48958Y-25450D01*
X49507Y-25725D02*
X51013Y-25816D01*
X42815Y-31299D02*
X44315Y-33565D01*
X44920Y-33917D02*
X46289Y-33999D01*
X44546Y-36628D02*
X44552Y-36631D01*
X44714Y-36726D01*
X42224Y-35630D02*
X44469Y-36590D01*
X19203Y-39587D02*
X21269Y-28185D01*
X18756Y19962D02*
X26176Y14053D01*
X32382Y-4528D02*
X42836Y14692D01*
X36313Y-1736D02*
X44005Y13954D01*
X51396Y2153D02*
X51396Y2153D01*
X40748Y-4528D02*
X51779Y813D01*
X51789Y818D02*
X51792Y819D01*
X51810Y828D02*
X51880Y861D01*
X51920Y879D02*
X51921Y879D01*
X45669Y-6201D02*
X54632Y-1113D01*
X55542Y-7072D02*
X57087Y-6299D01*
X47020Y-9551D02*
X55413Y-7122D01*
X3839Y7677D02*
X4331D01*
X6117Y4983D02*
X6537Y3627D01*
X3839Y6299D02*
X4331D01*
X-1943Y31780D02*
X-1846Y32428D01*
X32192Y17375D02*
X33111Y16036D01*
X-9451Y38177D02*
X-7647Y38642D01*
X-13643Y31646D02*
X-9843Y29921D01*
X52435Y1152D02*
X55429Y2713D01*
X51860Y2480D02*
X52817Y3564D01*
X37992Y-2559D02*
X51292Y2107D01*
X51065Y5049D02*
X51614Y5106D01*
X53675Y5320D02*
X55371Y5497D01*
X55599Y2778D02*
X55602Y2778D01*
X57087Y3150D01*
X27787Y35275D02*
X28752Y36348D01*
X28986Y36670D02*
X33617Y44691D01*
X24979Y37213D02*
X25663Y38484D01*
X21644Y38919D02*
X24121Y44053D01*
X1967Y35146D02*
X4698Y34271D01*
X16437Y26575D02*
X18012Y25197D01*
X-4192Y45864D02*
X-3038Y46212D01*
X5260Y54792D02*
X5512Y55512D01*
X5118Y36713D02*
X6299Y36765D01*
X3150Y36713D02*
X5118D01*
X2640Y37222D02*
X3150Y36713D01*
X-4077Y30772D02*
X-3992Y30252D01*
X-4208Y34320D02*
X-4090Y30898D01*
X-4195Y34607D02*
X-4084Y35538D01*
X-3339Y36377D02*
X-2362Y36614D01*
X-1575Y37402D01*
X-3934Y29908D02*
X-3740Y28937D01*
X-3992Y30252D02*
X-3939Y29931D01*
X-1969Y31326D02*
X-1943Y31780D01*
X8813Y33663D02*
X11741Y32829D01*
X-12714Y39263D02*
X-10034Y39472D01*
X-12607Y37890D02*
X-9923Y38099D01*
X-9791Y39513D02*
X-7991Y39977D01*
X-1846Y32428D02*
X-1229Y32572D01*
X-1969Y29921D02*
Y31326D01*
X12448Y32269D02*
X14862Y27953D01*
X20691Y23194D02*
X30413Y13780D01*
X-1969Y29921D02*
X-1772Y28937D01*
X14862Y27953D02*
X16437Y26575D01*
X-20255Y52405D02*
X-20114Y51656D01*
X-20366Y44610D02*
X-18996Y29921D01*
X-20372Y44862D02*
X-20098Y51433D01*
X-49785Y-22831D02*
X-42052Y-23730D01*
X-41925Y-23740D02*
X-37888Y-23933D01*
X-43748Y-25596D02*
X-40648Y-25845D01*
X-49439Y-28543D02*
X-48093Y-27724D01*
X-57087Y9449D02*
X-55512Y8661D01*
X-44523Y6522D02*
X-42913Y6201D01*
X-57087Y6299D02*
X-55512Y5512D01*
X-48793Y5043D01*
X-48776Y5042D02*
X-47244Y4921D01*
X-57087Y0D02*
X-55512Y787D01*
X-49145Y1321D02*
X-47712Y1149D01*
X-55512Y-2362D02*
X-49724Y-2345D01*
X-57087Y-3150D02*
X-55512Y-2362D01*
Y787D02*
X-49928Y1385D01*
X-49628Y-2342D02*
X-48082Y-2258D01*
X-57087Y-6299D02*
X-55512Y-5512D01*
X-50838Y-5363D02*
X-50050Y-4576D01*
X-55512Y-5512D02*
X-50838Y-5363D01*
X-55512Y8661D02*
X-44532Y6524D01*
X-30807Y30413D02*
X-26190Y38589D01*
X-30169Y46681D02*
X-26198Y39805D01*
X-49439Y28543D02*
X-47935Y27997D01*
X-37199Y21799D01*
X-45319Y32529D02*
X-33328Y22058D01*
X-49256Y25710D02*
X-41038Y21311D01*
X-51013Y25816D02*
X-49256Y25710D01*
X982Y8035D02*
X982Y8035D01*
X394Y9055D02*
X723Y8389D01*
X2165Y10039D02*
X2362Y9055D01*
X2692Y8389D01*
X-14745Y22419D02*
X-13189D01*
X-3573Y6695D02*
Y9055D01*
X-3564Y6462D02*
X-3469Y5173D01*
X-3740Y10039D02*
X-3573Y9055D01*
X-2086Y4232D02*
X-1969Y3445D01*
X-4429Y2953D02*
X-3642Y3150D01*
X-2086Y4232D02*
Y5035D01*
X-3513Y4608D02*
X-3513Y4608D01*
X-7098Y5654D02*
X-5906Y9055D01*
X-2186Y6879D02*
X-1969Y9055D01*
X-2190Y6561D02*
X-2094Y5275D01*
X-7195Y4855D02*
X-6588Y-1403D01*
X-5906Y9055D02*
X-5709Y10039D01*
X-3642Y3150D02*
X-3539Y4433D01*
X-7874Y9055D02*
X-7677Y10039D01*
X-8791Y6044D02*
X-7874Y9055D01*
X-5883Y-2426D02*
X-5217Y-2756D01*
X-4429Y-2953D01*
X-9013Y-1103D02*
X-8788Y-2104D01*
X-9348Y-169D02*
X-9335Y-194D01*
X-8767Y-2231D02*
X-8268Y-6684D01*
X-13285Y4854D02*
X-11741Y2933D01*
X-11731Y2920D02*
X-9567Y177D01*
X-9477Y4714D02*
X-8863Y5869D01*
X-1969Y9055D02*
X-1772Y10039D01*
X-419Y6173D02*
X-81Y4237D01*
X-75Y4204D01*
X-325Y6697D02*
Y6698D01*
X197Y10039D02*
X394Y9055D01*
X984Y8033D02*
X1978Y7059D01*
X7677Y20655D02*
X14732D01*
X15777Y20332D02*
X17784Y18968D01*
X23886Y-38940D02*
X27062Y8504D01*
X27067Y8661D02*
Y12205D01*
X7677Y22244D02*
X14822Y22032D01*
X14702Y18788D02*
X14723D01*
X12266Y18372D02*
X14031Y18395D01*
X4331Y9055D02*
X4331D01*
X14723Y18788D02*
X14726Y18785D01*
X30449Y-4514D02*
X30575Y-4044D01*
X6693Y22441D02*
X7677Y22244D01*
X50000Y4232D02*
X50590Y4822D01*
X55640Y5576D02*
X57087Y6299D01*
X-15544Y-42089D02*
X-14180Y-42877D01*
X-20070Y-45678D02*
X-17011Y-42321D01*
X-13606Y-43704D02*
X-13408Y-44885D01*
X-26082Y-2437D02*
X-25824Y-1017D01*
X-13468Y20537D02*
X-13189D01*
X-13468D02*
X-13468D01*
X-13189D02*
X-12205Y20472D01*
X-29166Y38219D02*
X-29162Y38222D01*
X-30591Y36804D02*
X-29258Y38141D01*
X-30529Y36260D02*
X-30197Y36122D01*
X-30905Y36416D02*
X-30529Y36260D01*
X-30601Y35889D02*
X-30197Y36122D01*
X-30709Y35827D02*
X-30601Y35889D01*
X6693Y20472D02*
X7677Y20655D01*
X7754Y18314D02*
X9646Y18338D01*
X6693Y18504D02*
X7591Y18329D01*
X7595Y18328D01*
X9646Y18338D02*
X12266Y18372D01*
X6693Y24409D02*
X7677Y24213D01*
X6693Y16535D02*
X7640Y16445D01*
X7677Y24213D02*
X17419Y23291D01*
X16551Y21471D02*
X18558Y20108D01*
X18012Y25197D02*
X20502Y23354D01*
X-26169Y-47785D02*
X-25300Y-47491D01*
X-33968Y-43012D02*
X-31143Y-43212D01*
X-25763Y-44677D02*
X-23495Y-43206D01*
X-36726Y-44714D02*
X-35257Y-43744D01*
X-5512Y-55512D02*
X-5274Y-54832D01*
X-5260Y-54792D01*
X-28839Y-36417D02*
Y-36417D01*
X-6299Y-57087D02*
X-5512Y-55512D01*
X-13189Y26181D02*
X-12205Y26378D01*
X-28176Y-37106D02*
X-26486Y-37356D01*
X-26390Y-37371D01*
X-46326Y-31023D02*
X-44783Y-29724D01*
X-29162Y38222D02*
X-28831Y38460D01*
X-30709Y36417D02*
X-30591Y36804D01*
X-3150Y57087D02*
X-2362Y55512D01*
X24230Y44468D02*
X25517Y48231D01*
X52865Y19459D02*
X54163Y20360D01*
X44876Y14846D02*
X52865Y19459D01*
X51618Y21619D02*
X52588Y23088D01*
X33617Y44691D02*
X33999Y46289D01*
X4926Y34219D02*
X8680Y33691D01*
X-15256Y34154D02*
Y36516D01*
X-9843Y29921D02*
X-9646Y28937D01*
X-7426Y36522D02*
X-7423Y36523D01*
X-7271Y36538D02*
X-7185D01*
X-6398Y36516D01*
X-13878Y34154D02*
Y36516D01*
X-8169Y36372D02*
X-7426Y36522D01*
X-10138Y36357D02*
X-8321D01*
X-11319Y35335D02*
X-10138Y36357D01*
X-6293Y31791D02*
Y32312D01*
X-6398Y32579D02*
X-6293Y31791D01*
Y32312D02*
X-5906Y31693D01*
Y29921D02*
X-5709Y28937D01*
X-5906Y29921D02*
Y31750D01*
Y31693D02*
Y31750D01*
X-7874Y29921D02*
X-7677Y28937D01*
X28438Y47681D02*
X28543Y49439D01*
X25808Y38837D02*
X28438Y47681D01*
X25710Y49256D02*
X25816Y51013D01*
X36016Y43306D02*
X36726Y44714D01*
X54800Y-1037D02*
X55421Y-825D01*
X55519Y-784D02*
X57087Y0D01*
X-51513Y-20098D02*
X-40962Y-19678D01*
X-52405Y-20255D02*
X-51656Y-20114D01*
X-54163Y-20360D02*
X-52405Y-20255D01*
X-23024Y-42772D02*
X-19879Y-38673D01*
X-35257Y-43744D02*
X-34679Y-43247D01*
X-30246Y-43459D02*
X-27622Y-44783D01*
X-25018Y-45836D02*
X-22743Y-44361D01*
X7283Y-101181D02*
X24082Y-63389D01*
X-24346Y-50043D02*
X-20222Y-45838D01*
X-25816Y-51013D02*
X-24346Y-50043D01*
X-24273Y-46995D02*
X-21991Y-45515D01*
X-21088Y-44750D02*
X-18029Y-41392D01*
X2362Y-101181D02*
X7508Y-90135D01*
X29223Y-46397D02*
X29802Y-46894D01*
X-41462Y-29914D02*
X-41173Y-28839D01*
X-45319Y-32529D02*
X-41462Y-29914D01*
X-46289Y-33999D02*
X-45319Y-32529D01*
X-26390Y-37371D02*
X-23524Y-37795D01*
X-48093Y-27724D02*
X-44833Y-25841D01*
X-47864Y-31271D02*
X-46782Y-31206D01*
X-23524Y-37795D02*
X-22933Y-38583D01*
X-27074Y-48468D02*
X-26496Y-47971D01*
X-28543Y-49439D02*
X-27074Y-48468D01*
X4528Y-48917D02*
X5315Y-48130D01*
X7283Y-47244D01*
X7874Y-46850D01*
X4528Y-52854D02*
X5315Y-53642D01*
X5512Y-55512D01*
X6299Y-57087D01*
X-50831Y22983D02*
X-47170Y20873D01*
X-46095Y21161D01*
X-52588Y23088D02*
X-50831Y22983D01*
X-43744Y35257D02*
X-29763Y21993D01*
X-33999Y46289D02*
X-32529Y45319D01*
X-31391Y43347D01*
X-30512Y42945D01*
X-28831Y38460D02*
X-28543Y39535D01*
X-31271Y47864D02*
X-30169Y46681D01*
X-28543Y49439D02*
X-28438Y47681D01*
X-24909Y40312D01*
X-5118Y53051D02*
X-4331Y52264D01*
X-5512Y55512D02*
X-5118Y53051D01*
X-6299Y57087D02*
X-5512Y55512D01*
X22072Y47354D02*
X22983Y50831D01*
X23088Y52588D01*
X21464Y45497D02*
X21752Y44421D01*
X21464Y45497D02*
X22039Y47242D01*
X25569Y48507D02*
X25710Y49256D01*
X41757Y30308D02*
X45319Y32529D01*
X41469Y29232D02*
X41757Y30308D01*
X45319Y32529D02*
X46289Y33999D01*
X46383Y-21267D02*
X50831Y-22983D01*
X45307Y-21555D02*
X46383Y-21267D01*
X50831Y-22983D02*
X52588Y-23088D01*
X29717Y-42151D02*
X32529Y-45319D01*
X33999Y-46289D01*
X28642Y-41862D02*
X29717Y-42151D01*
X5512Y55512D02*
X6299Y57087D01*
X-20360Y54163D02*
X-20255Y52405D01*
X-65Y4128D02*
X-65Y4128D01*
X200Y28976D02*
Y28976D01*
X201Y28992D02*
X201Y28996D01*
X8409Y54792D02*
X8661Y55512D01*
X14413Y7679D02*
X23097Y7185D01*
X197Y28937D02*
X200Y28976D01*
X8661Y55512D02*
X9449Y57087D01*
X6594Y689D02*
Y3248D01*
X5217Y-787D02*
X5883Y-458D01*
X4429Y-984D02*
X5217Y-787D01*
X-65Y4128D02*
X0Y3445D01*
X-23088Y52588D02*
X-22983Y50831D01*
X-44714Y36726D02*
X-43744Y35257D01*
X-46289Y33999D02*
X-45319Y32529D01*
X46397Y29223D02*
X46894Y29802D01*
X47864Y31271D01*
X47971Y26496D02*
X48468Y27074D01*
X49439Y28543D01*
X47681Y-28438D02*
X49439Y-28543D01*
X-50831Y-22983D02*
X-50081Y-22841D01*
X-52588Y-23088D02*
X-50831Y-22983D01*
X-22107Y-43821D02*
X-19045Y-40461D01*
X29802Y-46894D02*
X31271Y-47864D01*
X27074Y-48468D02*
X28543Y-49439D01*
X-12598Y-57087D02*
X-12574Y-57308D01*
D13*
X4134Y28937D02*
D03*
X2165D02*
D03*
X197D02*
D03*
X-1772D02*
D03*
X-3740D02*
D03*
X-5709D02*
D03*
X-7677D02*
D03*
X-9646D02*
D03*
Y10039D02*
D03*
X-7677D02*
D03*
X-5709D02*
D03*
X-3740D02*
D03*
X-1772D02*
D03*
X197D02*
D03*
X2165D02*
D03*
X4134D02*
D03*
D14*
X-12205Y26378D02*
D03*
Y24409D02*
D03*
Y22441D02*
D03*
Y20472D02*
D03*
Y18504D02*
D03*
Y16535D02*
D03*
Y14567D02*
D03*
Y12598D02*
D03*
X6693D02*
D03*
Y14567D02*
D03*
Y16535D02*
D03*
Y18504D02*
D03*
Y20472D02*
D03*
Y22441D02*
D03*
Y24409D02*
D03*
Y26378D02*
D03*
D15*
X-2756Y19488D02*
D03*
D16*
X-1969Y-3445D02*
D03*
X0D02*
D03*
X1969D02*
D03*
Y3445D02*
D03*
X0D02*
D03*
X-1969D02*
D03*
D17*
X4429Y-2953D02*
D03*
Y-984D02*
D03*
Y984D02*
D03*
Y2953D02*
D03*
X-4429Y-2953D02*
D03*
Y-984D02*
D03*
Y984D02*
D03*
Y2953D02*
D03*
D18*
X49199Y-14134D02*
D03*
X-49474Y13523D02*
D03*
D19*
X49460Y-16240D02*
D03*
X47244Y-14961D02*
D03*
X48937Y-12028D02*
D03*
X51153Y-13308D02*
D03*
X-49736Y15629D02*
D03*
X-47520Y14349D02*
D03*
X-49213Y11417D02*
D03*
X-51429Y12697D02*
D03*
D20*
X35866Y-36234D02*
D03*
X-35866Y36234D02*
D03*
D21*
X35039Y-38189D02*
D03*
X33760Y-35973D02*
D03*
X36692Y-34280D02*
D03*
X37972Y-36496D02*
D03*
X-35039Y38189D02*
D03*
X-33760Y35973D02*
D03*
X-36692Y34280D02*
D03*
X-37972Y36496D02*
D03*
D22*
X12480Y-49902D02*
D03*
X-12323Y49705D02*
D03*
D23*
X10787Y-51181D02*
D03*
Y-48622D02*
D03*
X14173D02*
D03*
Y-51181D02*
D03*
X-10630Y50984D02*
D03*
Y48425D02*
D03*
X-14016D02*
D03*
Y50984D02*
D03*
D24*
X-13780Y-49213D02*
D03*
X13780Y48425D02*
D03*
D25*
X-15885Y-49474D02*
D03*
X-14606Y-47258D02*
D03*
X-11674Y-48951D02*
D03*
X-12953Y-51167D02*
D03*
X15885Y48687D02*
D03*
X14606Y46471D02*
D03*
X11674Y48164D02*
D03*
X12953Y50380D02*
D03*
D26*
X-36234Y-35866D02*
D03*
X36482Y35964D02*
D03*
D27*
X-38189Y-35039D02*
D03*
X-35973Y-33760D02*
D03*
X-34280Y-36692D02*
D03*
X-36496Y-37972D02*
D03*
X38437Y35138D02*
D03*
X36220Y33858D02*
D03*
X34528Y36790D02*
D03*
X36744Y38070D02*
D03*
D28*
X-49311Y-12874D02*
D03*
X49213Y12598D02*
D03*
D29*
X-50591Y-11181D02*
D03*
X-48031D02*
D03*
Y-14567D02*
D03*
X-50591D02*
D03*
X50492Y10905D02*
D03*
X47933D02*
D03*
Y14291D02*
D03*
X50492D02*
D03*
D30*
X2362Y37402D02*
D03*
X-1575D02*
D03*
X-50050Y-4576D02*
D03*
X-46113D02*
D03*
X50000Y4232D02*
D03*
X46063D02*
D03*
D31*
X-2279Y34475D02*
D03*
Y31877D02*
D03*
X7185Y-3130D02*
D03*
Y-5728D02*
D03*
X-15650Y16752D02*
D03*
Y14153D02*
D03*
D32*
X-10677Y7158D02*
D03*
X-13276D02*
D03*
X-2480Y-6299D02*
D03*
X118D02*
D03*
X7598Y31890D02*
D03*
X5000D02*
D03*
D33*
X6299Y43458D02*
D03*
Y36765D02*
D03*
X-11319Y35335D02*
D03*
Y42028D02*
D03*
D34*
X-41173Y-28839D02*
D03*
X-37764Y-26870D02*
D03*
X41469Y29232D02*
D03*
X38059Y27264D02*
D03*
D35*
X4528Y-52854D02*
D03*
Y-48917D02*
D03*
X-4331Y52264D02*
D03*
Y48327D02*
D03*
X-2559Y-38484D02*
D03*
Y-34547D02*
D03*
X-6398Y36516D02*
D03*
Y32579D02*
D03*
D36*
X-46095Y21161D02*
D03*
X-42685Y19193D02*
D03*
X45307Y-21555D02*
D03*
X41898Y-19587D02*
D03*
D37*
X-30512Y42945D02*
D03*
X-28543Y39535D02*
D03*
X28642Y-41862D02*
D03*
X26673Y-38453D02*
D03*
D38*
X21752Y44421D02*
D03*
X19783Y41012D02*
D03*
D39*
X-5906Y-29331D02*
D03*
X787D02*
D03*
D40*
X9843Y-23524D02*
D03*
X13780D02*
D03*
X-20965Y-31594D02*
D03*
X-24902D02*
D03*
X9843Y-27854D02*
D03*
X13780D02*
D03*
X9843Y-15846D02*
D03*
X13780D02*
D03*
X9843Y-10039D02*
D03*
X13780D02*
D03*
X-21358Y-12106D02*
D03*
X-25295D02*
D03*
X-21457Y-6594D02*
D03*
X-25394D02*
D03*
X13386Y-53543D02*
D03*
X9449D02*
D03*
X-50000Y-8661D02*
D03*
X-46063D02*
D03*
X-12992Y53543D02*
D03*
X-9055D02*
D03*
X50000Y8268D02*
D03*
X46063D02*
D03*
D41*
X-5610Y-9941D02*
D03*
Y-6004D02*
D03*
X4429Y-10630D02*
D03*
Y-6693D02*
D03*
X-10728Y-7283D02*
D03*
Y-3347D02*
D03*
X-22933Y-34646D02*
D03*
Y-38583D02*
D03*
X-6496Y-34547D02*
D03*
Y-38484D02*
D03*
X1772Y-34547D02*
D03*
Y-38484D02*
D03*
X9055Y4331D02*
D03*
Y394D02*
D03*
X-15650Y10335D02*
D03*
Y6398D02*
D03*
X10630Y26772D02*
D03*
Y30709D02*
D03*
X7874Y-50394D02*
D03*
Y-46457D02*
D03*
X-53150Y-13386D02*
D03*
Y-9449D02*
D03*
X-7874Y50394D02*
D03*
Y46457D02*
D03*
X53150Y13386D02*
D03*
Y9449D02*
D03*
D42*
X-57087Y0D02*
D03*
Y-3150D02*
D03*
Y12598D02*
D03*
Y6299D02*
D03*
Y-9449D02*
D03*
Y-12598D02*
D03*
Y-6299D02*
D03*
Y9449D02*
D03*
Y3150D02*
D03*
X-64173Y12598D02*
D03*
Y-9449D02*
D03*
X57087Y-12598D02*
D03*
Y12598D02*
D03*
Y9449D02*
D03*
Y6299D02*
D03*
Y3150D02*
D03*
Y0D02*
D03*
Y-3150D02*
D03*
Y-6299D02*
D03*
Y-9449D02*
D03*
X64173Y9449D02*
D03*
Y-12598D02*
D03*
D43*
X-52588Y-23088D02*
D03*
X-55738Y-17633D02*
D03*
X-43139Y-39454D02*
D03*
X-44714Y-36726D02*
D03*
X-46289Y-33999D02*
D03*
X-47864Y-31271D02*
D03*
X-49439Y-28543D02*
D03*
X-51013Y-25816D02*
D03*
X-54163Y-20360D02*
D03*
X-50851Y-40270D02*
D03*
X-61875Y-21176D02*
D03*
X55738Y17633D02*
D03*
X43139Y39454D02*
D03*
X44714Y36726D02*
D03*
X46289Y33999D02*
D03*
X47864Y31271D02*
D03*
X49439Y28543D02*
D03*
X51013Y25816D02*
D03*
X52588Y23088D02*
D03*
X54163Y20360D02*
D03*
X50851Y40270D02*
D03*
X61875Y21176D02*
D03*
D44*
X-46289Y33999D02*
D03*
X43139Y-39454D02*
D03*
X55738Y-17633D02*
D03*
X54163Y-20360D02*
D03*
X52588Y-23088D02*
D03*
X51013Y-25816D02*
D03*
X49439Y-28543D02*
D03*
X47864Y-31271D02*
D03*
X46289Y-33999D02*
D03*
X44714Y-36726D02*
D03*
X60300Y-23904D02*
D03*
X49276Y-42997D02*
D03*
X-43139Y39454D02*
D03*
X-55738Y17633D02*
D03*
X-54163Y20360D02*
D03*
X-52588Y23088D02*
D03*
X-51013Y25816D02*
D03*
X-49439Y28543D02*
D03*
X-47864Y31271D02*
D03*
X-44714Y36726D02*
D03*
X-60300Y23904D02*
D03*
X-49276Y42997D02*
D03*
D45*
X-23088Y52588D02*
D03*
X17633Y-55738D02*
D03*
X39454Y-43139D02*
D03*
X36726Y-44714D02*
D03*
X33999Y-46289D02*
D03*
X31271Y-47864D02*
D03*
X28543Y-49439D02*
D03*
X25816Y-51013D02*
D03*
X23088Y-52588D02*
D03*
X20360Y-54163D02*
D03*
X40270Y-50851D02*
D03*
X21176Y-61875D02*
D03*
X-17633Y55738D02*
D03*
X-39454Y43139D02*
D03*
X-36726Y44714D02*
D03*
X-33999Y46289D02*
D03*
X-31271Y47864D02*
D03*
X-28543Y49439D02*
D03*
X-25816Y51013D02*
D03*
X-20360Y54163D02*
D03*
X-40270Y50851D02*
D03*
X-21176Y61875D02*
D03*
D46*
X-12598Y-57087D02*
D03*
X12598D02*
D03*
X9449D02*
D03*
X6299D02*
D03*
X3150D02*
D03*
X0D02*
D03*
X-3150D02*
D03*
X-6299D02*
D03*
X-9449D02*
D03*
X9449Y-64173D02*
D03*
X-12598D02*
D03*
X12598Y57087D02*
D03*
X-12598D02*
D03*
X-9449D02*
D03*
X-6299D02*
D03*
X-3150D02*
D03*
X0D02*
D03*
X3150D02*
D03*
X6299D02*
D03*
X9449D02*
D03*
X-9449Y64173D02*
D03*
X12598D02*
D03*
D47*
X-39454Y-43139D02*
D03*
X-17633Y-55738D02*
D03*
X-20360Y-54163D02*
D03*
X-23088Y-52588D02*
D03*
X-25816Y-51013D02*
D03*
X-28543Y-49439D02*
D03*
X-31271Y-47864D02*
D03*
X-33999Y-46289D02*
D03*
X-36726Y-44714D02*
D03*
X-23904Y-60300D02*
D03*
X-42997Y-49276D02*
D03*
X39454Y43139D02*
D03*
X17633Y55738D02*
D03*
X20360Y54163D02*
D03*
X23088Y52588D02*
D03*
X25816Y51013D02*
D03*
X28543Y49439D02*
D03*
X31271Y47864D02*
D03*
X33999Y46289D02*
D03*
X36726Y44714D02*
D03*
X23904Y60300D02*
D03*
X42997Y49276D02*
D03*
D48*
X22736Y26575D02*
D03*
Y10433D02*
D03*
X16437Y26575D02*
D03*
Y10433D02*
D03*
D49*
X52756Y-15094D02*
D03*
X50787Y-18504D02*
D03*
X-17913Y-47768D02*
D03*
X-15945Y-44358D02*
D03*
X-52953Y14831D02*
D03*
X-50984Y18240D02*
D03*
X18110Y46457D02*
D03*
X16142Y43047D02*
D03*
D50*
X47374Y-17913D02*
D03*
X43964Y-15945D02*
D03*
X-15224Y-52953D02*
D03*
X-18634Y-50984D02*
D03*
X-48162Y17520D02*
D03*
X-44752Y15551D02*
D03*
X15224Y52165D02*
D03*
X18634Y50197D02*
D03*
D51*
X38319Y-39567D02*
D03*
X34909Y-41535D02*
D03*
X-39106Y-32480D02*
D03*
X-35697Y-30512D02*
D03*
X-38319Y39567D02*
D03*
X-34909Y41535D02*
D03*
X39370Y32677D02*
D03*
X35961Y30709D02*
D03*
D52*
X32480Y-39500D02*
D03*
X30512Y-36090D02*
D03*
X-39567Y-38319D02*
D03*
X-41535Y-34909D02*
D03*
X-32677Y39236D02*
D03*
X-30709Y35827D02*
D03*
X39567Y38319D02*
D03*
X41535Y34909D02*
D03*
D83*
X-5500Y47803D02*
G03*
X-4522Y48136I148J1172D01*
G01*
X-5500Y47803D02*
G03*
X-5579Y47812I-215J-1560D01*
G01*
X-6982Y47578D02*
G03*
X-6573Y47686I-93J1177D01*
G01*
X-5769Y47829D02*
G03*
X-6573Y47686I-136J-1569D01*
G01*
X-19615Y-35921D02*
G03*
X-19360Y-35709I-1252J1767D01*
G01*
X-19336Y-35686D02*
G03*
X-19360Y-35709I1411J-1510D01*
G01*
X-9935Y12598D02*
G03*
X-8875Y13287I-14J1181D01*
G01*
X65Y-7377D02*
G03*
X173Y-6882I-1073J495D01*
G01*
X785Y-6056D02*
G03*
X1530Y-5238I-399J1112D01*
G01*
X1600Y-5014D02*
G03*
X1531Y-5235I1935J-728D01*
G01*
X-2498Y-32777D02*
G03*
X-2756Y-33957I863J-807D01*
G01*
X4462Y30490D02*
G03*
X4626Y31213I-1900J813D01*
G01*
X-2065Y-4182D02*
G03*
X-1969Y-3715I-1085J467D01*
G01*
X-2535Y-5268D02*
G03*
X-2506Y-5207I-1052J538D01*
G01*
X-2559Y-5315D02*
G03*
X-2553Y-5303I-1046J549D01*
G01*
X-6985Y47578D02*
X-6982Y47578D01*
X-4522Y48136D02*
X-4331Y48327D01*
X-7480Y47539D02*
X-6985Y47578D01*
X-5500Y47803D02*
Y47803D01*
X-5769Y47829D02*
X-5579Y47812D01*
X-15607Y16714D02*
X-15593Y16727D01*
X-15607Y16713D02*
Y16714D01*
X-38931Y-38633D02*
X-37025Y-38277D01*
X-39567Y-38319D02*
X-38931Y-38633D01*
X-22539Y-37992D02*
X-19615Y-35921D01*
X-19336Y-35686D02*
X-18012Y-34449D01*
X-22933Y-38583D02*
X-22539Y-37992D01*
X4331Y4429D02*
X4429Y2953D01*
X-395Y-8374D02*
X65Y-7377D01*
X-9941Y12598D02*
X-9935Y12598D01*
X-8957Y13287D02*
X-8875D01*
X-8957D02*
X-8661Y13583D01*
X-12205Y12598D02*
X-9941D01*
X173Y-6882D02*
Y-6535D01*
X118Y-6299D02*
X173Y-6535D01*
X785Y-6056D02*
X785D01*
X472Y-6063D02*
X785Y-6056D01*
X-15413Y16535D02*
X-12205D01*
X-15650Y16752D02*
X-15628Y16732D01*
X-15413Y16535D01*
X10236Y26378D02*
X10630Y26772D01*
X6693Y26378D02*
X10236D01*
X1600Y-5014D02*
X1969Y-4035D01*
X1530Y-5238D02*
X1531Y-5235D01*
X-2756Y-33957D02*
X-2756Y-33957D01*
X-2498Y-32777D02*
X-197Y-30315D01*
X787Y-29331D01*
X4134Y29724D02*
X4462Y30490D01*
X-1969Y-3715D02*
X-1969Y-3715D01*
X-2506Y-5207D02*
X-2504Y-5202D01*
X-2553Y-5303D02*
X-2535Y-5268D01*
X118Y-6299D02*
X472Y-6063D01*
X1969Y-4035D02*
Y-3445D01*
X0Y-6063D02*
Y-3445D01*
Y-6063D02*
X118Y-6299D01*
X-2504Y-5202D02*
X-2065Y-4182D01*
X-1969Y-3715D02*
Y-3445D01*
X4866Y31801D02*
X5000Y31890D01*
X4646Y31653D02*
X4866Y31801D01*
X4626Y31213D02*
X4646Y31653D01*
X4134Y28937D02*
Y29724D01*
X-2735Y-34019D02*
X-2559Y-34547D01*
X-2756Y-33957D02*
X-2735Y-34019D01*
X-15413Y14508D02*
X-12992Y14567D01*
X-12205D01*
X-15650Y14153D02*
X-15413Y14508D01*
D84*
X5317Y42944D02*
G03*
X6248Y43408I-291J1748D01*
G01*
X5313Y42943D02*
G03*
X5246Y42930I294J-1747D01*
G01*
X-10879Y8252D02*
G03*
X-12275Y9460I-1452J-268D01*
G01*
X-12613Y9507D02*
G03*
X-12275Y9460I416J1722D01*
G01*
X-13522Y9610D02*
G03*
X-13187Y9576I341J1739D01*
G01*
X-14256Y9756D02*
G03*
X-14211Y9747I378J1731D01*
G01*
X-12613Y9507D02*
G03*
X-13187Y9576I-567J-2293D01*
G01*
X-23880Y-40372D02*
G03*
X-24060Y-40676I1427J-1049D01*
G01*
X-23880Y-40372D02*
G03*
X-23785Y-40228I-1427J1049D01*
G01*
X-23207Y-39205D02*
G03*
X-23210Y-39210I1564J-831D01*
G01*
X-23468Y-39695D02*
G03*
X-23423Y-39615I-1522J906D01*
G01*
X-23103Y-39011D02*
G03*
X-22984Y-38735I-1562J837D01*
G01*
X6248Y43408D02*
X6253Y43413D01*
X6299Y43458D01*
X5313Y42943D02*
X5317Y42944D01*
X4233Y42719D02*
X5246Y42930D01*
X-15636Y10343D02*
X-15551Y10039D01*
X-10879Y8252D02*
X-10835Y8015D01*
X-14211Y9747D02*
X-13522Y9610D01*
X-15551Y10039D02*
X-14256Y9756D01*
X-10835Y8015D02*
X-10677Y7158D01*
X-24508Y-41634D02*
X-24060Y-40676D01*
X-24060Y-40676D01*
X-23423Y-39615D02*
X-23210Y-39210D01*
X-23785Y-40228D02*
X-23468Y-39695D01*
X-23207Y-39205D02*
X-23103Y-39011D01*
X-22984Y-38735D02*
X-22933Y-38583D01*
X-15650Y10335D02*
Y14153D01*
D85*
X49098Y-13529D02*
G03*
X49117Y-13661I2055J221D01*
G01*
X48750Y-13409D02*
G03*
X48198Y-12875I-1339J-829D01*
G01*
X47960Y-12737D02*
G03*
X47896Y-12702I-787J-1364D01*
G01*
X36081Y-35660D02*
G03*
X36031Y-35783I1890J-836D01*
G01*
X35839Y-35382D02*
G03*
X35629Y-34644I-1574J-49D01*
G01*
X35491Y-34405D02*
G03*
X34640Y-33703I-1364J-787D01*
G01*
X12955Y-49512D02*
G03*
X12849Y-49594I1219J-1669D01*
G01*
X13071Y-48130D02*
G03*
X12747Y-47173I-1575J0D01*
G01*
X12884Y-49150D02*
G03*
X13071Y-48406I-1388J745D01*
G01*
X-47539Y-13465D02*
G03*
X-47187Y-13425I0J1575D01*
G01*
X-48560Y-13277D02*
G03*
X-47815Y-13465I745J1388D01*
G01*
X-48921Y-13348D02*
G03*
X-49003Y-13243I-1669J-1219D01*
G01*
X-48230Y12123D02*
G03*
X-48163Y12087I783J1367D01*
G01*
X-49025Y12798D02*
G03*
X-48474Y12264I1339J829D01*
G01*
X-49374Y12918D02*
G03*
X-49392Y13050I-2055J-221D01*
G01*
X-36081Y35660D02*
G03*
X-36031Y35783I-1890J836D01*
G01*
X-35710Y34804D02*
G03*
X-35629Y34644I1445J627D01*
G01*
X-35493Y34408D02*
G03*
X-35380Y34238I1365J785D01*
G01*
X13174Y48325D02*
G03*
X13306Y48343I-221J2055D01*
G01*
X13055Y47976D02*
G03*
X12520Y47425I829J-1339D01*
G01*
X12380Y47183D02*
G03*
X12354Y47135I1366J-784D01*
G01*
X35630Y35938D02*
G03*
X34925Y35746I49J-1574D01*
G01*
X-13055Y-48764D02*
G03*
X-12520Y-48212I-829J1339D01*
G01*
X-12382Y-47974D02*
G03*
X-12376Y-47962I-1364J787D01*
G01*
X48823Y13073D02*
G03*
X48905Y12968I1669J1219D01*
G01*
X45885Y13155D02*
G03*
X45773Y13088I961J-1718D01*
G01*
X48461Y13002D02*
G03*
X47717Y13189I-745J-1388D01*
G01*
X47441D02*
G03*
X47343Y13186I0J-1575D01*
G01*
X-13174Y-49112D02*
G03*
X-13306Y-49131I221J-2055D01*
G01*
X-16077Y45281D02*
G03*
X-16134Y45179I3577J-2072D01*
G01*
X-27344Y-31079D02*
G03*
X-26400Y-31440I1152J1596D01*
G01*
X-10728Y-2886D02*
G03*
X-10807Y-2336I-1969J0D01*
G01*
X-10890Y-1852D02*
G03*
X-11093Y-1080I-1966J-104D01*
G01*
X-10890Y-1852D02*
G03*
X-10810Y-2324I1966J90D01*
G01*
X-4823Y-12697D02*
G03*
X-3051Y-10925I0J1772D01*
G01*
X-2432Y-6004D02*
G03*
X-2547Y-5348I-1969J-8D01*
G01*
X-2435Y-6129D02*
G03*
X-2432Y-6004I-1965J117D01*
G01*
X-3051Y-8957D02*
G03*
X-4207Y-7296I-1772J0D01*
G01*
X2603Y-8210D02*
G03*
X1870Y-9646I1038J-1436D01*
G01*
X4664Y-4733D02*
G03*
X4856Y-4311I-1684J1020D01*
G01*
X4633Y-4784D02*
G03*
X4354Y-5767I1689J-1011D01*
G01*
X-12797Y49315D02*
G03*
X-12692Y49397I-1219J1669D01*
G01*
X-37321Y-40945D02*
G03*
X-36655Y-40520I-706J1838D01*
G01*
X-37326Y-40947D02*
G03*
X-37972Y-41407I561J-1472D01*
G01*
X8856Y29520D02*
G03*
X9379Y29728I-313J1543D01*
G01*
X8750Y29498D02*
G03*
X8524Y29438I391J-1929D01*
G01*
X5709Y29803D02*
G03*
X6392Y29510I945J1260D01*
G01*
X7148Y29379D02*
G03*
X8524Y29438I586J2390D01*
G01*
X7148Y29379D02*
G03*
X6992Y29411I-473J-1911D01*
G01*
X6220Y-3215D02*
G03*
X4857Y-4308I138J-1569D01*
G01*
X5090Y30878D02*
G03*
X5709Y29803I1564J185D01*
G01*
X-12376Y-47962D02*
X-11867Y-47064D01*
X-11674Y-48951D01*
X48937Y-12028D02*
X49098Y-13529D01*
X49117Y-13661D02*
X49199Y-14134D01*
X46555Y-12008D02*
X48937Y-12028D01*
X47960Y-12737D02*
X48198Y-12875D01*
X48750Y-13409D02*
X49199Y-14134D01*
X46555Y-12008D02*
X47896Y-12702D01*
X35866Y-36234D02*
X36031Y-35783D01*
X36081Y-35660D02*
X36692Y-34280D01*
X34249Y-33569D02*
X36692Y-34280D01*
X35491Y-34405D02*
X35629Y-34644D01*
X34249Y-33569D02*
X34640Y-33703D01*
X35839Y-35382D02*
X35866Y-36234D01*
X12955Y-49512D02*
X14173Y-48622D01*
X13071Y-48406D02*
Y-48130D01*
X12500Y-46850D02*
X14173Y-48622D01*
X12480Y-49902D02*
X12849Y-49594D01*
X12500Y-46850D02*
X12747Y-47173D01*
X12480Y-49902D02*
X12884Y-49150D01*
X-47815Y-13465D02*
X-47539D01*
X-47187Y-13425D02*
X-46161Y-13189D01*
X-49311Y-12874D02*
X-48560Y-13277D01*
X-48921Y-13348D02*
X-48031Y-14567D01*
X-49311Y-12874D02*
X-49003Y-13243D01*
X-48031Y-14567D02*
X-46161Y-13189D01*
X-48474Y12264D02*
X-48230Y12123D01*
X-49474Y13523D02*
X-49025Y12798D01*
X-48163Y12087D02*
X-46850Y11417D01*
X-49374Y12918D02*
X-49213Y11417D01*
X-49474Y13523D02*
X-49392Y13050D01*
X-49213Y11417D02*
X-46850D01*
X-36081Y35660D02*
X-35710Y34804D01*
X-35380Y34238D02*
X-34941Y33661D01*
X-36634Y34411D02*
X-36081Y35660D01*
X-36692Y34280D02*
X-36634Y34411D01*
X-35629Y34644D02*
X-35493Y34408D01*
X-36692Y34280D02*
X-34941Y33661D01*
X-36031Y35783D02*
X-35866Y36234D01*
X11674Y48164D02*
X13174Y48325D01*
X13055Y47976D02*
X13780Y48425D01*
X12380Y47183D02*
X12520Y47425D01*
X13306Y48343D02*
X13780Y48425D01*
X11319Y45177D02*
X11674Y48164D01*
X11319Y45177D02*
X12354Y47135D01*
X34864Y36648D02*
X36482Y35964D01*
X34350Y35433D02*
X34528Y36790D01*
X34864Y36648D01*
X35630Y35938D02*
X36482Y35964D01*
X34350Y35433D02*
X34925Y35746D01*
X-13780Y-49213D02*
X-13055Y-48764D01*
X-12520Y-48212D02*
X-12382Y-47974D01*
X48905Y12968D02*
X49213Y12598D01*
X47933Y14291D02*
X48823Y13073D01*
X45773Y13088D02*
X45773Y13088D01*
X47441Y13189D02*
X47717D01*
X45773Y13088D02*
X47343Y13186D01*
X48461Y13002D02*
X49213Y12598D01*
X-13780Y-49213D02*
X-13306Y-49131D01*
X-13174Y-49112D02*
X-11674Y-48951D01*
X-34255Y-35929D02*
X-33661Y-35948D01*
X-36234Y-35866D02*
X-34255Y-35929D01*
X-34280Y-36692D02*
X-33661Y-35948D01*
X-36234Y-35866D02*
X-34280Y-36692D01*
X-22933Y-34646D02*
X-20866Y-34154D01*
X-14016Y48425D02*
X-12797Y49315D01*
X-12692Y49397D02*
X-12323Y49705D01*
X-26400Y-31440D02*
X-26394Y-31441D01*
X-27344Y-31079D02*
X-27344Y-31079D01*
X-26394Y-31441D02*
X-24902Y-31594D01*
X-11112Y-1042D02*
X-11093Y-1080D01*
X-10810Y-2324D02*
X-10807Y-2336D01*
X-10728Y-3347D02*
Y-2886D01*
X-2559Y-5315D02*
Y-5315D01*
X-5315Y-12697D02*
X-4823D01*
X-2549Y-5342D02*
X-2547Y-5348D01*
X-2559Y-5315D02*
X-2549Y-5342D01*
X-2435Y-6129D02*
X-2435D01*
X-3051Y-10925D02*
Y-8957D01*
X-2432Y-6004D02*
X-2423D01*
X-5610D02*
X-2432D01*
X-4207Y-7296D02*
X-4207Y-7296D01*
X-5610Y-6201D02*
X-4207Y-7296D01*
X-5610Y-6201D02*
Y-6004D01*
X4387Y-6920D02*
X4429Y-6890D01*
X4387Y-6920D02*
X4387Y-6920D01*
X2603Y-8210D02*
X2603Y-8210D01*
X4387Y-6920D01*
X1870Y-11614D02*
Y-9646D01*
X4633Y-4784D02*
X4664Y-4733D01*
X4429Y-6890D02*
Y-6693D01*
X13780Y-23524D02*
X15650Y-23720D01*
X-45472Y-51870D02*
X-42997Y-49276D01*
X-16135Y45177D02*
X-16134Y45179D01*
X-36655Y-40520D02*
X-36655Y-40519D01*
X-37326Y-40947D02*
X-37321Y-40945D01*
X-38791Y-42385D02*
X-37972Y-41407D01*
X8750Y29498D02*
X8856Y29520D01*
X6392Y29510D02*
X6992Y29411D01*
X8524Y29438D02*
X8524Y29438D01*
X7148Y29379D02*
Y29379D01*
X6220Y-3215D02*
X7185Y-3130D01*
X4856Y-4311D02*
X4857Y-4308D01*
X9646Y-10039D02*
X9843D01*
X7185Y-5728D02*
X9646Y-10039D01*
X3633Y-6136D02*
X4429Y-6693D01*
X-39454Y-43139D02*
X-38791Y-42385D01*
X9440Y29766D02*
X10630Y30512D01*
X9379Y29728D02*
X9440Y29766D01*
X45885Y13155D02*
X47933Y14291D01*
X10630Y30512D02*
Y30709D01*
X13780Y-27854D02*
X15650Y-27756D01*
X13780Y-15846D02*
X15650D01*
X9055Y197D02*
Y394D01*
X7185Y-3130D02*
X9055Y197D01*
X1378Y-40256D02*
X1772Y-38484D01*
X-6496Y-38484D02*
X-6398Y-40059D01*
X-16077Y45281D02*
X-14195Y48530D01*
D86*
X-9509Y49161D02*
G03*
X-9856Y48887I793J-1360D01*
G01*
X-11083Y47452D02*
G03*
X-10767Y47797I-989J1226D01*
G01*
X-9528Y49742D02*
G03*
X-9543Y49899I-1180J-37D01*
G01*
X-14187Y43841D02*
G03*
X-14055Y44058I-1948J1336D01*
G01*
X-13993Y44162D02*
G03*
X-14055Y44058I1493J-954D01*
G01*
X-12543Y46285D02*
G03*
X-12876Y45911I994J-1222D01*
G01*
X-9724Y50984D02*
X-9578Y50109D01*
X-9543Y49899D01*
X-10455Y48258D02*
X-9856Y48887D01*
X-9509Y49161D02*
X-8071Y50000D01*
X-9528Y49742D02*
X-9509Y49161D01*
X-13993Y44162D02*
X-13050Y45638D01*
X-15295Y42224D02*
X-14187Y43841D01*
X-13050Y45638D02*
X-12876Y45911D01*
X-14055Y44058D02*
X-14055Y44058D01*
X-12543Y46285D02*
X-12537Y46289D01*
X-11088Y47448D01*
X-9724Y50984D02*
X-7874Y50394D01*
X-11088Y47448D02*
X-11083Y47452D01*
X-10457Y48256D02*
X-10455Y48258D01*
X-8071Y50000D02*
X-7874Y50394D01*
X-10767Y47797D02*
X-10457Y48256D01*
D87*
X-19390Y0D02*
G03*
X-19390Y42I-2657J0D01*
G01*
X-19393Y7125D02*
G03*
X-19490Y6371I2560J-713D01*
G01*
X42332Y35365D02*
G03*
X42601Y35544I-1172J2051D01*
G01*
X-51803Y18817D02*
G03*
X-51904Y18887I-1395J-1906D01*
G01*
X-18700Y-51076D02*
G03*
X-18853Y-51334I1952J-1331D01*
G01*
X-19197Y-51885D02*
G03*
X-18853Y-51335I-1644J1409D01*
G01*
X-19591Y-52542D02*
G03*
X-19591Y-52543I2196J-871D01*
G01*
X-19197Y-51885D02*
G03*
X-19591Y-52542I1801J-1528D01*
G01*
X-43570Y-35838D02*
G03*
X-44125Y-36277I1169J-2053D01*
G01*
X-44284Y-36478D02*
G03*
X-44295Y-36484I1164J-2056D01*
G01*
X-44283Y-36478D02*
G03*
X-44284Y-36478I1163J-2056D01*
G01*
X-20051Y-53628D02*
G03*
X-19903Y-53321I-2046J1181D01*
G01*
X-19393Y7125D02*
X-17945Y12326D01*
X-8366Y-52067D02*
X-7579Y-50886D01*
X-19390Y-197D02*
Y0D01*
X-19490Y6371D02*
X-19390Y42D01*
X-19591Y-52543D02*
X-19591Y-52542D01*
X42627Y35533D02*
X44714Y36726D01*
X42623Y35531D02*
X42627Y35533D01*
X42601Y35544D02*
X42615Y35554D01*
X42332Y35365D02*
X42332D01*
X18836Y50695D02*
X19967Y53481D01*
X18634Y50197D02*
X18836Y50695D01*
X54232Y9449D02*
X57087D01*
X53150D02*
X54232D01*
X51736Y-19026D02*
X54163Y-20360D01*
X50787Y-18504D02*
X51736Y-19026D01*
X35428Y-42442D02*
X35445Y-42473D01*
X35445D02*
X35445D01*
X35445D02*
X36726Y-44714D01*
X35445Y-42473D02*
X35450Y-42469D01*
X35445Y-42473D02*
X35445Y-42473D01*
X9449Y-54638D02*
X9467D01*
X9449Y-57087D02*
Y-54638D01*
Y-53543D01*
X-9449Y56299D02*
X-9210Y54626D01*
X-9055Y53543D01*
X-35430Y42448D02*
X-35427Y42450D01*
X-35431Y42448D02*
X-35430Y42448D01*
X-35449Y42479D02*
X-35431Y42448D01*
X-34909Y41535D01*
X-51909Y18890D02*
X-51904Y18887D01*
X-18700Y-51076D02*
X-18640Y-50988D01*
X-19197Y-51885D02*
X-19197Y-51885D01*
X-19903Y-53321D02*
X-19591Y-52543D01*
X-54232Y-9449D02*
X-53150D01*
X-57087D02*
X-54232D01*
X-43499Y-35797D02*
X-43419Y-35751D01*
X-43525Y-35812D02*
X-43499Y-35797D01*
X-43570Y-35838D02*
X-43525Y-35812D01*
X-44283Y-36478D02*
X-43395Y-35976D01*
X-44284Y-36478D02*
X-44283Y-36478D01*
X-44125Y-36277D02*
X-44078Y-36359D01*
X-44302Y-36488D02*
X-44295Y-36484D01*
X-12992Y53543D02*
X-12598Y56299D01*
Y57087D01*
X-44714Y-36726D02*
X-44078Y-36359D01*
X-43419Y-35751D02*
X-41535Y-34909D01*
X-44714Y-36726D02*
X-44302Y-36488D01*
X42615Y35554D02*
X42615Y35554D01*
X41535Y34909D02*
X42332Y35365D01*
X-36726Y44714D02*
X-35449Y42479D01*
X35450Y-42469D02*
X35454D01*
X34909Y-41535D02*
X35428Y-42442D01*
X-51803Y18817D02*
X-51112Y18314D01*
X-18640Y-50988D02*
X-18634Y-50984D01*
X-20360Y-54163D02*
X-20051Y-53628D01*
X-17633Y-55738D02*
X-15224Y-52953D01*
X-54163Y20360D02*
X-51909Y18890D01*
X19967Y53481D02*
X20360Y54163D01*
X-9449Y56299D02*
Y57087D01*
X-39454Y43139D02*
X-38319Y39567D01*
X-55738Y17633D02*
X-52953Y14831D01*
X-57087Y-12598D02*
X-53150Y-13386D01*
X-43139Y-39454D02*
X-39567Y-38319D01*
X12598Y-57087D02*
X13386Y-53543D01*
X38319Y-39567D02*
X39454Y-43139D01*
X52756Y-15094D02*
X55738Y-17633D01*
X53150Y13386D02*
X57087Y12598D01*
X39567Y38319D02*
X43139Y39454D01*
X15224Y52165D02*
X17633Y55738D01*
D88*
X-6840Y-42449D02*
G03*
X-6894Y-42976I3096J-579D01*
G01*
X-7532Y-50780D02*
G03*
X-7154Y-49227I-4142J1829D01*
G01*
X-6936Y-45649D02*
G03*
X-6930Y-45507I-3046J186D01*
G01*
X-6894Y-42983D02*
X-6894Y-42976D01*
X-6840Y-42449D02*
X-6398Y-40059D01*
X-6930Y-45507D02*
X-6894Y-42983D01*
X-7579Y-50886D02*
X-7532Y-50780D01*
X-7155Y-49227D02*
X-6936Y-45649D01*
D89*
X-43525Y-35812D02*
D03*
D90*
X7283Y-101969D02*
D03*
X2362D02*
D03*
X-2559D02*
D03*
X-7480D02*
D03*
D91*
X4233Y42719D02*
D03*
X1880Y42928D02*
D03*
X-984Y43409D02*
D03*
X-3254Y42754D02*
D03*
X-5906Y41929D02*
D03*
X-10276Y42421D02*
D03*
X-8357Y43799D02*
D03*
X55Y31107D02*
D03*
X2528Y31225D02*
D03*
X-17618Y18799D02*
D03*
X-14746Y19171D02*
D03*
X-15593Y16727D02*
D03*
X-26860Y30874D02*
D03*
X-24918Y29528D02*
D03*
X-21280Y28662D02*
D03*
X-22547Y30656D02*
D03*
X10728Y11998D02*
D03*
X9920Y14218D02*
D03*
X14674Y15596D02*
D03*
X8399Y11272D02*
D03*
X-13878Y-37106D02*
D03*
X-12894Y-39272D02*
D03*
X-15930Y-38461D02*
D03*
X7677Y-39173D02*
D03*
X16947Y-40523D02*
D03*
X18209Y-42520D02*
D03*
X-4528Y-51870D02*
D03*
X-2603Y-53477D02*
D03*
X-3814Y-47040D02*
D03*
X-18874Y-51381D02*
D03*
X-18242Y-48317D02*
D03*
X-15894Y-45031D02*
D03*
X-11867Y-47064D02*
D03*
X-9981Y-45463D02*
D03*
X14567Y-62894D02*
D03*
X23130Y-56988D02*
D03*
X21049Y-61704D02*
D03*
X17118Y-53863D02*
D03*
X16929Y-63189D02*
D03*
X18723Y-52130D02*
D03*
X25526Y-56747D02*
D03*
X54487Y-9831D02*
D03*
X30512Y-36090D02*
D03*
X11319Y45177D02*
D03*
X34350Y35433D02*
D03*
X30217Y35039D02*
D03*
X-33661Y-35948D02*
D03*
X-21457Y-25886D02*
D03*
X-21260Y-18012D02*
D03*
X-5512Y-22835D02*
D03*
X-17925Y-37196D02*
D03*
X-20866Y-34154D02*
D03*
X-1181Y-60532D02*
D03*
X-4760Y-60487D02*
D03*
X-492Y-58169D02*
D03*
X1899Y-50177D02*
D03*
X1516Y-47756D02*
D03*
X-28346Y-9902D02*
D03*
X-30703Y-9735D02*
D03*
X-30433Y-6004D02*
D03*
X-26676Y-6155D02*
D03*
X28069Y-6327D02*
D03*
X28642Y-4035D02*
D03*
X32382Y-4528D02*
D03*
X33169Y-6890D02*
D03*
X20522Y-1906D02*
D03*
X21063Y394D02*
D03*
X21813Y2646D02*
D03*
X23097Y7185D02*
D03*
X22583Y4879D02*
D03*
X28642Y-1673D02*
D03*
X23809Y9733D02*
D03*
X12894Y3740D02*
D03*
X12500Y-46850D02*
D03*
X19429Y-27852D02*
D03*
X44587Y-29725D02*
D03*
X44582Y-27363D02*
D03*
X47678Y-23987D02*
D03*
X46556Y-26066D02*
D03*
X42815Y-31299D02*
D03*
X41554Y-33296D02*
D03*
X42224Y-35630D02*
D03*
X41845Y-38138D02*
D03*
X34249Y-33569D02*
D03*
X19203Y-39587D02*
D03*
X21457Y-38878D02*
D03*
X26248Y-38979D02*
D03*
X23886Y-38940D02*
D03*
X37637Y-4894D02*
D03*
X35421Y-5714D02*
D03*
X37992Y-2559D02*
D03*
X40748Y-4528D02*
D03*
X43110Y-5610D02*
D03*
X45669Y-6201D02*
D03*
X47760Y-7301D02*
D03*
X47020Y-9551D02*
D03*
X4331Y4429D02*
D03*
X30719Y16122D02*
D03*
X30413Y13780D02*
D03*
X46088Y4254D02*
D03*
X33735Y18431D02*
D03*
X33111Y16036D02*
D03*
X36122Y18504D02*
D03*
X46047Y8292D02*
D03*
X52817Y3564D02*
D03*
X31155Y32872D02*
D03*
X27787Y35275D02*
D03*
X24979Y37213D02*
D03*
X27362Y37598D02*
D03*
X24016Y39370D02*
D03*
X20071Y40682D02*
D03*
X21644Y38919D02*
D03*
X19390Y21850D02*
D03*
X1397Y33365D02*
D03*
X-2339Y34384D02*
D03*
X-2756Y25394D02*
D03*
X-8661Y25394D02*
D03*
X-16135Y45177D02*
D03*
X-15295Y42224D02*
D03*
X-18504Y44783D02*
D03*
X-38014Y-26291D02*
D03*
X-37888Y-23933D02*
D03*
X-40648Y-25845D02*
D03*
X-27344Y-31079D02*
D03*
X-42913Y6201D02*
D03*
X-44889Y4688D02*
D03*
X-47244Y4921D02*
D03*
X-49729Y-475D02*
D03*
X-48923Y3178D02*
D03*
X-47712Y1149D02*
D03*
X-45965Y-4134D02*
D03*
X-48082Y-2258D02*
D03*
X-46752Y-8662D02*
D03*
X-30807Y30413D02*
D03*
X-28810Y29152D02*
D03*
X-18996Y29921D02*
D03*
X-37199Y21799D02*
D03*
X-33328Y22058D02*
D03*
X-29763Y21993D02*
D03*
X-39040Y20051D02*
D03*
X-41038Y21311D02*
D03*
X-35314Y20375D02*
D03*
X-31574Y20476D02*
D03*
X-42726Y19186D02*
D03*
X1998Y4820D02*
D03*
X-16833Y6413D02*
D03*
X-5334Y5035D02*
D03*
X-9477Y4714D02*
D03*
X-13199Y1762D02*
D03*
X-13180Y7214D02*
D03*
X-13285Y4854D02*
D03*
X-325Y6697D02*
D03*
X-17945Y12326D02*
D03*
X-2559Y-5315D02*
D03*
X-395Y-8374D02*
D03*
X-8268Y-6684D02*
D03*
X16584Y43159D02*
D03*
X18036Y45022D02*
D03*
X10473Y27464D02*
D03*
X7758Y31785D02*
D03*
X14726Y18785D02*
D03*
X16535Y17224D02*
D03*
X-8661Y19488D02*
D03*
X3150D02*
D03*
X-2756Y13583D02*
D03*
X3150Y13583D02*
D03*
X3150Y25394D02*
D03*
X-8661Y13583D02*
D03*
X-5610Y-9941D02*
D03*
X19410Y-23681D02*
D03*
X64075Y3051D02*
D03*
X1870Y-35827D02*
D03*
X-6398Y-35827D02*
D03*
X-36292Y-48943D02*
D03*
X-54426Y-16669D02*
D03*
X-45472Y-51870D02*
D03*
X-51993Y-40176D02*
D03*
X-13408Y-44885D02*
D03*
X-23008Y-52312D02*
D03*
X9055Y-37205D02*
D03*
X10719Y-38967D02*
D03*
X-26082Y-2437D02*
D03*
X-23984Y-1352D02*
D03*
X-22047Y0D02*
D03*
X-7480Y47539D02*
D03*
X-17854Y41833D02*
D03*
X11319Y30020D02*
D03*
X17419Y23291D02*
D03*
X38059Y27264D02*
D03*
X-26785Y-43110D02*
D03*
X-36655Y-40519D02*
D03*
X-24508Y-41634D02*
D03*
X-7776Y-49803D02*
D03*
X-8366Y-52067D02*
D03*
X-10630Y-6684D02*
D03*
X4429Y-9941D02*
D03*
X9843Y-10039D02*
D03*
X3535Y-5742D02*
D03*
X-11112Y-1042D02*
D03*
X-28839Y-36417D02*
D03*
X-43395Y-35976D02*
D03*
X62000Y21261D02*
D03*
X38295Y41058D02*
D03*
X42615Y35554D02*
D03*
X51209Y40524D02*
D03*
X-41240Y37894D02*
D03*
X-35427Y42450D02*
D03*
X-30905Y36416D02*
D03*
X21654Y59547D02*
D03*
X20307Y50099D02*
D03*
X22528Y26403D02*
D03*
X45773Y13088D02*
D03*
X63494Y9074D02*
D03*
X54181Y16255D02*
D03*
X-40962Y-19678D02*
D03*
X-19879Y-38673D02*
D03*
X-31182Y-31142D02*
D03*
X-35584Y-30444D02*
D03*
X-30827Y-12205D02*
D03*
X-62897Y-21162D02*
D03*
X35454Y-42469D02*
D03*
X54232Y9449D02*
D03*
X43241Y49948D02*
D03*
X66634Y-13703D02*
D03*
X55730Y-12106D02*
D03*
X51736Y-19026D02*
D03*
X50369Y-43264D02*
D03*
X60404Y-23958D02*
D03*
X40538Y-51250D02*
D03*
X17815Y-82284D02*
D03*
X5813Y-89346D02*
D03*
X13288Y-82288D02*
D03*
X9449Y-64173D02*
D03*
X9744Y-59646D02*
D03*
X4724Y-60630D02*
D03*
X-54232Y-9449D02*
D03*
X-51873Y18866D02*
D03*
X-49276Y42997D02*
D03*
X-40270Y50851D02*
D03*
X-55812Y12576D02*
D03*
X-60300Y23904D02*
D03*
X-64837Y12572D02*
D03*
X-44783Y-29724D02*
D03*
X-23031Y-58563D02*
D03*
X-27264Y-71555D02*
D03*
X-31791Y-69587D02*
D03*
X-41836Y-21872D02*
D03*
X-43898Y-27461D02*
D03*
X-38750Y-32614D02*
D03*
X41898Y-19587D02*
D03*
X-21176Y61875D02*
D03*
X-2559Y-38484D02*
D03*
X1378Y-40256D02*
D03*
X-5906Y-29331D02*
D03*
X-20965Y-31594D02*
D03*
X9843Y-27854D02*
D03*
Y-23524D02*
D03*
X9843Y-15846D02*
D03*
X9055Y4331D02*
D03*
X19390Y-15748D02*
D03*
Y-9843D02*
D03*
X-2756Y19488D02*
D03*
X-9449Y64173D02*
D03*
X-17633Y55738D02*
D03*
X12598Y57087D02*
D03*
X-6398Y-40059D02*
D03*
X15650Y-27756D02*
D03*
Y-23720D02*
D03*
Y-15846D02*
D03*
X15453Y-10039D02*
D03*
X-21358Y-12106D02*
D03*
X-21457Y-6594D02*
D03*
X-26772Y-12106D02*
D03*
X-45669Y16142D02*
D03*
X7874Y-46850D02*
D03*
X7874Y-50787D02*
D03*
X-50000Y-9650D02*
D03*
X-46161Y-13189D02*
D03*
X9467Y-54638D02*
D03*
X-9210Y54626D02*
D03*
X-34941Y33661D02*
D03*
X12598Y64173D02*
D03*
X-64173Y-9449D02*
D03*
X6496Y-80610D02*
D03*
X5315Y-77067D02*
D03*
X-12574Y-57308D02*
D03*
X-46850Y11417D02*
D03*
X35961Y30709D02*
D03*
X46555Y-12008D02*
D03*
X43964Y-15945D02*
D03*
X-22638Y-78642D02*
D03*
X-18406Y-80315D02*
D03*
X39370Y32677D02*
D03*
X50000Y8268D02*
D03*
X47244Y-18110D02*
D03*
X32283Y-39370D02*
D03*
X-32677Y39370D02*
D03*
X-48031Y17717D02*
D03*
M02*
