M48
;Layer_Color=9474304
;FILE_FORMAT=2:5
INCH,LZ
;TYPE=PLATED
T1F00S00C0.00787
T2F00S00C0.01968
;TYPE=NON_PLATED
T3F00S00C0.07874
%
T01
X0006488Y-0089662
X0006496Y-008061
X0005315Y-0077067
X0009364Y-0064678
X0014173Y-0062992
X0014075Y-0067716
X0021358Y-0064173
X0021934Y-0057232
X0024016Y-0056102
X0026202Y-0054897
X0027676Y-0047882
X0019287Y-0048655
X0015846Y-004685
X00125
X0007874Y-0046457
Y-0050787
X0009467Y-0054638
X0016768Y-0054161
X0003445Y-0049313
X0002165Y-0041319
X0004134Y-0034744
X0006496Y-0034941
X00048Y-0031567
X0002391Y-0031089
X0000991Y-0029184
X0002756Y-0025886
X0002895Y-0023477
X0005183Y-0025605
X0005777Y-0019135
X0007579Y-0020669
X0012567Y-0021858
X0015274Y-0023248
X0016929Y-0021555
X0016831Y-0015945
X0012894
X0009843Y-0009843
X0003937
X-0003937
X-0009843
Y-0003937
Y0003937
Y0009843
X-0003937
X0003937
X0009843
Y0003937
Y-0003937
X0016292Y0001271
X002002Y0001575
X0018548Y0007313
X0016087Y000717
X0016142Y00112
X0013976Y0012795
X0015354Y0014751
X0019248Y0014237
X0021571Y0014983
X0021457Y0010431
X0023769Y0009744
X0024508Y0007382
X0026503Y0005658
X0027067Y0003248
X0027489Y-0004827
X0025237Y-0004114
X0024803Y-0015362
X0027657Y-0016142
X0043964Y-0015945
X0047244Y-001811
X0051736Y-0019026
X0057087Y-0012598
X0064173
X00603Y-0023904
X0049439Y-0028543
X0049276Y-0042997
X0043139Y-0039454
X0035447Y-0042475
X0032283Y-003937
X0030512Y-003609
X0034252Y-0033563
X0035428Y-0031181
X0018061Y-003196
X0016256Y-0030437
X-0003642Y-002815
X-0005812Y-0031932
X-0008169Y-0032283
X-0008613Y-0029638
X-0012002Y-0032023
X-001306Y-0021053
X-0011459Y-0018919
X-0010611Y-0016626
X-0012992Y-0013386
X-0017323Y-0013386
X-002126Y-0014764
Y-0008071
X-0017692Y-0006762
X-0015255Y-0006955
X-0018677Y0000149
X-0020972Y-0000409
X-0021399Y0001914
X-0022881Y-0002068
X-0025819Y0003182
X-0027954Y0002129
X-0029652Y0000218
X-0031336Y0005178
X-003061Y000748
X-0035236Y0008858
X-003615Y0006644
X-0041043Y0007776
X-0040354Y0010039
X-0038386Y0012795
X-0038305Y0015191
X-0044667Y0015502
X-0048031Y0017717
X-0051873Y0018866
X-0057087Y0012598
X-0064173
X-00603Y0023904
X-0049439Y0028543
X-0049276Y0042997
X-0043139Y0039454
X-0032677Y003937
X-0030659Y0035741
X-0034646Y0032776
X-0035447Y0042475
X-004027Y0050851
X-0028543Y0049439
X-0017633Y0055738
X-000921Y0054626
X-0008268Y0050394
X-0007874Y0046457
X-0012907Y0046419
X-0009449Y0064173
X-0021176Y0061875
X0Y0057087
X0012598
Y0064173
X0023904Y00603
X0018634Y0050197
X001811Y0046457
X0016093Y0042962
X0010827Y0046752
X0007509Y0039209
X0008545Y0036952
X0009055Y0034646
X0007874Y0029528
X0009635Y0027928
X0011897Y0028607
X0014719Y0025505
X0015211Y0023138
X0017175Y0019536
X0018955Y0021089
X0021654Y0021455
X002126Y0033169
X0019551Y0034931
X0033153Y0034714
X0031952Y0030438
X0032283Y0028051
X0029232Y002874
X0035961Y0030709
X003937Y0032677
X0042475Y0035447
X0039454Y0043139
X0042997Y0049276
X0028543Y0049439
X0050851Y004027
X0049439Y0028543
X0055738Y0017633
X0061875Y0021176
X0064173Y0009449
X0054232
X005Y0008268
X0046063
X0045472Y0005807
X0045768Y0013091
X0040642Y001339
X0039342Y0015502
X004252Y-0003445
X0046555Y-0012008
X0057087Y0
X0019219Y0009663
X0009123Y0016156
X0009458Y0020006
X0009582Y0022508
X0007087Y0019291
X0001144Y0020254
X0000929Y0017811
X-0000394Y0022047
X-000689
X-0013583
X-0012205Y0017323
X-0016142Y0016142
X-0016128Y0013706
X-0018523Y0013899
X-0019412Y0011644
X-0021597Y0010733
X-0024189Y001398
X-0024414Y0016332
X-0026461Y0013333
X-0027362Y0021752
X-0026181Y0023819
X-0025Y0027756
X-0024016Y0029921
X-0013711Y0013471
X-0016228Y0006859
X-0018264Y0008057
X-0019291Y0005807
X-0032896Y-0003291
X-0035194Y-0002743
X-0036884Y-0004589
X-0046063Y-0008661
X-005
X-0054232Y-0009449
X-0055738Y-0017633
X-0061875Y-0021176
X-0064173Y-0009449
X-0057087Y0
X-004685Y0011417
X-0046161Y-0013189
X-0049439Y-0028543
X-0050851Y-004027
X-0042126Y-0035236
X-003937Y-0032283
X-0035612Y-0030463
X-0033366Y-0034646
X-0024409Y-0034252
X-0025394Y-0036417
X-0025492Y-0022047
X-0004526Y-0022539
X-0004626Y-0019925
X-0004611Y-0017452
X-0000959Y-0018259
X-0000766Y-0015898
X000135Y-0018757
X0Y0
X0003445Y0027165
X0005217Y0025591
X-0000098Y-0056004
X-0007733Y-0053534
X-0007972Y-0060532
X-0012598Y-0061417
X-0012574Y-0057308
X-0011909Y-0046654
X-0016045Y-0044857
X-0017963Y-0047719
X-0019148Y-0052085
X-0028543Y-0049439
X-0029232Y-0054528
X-0027461Y-0059153
X-0023904Y-00603
X-0030315Y-0063386
X-0031988Y-0067618
X-0042997Y-0049276
X-0039454Y-0043139
X004027Y-0050851
T02
X-000748Y-0101969
X-0002559
X0002362
X0007283
T03
X0Y-0120079
X-0103991Y0060039
X0103991
M30
