G04*
G04 #@! TF.GenerationSoftware,Altium Limited,Altium Designer,21.5.1 (32)*
G04*
G04 Layer_Color=16711935*
%FSLAX25Y25*%
%MOIN*%
G70*
G04*
G04 #@! TF.SameCoordinates,3FCAAB4A-B78C-4895-A429-AA1A279DEBDA*
G04*
G04*
G04 #@! TF.FilePolarity,Negative*
G04*
G01*
G75*
%ADD31R,0.00787X0.00787*%
%ADD32R,0.00394X0.00394*%
G04:AMPARAMS|DCode=60|XSize=27.56mil|YSize=27.56mil|CornerRadius=4.33mil|HoleSize=0mil|Usage=FLASHONLY|Rotation=90.000|XOffset=0mil|YOffset=0mil|HoleType=Round|Shape=RoundedRectangle|*
%AMROUNDEDRECTD60*
21,1,0.02756,0.01890,0,0,90.0*
21,1,0.01890,0.02756,0,0,90.0*
1,1,0.00866,0.00945,0.00945*
1,1,0.00866,0.00945,-0.00945*
1,1,0.00866,-0.00945,-0.00945*
1,1,0.00866,-0.00945,0.00945*
%
%ADD60ROUNDEDRECTD60*%
G04:AMPARAMS|DCode=70|XSize=23.62mil|YSize=27.56mil|CornerRadius=3.94mil|HoleSize=0mil|Usage=FLASHONLY|Rotation=90.000|XOffset=0mil|YOffset=0mil|HoleType=Round|Shape=RoundedRectangle|*
%AMROUNDEDRECTD70*
21,1,0.02362,0.01968,0,0,90.0*
21,1,0.01575,0.02756,0,0,90.0*
1,1,0.00787,0.00984,0.00787*
1,1,0.00787,0.00984,-0.00787*
1,1,0.00787,-0.00984,-0.00787*
1,1,0.00787,-0.00984,0.00787*
%
%ADD70ROUNDEDRECTD70*%
G04:AMPARAMS|DCode=71|XSize=23.62mil|YSize=27.56mil|CornerRadius=3.94mil|HoleSize=0mil|Usage=FLASHONLY|Rotation=0.000|XOffset=0mil|YOffset=0mil|HoleType=Round|Shape=RoundedRectangle|*
%AMROUNDEDRECTD71*
21,1,0.02362,0.01968,0,0,0.0*
21,1,0.01575,0.02756,0,0,0.0*
1,1,0.00787,0.00787,-0.00984*
1,1,0.00787,-0.00787,-0.00984*
1,1,0.00787,-0.00787,0.00984*
1,1,0.00787,0.00787,0.00984*
%
%ADD71ROUNDEDRECTD71*%
%ADD75O,0.03543X0.05118*%
%ADD76C,0.00394*%
%ADD94R,0.03543X0.06693*%
%ADD95R,0.08661X0.12205*%
G04:AMPARAMS|DCode=96|XSize=25.59mil|YSize=13.78mil|CornerRadius=3.45mil|HoleSize=0mil|Usage=FLASHONLY|Rotation=180.000|XOffset=0mil|YOffset=0mil|HoleType=Round|Shape=RoundedRectangle|*
%AMROUNDEDRECTD96*
21,1,0.02559,0.00689,0,0,180.0*
21,1,0.01870,0.01378,0,0,180.0*
1,1,0.00689,-0.00935,0.00345*
1,1,0.00689,0.00935,0.00345*
1,1,0.00689,0.00935,-0.00345*
1,1,0.00689,-0.00935,-0.00345*
%
%ADD96ROUNDEDRECTD96*%
G04:AMPARAMS|DCode=97|XSize=13.78mil|YSize=25.59mil|CornerRadius=3.45mil|HoleSize=0mil|Usage=FLASHONLY|Rotation=180.000|XOffset=0mil|YOffset=0mil|HoleType=Round|Shape=RoundedRectangle|*
%AMROUNDEDRECTD97*
21,1,0.01378,0.01870,0,0,180.0*
21,1,0.00689,0.02559,0,0,180.0*
1,1,0.00689,-0.00345,0.00935*
1,1,0.00689,0.00345,0.00935*
1,1,0.00689,0.00345,-0.00935*
1,1,0.00689,-0.00345,-0.00935*
%
%ADD97ROUNDEDRECTD97*%
G04:AMPARAMS|DCode=98|XSize=13.78mil|YSize=55.12mil|CornerRadius=3.45mil|HoleSize=0mil|Usage=FLASHONLY|Rotation=180.000|XOffset=0mil|YOffset=0mil|HoleType=Round|Shape=RoundedRectangle|*
%AMROUNDEDRECTD98*
21,1,0.01378,0.04823,0,0,180.0*
21,1,0.00689,0.05512,0,0,180.0*
1,1,0.00689,-0.00345,0.02411*
1,1,0.00689,0.00345,0.02411*
1,1,0.00689,0.00345,-0.02411*
1,1,0.00689,-0.00345,-0.02411*
%
%ADD98ROUNDEDRECTD98*%
G04:AMPARAMS|DCode=99|XSize=13.78mil|YSize=43.31mil|CornerRadius=3.45mil|HoleSize=0mil|Usage=FLASHONLY|Rotation=180.000|XOffset=0mil|YOffset=0mil|HoleType=Round|Shape=RoundedRectangle|*
%AMROUNDEDRECTD99*
21,1,0.01378,0.03642,0,0,180.0*
21,1,0.00689,0.04331,0,0,180.0*
1,1,0.00689,-0.00345,0.01821*
1,1,0.00689,0.00345,0.01821*
1,1,0.00689,0.00345,-0.01821*
1,1,0.00689,-0.00345,-0.01821*
%
%ADD99ROUNDEDRECTD99*%
G04:AMPARAMS|DCode=100|XSize=43.31mil|YSize=137.8mil|CornerRadius=7.87mil|HoleSize=0mil|Usage=FLASHONLY|Rotation=90.000|XOffset=0mil|YOffset=0mil|HoleType=Round|Shape=RoundedRectangle|*
%AMROUNDEDRECTD100*
21,1,0.04331,0.12205,0,0,90.0*
21,1,0.02756,0.13780,0,0,90.0*
1,1,0.01575,0.06102,0.01378*
1,1,0.01575,0.06102,-0.01378*
1,1,0.01575,-0.06102,-0.01378*
1,1,0.01575,-0.06102,0.01378*
%
%ADD100ROUNDEDRECTD100*%
G04:AMPARAMS|DCode=101|XSize=74.8mil|YSize=49.21mil|CornerRadius=7.63mil|HoleSize=0mil|Usage=FLASHONLY|Rotation=90.000|XOffset=0mil|YOffset=0mil|HoleType=Round|Shape=RoundedRectangle|*
%AMROUNDEDRECTD101*
21,1,0.07480,0.03396,0,0,90.0*
21,1,0.05955,0.04921,0,0,90.0*
1,1,0.01526,0.01698,0.02977*
1,1,0.01526,0.01698,-0.02977*
1,1,0.01526,-0.01698,-0.02977*
1,1,0.01526,-0.01698,0.02977*
%
%ADD101ROUNDEDRECTD101*%
G36*
X1890Y-44390D02*
X1772D01*
X1063Y-43681D01*
Y-42972D01*
X1890D01*
Y-44390D01*
D02*
G37*
G36*
X-669Y-43681D02*
X-1378Y-44390D01*
X-1496D01*
Y-42972D01*
X-669D01*
Y-43681D01*
D02*
G37*
G36*
X1533Y-45374D02*
X197Y-46710D01*
X-1139Y-45374D01*
X197Y-44038D01*
X1533Y-45374D01*
D02*
G37*
G36*
X1890Y-47776D02*
X1063D01*
Y-47067D01*
X1772Y-46358D01*
X1890D01*
Y-47776D01*
D02*
G37*
G36*
X-669Y-47067D02*
Y-47776D01*
X-1496D01*
Y-46358D01*
X-1378D01*
X-669Y-47067D01*
D02*
G37*
G36*
X-76358Y35906D02*
X-76476D01*
X-77185Y36614D01*
Y37323D01*
X-76358D01*
Y35906D01*
D02*
G37*
G36*
X-78917Y36614D02*
X-79626Y35906D01*
X-79744D01*
Y37323D01*
X-78917D01*
Y36614D01*
D02*
G37*
G36*
X-76715Y34921D02*
X-78051Y33585D01*
X-79387Y34921D01*
X-78051Y36257D01*
X-76715Y34921D01*
D02*
G37*
G36*
X-76358Y32520D02*
X-77185D01*
Y33228D01*
X-76476Y33937D01*
X-76358D01*
Y32520D01*
D02*
G37*
G36*
X-78917Y33228D02*
Y32520D01*
X-79744D01*
Y33937D01*
X-79626D01*
X-78917Y33228D01*
D02*
G37*
D31*
X-78051Y34921D02*
D03*
X197Y-45374D02*
D03*
D32*
X-79331Y33228D02*
D03*
X-76772D02*
D03*
Y36614D02*
D03*
X-79331D02*
D03*
X-1083Y-47067D02*
D03*
X1476D02*
D03*
Y-43681D02*
D03*
X-1083D02*
D03*
D60*
X6496Y-89665D02*
D03*
X2559D02*
D03*
Y-86516D02*
D03*
X6496D02*
D03*
D70*
X-78543Y40650D02*
D03*
X-74606D02*
D03*
X1378Y-77067D02*
D03*
X5315D02*
D03*
X2559Y-80610D02*
D03*
X6496D02*
D03*
Y-83366D02*
D03*
X2559D02*
D03*
X-9252Y-87697D02*
D03*
X-5315D02*
D03*
X-1083Y-41319D02*
D03*
X2854D02*
D03*
X-1083Y-49390D02*
D03*
X2854D02*
D03*
D71*
X-73327Y32382D02*
D03*
Y36319D02*
D03*
X-13189Y-79035D02*
D03*
Y-82972D02*
D03*
D75*
X7283Y-101969D02*
D03*
X2362D02*
D03*
X-2559D02*
D03*
X-7480D02*
D03*
D76*
X103991Y60039D02*
D03*
X-103991D02*
D03*
X0Y-120079D02*
D03*
D94*
X-78740Y47736D02*
D03*
X-73819D02*
D03*
X-68898D02*
D03*
X-63976D02*
D03*
X-59055D02*
D03*
X-54134D02*
D03*
X-49213D02*
D03*
X-44291D02*
D03*
D95*
X-88779Y59153D02*
D03*
X-34252D02*
D03*
D96*
X-1673Y-84154D02*
D03*
Y-82185D02*
D03*
Y-80216D02*
D03*
X-8957Y-84154D02*
D03*
Y-82185D02*
D03*
Y-80216D02*
D03*
D97*
X-4331Y-79528D02*
D03*
D98*
X-6299Y-81004D02*
D03*
D99*
X-4331Y-83957D02*
D03*
D100*
X-8071Y-74252D02*
D03*
Y-64921D02*
D03*
D101*
X-28445Y-56693D02*
D03*
X-16634D02*
D03*
X-31201Y-65354D02*
D03*
X-19390D02*
D03*
X-8169Y-56693D02*
D03*
X3642D02*
D03*
X14961Y-65354D02*
D03*
X3150D02*
D03*
X-2165Y-93209D02*
D03*
X-13976D02*
D03*
M02*
