G04 This is an RS-274x file exported by *
G04 gerbv version 2.6A *
G04 More information is available about gerbv at *
G04 http://gerbv.geda-project.org/ *
G04 --End of header info--*
%MOIN*%
%FSLAX34Y34*%
%IPPOS*%
G04 --Define apertures--*
%ADD10C,0.0079*%
%ADD11C,0.0098*%
%ADD12C,0.0050*%
G04 --Start main section--*
G54D10*
G01X0005336Y-001278D02*
G75*
G03X0005336Y-001278I-000020J0000000D01*
G01X0004017Y-003705D02*
G75*
G03X0004017Y-003705I-000020J0000000D01*
G01X0001583Y-005266D02*
G75*
G03X0001583Y-005266I-000020J0000000D01*
G01X-001223Y-005317D02*
G75*
G03X-001223Y-005317I-000020J0000000D01*
G01X-003685Y-003997D02*
G75*
G03X-003685Y-003997I-000020J0000000D01*
G01X-005187Y-001602D02*
G75*
G03X-005187Y-001602I-000020J0000000D01*
G01X-005324Y0001217D02*
G75*
G03X-005324Y0001217I-000020J0000000D01*
G01X-003977Y0003705D02*
G75*
G03X-003977Y0003705I-000020J0000000D01*
G01X-001528Y0005246D02*
G75*
G03X-001528Y0005246I-000020J0000000D01*
G01X0001263Y0005239D02*
G75*
G03X0001263Y0005239I-000020J0000000D01*
G01X0003749Y0004007D02*
G75*
G03X0003749Y0004007I-000020J0000000D01*
G01X0005216Y0001575D02*
G75*
G03X0005216Y0001575I-000020J0000000D01*
G01X0005841Y-002009D02*
G01X0005920Y-001872D01*
G01X0004054Y-004660D02*
G01X0004191Y-004581D01*
G01X0001181Y-006063D02*
G01X0001339Y-006063D01*
G01X-002009Y-005841D02*
G01X-001872Y-005920D01*
G01X-004660Y-004054D02*
G01X-004581Y-004191D01*
G01X-006063Y-001339D02*
G01X-006063Y-001181D01*
G01X-005920Y0001872D02*
G01X-005841Y0002009D01*
G01X-004191Y0004581D02*
G01X-004054Y0004660D01*
G01X-001339Y0006063D02*
G01X-001181Y0006063D01*
G01X0001872Y0005920D02*
G01X0002009Y0005841D01*
G01X0004581Y0004191D02*
G01X0004660Y0004054D01*
G01X0006063Y0001181D02*
G01X0006063Y0001339D01*
G54D11*
G01X0001762Y-001398D02*
G75*
G03X0001762Y-001398I-000049J0000000D01*
G54D12*
G01X0004114Y0000000D02*
G01X0004390Y0000000D01*
G01X0003986Y-000482D02*
G01X0003986Y-000128D01*
G01X0004518Y-000482D02*
G01X0004518Y-000128D01*
G01X0004439Y-000049D02*
G01X0004518Y-000128D01*
G01X0004390Y0000000D02*
G01X0004449Y-000059D01*
G01X0004045Y-000069D02*
G01X0004114Y0000000D01*
G01X0004065Y-000049D02*
G01X0004439Y-000049D01*
G01X0003986Y-000128D02*
G01X0004065Y-000049D01*
G01X0003140Y-001831D02*
G01X0003140Y-001555D01*
G01X0002658Y-001427D02*
G01X0003012Y-001427D01*
G01X0002658Y-001959D02*
G01X0003012Y-001959D01*
G01X0003012Y-001959D02*
G01X0003091Y-001880D01*
G01X0003081Y-001890D02*
G01X0003140Y-001831D01*
G01X0003071Y-001486D02*
G01X0003140Y-001555D01*
G01X0003091Y-001880D02*
G01X0003091Y-001506D01*
G01X0003012Y-001427D02*
G01X0003091Y-001506D01*
G01X-002313Y-001072D02*
G01X-001938Y-001072D01*
G01X-002313Y-001212D02*
G01X-001938Y-001212D01*
G01X-000954Y0002017D02*
G01X-000954Y0002392D01*
G01X-001094Y0002017D02*
G01X-001094Y0002392D01*
M02*
