G04 This is an RS-274x file exported by *
G04 gerbv version 2.6A *
G04 More information is available about gerbv at *
G04 http://gerbv.geda-project.org/ *
G04 --End of header info--*
%MOIN*%
%FSLAX34Y34*%
%IPPOS*%
G04 --Define apertures--*
%ADD10C,0.0098*%
%ADD11C,0.0079*%
%ADD12C,0.0050*%
G04 --Start main section--*
G54D10*
G01X0000774Y0002949D02*
G75*
G03X0000774Y0002949I-000049J0000000D01*
G54D11*
G01X-000709Y0000295D02*
G75*
G03X-000709Y0000295I-000039J0000000D01*
G01X0005336Y-001278D02*
G75*
G03X0005336Y-001278I-000020J0000000D01*
G01X0004017Y-003705D02*
G75*
G03X0004017Y-003705I-000020J0000000D01*
G01X0001583Y-005266D02*
G75*
G03X0001583Y-005266I-000020J0000000D01*
G01X-001223Y-005317D02*
G75*
G03X-001223Y-005317I-000020J0000000D01*
G01X-003685Y-003997D02*
G75*
G03X-003685Y-003997I-000020J0000000D01*
G01X-005187Y-001602D02*
G75*
G03X-005187Y-001602I-000020J0000000D01*
G01X-005324Y0001217D02*
G75*
G03X-005324Y0001217I-000020J0000000D01*
G01X-003977Y0003705D02*
G75*
G03X-003977Y0003705I-000020J0000000D01*
G01X-001528Y0005246D02*
G75*
G03X-001528Y0005246I-000020J0000000D01*
G01X0001263Y0005239D02*
G75*
G03X0001263Y0005239I-000020J0000000D01*
G01X0003749Y0004007D02*
G75*
G03X0003749Y0004007I-000020J0000000D01*
G01X0005216Y0001575D02*
G75*
G03X0005216Y0001575I-000020J0000000D01*
G01X-006063Y-001339D02*
G01X-006063Y-001181D01*
G01X0005841Y-002009D02*
G01X0005920Y-001872D01*
G01X0004054Y-004660D02*
G01X0004191Y-004581D01*
G01X0001181Y-006063D02*
G01X0001339Y-006063D01*
G01X-002009Y-005841D02*
G01X-001872Y-005920D01*
G01X-004660Y-004054D02*
G01X-004581Y-004191D01*
G01X-005920Y0001872D02*
G01X-005841Y0002009D01*
G01X-004191Y0004581D02*
G01X-004054Y0004660D01*
G01X-001339Y0006063D02*
G01X-001181Y0006063D01*
G01X0001872Y0005920D02*
G01X0002009Y0005841D01*
G01X0004581Y0004191D02*
G01X0004660Y0004054D01*
G01X0006063Y0001181D02*
G01X0006063Y0001339D01*
G54D12*
G01X0000492Y0004671D02*
G01X0000768Y0004671D01*
G01X0000364Y0004188D02*
G01X0000364Y0004543D01*
G01X0000896Y0004188D02*
G01X0000896Y0004543D01*
G01X0000817Y0004621D02*
G01X0000896Y0004543D01*
G01X0000768Y0004671D02*
G01X0000827Y0004612D01*
G01X0000423Y0004602D02*
G01X0000492Y0004671D01*
G01X0000443Y0004621D02*
G01X0000817Y0004621D01*
G01X0000364Y0004543D02*
G01X0000443Y0004621D01*
G01X-000915Y-003071D02*
G01X-000915Y-002795D01*
G01X-000787Y-003199D02*
G01X-000433Y-003199D01*
G01X-000787Y-002667D02*
G01X-000433Y-002667D01*
G01X-000866Y-002746D02*
G01X-000787Y-002667D01*
G01X-000915Y-002795D02*
G01X-000856Y-002736D01*
G01X-000915Y-003071D02*
G01X-000846Y-003140D01*
G01X-000866Y-003120D02*
G01X-000866Y-002746D01*
G01X-000866Y-003120D02*
G01X-000787Y-003199D01*
G01X-001398Y0004400D02*
G01X-001319Y0004478D01*
G01X-001319Y0004478D02*
G01X-000945Y0004478D01*
G01X-001339Y0004459D02*
G01X-001270Y0004528D01*
G01X-000994Y0004528D02*
G01X-000935Y0004469D01*
G01X-000945Y0004478D02*
G01X-000866Y0004400D01*
G01X-000866Y0004045D02*
G01X-000866Y0004400D01*
G01X-001398Y0004045D02*
G01X-001398Y0004400D01*
G01X-001270Y0004528D02*
G01X-000994Y0004528D01*
M02*
