G04*
G04 #@! TF.GenerationSoftware,Altium Limited,Altium Designer,21.5.1 (32)*
G04*
G04 Layer_Physical_Order=4*
G04 Layer_Color=16711680*
%FSLAX25Y25*%
%MOIN*%
G70*
G04*
G04 #@! TF.SameCoordinates,27F4FA08-B883-49DC-8838-6B3E8E1CA851*
G04*
G04*
G04 #@! TF.FilePolarity,Positive*
G04*
G01*
G75*
%ADD10C,0.00787*%
%ADD11C,0.00984*%
%ADD29R,0.00787X0.00787*%
%ADD30R,0.00394X0.00394*%
G04:AMPARAMS|DCode=35|XSize=23.62mil|YSize=23.62mil|CornerRadius=2.36mil|HoleSize=0mil|Usage=FLASHONLY|Rotation=90.000|XOffset=0mil|YOffset=0mil|HoleType=Round|Shape=RoundedRectangle|*
%AMROUNDEDRECTD35*
21,1,0.02362,0.01890,0,0,90.0*
21,1,0.01890,0.02362,0,0,90.0*
1,1,0.00472,0.00945,0.00945*
1,1,0.00472,0.00945,-0.00945*
1,1,0.00472,-0.00945,-0.00945*
1,1,0.00472,-0.00945,0.00945*
%
%ADD35ROUNDEDRECTD35*%
G04:AMPARAMS|DCode=45|XSize=19.68mil|YSize=23.62mil|CornerRadius=1.97mil|HoleSize=0mil|Usage=FLASHONLY|Rotation=90.000|XOffset=0mil|YOffset=0mil|HoleType=Round|Shape=RoundedRectangle|*
%AMROUNDEDRECTD45*
21,1,0.01968,0.01968,0,0,90.0*
21,1,0.01575,0.02362,0,0,90.0*
1,1,0.00394,0.00984,0.00787*
1,1,0.00394,0.00984,-0.00787*
1,1,0.00394,-0.00984,-0.00787*
1,1,0.00394,-0.00984,0.00787*
%
%ADD45ROUNDEDRECTD45*%
G04:AMPARAMS|DCode=46|XSize=19.68mil|YSize=23.62mil|CornerRadius=1.97mil|HoleSize=0mil|Usage=FLASHONLY|Rotation=0.000|XOffset=0mil|YOffset=0mil|HoleType=Round|Shape=RoundedRectangle|*
%AMROUNDEDRECTD46*
21,1,0.01968,0.01968,0,0,0.0*
21,1,0.01575,0.02362,0,0,0.0*
1,1,0.00394,0.00787,-0.00984*
1,1,0.00394,-0.00787,-0.00984*
1,1,0.00394,-0.00787,0.00984*
1,1,0.00394,0.00787,0.00984*
%
%ADD46ROUNDEDRECTD46*%
%ADD77C,0.01772*%
%ADD78C,0.00787*%
%ADD79C,0.01968*%
%ADD81C,0.01181*%
%ADD82C,0.02362*%
%ADD83O,0.03150X0.04724*%
%ADD84C,0.03937*%
G04:AMPARAMS|DCode=85|XSize=21.65mil|YSize=9.84mil|CornerRadius=1.48mil|HoleSize=0mil|Usage=FLASHONLY|Rotation=180.000|XOffset=0mil|YOffset=0mil|HoleType=Round|Shape=RoundedRectangle|*
%AMROUNDEDRECTD85*
21,1,0.02165,0.00689,0,0,180.0*
21,1,0.01870,0.00984,0,0,180.0*
1,1,0.00295,-0.00935,0.00345*
1,1,0.00295,0.00935,0.00345*
1,1,0.00295,0.00935,-0.00345*
1,1,0.00295,-0.00935,-0.00345*
%
%ADD85ROUNDEDRECTD85*%
G04:AMPARAMS|DCode=86|XSize=9.84mil|YSize=21.65mil|CornerRadius=1.48mil|HoleSize=0mil|Usage=FLASHONLY|Rotation=180.000|XOffset=0mil|YOffset=0mil|HoleType=Round|Shape=RoundedRectangle|*
%AMROUNDEDRECTD86*
21,1,0.00984,0.01870,0,0,180.0*
21,1,0.00689,0.02165,0,0,180.0*
1,1,0.00295,-0.00345,0.00935*
1,1,0.00295,0.00345,0.00935*
1,1,0.00295,0.00345,-0.00935*
1,1,0.00295,-0.00345,-0.00935*
%
%ADD86ROUNDEDRECTD86*%
G04:AMPARAMS|DCode=87|XSize=9.84mil|YSize=51.18mil|CornerRadius=1.48mil|HoleSize=0mil|Usage=FLASHONLY|Rotation=180.000|XOffset=0mil|YOffset=0mil|HoleType=Round|Shape=RoundedRectangle|*
%AMROUNDEDRECTD87*
21,1,0.00984,0.04823,0,0,180.0*
21,1,0.00689,0.05118,0,0,180.0*
1,1,0.00295,-0.00345,0.02411*
1,1,0.00295,0.00345,0.02411*
1,1,0.00295,0.00345,-0.02411*
1,1,0.00295,-0.00345,-0.02411*
%
%ADD87ROUNDEDRECTD87*%
G04:AMPARAMS|DCode=88|XSize=9.84mil|YSize=39.37mil|CornerRadius=1.48mil|HoleSize=0mil|Usage=FLASHONLY|Rotation=180.000|XOffset=0mil|YOffset=0mil|HoleType=Round|Shape=RoundedRectangle|*
%AMROUNDEDRECTD88*
21,1,0.00984,0.03642,0,0,180.0*
21,1,0.00689,0.03937,0,0,180.0*
1,1,0.00295,-0.00345,0.01821*
1,1,0.00295,0.00345,0.01821*
1,1,0.00295,0.00345,-0.01821*
1,1,0.00295,-0.00345,-0.01821*
%
%ADD88ROUNDEDRECTD88*%
G04:AMPARAMS|DCode=89|XSize=39.37mil|YSize=133.86mil|CornerRadius=5.91mil|HoleSize=0mil|Usage=FLASHONLY|Rotation=90.000|XOffset=0mil|YOffset=0mil|HoleType=Round|Shape=RoundedRectangle|*
%AMROUNDEDRECTD89*
21,1,0.03937,0.12205,0,0,90.0*
21,1,0.02756,0.13386,0,0,90.0*
1,1,0.01181,0.06102,0.01378*
1,1,0.01181,0.06102,-0.01378*
1,1,0.01181,-0.06102,-0.01378*
1,1,0.01181,-0.06102,0.01378*
%
%ADD89ROUNDEDRECTD89*%
G04:AMPARAMS|DCode=90|XSize=70.87mil|YSize=45.28mil|CornerRadius=5.66mil|HoleSize=0mil|Usage=FLASHONLY|Rotation=90.000|XOffset=0mil|YOffset=0mil|HoleType=Round|Shape=RoundedRectangle|*
%AMROUNDEDRECTD90*
21,1,0.07087,0.03396,0,0,90.0*
21,1,0.05955,0.04528,0,0,90.0*
1,1,0.01132,0.01698,0.02977*
1,1,0.01132,0.01698,-0.02977*
1,1,0.01132,-0.01698,-0.02977*
1,1,0.01132,-0.01698,0.02977*
%
%ADD90ROUNDEDRECTD90*%
%ADD91C,0.04724*%
G36*
X-473Y-43760D02*
X-1299Y-44587D01*
X-1693Y-44587D01*
Y-42776D01*
X-472D01*
X-473Y-43760D01*
D02*
G37*
G36*
X2087Y-44587D02*
X1693Y-44587D01*
X866Y-43760D01*
X866Y-42776D01*
X2087D01*
Y-44587D01*
D02*
G37*
G36*
X1812Y-45374D02*
X197Y-46989D01*
X-1418Y-45374D01*
X197Y-43759D01*
X1812Y-45374D01*
D02*
G37*
G36*
X2087Y-46161D02*
Y-47972D01*
X866D01*
X866Y-46988D01*
X1693Y-46161D01*
X2087Y-46161D01*
D02*
G37*
G36*
X-473Y-46988D02*
X-472Y-47972D01*
X-1693D01*
Y-46161D01*
X-1299Y-46161D01*
X-473Y-46988D01*
D02*
G37*
G36*
X-787Y-77616D02*
X-908Y-77737D01*
X-3077D01*
X-3461Y-77813D01*
X-3494Y-77835D01*
X-4232D01*
X-4257Y-77840D01*
X-4675D01*
X-4963Y-77897D01*
X-5207Y-78060D01*
X-5371Y-78304D01*
X-5428Y-78592D01*
Y-80463D01*
X-5371Y-80751D01*
X-5330Y-80811D01*
X-5207Y-81022D01*
Y-81577D01*
X-5330Y-81788D01*
X-5371Y-81848D01*
X-5428Y-82136D01*
Y-83424D01*
X-5521Y-83563D01*
X-7150D01*
Y-82677D01*
X-7269Y-82081D01*
Y-81841D01*
X-7326Y-81552D01*
X-7451Y-81201D01*
X-7326Y-80849D01*
X-7269Y-80561D01*
Y-79872D01*
X-7326Y-79584D01*
X-7490Y-79340D01*
X-7734Y-79177D01*
X-8022Y-79119D01*
X-9892D01*
X-10180Y-79177D01*
X-10381Y-79311D01*
X-10728D01*
X-11112Y-79388D01*
X-11438Y-79605D01*
X-11635Y-79802D01*
X-11713Y-79724D01*
X-14665D01*
X-15157Y-79141D01*
Y-70866D01*
X-787D01*
Y-77616D01*
D02*
G37*
D10*
X-5838Y-18501D02*
G03*
X-6495Y-19991I1212J-1424D01*
G01*
X-6395Y-22610D02*
G03*
X-6392Y-22655I1869J71D01*
G01*
X3127Y-18176D02*
G03*
X2043Y-17021I-1777J-582D01*
G01*
X4706Y-23013D02*
G03*
X4672Y-22895I-1812J-463D01*
G01*
X-8Y-19869D02*
G03*
X247Y-19688I-951J1610D01*
G01*
X-29710Y5841D02*
G03*
X-29663Y5868I-900J1639D01*
G01*
X-29918Y5743D02*
G03*
X-29710Y5841I-693J1737D01*
G01*
X-22205Y5061D02*
G03*
X-22971Y4757I806J-3147D01*
G01*
X-26616Y-831D02*
G03*
X-26520Y-786I-1338J2960D01*
G01*
X-27072Y-998D02*
G03*
X-26616Y-831I-881J3126D01*
G01*
X-24378Y271D02*
G03*
X-24247Y340I-1441J2911D01*
G01*
X-17631Y12214D02*
G03*
X-17758Y12517I-1781J-570D01*
G01*
X-24994Y1504D02*
G03*
X-24657Y1717I-825J1678D01*
G01*
X-21527Y3780D02*
G03*
X-22562Y3379I127J-1866D01*
G01*
X-18345Y13628D02*
G03*
X-18391Y13704I-696J-368D01*
G01*
X-19160Y3942D02*
G03*
X-17774Y4713I-132J1865D01*
G01*
X-16413Y8325D02*
G03*
X-16483Y8627I-1851J-268D01*
G01*
X19407Y-29650D02*
G03*
X19335Y-29403I-3151J-786D01*
G01*
X19330Y-29388D02*
G03*
X19335Y-29403I752J235D01*
G01*
X18124Y-30518D02*
G03*
X17713Y-29265I-1868J82D01*
G01*
X13578Y-24036D02*
G03*
X13817Y-24420I1696J788D01*
G01*
X19929Y-32032D02*
G03*
X19873Y-31498I-1869J72D01*
G01*
X21889Y1532D02*
G03*
X21131Y3079I-1870J42D01*
G01*
X21556Y-15298D02*
G03*
X21555Y-15392I3247J-64D01*
G01*
X17201Y6015D02*
G03*
X17436Y5809I1346J1298D01*
G01*
X8661Y-79823D02*
G03*
X8601Y-79449I-1181J0D01*
G01*
X7420Y-75906D02*
G03*
X7418Y-75900I-1120J-374D01*
G01*
X7957Y-82478D02*
G03*
X8661Y-81398I-477J1080D01*
G01*
X22933Y-15330D02*
G03*
X22939Y-15512I1870J-32D01*
G01*
X20201Y8187D02*
G03*
X20098Y8358I-1654J-873D01*
G01*
X6978Y-26127D02*
G03*
X6949Y-26313I757J-215D01*
G01*
X6948Y-26329D02*
G03*
X6949Y-26313I-786J44D01*
G01*
X6979Y-26124D02*
G03*
X7017Y-25243I-1797J519D01*
G01*
X-4375Y-17307D02*
G03*
X-4598Y-17440I289J-732D01*
G01*
X5223Y-25465D02*
G03*
X5228Y-25054I-757J216D01*
G01*
X-1042Y-15992D02*
G03*
X-1078Y-16005I253J-746D01*
G01*
X5711Y-20583D02*
G03*
X5791Y-21218I1868J-86D01*
G01*
X7017Y-25243D02*
G03*
X6970Y-25056I-1835J-363D01*
G01*
X-14926Y-21182D02*
G03*
X-14924Y-21202I786J39D01*
G01*
X-14924Y-21208D02*
G03*
X-14864Y-21547I1864J154D01*
G01*
X-13301Y-18593D02*
G03*
X-13313Y-19168I1841J-327D01*
G01*
X-13300Y-18588D02*
G03*
X-13301Y-18593I1841J-331D01*
G01*
X-14929Y-21123D02*
G03*
X-14928Y-21146I1869J69D01*
G01*
X-16241Y7134D02*
G03*
X-16248Y7207I-786J-38D01*
G01*
X-27910Y259D02*
G03*
X-27126Y452I-44J1870D01*
G01*
X8738Y18280D02*
G03*
X9052Y18181I720J1726D01*
G01*
X20246Y15818D02*
G03*
X19489Y16091I-998J-1582D01*
G01*
X8295Y29736D02*
G03*
X8275Y29726I330J-715D01*
G01*
X20300Y19790D02*
G03*
X20410Y19915I-1345J1299D01*
G01*
X22163Y13209D02*
G03*
X23301Y14273I-592J1774D01*
G01*
X26685Y-3139D02*
G03*
X26423Y-3291I804J-1688D01*
G01*
X23267Y1510D02*
G03*
X22892Y3092I-3247J64D01*
G01*
X9041Y-2247D02*
G03*
X9048Y-2244I-337J712D01*
G01*
X-13214Y-18273D02*
G03*
X-13300Y-18588I1755J-646D01*
G01*
X9037Y-2249D02*
G03*
X8700Y-2456I806J-1688D01*
G01*
X9039Y-2248D02*
G03*
X9037Y-2249I803J-1689D01*
G01*
X-3227Y-11573D02*
G03*
X-2795Y-11323I-710J1730D01*
G01*
X-11625Y-15051D02*
G03*
X-11683Y-15089I392J-683D01*
G01*
Y-15089D02*
G03*
X-12368Y-15976I1070J-1534D01*
G01*
X-9597Y-18751D02*
G03*
X-9833Y-17996I-1863J-168D01*
G01*
X-11322Y-14896D02*
G03*
X-11549Y-15008I710J-1730D01*
G01*
X1786Y28029D02*
G03*
X1686Y27801I1659J-864D01*
G01*
X1787Y28030D02*
G03*
X1786Y28029I1658J-864D01*
G01*
X18118Y17537D02*
G03*
X18104Y17522I567J-547D01*
G01*
X-5587Y23523D02*
G03*
X-6263Y23913I-1302J-1476D01*
G01*
X7224Y19072D02*
G03*
X7588Y18764I667J418D01*
G01*
X-30890Y-1184D02*
G03*
X-29145Y-1582I1237J1402D01*
G01*
X-33172Y-5141D02*
G03*
X-32665Y-5147I275J1850D01*
G01*
X-23159Y-3961D02*
G03*
X-23160Y-3961I96J-782D01*
G01*
X-23117Y-3957D02*
G03*
X-23159Y-3961I54J-786D01*
G01*
X-22762Y-3934D02*
G03*
X-21654Y-3479I-119J1866D01*
G01*
X-19745Y-1820D02*
G03*
X-19263Y-1169I-1227J1411D01*
G01*
X-29401Y-3020D02*
G03*
X-29242Y-3004I-251J3238D01*
G01*
D02*
G03*
X-29179Y-2995I-410J3222D01*
G01*
X-14288Y16391D02*
G03*
X-15241Y17781I-1853J-250D01*
G01*
X-23949Y18143D02*
G03*
X-24815Y18158I-464J-1812D01*
G01*
X6009Y29698D02*
G03*
X6017Y29751I-772J153D01*
G01*
X6321Y30569D02*
G03*
X6018Y29755I1553J-1042D01*
G01*
X247Y-19688D02*
X1350Y-18757D01*
X2895Y-23477D01*
X-6392Y-22655D02*
X-5812Y-31932D01*
X3127Y-18176D02*
X4672Y-22895D01*
X-6495Y-19991D02*
X-6395Y-22610D01*
X-5838Y-18501D02*
X-4611Y-17452D01*
X-766Y-15898D02*
X2043Y-17021D01*
X-4526Y-22539D02*
X-8Y-19869D01*
X-591Y-26181D02*
X1350Y-18757D01*
X-591Y-26181D02*
X991Y-29184D01*
X-3642Y-28150D02*
X-591Y-26181D01*
X-29918Y5743D02*
X-29918Y5743D01*
X-31336Y5178D02*
X-29918Y5743D01*
X-29663Y5868D02*
X-25752Y8166D01*
X-26461Y13333D02*
X-25752Y8166D01*
X-19291Y5807D01*
X-25819Y3182D02*
X-22971Y4757D01*
X-22205Y5061D02*
X-19291Y5807D01*
X-21597Y10733D02*
X-19291Y5807D01*
X-24247Y340D02*
X-21399Y1914D01*
X-18345Y13628D02*
X-17758Y12517D01*
X-16241Y7134D02*
X-16228Y6859D01*
X-17631Y12214D02*
X-16483Y8627D01*
X-27126Y452D02*
X-24994Y1504D01*
X-26520Y-786D02*
X-24378Y271D01*
X-21527Y3780D02*
X-19160Y3942D01*
X-18523Y13899D02*
X-18391Y13704D01*
X-16413Y8325D02*
X-16248Y7207D01*
X-24657Y1717D02*
X-22562Y3379D01*
X-29652Y218D02*
X-27910Y259D01*
X16929Y-21555D02*
X19330Y-29388D01*
X19335Y-29403D02*
X19335Y-29403D01*
X13817Y-24420D02*
X17713Y-29265D01*
X12567Y-21858D02*
X13578Y-24036D01*
X21555Y-15392D02*
X21934Y-57232D01*
X19287Y-48655D02*
X19929Y-32032D01*
X19407Y-29650D02*
X19873Y-31498D01*
X16087Y7170D02*
X17201Y6015D01*
X17436Y5809D02*
X21131Y3079D01*
X21556Y-15298D02*
X21889Y1532D01*
X25808Y-54995D02*
X26202Y-54897D01*
X8661Y-81398D02*
Y-79823D01*
X4847Y-68332D02*
X7418Y-75900D01*
X3150Y-65354D02*
X4847Y-68332D01*
X7420Y-75906D02*
X8601Y-79449D01*
X-13189Y-82776D02*
X-10728Y-80315D01*
X-9055D01*
X-13189Y-82972D02*
Y-82776D01*
X6496Y-86516D02*
Y-83366D01*
X7283Y-82776D01*
X7957Y-82478D01*
X420Y-83366D02*
X2559D01*
Y-89665D02*
Y-86516D01*
Y-83366D01*
X-663Y-82284D02*
X420Y-83366D01*
X-1575Y-82284D02*
X-663D01*
X-1673Y-82185D02*
X-1575Y-82284D01*
X197Y-80610D02*
X2559D01*
X1181Y-77067D02*
X1378D01*
X-98Y-80315D02*
X197Y-80610D01*
X-1575Y-80315D02*
X-98D01*
X-1673Y-80216D02*
X-1575Y-80315D01*
X-3077Y-78740D02*
X-492D01*
X1181Y-77067D01*
X-9055Y-80315D02*
X-8957Y-80216D01*
X-4331Y-79528D02*
Y-78937D01*
X-4232Y-78839D01*
X-3176D01*
X-3077Y-78740D01*
X4800Y-31567D02*
X5183Y-25605D01*
X6496Y-34941D02*
X6948Y-26329D01*
X6978Y-26127D02*
X6979Y-26124D01*
X5183Y-25605D02*
X5223Y-25465D01*
X5711Y-20583D02*
X5777Y-19135D01*
X-13313Y-19168D02*
X-13060Y-21053D01*
X-9580Y-18939D02*
X-8613Y-29638D01*
X-14864Y-21547D02*
X-12002Y-32023D01*
X-4611Y-17452D02*
X-4598Y-17440D01*
X4706Y-23013D02*
X5228Y-25054D01*
X-4375Y-17307D02*
X-1078Y-16005D01*
X-1042Y-15992D02*
X-766Y-15898D01*
X5791Y-21218D02*
X6970Y-25056D01*
X-15452Y-7054D02*
X-14929Y-21123D01*
X-14928Y-21146D02*
X-14926Y-21182D01*
X-14924Y-21202D02*
X-14924Y-21208D01*
X-29179Y-2995D02*
X-22881Y-2068D01*
X-17774Y4713D02*
X-16228Y6859D01*
X21374Y14983D02*
X21571D01*
X7588Y18764D02*
X8738Y18280D01*
X9052Y18181D02*
X17078Y16405D01*
X19489Y16091D01*
X20246Y15818D02*
X21571Y14983D01*
X7874Y29528D02*
X8275Y29726D01*
X7087Y19291D02*
X7224Y19072D01*
X8295Y29736D02*
X19551Y34931D01*
X16142Y11200D02*
X22163Y13209D01*
X23769Y9744D02*
X32283Y28051D01*
X23301Y14273D02*
X29232Y28740D01*
X20201Y8187D02*
X22892Y3092D01*
X27067Y3248D02*
X40642Y13390D01*
X19219Y9663D02*
X20098Y8358D01*
X25237Y-4114D02*
X26423Y-3291D01*
X26685Y-3139D02*
X45472Y5807D01*
X22939Y-15512D02*
X26202Y-54897D01*
X9039Y-2248D02*
X9041Y-2247D01*
X9048Y-2244D02*
X16292Y1271D01*
X22933Y-15330D02*
X23267Y1510D01*
X18061Y-31960D02*
X18124Y-30518D01*
X-11322Y-14896D02*
X-3227Y-11573D01*
X-13214Y-18273D02*
X-12368Y-15976D01*
X-9597Y-18751D02*
X-9580Y-18939D01*
X-10611Y-16626D02*
X-9833Y-17996D01*
X-11625Y-15051D02*
X-11549Y-15008D01*
X-2795Y-11323D02*
X8700Y-2456D01*
X24803Y-15362D02*
X35428Y-31181D01*
X9582Y22508D02*
X17175Y19536D01*
X9582Y22508D02*
X15211Y23138D01*
X13767Y20859D02*
X17175Y19536D01*
X5594Y35469D02*
X7509Y39209D01*
X5344Y34979D02*
X5594Y35469D01*
X1787Y28030D02*
X5344Y34979D01*
X1786Y28029D02*
X1787Y28030D01*
X-394Y22047D02*
X1686Y27801D01*
X18118Y17537D02*
X20300Y19790D01*
X9582Y22508D02*
X11897Y28607D01*
X-24016Y29921D02*
X-6263Y23913D01*
X-926Y19436D02*
X929Y17811D01*
X-5587Y23523D02*
X-926Y19436D01*
X7087Y19291D02*
X7874Y29528D01*
X9123Y16156D02*
X15354Y14751D01*
X17078Y16405D02*
X18104Y17522D01*
X20410Y19915D02*
X21654Y21455D01*
X-29145Y-1582D02*
X-27072Y-998D01*
X-41043Y7776D02*
X-30890Y-1184D01*
X-38305Y15191D02*
X-24815Y18158D01*
X-36150Y6644D02*
X-29652Y218D01*
X-36884Y-4589D02*
X-33172Y-5141D01*
X-23117Y-3957D02*
X-23113Y-3957D01*
X-22762Y-3934D01*
X-23160Y-3961D02*
X-23159Y-3961D01*
X-32665Y-5147D02*
X-23160Y-3961D01*
X-19263Y-1169D02*
X-18677Y149D01*
X-21654Y-3479D02*
X-19745Y-1820D01*
X-24409Y-34252D02*
X-16690Y-30659D01*
X-32896Y-3291D02*
X-29401Y-3020D01*
X-26181Y23819D02*
X-15241Y17781D01*
X-14288Y16391D02*
X-13908Y13569D01*
X-23949Y18143D02*
X-16142Y16142D01*
X-24414Y16332D02*
X-18523Y13899D01*
X5217Y25591D02*
X6009Y29698D01*
X6017Y29751D02*
X6018Y29755D01*
X6321Y30569D02*
X9055Y34646D01*
D11*
X-1083Y-48898D02*
Y-47067D01*
Y-48898D02*
X-1083Y-49390D01*
X-394Y-48898D02*
X1476Y-47067D01*
X-1280Y-41319D02*
X-1252Y-41387D01*
Y-41387D02*
Y-41387D01*
Y-41387D02*
X-1083Y-41811D01*
Y-43681D02*
Y-41811D01*
D29*
X197Y-45374D02*
D03*
D30*
X-1083Y-47067D02*
D03*
X1476D02*
D03*
Y-43681D02*
D03*
X-1083D02*
D03*
D35*
X6496Y-89665D02*
D03*
X2559D02*
D03*
Y-86516D02*
D03*
X6496D02*
D03*
D45*
X1378Y-77067D02*
D03*
X5315D02*
D03*
X2559Y-80610D02*
D03*
X6496D02*
D03*
Y-83366D02*
D03*
X2559D02*
D03*
X-9252Y-87697D02*
D03*
X-5315D02*
D03*
X-1083Y-41319D02*
D03*
X2854D02*
D03*
X-1083Y-49390D02*
D03*
X2854D02*
D03*
D46*
X-13189Y-79035D02*
D03*
Y-82972D02*
D03*
D77*
X-30610Y7480D02*
D03*
X-21399Y1914D02*
D03*
X-27954Y2129D02*
D03*
X-25819Y3182D02*
D03*
X16929Y-21555D02*
D03*
X15274Y-23248D02*
D03*
X-4526Y-22539D02*
D03*
X40270Y-50851D02*
D03*
X49276Y-42997D02*
D03*
X60300Y-23904D02*
D03*
X64173Y-12598D02*
D03*
Y9449D02*
D03*
X61875Y21176D02*
D03*
X50851Y40270D02*
D03*
X42997Y49276D02*
D03*
X23904Y60300D02*
D03*
X12598Y64173D02*
D03*
X-9449D02*
D03*
X-21176Y61875D02*
D03*
X-40270Y50851D02*
D03*
X-49276Y42997D02*
D03*
X-60300Y23904D02*
D03*
X-64173Y-9449D02*
D03*
Y12598D02*
D03*
X-50851Y-40270D02*
D03*
X-61875Y-21176D02*
D03*
X-42997Y-49276D02*
D03*
X-23904Y-60300D02*
D03*
X-12598Y-61417D02*
D03*
X9364Y-64678D02*
D03*
X21358Y-64173D02*
D03*
X24016Y-56102D02*
D03*
X14075Y-67716D02*
D03*
X14719Y25505D02*
D03*
X19287Y-48655D02*
D03*
X16768Y-54161D02*
D03*
X21934Y-57232D02*
D03*
X26202Y-54897D02*
D03*
X6488Y-89662D02*
D03*
X27676Y-47882D02*
D03*
X14173Y-62992D02*
D03*
X9467Y-54638D02*
D03*
X-7972Y-60532D02*
D03*
X-19148Y-52085D02*
D03*
X-98Y-56004D02*
D03*
X6496Y-80610D02*
D03*
X5315Y-77067D02*
D03*
X-7733Y-53534D02*
D03*
X-12574Y-57308D02*
D03*
X7874Y-50787D02*
D03*
X33153Y34714D02*
D03*
X10827Y46752D02*
D03*
X-12907Y46419D02*
D03*
X-34646Y32776D02*
D03*
X-46161Y-13189D02*
D03*
X-33366Y-34646D02*
D03*
X-8169Y-32283D02*
D03*
X-5812Y-31932D02*
D03*
X2165Y-41319D02*
D03*
X3445Y-49313D02*
D03*
X991Y-29184D02*
D03*
X4800Y-31567D02*
D03*
X6496Y-34941D02*
D03*
X2391Y-31089D02*
D03*
X5183Y-25605D02*
D03*
X2895Y-23477D02*
D03*
X5777Y-19135D02*
D03*
X7874Y-46457D02*
D03*
X-13060Y-21053D02*
D03*
X-11459Y-18919D02*
D03*
X2756Y-25886D02*
D03*
X-959Y-18259D02*
D03*
X-8613Y-29638D02*
D03*
X-12002Y-32023D02*
D03*
X-17323Y-13386D02*
D03*
X-17692Y-6762D02*
D03*
X-15255Y-6955D02*
D03*
X-22881Y-2068D02*
D03*
X-12992Y-13386D02*
D03*
X-35236Y8858D02*
D03*
X-18264Y8057D02*
D03*
X-16228Y6859D02*
D03*
X-19412Y11644D02*
D03*
X-27362Y21752D02*
D03*
X19248Y14237D02*
D03*
X21571Y14983D02*
D03*
X21457Y10431D02*
D03*
X27067Y3248D02*
D03*
X26503Y5658D02*
D03*
X27489Y-4827D02*
D03*
X25237Y-4114D02*
D03*
X20020Y1575D02*
D03*
X16292Y1271D02*
D03*
X15846Y-46850D02*
D03*
X18061Y-31960D02*
D03*
X16256Y-30437D02*
D03*
X4134Y-34744D02*
D03*
X-4611Y-17452D02*
D03*
X-4626Y-19925D02*
D03*
X-10611Y-16626D02*
D03*
X45472Y5807D02*
D03*
X46063Y8268D02*
D03*
X39342Y15502D02*
D03*
X40642Y13390D02*
D03*
X27657Y-16142D02*
D03*
X24803Y-15362D02*
D03*
X18548Y7313D02*
D03*
X24508Y7382D02*
D03*
X23769Y9744D02*
D03*
X31952Y30438D02*
D03*
X16093Y42962D02*
D03*
X15211Y23138D02*
D03*
X21260Y33169D02*
D03*
X19551Y34931D02*
D03*
X8545Y36952D02*
D03*
X7509Y39209D02*
D03*
X9635Y27928D02*
D03*
X11897Y28607D02*
D03*
X3445Y27165D02*
D03*
X-394Y22047D02*
D03*
X1144Y20254D02*
D03*
X9458Y20006D02*
D03*
X9582Y22508D02*
D03*
X9123Y16156D02*
D03*
X15354Y14751D02*
D03*
X13976Y12795D02*
D03*
X17175Y19536D02*
D03*
X18955Y21089D02*
D03*
X29232Y28740D02*
D03*
X32283Y28051D02*
D03*
X21654Y21455D02*
D03*
X-38386Y12795D02*
D03*
X-38305Y15191D02*
D03*
X-31336Y5178D02*
D03*
X-36150Y6644D02*
D03*
X-41043Y7776D02*
D03*
X-40354Y10039D02*
D03*
X-18677Y149D02*
D03*
X-20972Y-409D02*
D03*
X-19291Y5807D02*
D03*
X-29652Y218D02*
D03*
X-35194Y-2743D02*
D03*
X-32896Y-3291D02*
D03*
X-21597Y10733D02*
D03*
X-16128Y13706D02*
D03*
X-13711Y13471D02*
D03*
X-24016Y29921D02*
D03*
X-26461Y13333D02*
D03*
X-24189Y13980D02*
D03*
X-24414Y16332D02*
D03*
X-25000Y27756D02*
D03*
X-26181Y23819D02*
D03*
X-16142Y16142D02*
D03*
X-12205Y17323D02*
D03*
X-16045Y-44857D02*
D03*
X-17963Y-47719D02*
D03*
X1350Y-18757D02*
D03*
X7579Y-20669D02*
D03*
X12567Y-21858D02*
D03*
X35428Y-31181D02*
D03*
X-3642Y-28150D02*
D03*
X-21260Y-14764D02*
D03*
X42520Y-3445D02*
D03*
X19219Y9663D02*
D03*
X16142Y11200D02*
D03*
X-766Y-15898D02*
D03*
X5217Y25591D02*
D03*
X929Y17811D02*
D03*
X7874Y29528D02*
D03*
X-36884Y-4589D02*
D03*
X-13583Y22047D02*
D03*
X-51873Y18866D02*
D03*
X30512Y-36090D02*
D03*
X43139Y-39454D02*
D03*
X34252Y-33563D02*
D03*
X12500Y-46850D02*
D03*
X-35612Y-30463D02*
D03*
X-46063Y-8661D02*
D03*
X-46850Y11417D02*
D03*
X-44667Y15502D02*
D03*
X-49439Y28543D02*
D03*
X-30659Y35741D02*
D03*
X-7874Y46457D02*
D03*
X35961Y30709D02*
D03*
X45768Y13091D02*
D03*
X46555Y-12008D02*
D03*
X43964Y-15945D02*
D03*
X16831D02*
D03*
X9843Y-9843D02*
D03*
X-18523Y13899D02*
D03*
X-9843Y3937D02*
D03*
Y9843D02*
D03*
X3937D02*
D03*
X-3937D02*
D03*
X-9843Y-3937D02*
D03*
X-3937Y-9843D02*
D03*
X3937D02*
D03*
X9843Y-3937D02*
D03*
Y3937D02*
D03*
Y9843D02*
D03*
X-9843Y-9843D02*
D03*
X0Y0D02*
D03*
X-28543Y-49439D02*
D03*
X35447Y-42475D02*
D03*
X49439Y-28543D02*
D03*
X51736Y-19026D02*
D03*
X57087Y-12598D02*
D03*
Y0D02*
D03*
X54232Y9449D02*
D03*
X55738Y17633D02*
D03*
X49439Y28543D02*
D03*
X42475Y35447D02*
D03*
X39454Y43139D02*
D03*
X28543Y49439D02*
D03*
X18634Y50197D02*
D03*
X12598Y57087D02*
D03*
X0D02*
D03*
X-9210Y54626D02*
D03*
X-17633Y55738D02*
D03*
X-28543Y49439D02*
D03*
X-35447Y42475D02*
D03*
X-43139Y39454D02*
D03*
X-57087Y12598D02*
D03*
Y0D02*
D03*
X-54232Y-9449D02*
D03*
X-55738Y-17633D02*
D03*
X-49439Y-28543D02*
D03*
X-42126Y-35236D02*
D03*
X-39454Y-43139D02*
D03*
X-11909Y-46654D02*
D03*
X-25492Y-22047D02*
D03*
X-25394Y-36417D02*
D03*
X-29232Y-54528D02*
D03*
X-27461Y-59153D02*
D03*
X-30315Y-63386D02*
D03*
X-31988Y-67618D02*
D03*
X16087Y7170D02*
D03*
X-24409Y-34252D02*
D03*
X-6890Y22047D02*
D03*
X-21260Y-8071D02*
D03*
X12894Y-15945D02*
D03*
X18110Y46457D02*
D03*
X39370Y32677D02*
D03*
X50000Y8268D02*
D03*
X47244Y-18110D02*
D03*
X32283Y-39370D02*
D03*
X-8268Y50394D02*
D03*
X-32677Y39370D02*
D03*
X-48031Y17717D02*
D03*
X-50000Y-8661D02*
D03*
X-39370Y-32283D02*
D03*
X7087Y19291D02*
D03*
X9055Y34646D02*
D03*
D78*
X-29918Y5743D02*
D03*
D79*
X-16687Y-52085D02*
G03*
X-16804Y-51335I-2461J0D01*
G01*
X10389Y-20714D02*
G03*
X10116Y-21646I2178J-1144D01*
G01*
X7121Y-37321D02*
G03*
X8857Y-35635I-625J2380D01*
G01*
X1420Y-38818D02*
G03*
X435Y-39493I450J-1713D01*
G01*
X8857Y-35635D02*
G03*
X8947Y-35153I-2361J694D01*
G01*
X1535Y-43914D02*
G03*
X1597Y-43840I-724J667D01*
G01*
X1600Y-43836D02*
G03*
X1656Y-43753I-788J590D01*
G01*
X2367Y-42575D02*
G03*
X2506Y-42135I-843J509D01*
G01*
X-14011Y-33444D02*
G03*
X-13268Y-34133I2008J1421D01*
G01*
X-16638Y-1228D02*
G03*
X-16368Y-703I-2039J1377D01*
G01*
X-16704Y-1322D02*
G03*
X-16638Y-1228I-1972J1471D01*
G01*
X-19665Y-5291D02*
G03*
X-19834Y-5550I1972J-1471D01*
G01*
X-21337Y-8267D02*
G03*
X-21340Y-8275I1829J-728D01*
G01*
X-12076Y10876D02*
G03*
X-12150Y10696I2233J-1033D01*
G01*
X-23548Y-13859D02*
G03*
X-23451Y-15884I2288J-905D01*
G01*
X-16112Y-30409D02*
G03*
X-15922Y-30744I1798J802D01*
G01*
X-16905Y-28626D02*
G03*
X-16953Y-28525I-1799J-800D01*
G01*
X-16687Y-54134D02*
X-16634Y-56693D01*
X-886Y-49390D02*
X2362Y-54134D01*
X3642Y-56693D02*
X4921Y-54134D01*
X2362D02*
X3642Y-56693D01*
X4921Y-54134D02*
X7874Y-50787D01*
X-17963Y-47719D02*
X-16804Y-51335D01*
X-16687Y-54134D02*
Y-52085D01*
X-1083Y-49390D02*
X-886D01*
X11185Y-19199D02*
X12894Y-15945D01*
X11064Y-19428D02*
X11185Y-19199D01*
X10389Y-20714D02*
X11064Y-19428D01*
X8947Y-35153D02*
X10116Y-21646D01*
X-13268Y-34133D02*
X-1280Y-41319D01*
X1420Y-38818D02*
X7121Y-37321D01*
X-886Y-41319D02*
X435Y-39493D01*
X-1083Y-41319D02*
X-886D01*
X1656Y-43753D02*
X2367Y-42575D01*
X197Y-45374D02*
X1535Y-43914D01*
X2854Y-41910D02*
Y-41319D01*
X2506Y-42135D02*
Y-41811D01*
X2679Y-41492D01*
Y-41811D02*
X2809Y-41324D01*
X2679Y-41811D02*
Y-41492D01*
X2539Y-41639D02*
X2854Y-41910D01*
X1597Y-43840D02*
X1600Y-43836D01*
X-14825Y-32294D02*
X-14011Y-33444D01*
X-14825Y-32294D02*
Y-32294D01*
X-15922Y-30744D02*
X-14825Y-32294D01*
X-16368Y-703D02*
X-12150Y10696D01*
X-19665Y-5291D02*
X-16704Y-1322D01*
X-23548Y-13859D02*
X-21340Y-8275D01*
X-21260Y-8071D02*
X-19834Y-5550D01*
X-23451Y-15884D02*
X-16953Y-28525D01*
X-12076Y10876D02*
X-6890Y22047D01*
X-16905Y-28626D02*
X-16113Y-30407D01*
X-21337Y-8267D02*
X-21260Y-8071D01*
X-16113Y-30407D02*
X-16112Y-30409D01*
D81*
X-4429Y-84055D02*
X-4331Y-83957D01*
X-5315Y-87697D02*
X-5118D01*
X-4429Y-87008D01*
Y-84055D01*
D82*
X-9252Y-87697D02*
X-8957Y-87402D01*
Y-84154D01*
Y-82677D01*
D83*
X7283Y-101969D02*
D03*
X2362D02*
D03*
X-2559D02*
D03*
X-7480D02*
D03*
D84*
X-50047Y12700D02*
G03*
X-50295Y11371I3197J-1283D01*
G01*
X49604Y-13612D02*
G03*
X50000Y-12008I-3049J1604D01*
G01*
X-22146Y-53781D02*
G03*
X-19148Y-55530I2999J1696D01*
G01*
X-47816Y18112D02*
G03*
X-48031Y17717I3346J-2075D01*
G01*
X-37009Y35282D02*
G03*
X-37571Y34594I2363J-2506D01*
G01*
X50000Y8293D02*
G03*
X49948Y8879I-3937J-50D01*
G01*
X47252Y-18096D02*
G03*
X47317Y-17977I-3417J1956D01*
G01*
X31047Y-48590D02*
G03*
X31091Y-48336I-3371J708D01*
G01*
X13263Y-59252D02*
G03*
X11869Y-59580I0J-3125D01*
G01*
X-36140Y-36689D02*
G03*
X-35834Y-37049I2773J2043D01*
G01*
X36330Y-36311D02*
G03*
X37228Y-35298I-2078J2748D01*
G01*
X20825Y-60493D02*
G03*
X23574Y-60262I1109J3261D01*
G01*
X-49593Y-13487D02*
G03*
X-49168Y-14871I3432J298D01*
G01*
X-50001Y-8595D02*
G03*
X-50001Y-8627I3937J46D01*
G01*
X35790Y36931D02*
G03*
X34748Y37768I-2637J-2217D01*
G01*
X-49999Y-8697D02*
G03*
X-49988Y-8878I3934J148D01*
G01*
X-31997Y39842D02*
G03*
X-32669Y39377I1890J-3454D01*
G01*
X39724Y32119D02*
G03*
X39391Y32649I-3490J-1821D01*
G01*
X39352Y32700D02*
G03*
X39239Y32841I-3119J-2403D01*
G01*
X-48031Y17717D02*
G03*
X-48128Y17495I3561J-1679D01*
G01*
X-13283Y49844D02*
G03*
X-14567Y49438I376J-3424D01*
G01*
X-39554Y-31984D02*
G03*
X-39415Y-32215I3437J1921D01*
G01*
X-39323Y-32350D02*
G03*
X-39287Y-32399I3205J2287D01*
G01*
X49168Y13643D02*
G03*
X48822Y14684I-3400J-552D01*
G01*
X17665Y-59418D02*
G03*
X16658Y-59252I-1006J-2959D01*
G01*
X-25541Y-47749D02*
G03*
X-26080Y-47031I-3002J-1690D01*
G01*
X25659Y-59130D02*
G03*
X25679Y-59119I-1643J3028D01*
G01*
X27865Y-57914D02*
G03*
X29573Y-55605I-1663J3017D01*
G01*
X-32686Y39363D02*
G03*
X-32804Y39256I2579J-2975D01*
G01*
X-49168Y-14871D02*
X-39554Y-31984D01*
X49168Y13643D02*
X49948Y8879D01*
X-49988Y-8878D02*
X-49593Y-13487D01*
X25679Y-59119D02*
X27865Y-57914D01*
X-32686Y39363D02*
X-32677Y39370D01*
X-25541Y-47749D02*
X-23316Y-51703D01*
X-39415Y-32215D02*
X-39370Y-32283D01*
X13263Y-59252D02*
X16658D01*
X-35834Y-37049D02*
X-26080Y-47031D01*
X3150Y-65354D02*
X3445Y-63780D01*
X11869Y-59580D01*
X39370Y32677D02*
X39391Y32649D01*
X37228Y-35298D02*
X47244Y-18110D01*
X-19390Y-65354D02*
X-19094Y-63779D01*
X32283Y-39370D02*
X36330Y-36311D01*
X-50295Y11371D02*
X-50001Y-8595D01*
X50000Y-12008D02*
Y8268D01*
X-16929Y-58268D02*
X-16634Y-56693D01*
X3445Y-63780D02*
Y-58268D01*
X3642Y-56693D01*
X-19094Y-63779D02*
X-16929Y-58268D01*
X-39370Y-32283D02*
X-39323Y-32350D01*
X17665Y-59418D02*
X20825Y-60493D01*
X-50000Y-8661D02*
X-49999Y-8697D01*
X-23316Y-51703D02*
X-22591Y-52991D01*
X-31997Y39842D02*
X-14567Y49438D01*
X-50001Y-8627D02*
X-50000Y-8661D01*
X-19148Y-55530D02*
X-16929D01*
X39352Y32700D02*
X39370Y32677D01*
X23574Y-60262D02*
X25659Y-59130D01*
X-39287Y-32399D02*
X-36140Y-36689D01*
X-50047Y12700D02*
X-48128Y17495D01*
X50000Y8293D02*
X50000Y8268D01*
X-32677Y39370D02*
X-32669Y39377D01*
X-16929Y-55530D02*
X-16634Y-56693D01*
X35790Y36931D02*
X39239Y32841D01*
X-37009Y35282D02*
X-32804Y39256D01*
X39724Y32119D02*
X48822Y14684D01*
X-13283Y49844D02*
X-8268Y50394D01*
X-47816Y18112D02*
X-37571Y34594D01*
X18110Y46457D02*
X34748Y37768D01*
X29573Y-55605D02*
X31047Y-48590D01*
X31091Y-48336D02*
X32283Y-39370D01*
X47244Y-18110D02*
X47252Y-18096D01*
X-22591Y-52991D02*
X-22146Y-53781D01*
X47317Y-17977D02*
X49604Y-13612D01*
X-13681Y-95768D02*
X-7480Y-101969D01*
X-13976Y-91929D02*
X-9744Y-87697D01*
X-9252D01*
X-13976Y-93209D02*
Y-91929D01*
X-2461Y-92913D02*
X-2165Y-93209D01*
Y-94488D02*
Y-93209D01*
X-2461Y-92913D02*
Y-91634D01*
X-7480Y-101969D02*
Y-101969D01*
X-2559Y-101969D02*
Y-94882D01*
X-2165Y-94488D01*
X-4626Y-89468D02*
X-2461Y-91634D01*
X-4626Y-89468D02*
Y-88386D01*
D85*
X-1673Y-84154D02*
D03*
Y-82185D02*
D03*
Y-80216D02*
D03*
X-8957Y-84154D02*
D03*
Y-82185D02*
D03*
Y-80216D02*
D03*
D86*
X-4331Y-79528D02*
D03*
D87*
X-6299Y-81004D02*
D03*
D88*
X-4331Y-83957D02*
D03*
D89*
X-8071Y-74252D02*
D03*
Y-64921D02*
D03*
D90*
X-28445Y-56693D02*
D03*
X-16634D02*
D03*
X-31201Y-65354D02*
D03*
X-19390D02*
D03*
X-8169Y-56693D02*
D03*
X3642D02*
D03*
X14961Y-65354D02*
D03*
X3150D02*
D03*
X-2165Y-93209D02*
D03*
X-13976D02*
D03*
D91*
X-8071Y-65354D02*
X3150Y-65354D01*
X-19390Y-65354D02*
X-8071Y-65354D01*
M02*
