G04*
G04 #@! TF.GenerationSoftware,Altium Limited,Altium Designer,21.5.1 (32)*
G04*
G04 Layer_Color=8388736*
%FSLAX25Y25*%
%MOIN*%
G70*
G04*
G04 #@! TF.SameCoordinates,27F4FA08-B883-49DC-8838-6B3E8E1CA851*
G04*
G04*
G04 #@! TF.FilePolarity,Negative*
G04*
G01*
G75*
%ADD19P,0.01114X4X285.0*%
%ADD20P,0.00557X4X285.0*%
%ADD21P,0.01114X4X255.0*%
%ADD22P,0.00557X4X255.0*%
%ADD23R,0.00787X0.00787*%
%ADD24R,0.00394X0.00394*%
%ADD25P,0.01114X4X195.0*%
%ADD26P,0.00557X4X195.0*%
%ADD27P,0.01114X4X165.0*%
%ADD28P,0.00557X4X165.0*%
%ADD29R,0.00787X0.00787*%
%ADD30R,0.00394X0.00394*%
G04:AMPARAMS|DCode=50|XSize=27.56mil|YSize=43.31mil|CornerRadius=0mil|HoleSize=0mil|Usage=FLASHONLY|Rotation=240.000|XOffset=0mil|YOffset=0mil|HoleType=Round|Shape=Rectangle|*
%AMROTATEDRECTD50*
4,1,4,-0.01186,0.02276,0.02564,0.00111,0.01186,-0.02276,-0.02564,-0.00111,-0.01186,0.02276,0.0*
%
%ADD50ROTATEDRECTD50*%

G04:AMPARAMS|DCode=51|XSize=27.56mil|YSize=43.31mil|CornerRadius=0mil|HoleSize=0mil|Usage=FLASHONLY|Rotation=210.000|XOffset=0mil|YOffset=0mil|HoleType=Round|Shape=Rectangle|*
%AMROTATEDRECTD51*
4,1,4,0.00111,0.02564,0.02276,-0.01186,-0.00111,-0.02564,-0.02276,0.01186,0.00111,0.02564,0.0*
%
%ADD51ROTATEDRECTD51*%

%ADD52R,0.02756X0.04331*%
G04:AMPARAMS|DCode=53|XSize=27.56mil|YSize=43.31mil|CornerRadius=0mil|HoleSize=0mil|Usage=FLASHONLY|Rotation=150.000|XOffset=0mil|YOffset=0mil|HoleType=Round|Shape=Rectangle|*
%AMROTATEDRECTD53*
4,1,4,0.02276,0.01186,0.00111,-0.02564,-0.02276,-0.01186,-0.00111,0.02564,0.02276,0.01186,0.0*
%
%ADD53ROTATEDRECTD53*%

G04:AMPARAMS|DCode=54|XSize=27.56mil|YSize=43.31mil|CornerRadius=0mil|HoleSize=0mil|Usage=FLASHONLY|Rotation=120.000|XOffset=0mil|YOffset=0mil|HoleType=Round|Shape=Rectangle|*
%AMROTATEDRECTD54*
4,1,4,0.02564,-0.00111,-0.01186,-0.02276,-0.02564,0.00111,0.01186,0.02276,0.02564,-0.00111,0.0*
%
%ADD54ROTATEDRECTD54*%

%ADD55R,0.04331X0.02756*%
%ADD56O,0.03740X0.01378*%
%ADD57O,0.01378X0.03740*%
%ADD58R,0.22441X0.22441*%
%ADD59R,0.04331X0.03937*%
G04:AMPARAMS|DCode=60|XSize=27.56mil|YSize=27.56mil|CornerRadius=4.33mil|HoleSize=0mil|Usage=FLASHONLY|Rotation=90.000|XOffset=0mil|YOffset=0mil|HoleType=Round|Shape=RoundedRectangle|*
%AMROUNDEDRECTD60*
21,1,0.02756,0.01890,0,0,90.0*
21,1,0.01890,0.02756,0,0,90.0*
1,1,0.00866,0.00945,0.00945*
1,1,0.00866,0.00945,-0.00945*
1,1,0.00866,-0.00945,-0.00945*
1,1,0.00866,-0.00945,0.00945*
%
%ADD60ROUNDEDRECTD60*%
G04:AMPARAMS|DCode=61|XSize=27.56mil|YSize=27.56mil|CornerRadius=4.33mil|HoleSize=0mil|Usage=FLASHONLY|Rotation=0.000|XOffset=0mil|YOffset=0mil|HoleType=Round|Shape=RoundedRectangle|*
%AMROUNDEDRECTD61*
21,1,0.02756,0.01890,0,0,0.0*
21,1,0.01890,0.02756,0,0,0.0*
1,1,0.00866,0.00945,-0.00945*
1,1,0.00866,-0.00945,-0.00945*
1,1,0.00866,-0.00945,0.00945*
1,1,0.00866,0.00945,0.00945*
%
%ADD61ROUNDEDRECTD61*%
G04:AMPARAMS|DCode=62|XSize=35.43mil|YSize=35.43mil|CornerRadius=5.91mil|HoleSize=0mil|Usage=FLASHONLY|Rotation=90.000|XOffset=0mil|YOffset=0mil|HoleType=Round|Shape=RoundedRectangle|*
%AMROUNDEDRECTD62*
21,1,0.03543,0.02362,0,0,90.0*
21,1,0.02362,0.03543,0,0,90.0*
1,1,0.01181,0.01181,0.01181*
1,1,0.01181,0.01181,-0.01181*
1,1,0.01181,-0.01181,-0.01181*
1,1,0.01181,-0.01181,0.01181*
%
%ADD62ROUNDEDRECTD62*%
G04:AMPARAMS|DCode=63|XSize=35.43mil|YSize=35.43mil|CornerRadius=5.91mil|HoleSize=0mil|Usage=FLASHONLY|Rotation=0.000|XOffset=0mil|YOffset=0mil|HoleType=Round|Shape=RoundedRectangle|*
%AMROUNDEDRECTD63*
21,1,0.03543,0.02362,0,0,0.0*
21,1,0.02362,0.03543,0,0,0.0*
1,1,0.01181,0.01181,-0.01181*
1,1,0.01181,-0.01181,-0.01181*
1,1,0.01181,-0.01181,0.01181*
1,1,0.01181,0.01181,0.01181*
%
%ADD63ROUNDEDRECTD63*%
%ADD64R,0.03950X0.01981*%
%ADD65R,0.03950X0.02375*%
G04:AMPARAMS|DCode=66|XSize=23.62mil|YSize=27.56mil|CornerRadius=3.94mil|HoleSize=0mil|Usage=FLASHONLY|Rotation=150.000|XOffset=0mil|YOffset=0mil|HoleType=Round|Shape=RoundedRectangle|*
%AMROUNDEDRECTD66*
21,1,0.02362,0.01968,0,0,150.0*
21,1,0.01575,0.02756,0,0,150.0*
1,1,0.00787,-0.00190,0.01246*
1,1,0.00787,0.01174,0.00459*
1,1,0.00787,0.00190,-0.01246*
1,1,0.00787,-0.01174,-0.00459*
%
%ADD66ROUNDEDRECTD66*%
G04:AMPARAMS|DCode=67|XSize=23.62mil|YSize=27.56mil|CornerRadius=3.94mil|HoleSize=0mil|Usage=FLASHONLY|Rotation=60.000|XOffset=0mil|YOffset=0mil|HoleType=Round|Shape=RoundedRectangle|*
%AMROUNDEDRECTD67*
21,1,0.02362,0.01968,0,0,60.0*
21,1,0.01575,0.02756,0,0,60.0*
1,1,0.00787,0.01246,0.00190*
1,1,0.00787,0.00459,-0.01174*
1,1,0.00787,-0.01246,-0.00190*
1,1,0.00787,-0.00459,0.01174*
%
%ADD67ROUNDEDRECTD67*%
G04:AMPARAMS|DCode=68|XSize=23.62mil|YSize=27.56mil|CornerRadius=3.94mil|HoleSize=0mil|Usage=FLASHONLY|Rotation=120.000|XOffset=0mil|YOffset=0mil|HoleType=Round|Shape=RoundedRectangle|*
%AMROUNDEDRECTD68*
21,1,0.02362,0.01968,0,0,120.0*
21,1,0.01575,0.02756,0,0,120.0*
1,1,0.00787,0.00459,0.01174*
1,1,0.00787,0.01246,-0.00190*
1,1,0.00787,-0.00459,-0.01174*
1,1,0.00787,-0.01246,0.00190*
%
%ADD68ROUNDEDRECTD68*%
G04:AMPARAMS|DCode=69|XSize=23.62mil|YSize=27.56mil|CornerRadius=3.94mil|HoleSize=0mil|Usage=FLASHONLY|Rotation=30.000|XOffset=0mil|YOffset=0mil|HoleType=Round|Shape=RoundedRectangle|*
%AMROUNDEDRECTD69*
21,1,0.02362,0.01968,0,0,30.0*
21,1,0.01575,0.02756,0,0,30.0*
1,1,0.00787,0.01174,-0.00459*
1,1,0.00787,-0.00190,-0.01246*
1,1,0.00787,-0.01174,0.00459*
1,1,0.00787,0.00190,0.01246*
%
%ADD69ROUNDEDRECTD69*%
G04:AMPARAMS|DCode=70|XSize=23.62mil|YSize=27.56mil|CornerRadius=3.94mil|HoleSize=0mil|Usage=FLASHONLY|Rotation=90.000|XOffset=0mil|YOffset=0mil|HoleType=Round|Shape=RoundedRectangle|*
%AMROUNDEDRECTD70*
21,1,0.02362,0.01968,0,0,90.0*
21,1,0.01575,0.02756,0,0,90.0*
1,1,0.00787,0.00984,0.00787*
1,1,0.00787,0.00984,-0.00787*
1,1,0.00787,-0.00984,-0.00787*
1,1,0.00787,-0.00984,0.00787*
%
%ADD70ROUNDEDRECTD70*%
G04:AMPARAMS|DCode=71|XSize=23.62mil|YSize=27.56mil|CornerRadius=3.94mil|HoleSize=0mil|Usage=FLASHONLY|Rotation=0.000|XOffset=0mil|YOffset=0mil|HoleType=Round|Shape=RoundedRectangle|*
%AMROUNDEDRECTD71*
21,1,0.02362,0.01968,0,0,0.0*
21,1,0.01575,0.02756,0,0,0.0*
1,1,0.00787,0.00787,-0.00984*
1,1,0.00787,-0.00787,-0.00984*
1,1,0.00787,-0.00787,0.00984*
1,1,0.00787,0.00787,0.00984*
%
%ADD71ROUNDEDRECTD71*%
G04:AMPARAMS|DCode=72|XSize=43.31mil|YSize=39.37mil|CornerRadius=6.4mil|HoleSize=0mil|Usage=FLASHONLY|Rotation=0.000|XOffset=0mil|YOffset=0mil|HoleType=Round|Shape=RoundedRectangle|*
%AMROUNDEDRECTD72*
21,1,0.04331,0.02657,0,0,0.0*
21,1,0.03051,0.03937,0,0,0.0*
1,1,0.01280,0.01526,-0.01329*
1,1,0.01280,-0.01526,-0.01329*
1,1,0.01280,-0.01526,0.01329*
1,1,0.01280,0.01526,0.01329*
%
%ADD72ROUNDEDRECTD72*%
G04:AMPARAMS|DCode=73|XSize=43.31mil|YSize=39.37mil|CornerRadius=6.4mil|HoleSize=0mil|Usage=FLASHONLY|Rotation=270.000|XOffset=0mil|YOffset=0mil|HoleType=Round|Shape=RoundedRectangle|*
%AMROUNDEDRECTD73*
21,1,0.04331,0.02657,0,0,270.0*
21,1,0.03051,0.03937,0,0,270.0*
1,1,0.01280,-0.01329,-0.01526*
1,1,0.01280,-0.01329,0.01526*
1,1,0.01280,0.01329,0.01526*
1,1,0.01280,0.01329,-0.01526*
%
%ADD73ROUNDEDRECTD73*%
%ADD74R,0.02284X0.02047*%
%ADD75O,0.03543X0.05118*%
%ADD76C,0.00394*%
%ADD77C,0.01772*%
G36*
X-47618Y-11890D02*
X-47736D01*
X-48445Y-11181D01*
Y-10473D01*
X-47618D01*
Y-11890D01*
D02*
G37*
G36*
X-50177Y-11181D02*
X-50886Y-11890D01*
X-51004D01*
Y-10473D01*
X-50177D01*
Y-11181D01*
D02*
G37*
G36*
X-47975Y-12874D02*
X-49311Y-14210D01*
X-50647Y-12874D01*
X-49311Y-11538D01*
X-47975Y-12874D01*
D02*
G37*
G36*
X-47618Y-15276D02*
X-48445D01*
Y-14567D01*
X-47736Y-13858D01*
X-47618D01*
Y-15276D01*
D02*
G37*
G36*
X-50177Y-14567D02*
Y-15276D01*
X-51004D01*
Y-13858D01*
X-50886D01*
X-50177Y-14567D01*
D02*
G37*
G36*
X-35260Y-34167D02*
X-35363Y-34226D01*
X-36331Y-33966D01*
X-36685Y-33353D01*
X-35969Y-32939D01*
X-35260Y-34167D01*
D02*
G37*
G36*
X-37831Y-34833D02*
X-38090Y-35801D01*
X-38193Y-35860D01*
X-38901Y-34632D01*
X-38185Y-34219D01*
X-37831Y-34833D01*
D02*
G37*
G36*
X-35077Y-35198D02*
X-35566Y-37023D01*
X-37392Y-36534D01*
X-36902Y-34708D01*
X-35077Y-35198D01*
D02*
G37*
G36*
X-33568Y-37099D02*
X-34284Y-37512D01*
X-34638Y-36899D01*
X-34378Y-35931D01*
X-34276Y-35872D01*
X-33568Y-37099D01*
D02*
G37*
G36*
X-36138Y-37765D02*
X-35784Y-38379D01*
X-36500Y-38792D01*
X-37208Y-37565D01*
X-37106Y-37505D01*
X-36138Y-37765D01*
D02*
G37*
G36*
X-13785Y-47254D02*
X-13845Y-47357D01*
X-14813Y-47616D01*
X-15426Y-47262D01*
X-15013Y-46546D01*
X-13785Y-47254D01*
D02*
G37*
G36*
X-10853Y-48947D02*
X-11267Y-49663D01*
X-11880Y-49309D01*
X-12140Y-48341D01*
X-12081Y-48239D01*
X-10853Y-48947D01*
D02*
G37*
G36*
X-15679Y-49116D02*
X-15419Y-50084D01*
X-15478Y-50187D01*
X-16706Y-49478D01*
X-16292Y-48762D01*
X-15679Y-49116D01*
D02*
G37*
G36*
X-12622Y-49881D02*
X-14448Y-50370D01*
X-14937Y-48544D01*
X-13111Y-48055D01*
X-12622Y-49881D01*
D02*
G37*
G36*
X-12133Y-51164D02*
X-12546Y-51880D01*
X-13774Y-51171D01*
X-13714Y-51069D01*
X-12746Y-50809D01*
X-12133Y-51164D01*
D02*
G37*
G36*
X49649Y-11621D02*
X49295Y-12235D01*
X48327Y-12494D01*
X48225Y-12436D01*
X48933Y-11208D01*
X49649Y-11621D01*
D02*
G37*
G36*
X51866Y-12901D02*
X51157Y-14128D01*
X51055Y-14069D01*
X50795Y-13101D01*
X51149Y-12488D01*
X51866Y-12901D01*
D02*
G37*
G36*
X50356Y-14802D02*
X48531Y-15292D01*
X48041Y-13466D01*
X49867Y-12977D01*
X50356Y-14802D01*
D02*
G37*
G36*
X47343Y-14199D02*
X47602Y-15167D01*
X47248Y-15781D01*
X46532Y-15368D01*
X47240Y-14140D01*
X47343Y-14199D01*
D02*
G37*
G36*
X50173Y-15833D02*
X49464Y-17061D01*
X48748Y-16647D01*
X49102Y-16034D01*
X50070Y-15774D01*
X50173Y-15833D01*
D02*
G37*
G36*
X37512Y-34284D02*
X36899Y-34638D01*
X35931Y-34378D01*
X35872Y-34276D01*
X37099Y-33568D01*
X37512Y-34284D01*
D02*
G37*
G36*
X34226Y-35363D02*
X33966Y-36331D01*
X33353Y-36685D01*
X32939Y-35969D01*
X34167Y-35260D01*
X34226Y-35363D01*
D02*
G37*
G36*
X38792Y-36500D02*
X37565Y-37208D01*
X37505Y-37106D01*
X37765Y-36138D01*
X38379Y-35784D01*
X38792Y-36500D01*
D02*
G37*
G36*
X37023Y-35566D02*
X36534Y-37392D01*
X34708Y-36902D01*
X35198Y-35077D01*
X37023Y-35566D01*
D02*
G37*
G36*
X35801Y-38090D02*
X35860Y-38193D01*
X34632Y-38901D01*
X34219Y-38185D01*
X34833Y-37831D01*
X35801Y-38090D01*
D02*
G37*
G36*
X14882Y-49035D02*
X14173D01*
X13465Y-48327D01*
Y-48209D01*
X14882D01*
Y-49035D01*
D02*
G37*
G36*
X11496Y-48327D02*
X10787Y-49035D01*
X10079D01*
Y-48209D01*
X11496D01*
Y-48327D01*
D02*
G37*
G36*
X13817Y-49902D02*
X12480Y-51238D01*
X11144Y-49902D01*
X12480Y-48565D01*
X13817Y-49902D01*
D02*
G37*
G36*
X14882Y-51595D02*
X13465D01*
Y-51476D01*
X14173Y-50768D01*
X14882D01*
Y-51595D01*
D02*
G37*
G36*
X11496Y-51476D02*
Y-51595D01*
X10079D01*
Y-50768D01*
X10787D01*
X11496Y-51476D01*
D02*
G37*
G36*
X-9921Y50571D02*
X-10630D01*
X-11339Y51279D01*
Y51398D01*
X-9921D01*
Y50571D01*
D02*
G37*
G36*
X-13307Y51279D02*
X-14016Y50571D01*
X-14724D01*
Y51398D01*
X-13307D01*
Y51279D01*
D02*
G37*
G36*
X-10987Y49705D02*
X-12323Y48368D01*
X-13659Y49705D01*
X-12323Y51041D01*
X-10987Y49705D01*
D02*
G37*
G36*
X-9921Y48012D02*
X-11339D01*
Y48130D01*
X-10630Y48839D01*
X-9921D01*
Y48012D01*
D02*
G37*
G36*
X-13307Y48130D02*
Y48012D01*
X-14724D01*
Y48839D01*
X-14016D01*
X-13307Y48130D01*
D02*
G37*
G36*
X-34219Y38185D02*
X-34833Y37831D01*
X-35801Y38090D01*
X-35860Y38193D01*
X-34632Y38901D01*
X-34219Y38185D01*
D02*
G37*
G36*
X-37505Y37106D02*
X-37765Y36138D01*
X-38379Y35784D01*
X-38792Y36500D01*
X-37565Y37208D01*
X-37505Y37106D01*
D02*
G37*
G36*
X-32939Y35969D02*
X-34167Y35260D01*
X-34226Y35363D01*
X-33966Y36331D01*
X-33353Y36685D01*
X-32939Y35969D01*
D02*
G37*
G36*
X-34708Y36902D02*
X-35198Y35077D01*
X-37023Y35566D01*
X-36534Y37392D01*
X-34708Y36902D01*
D02*
G37*
G36*
X-35931Y34378D02*
X-35872Y34276D01*
X-37099Y33568D01*
X-37512Y34284D01*
X-36899Y34638D01*
X-35931Y34378D01*
D02*
G37*
G36*
X-49024Y16036D02*
X-49378Y15422D01*
X-50346Y15163D01*
X-50448Y15222D01*
X-49740Y16450D01*
X-49024Y16036D01*
D02*
G37*
G36*
X-46807Y14757D02*
X-47516Y13529D01*
X-47618Y13588D01*
X-47878Y14556D01*
X-47523Y15170D01*
X-46807Y14757D01*
D02*
G37*
G36*
X-48317Y12855D02*
X-50142Y12366D01*
X-50631Y14191D01*
X-48806Y14680D01*
X-48317Y12855D01*
D02*
G37*
G36*
X-51330Y13458D02*
X-51071Y12490D01*
X-51425Y11876D01*
X-52141Y12290D01*
X-51433Y13517D01*
X-51330Y13458D01*
D02*
G37*
G36*
X-48500Y11824D02*
X-49209Y10597D01*
X-49925Y11010D01*
X-49571Y11624D01*
X-48603Y11883D01*
X-48500Y11824D01*
D02*
G37*
G36*
X13774Y50383D02*
X13714Y50281D01*
X12746Y50022D01*
X12133Y50376D01*
X12546Y51092D01*
X13774Y50383D01*
D02*
G37*
G36*
X16706Y48691D02*
X16292Y47975D01*
X15679Y48329D01*
X15419Y49297D01*
X15478Y49399D01*
X16706Y48691D01*
D02*
G37*
G36*
X11880Y48522D02*
X12140Y47554D01*
X12081Y47451D01*
X10853Y48160D01*
X11267Y48876D01*
X11880Y48522D01*
D02*
G37*
G36*
X14937Y47757D02*
X13111Y47268D01*
X12622Y49093D01*
X14448Y49582D01*
X14937Y47757D01*
D02*
G37*
G36*
X15426Y46474D02*
X15013Y45758D01*
X13785Y46467D01*
X13845Y46569D01*
X14813Y46829D01*
X15426Y46474D01*
D02*
G37*
G36*
X37456Y37663D02*
X37354Y37604D01*
X36386Y37863D01*
X36031Y38477D01*
X36747Y38890D01*
X37456Y37663D01*
D02*
G37*
G36*
X34886Y36997D02*
X34626Y36029D01*
X34524Y35970D01*
X33815Y37198D01*
X34531Y37611D01*
X34886Y36997D01*
D02*
G37*
G36*
X37639Y36632D02*
X37150Y34807D01*
X35325Y35296D01*
X35814Y37121D01*
X37639Y36632D01*
D02*
G37*
G36*
X39149Y34731D02*
X38433Y34317D01*
X38079Y34931D01*
X38338Y35899D01*
X38440Y35958D01*
X39149Y34731D01*
D02*
G37*
G36*
X36579Y34065D02*
X36933Y33451D01*
X36217Y33038D01*
X35508Y34265D01*
X35610Y34324D01*
X36579Y34065D01*
D02*
G37*
G36*
X50906Y13583D02*
X50787D01*
X50079Y14291D01*
Y15000D01*
X50906D01*
Y13583D01*
D02*
G37*
G36*
X48346Y14291D02*
X47638Y13583D01*
X47520D01*
Y15000D01*
X48346D01*
Y14291D01*
D02*
G37*
G36*
X50549Y12598D02*
X49213Y11262D01*
X47876Y12598D01*
X49213Y13935D01*
X50549Y12598D01*
D02*
G37*
G36*
X50906Y10197D02*
X50079D01*
Y10905D01*
X50787Y11614D01*
X50906D01*
Y10197D01*
D02*
G37*
G36*
X48346Y10905D02*
Y10197D01*
X47520D01*
Y11614D01*
X47638D01*
X48346Y10905D01*
D02*
G37*
D19*
X49199Y-14134D02*
D03*
X-49474Y13523D02*
D03*
D20*
X49460Y-16240D02*
D03*
X47244Y-14961D02*
D03*
X48937Y-12028D02*
D03*
X51153Y-13308D02*
D03*
X-49736Y15629D02*
D03*
X-47520Y14349D02*
D03*
X-49213Y11417D02*
D03*
X-51429Y12697D02*
D03*
D21*
X35866Y-36234D02*
D03*
X-35866Y36234D02*
D03*
D22*
X35039Y-38189D02*
D03*
X33760Y-35973D02*
D03*
X36692Y-34280D02*
D03*
X37972Y-36496D02*
D03*
X-35039Y38189D02*
D03*
X-33760Y35973D02*
D03*
X-36692Y34280D02*
D03*
X-37972Y36496D02*
D03*
D23*
X12480Y-49902D02*
D03*
X-12323Y49705D02*
D03*
D24*
X10787Y-51181D02*
D03*
Y-48622D02*
D03*
X14173D02*
D03*
Y-51181D02*
D03*
X-10630Y50984D02*
D03*
Y48425D02*
D03*
X-14016D02*
D03*
Y50984D02*
D03*
D25*
X-13780Y-49213D02*
D03*
X13780Y48425D02*
D03*
D26*
X-15885Y-49474D02*
D03*
X-14606Y-47258D02*
D03*
X-11674Y-48951D02*
D03*
X-12953Y-51167D02*
D03*
X15885Y48687D02*
D03*
X14606Y46471D02*
D03*
X11674Y48164D02*
D03*
X12953Y50380D02*
D03*
D27*
X-36234Y-35866D02*
D03*
X36482Y35964D02*
D03*
D28*
X-38189Y-35039D02*
D03*
X-35973Y-33760D02*
D03*
X-34280Y-36692D02*
D03*
X-36496Y-37972D02*
D03*
X38437Y35138D02*
D03*
X36220Y33858D02*
D03*
X34528Y36790D02*
D03*
X36744Y38070D02*
D03*
D29*
X-49311Y-12874D02*
D03*
X49213Y12598D02*
D03*
D30*
X-50591Y-11181D02*
D03*
X-48031D02*
D03*
Y-14567D02*
D03*
X-50591D02*
D03*
X50492Y10905D02*
D03*
X47933D02*
D03*
Y14291D02*
D03*
X50492D02*
D03*
D50*
X43139Y-39454D02*
D03*
X55738Y-17633D02*
D03*
X54163Y-20360D02*
D03*
X52588Y-23088D02*
D03*
X51013Y-25816D02*
D03*
X49439Y-28543D02*
D03*
X47864Y-31271D02*
D03*
X46289Y-33999D02*
D03*
X44714Y-36726D02*
D03*
X60300Y-23904D02*
D03*
X49276Y-42997D02*
D03*
X-43139Y39454D02*
D03*
X-55738Y17633D02*
D03*
X-54163Y20360D02*
D03*
X-52588Y23088D02*
D03*
X-51013Y25816D02*
D03*
X-49439Y28543D02*
D03*
X-47864Y31271D02*
D03*
X-46289Y33999D02*
D03*
X-44714Y36726D02*
D03*
X-60300Y23904D02*
D03*
X-49276Y42997D02*
D03*
D51*
X17633Y-55738D02*
D03*
X39454Y-43139D02*
D03*
X36726Y-44714D02*
D03*
X33999Y-46289D02*
D03*
X31271Y-47864D02*
D03*
X28543Y-49439D02*
D03*
X25816Y-51013D02*
D03*
X23088Y-52588D02*
D03*
X20360Y-54163D02*
D03*
X40270Y-50851D02*
D03*
X21176Y-61875D02*
D03*
X-17633Y55738D02*
D03*
X-39454Y43139D02*
D03*
X-36726Y44714D02*
D03*
X-33999Y46289D02*
D03*
X-31271Y47864D02*
D03*
X-28543Y49439D02*
D03*
X-25816Y51013D02*
D03*
X-23088Y52588D02*
D03*
X-20360Y54163D02*
D03*
X-40270Y50851D02*
D03*
X-21176Y61875D02*
D03*
D52*
X-12598Y-57087D02*
D03*
X12598D02*
D03*
X9449D02*
D03*
X6299D02*
D03*
X3150D02*
D03*
X0D02*
D03*
X-3150D02*
D03*
X-6299D02*
D03*
X-9449D02*
D03*
X9449Y-64173D02*
D03*
X-12598D02*
D03*
X12598Y57087D02*
D03*
X-12598D02*
D03*
X-9449D02*
D03*
X-6299D02*
D03*
X-3150D02*
D03*
X0D02*
D03*
X3150D02*
D03*
X6299D02*
D03*
X9449D02*
D03*
X-9449Y64173D02*
D03*
X12598D02*
D03*
D53*
X-39454Y-43139D02*
D03*
X-17633Y-55738D02*
D03*
X-20360Y-54163D02*
D03*
X-23088Y-52588D02*
D03*
X-25816Y-51013D02*
D03*
X-28543Y-49439D02*
D03*
X-31271Y-47864D02*
D03*
X-33999Y-46289D02*
D03*
X-36726Y-44714D02*
D03*
X-23904Y-60300D02*
D03*
X-42997Y-49276D02*
D03*
X39454Y43139D02*
D03*
X17633Y55738D02*
D03*
X20360Y54163D02*
D03*
X23088Y52588D02*
D03*
X25816Y51013D02*
D03*
X28543Y49439D02*
D03*
X31271Y47864D02*
D03*
X33999Y46289D02*
D03*
X36726Y44714D02*
D03*
X23904Y60300D02*
D03*
X42997Y49276D02*
D03*
D54*
X-55738Y-17633D02*
D03*
X-43139Y-39454D02*
D03*
X-44714Y-36726D02*
D03*
X-46289Y-33999D02*
D03*
X-47864Y-31271D02*
D03*
X-49439Y-28543D02*
D03*
X-51013Y-25816D02*
D03*
X-52588Y-23088D02*
D03*
X-54163Y-20360D02*
D03*
X-50851Y-40270D02*
D03*
X-61875Y-21176D02*
D03*
X55738Y17633D02*
D03*
X43139Y39454D02*
D03*
X44714Y36726D02*
D03*
X46289Y33999D02*
D03*
X47864Y31271D02*
D03*
X49439Y28543D02*
D03*
X51013Y25816D02*
D03*
X52588Y23088D02*
D03*
X54163Y20360D02*
D03*
X50851Y40270D02*
D03*
X61875Y21176D02*
D03*
D55*
X-57087Y12598D02*
D03*
Y-12598D02*
D03*
Y-9449D02*
D03*
Y-6299D02*
D03*
Y-3150D02*
D03*
Y0D02*
D03*
Y3150D02*
D03*
Y6299D02*
D03*
Y9449D02*
D03*
X-64173Y-9449D02*
D03*
Y12598D02*
D03*
X57087Y-12598D02*
D03*
Y12598D02*
D03*
Y9449D02*
D03*
Y6299D02*
D03*
Y3150D02*
D03*
Y0D02*
D03*
Y-3150D02*
D03*
Y-6299D02*
D03*
Y-9449D02*
D03*
X64173Y9449D02*
D03*
Y-12598D02*
D03*
D56*
X13484Y-10827D02*
D03*
Y-8858D02*
D03*
Y-6890D02*
D03*
Y-4921D02*
D03*
Y-2953D02*
D03*
Y-984D02*
D03*
Y984D02*
D03*
Y2953D02*
D03*
Y4921D02*
D03*
Y6890D02*
D03*
Y8858D02*
D03*
Y10827D02*
D03*
X-13484D02*
D03*
Y8858D02*
D03*
Y6890D02*
D03*
Y4921D02*
D03*
Y2953D02*
D03*
Y984D02*
D03*
Y-984D02*
D03*
Y-2953D02*
D03*
Y-4921D02*
D03*
Y-6890D02*
D03*
Y-8858D02*
D03*
Y-10827D02*
D03*
D57*
X10827Y13484D02*
D03*
X8858D02*
D03*
X6890D02*
D03*
X4921D02*
D03*
X2953D02*
D03*
X984D02*
D03*
X-984D02*
D03*
X-2953D02*
D03*
X-4921D02*
D03*
X-6890D02*
D03*
X-8858D02*
D03*
X-10827D02*
D03*
Y-13484D02*
D03*
X-8858D02*
D03*
X-6890D02*
D03*
X-4921D02*
D03*
X-2953D02*
D03*
X-984D02*
D03*
X984D02*
D03*
X2953D02*
D03*
X4921D02*
D03*
X6890D02*
D03*
X8858D02*
D03*
X10827D02*
D03*
D58*
X0Y0D02*
D03*
D59*
X25591Y-9646D02*
D03*
Y6496D02*
D03*
X31890Y-9646D02*
D03*
Y6496D02*
D03*
D60*
X21063Y-21063D02*
D03*
X25000D02*
D03*
D61*
X37106Y-7874D02*
D03*
Y-11811D02*
D03*
D62*
X42520Y-3248D02*
D03*
Y-9941D02*
D03*
D63*
X28150Y-16929D02*
D03*
X21457D02*
D03*
D64*
X-28346Y-36024D02*
D03*
Y-34055D02*
D03*
Y-32087D02*
D03*
Y-30118D02*
D03*
Y-28150D02*
D03*
Y-26181D02*
D03*
Y-24213D02*
D03*
Y-22244D02*
D03*
D65*
X-18504Y-39961D02*
D03*
Y-18307D02*
D03*
D66*
X52756Y-15094D02*
D03*
X50787Y-18504D02*
D03*
X-17913Y-47768D02*
D03*
X-15945Y-44358D02*
D03*
X-52953Y14831D02*
D03*
X-50984Y18240D02*
D03*
X18110Y46457D02*
D03*
X16142Y43047D02*
D03*
D67*
X47374Y-17913D02*
D03*
X43964Y-15945D02*
D03*
X-15224Y-52953D02*
D03*
X-18634Y-50984D02*
D03*
X-48162Y17520D02*
D03*
X-44752Y15551D02*
D03*
X15224Y52165D02*
D03*
X18634Y50197D02*
D03*
D68*
X38319Y-39567D02*
D03*
X34909Y-41535D02*
D03*
X-39106Y-32480D02*
D03*
X-35697Y-30512D02*
D03*
X-38319Y39567D02*
D03*
X-34909Y41535D02*
D03*
X39370Y32677D02*
D03*
X35961Y30709D02*
D03*
D69*
X32480Y-39500D02*
D03*
X30512Y-36090D02*
D03*
X-39567Y-38319D02*
D03*
X-41535Y-34909D02*
D03*
X-32677Y39236D02*
D03*
X-30709Y35827D02*
D03*
X39567Y38319D02*
D03*
X41535Y34909D02*
D03*
D70*
X13386Y-53543D02*
D03*
X9449D02*
D03*
X-50000Y-8661D02*
D03*
X-46063D02*
D03*
X-12992Y53543D02*
D03*
X-9055D02*
D03*
X50000Y8268D02*
D03*
X46063D02*
D03*
X12894Y-15945D02*
D03*
X16831D02*
D03*
X-8268Y17323D02*
D03*
X-12205D02*
D03*
D71*
X7874Y-50394D02*
D03*
Y-46457D02*
D03*
X-53150Y-13386D02*
D03*
Y-9449D02*
D03*
X-7874Y50394D02*
D03*
Y46457D02*
D03*
X53150Y13386D02*
D03*
Y9449D02*
D03*
X-17323Y-9449D02*
D03*
Y-13386D02*
D03*
D72*
X-21260Y-14764D02*
D03*
Y-8071D02*
D03*
D73*
X-13583Y22047D02*
D03*
X-6890D02*
D03*
D74*
X17598Y1575D02*
D03*
X20197D02*
D03*
D75*
X7283Y-101969D02*
D03*
X2362D02*
D03*
X-2559D02*
D03*
X-7480D02*
D03*
D76*
X103991Y60039D02*
D03*
X-103991D02*
D03*
X0Y-120079D02*
D03*
D77*
X21358Y-64173D02*
D03*
M02*
