G04*
G04 #@! TF.GenerationSoftware,Altium Limited,Altium Designer,21.6.1 (37)*
G04*
G04 Layer_Color=8388736*
%FSLAX25Y25*%
%MOIN*%
G70*
G04*
G04 #@! TF.SameCoordinates,7A2AF629-CEF6-4696-9375-0D09EAA51E4D*
G04*
G04*
G04 #@! TF.FilePolarity,Negative*
G04*
G01*
G75*
%ADD18P,0.01114X4X285.0*%
%ADD19P,0.00557X4X285.0*%
%ADD20P,0.01114X4X255.0*%
%ADD21P,0.00557X4X255.0*%
%ADD22R,0.00787X0.00787*%
%ADD23R,0.00394X0.00394*%
%ADD24P,0.01114X4X195.0*%
%ADD25P,0.00557X4X195.0*%
%ADD26P,0.01114X4X165.0*%
%ADD27P,0.00557X4X165.0*%
%ADD28R,0.00787X0.00787*%
%ADD29R,0.00394X0.00394*%
G04:AMPARAMS|DCode=53|XSize=15.75mil|YSize=31.5mil|CornerRadius=4.92mil|HoleSize=0mil|Usage=FLASHONLY|Rotation=0.000|XOffset=0mil|YOffset=0mil|HoleType=Round|Shape=RoundedRectangle|*
%AMROUNDEDRECTD53*
21,1,0.01575,0.02165,0,0,0.0*
21,1,0.00591,0.03150,0,0,0.0*
1,1,0.00984,0.00295,-0.01083*
1,1,0.00984,-0.00295,-0.01083*
1,1,0.00984,-0.00295,0.01083*
1,1,0.00984,0.00295,0.01083*
%
%ADD53ROUNDEDRECTD53*%
G04:AMPARAMS|DCode=54|XSize=15.75mil|YSize=31.5mil|CornerRadius=4.92mil|HoleSize=0mil|Usage=FLASHONLY|Rotation=270.000|XOffset=0mil|YOffset=0mil|HoleType=Round|Shape=RoundedRectangle|*
%AMROUNDEDRECTD54*
21,1,0.01575,0.02165,0,0,270.0*
21,1,0.00591,0.03150,0,0,270.0*
1,1,0.00984,-0.01083,-0.00295*
1,1,0.00984,-0.01083,0.00295*
1,1,0.00984,0.01083,0.00295*
1,1,0.00984,0.01083,-0.00295*
%
%ADD54ROUNDEDRECTD54*%
%ADD55R,0.13976X0.13976*%
G04:AMPARAMS|DCode=56|XSize=15.75mil|YSize=27.56mil|CornerRadius=4.92mil|HoleSize=0mil|Usage=FLASHONLY|Rotation=0.000|XOffset=0mil|YOffset=0mil|HoleType=Round|Shape=RoundedRectangle|*
%AMROUNDEDRECTD56*
21,1,0.01575,0.01772,0,0,0.0*
21,1,0.00591,0.02756,0,0,0.0*
1,1,0.00984,0.00295,-0.00886*
1,1,0.00984,-0.00295,-0.00886*
1,1,0.00984,-0.00295,0.00886*
1,1,0.00984,0.00295,0.00886*
%
%ADD56ROUNDEDRECTD56*%
G04:AMPARAMS|DCode=57|XSize=15.75mil|YSize=27.56mil|CornerRadius=4.92mil|HoleSize=0mil|Usage=FLASHONLY|Rotation=90.000|XOffset=0mil|YOffset=0mil|HoleType=Round|Shape=RoundedRectangle|*
%AMROUNDEDRECTD57*
21,1,0.01575,0.01772,0,0,90.0*
21,1,0.00591,0.02756,0,0,90.0*
1,1,0.00984,0.00886,0.00295*
1,1,0.00984,0.00886,-0.00295*
1,1,0.00984,-0.00886,-0.00295*
1,1,0.00984,-0.00886,0.00295*
%
%ADD57ROUNDEDRECTD57*%
G04:AMPARAMS|DCode=58|XSize=27.56mil|YSize=27.56mil|CornerRadius=4.33mil|HoleSize=0mil|Usage=FLASHONLY|Rotation=90.000|XOffset=0mil|YOffset=0mil|HoleType=Round|Shape=RoundedRectangle|*
%AMROUNDEDRECTD58*
21,1,0.02756,0.01890,0,0,90.0*
21,1,0.01890,0.02756,0,0,90.0*
1,1,0.00866,0.00945,0.00945*
1,1,0.00866,0.00945,-0.00945*
1,1,0.00866,-0.00945,-0.00945*
1,1,0.00866,-0.00945,0.00945*
%
%ADD58ROUNDEDRECTD58*%
%ADD59R,0.02047X0.02284*%
%ADD60R,0.02284X0.02047*%
G04:AMPARAMS|DCode=61|XSize=35.43mil|YSize=35.43mil|CornerRadius=5.91mil|HoleSize=0mil|Usage=FLASHONLY|Rotation=90.000|XOffset=0mil|YOffset=0mil|HoleType=Round|Shape=RoundedRectangle|*
%AMROUNDEDRECTD61*
21,1,0.03543,0.02362,0,0,90.0*
21,1,0.02362,0.03543,0,0,90.0*
1,1,0.01181,0.01181,0.01181*
1,1,0.01181,0.01181,-0.01181*
1,1,0.01181,-0.01181,-0.01181*
1,1,0.01181,-0.01181,0.01181*
%
%ADD61ROUNDEDRECTD61*%
G04:AMPARAMS|DCode=62|XSize=27.56mil|YSize=27.56mil|CornerRadius=4.33mil|HoleSize=0mil|Usage=FLASHONLY|Rotation=120.000|XOffset=0mil|YOffset=0mil|HoleType=Round|Shape=RoundedRectangle|*
%AMROUNDEDRECTD62*
21,1,0.02756,0.01890,0,0,120.0*
21,1,0.01890,0.02756,0,0,120.0*
1,1,0.00866,0.00346,0.01291*
1,1,0.00866,0.01291,-0.00346*
1,1,0.00866,-0.00346,-0.01291*
1,1,0.00866,-0.01291,0.00346*
%
%ADD62ROUNDEDRECTD62*%
G04:AMPARAMS|DCode=63|XSize=27.56mil|YSize=27.56mil|CornerRadius=4.33mil|HoleSize=0mil|Usage=FLASHONLY|Rotation=180.000|XOffset=0mil|YOffset=0mil|HoleType=Round|Shape=RoundedRectangle|*
%AMROUNDEDRECTD63*
21,1,0.02756,0.01890,0,0,180.0*
21,1,0.01890,0.02756,0,0,180.0*
1,1,0.00866,-0.00945,0.00945*
1,1,0.00866,0.00945,0.00945*
1,1,0.00866,0.00945,-0.00945*
1,1,0.00866,-0.00945,-0.00945*
%
%ADD63ROUNDEDRECTD63*%
G04:AMPARAMS|DCode=64|XSize=27.56mil|YSize=27.56mil|CornerRadius=4.33mil|HoleSize=0mil|Usage=FLASHONLY|Rotation=60.000|XOffset=0mil|YOffset=0mil|HoleType=Round|Shape=RoundedRectangle|*
%AMROUNDEDRECTD64*
21,1,0.02756,0.01890,0,0,60.0*
21,1,0.01890,0.02756,0,0,60.0*
1,1,0.00866,0.01291,0.00346*
1,1,0.00866,0.00346,-0.01291*
1,1,0.00866,-0.01291,-0.00346*
1,1,0.00866,-0.00346,0.01291*
%
%ADD64ROUNDEDRECTD64*%
G04:AMPARAMS|DCode=65|XSize=27.56mil|YSize=27.56mil|CornerRadius=4.33mil|HoleSize=0mil|Usage=FLASHONLY|Rotation=30.000|XOffset=0mil|YOffset=0mil|HoleType=Round|Shape=RoundedRectangle|*
%AMROUNDEDRECTD65*
21,1,0.02756,0.01890,0,0,30.0*
21,1,0.01890,0.02756,0,0,30.0*
1,1,0.00866,0.01291,-0.00346*
1,1,0.00866,-0.00346,-0.01291*
1,1,0.00866,-0.01291,0.00346*
1,1,0.00866,0.00346,0.01291*
%
%ADD65ROUNDEDRECTD65*%
G04:AMPARAMS|DCode=66|XSize=27.56mil|YSize=27.56mil|CornerRadius=4.33mil|HoleSize=0mil|Usage=FLASHONLY|Rotation=330.000|XOffset=0mil|YOffset=0mil|HoleType=Round|Shape=RoundedRectangle|*
%AMROUNDEDRECTD66*
21,1,0.02756,0.01890,0,0,330.0*
21,1,0.01890,0.02756,0,0,330.0*
1,1,0.00866,0.00346,-0.01291*
1,1,0.00866,-0.01291,-0.00346*
1,1,0.00866,-0.00346,0.01291*
1,1,0.00866,0.01291,0.00346*
%
%ADD66ROUNDEDRECTD66*%
G04:AMPARAMS|DCode=67|XSize=35.43mil|YSize=35.43mil|CornerRadius=5.91mil|HoleSize=0mil|Usage=FLASHONLY|Rotation=180.000|XOffset=0mil|YOffset=0mil|HoleType=Round|Shape=RoundedRectangle|*
%AMROUNDEDRECTD67*
21,1,0.03543,0.02362,0,0,180.0*
21,1,0.02362,0.03543,0,0,180.0*
1,1,0.01181,-0.01181,0.01181*
1,1,0.01181,0.01181,0.01181*
1,1,0.01181,0.01181,-0.01181*
1,1,0.01181,-0.01181,-0.01181*
%
%ADD67ROUNDEDRECTD67*%
G04:AMPARAMS|DCode=68|XSize=23.62mil|YSize=27.56mil|CornerRadius=3.94mil|HoleSize=0mil|Usage=FLASHONLY|Rotation=270.000|XOffset=0mil|YOffset=0mil|HoleType=Round|Shape=RoundedRectangle|*
%AMROUNDEDRECTD68*
21,1,0.02362,0.01968,0,0,270.0*
21,1,0.01575,0.02756,0,0,270.0*
1,1,0.00787,-0.00984,-0.00787*
1,1,0.00787,-0.00984,0.00787*
1,1,0.00787,0.00984,0.00787*
1,1,0.00787,0.00984,-0.00787*
%
%ADD68ROUNDEDRECTD68*%
G04:AMPARAMS|DCode=69|XSize=23.62mil|YSize=27.56mil|CornerRadius=3.94mil|HoleSize=0mil|Usage=FLASHONLY|Rotation=0.000|XOffset=0mil|YOffset=0mil|HoleType=Round|Shape=RoundedRectangle|*
%AMROUNDEDRECTD69*
21,1,0.02362,0.01968,0,0,0.0*
21,1,0.01575,0.02756,0,0,0.0*
1,1,0.00787,0.00787,-0.00984*
1,1,0.00787,-0.00787,-0.00984*
1,1,0.00787,-0.00787,0.00984*
1,1,0.00787,0.00787,0.00984*
%
%ADD69ROUNDEDRECTD69*%
%ADD70R,0.04331X0.02756*%
G04:AMPARAMS|DCode=71|XSize=27.56mil|YSize=43.31mil|CornerRadius=0mil|HoleSize=0mil|Usage=FLASHONLY|Rotation=120.000|XOffset=0mil|YOffset=0mil|HoleType=Round|Shape=Rectangle|*
%AMROTATEDRECTD71*
4,1,4,0.02564,-0.00111,-0.01186,-0.02276,-0.02564,0.00111,0.01186,0.02276,0.02564,-0.00111,0.0*
%
%ADD71ROTATEDRECTD71*%

G04:AMPARAMS|DCode=72|XSize=27.56mil|YSize=43.31mil|CornerRadius=0mil|HoleSize=0mil|Usage=FLASHONLY|Rotation=60.000|XOffset=0mil|YOffset=0mil|HoleType=Round|Shape=Rectangle|*
%AMROTATEDRECTD72*
4,1,4,0.01186,-0.02276,-0.02564,-0.00111,-0.01186,0.02276,0.02564,0.00111,0.01186,-0.02276,0.0*
%
%ADD72ROTATEDRECTD72*%

G04:AMPARAMS|DCode=73|XSize=27.56mil|YSize=43.31mil|CornerRadius=0mil|HoleSize=0mil|Usage=FLASHONLY|Rotation=30.000|XOffset=0mil|YOffset=0mil|HoleType=Round|Shape=Rectangle|*
%AMROTATEDRECTD73*
4,1,4,-0.00111,-0.02564,-0.02276,0.01186,0.00111,0.02564,0.02276,-0.01186,-0.00111,-0.02564,0.0*
%
%ADD73ROTATEDRECTD73*%

%ADD74R,0.02756X0.04331*%
G04:AMPARAMS|DCode=75|XSize=27.56mil|YSize=43.31mil|CornerRadius=0mil|HoleSize=0mil|Usage=FLASHONLY|Rotation=150.000|XOffset=0mil|YOffset=0mil|HoleType=Round|Shape=Rectangle|*
%AMROTATEDRECTD75*
4,1,4,0.02276,0.01186,0.00111,-0.02564,-0.02276,-0.01186,-0.00111,0.02564,0.02276,0.01186,0.0*
%
%ADD75ROTATEDRECTD75*%

%ADD76R,0.04331X0.03937*%
G04:AMPARAMS|DCode=77|XSize=23.62mil|YSize=27.56mil|CornerRadius=3.94mil|HoleSize=0mil|Usage=FLASHONLY|Rotation=150.000|XOffset=0mil|YOffset=0mil|HoleType=Round|Shape=RoundedRectangle|*
%AMROUNDEDRECTD77*
21,1,0.02362,0.01968,0,0,150.0*
21,1,0.01575,0.02756,0,0,150.0*
1,1,0.00787,-0.00190,0.01246*
1,1,0.00787,0.01174,0.00459*
1,1,0.00787,0.00190,-0.01246*
1,1,0.00787,-0.01174,-0.00459*
%
%ADD77ROUNDEDRECTD77*%
G04:AMPARAMS|DCode=78|XSize=23.62mil|YSize=27.56mil|CornerRadius=3.94mil|HoleSize=0mil|Usage=FLASHONLY|Rotation=60.000|XOffset=0mil|YOffset=0mil|HoleType=Round|Shape=RoundedRectangle|*
%AMROUNDEDRECTD78*
21,1,0.02362,0.01968,0,0,60.0*
21,1,0.01575,0.02756,0,0,60.0*
1,1,0.00787,0.01246,0.00190*
1,1,0.00787,0.00459,-0.01174*
1,1,0.00787,-0.01246,-0.00190*
1,1,0.00787,-0.00459,0.01174*
%
%ADD78ROUNDEDRECTD78*%
G04:AMPARAMS|DCode=79|XSize=23.62mil|YSize=27.56mil|CornerRadius=3.94mil|HoleSize=0mil|Usage=FLASHONLY|Rotation=120.000|XOffset=0mil|YOffset=0mil|HoleType=Round|Shape=RoundedRectangle|*
%AMROUNDEDRECTD79*
21,1,0.02362,0.01968,0,0,120.0*
21,1,0.01575,0.02756,0,0,120.0*
1,1,0.00787,0.00459,0.01174*
1,1,0.00787,0.01246,-0.00190*
1,1,0.00787,-0.00459,-0.01174*
1,1,0.00787,-0.01246,0.00190*
%
%ADD79ROUNDEDRECTD79*%
G04:AMPARAMS|DCode=80|XSize=23.62mil|YSize=27.56mil|CornerRadius=3.94mil|HoleSize=0mil|Usage=FLASHONLY|Rotation=30.000|XOffset=0mil|YOffset=0mil|HoleType=Round|Shape=RoundedRectangle|*
%AMROUNDEDRECTD80*
21,1,0.02362,0.01968,0,0,30.0*
21,1,0.01575,0.02756,0,0,30.0*
1,1,0.00787,0.01174,-0.00459*
1,1,0.00787,-0.00190,-0.01246*
1,1,0.00787,-0.01174,0.00459*
1,1,0.00787,0.00190,0.01246*
%
%ADD80ROUNDEDRECTD80*%
%ADD81O,0.03543X0.05118*%
%ADD82C,0.00394*%
G36*
X-47501Y-10278D02*
X-47464Y-10290D01*
X-47429Y-10308D01*
X-47400Y-10333D01*
X-47375Y-10363D01*
X-47357Y-10397D01*
X-47345Y-10434D01*
X-47342Y-10473D01*
Y-11890D01*
X-47345Y-11928D01*
X-47357Y-11965D01*
X-47375Y-12000D01*
X-47400Y-12030D01*
X-47429Y-12054D01*
X-47464Y-12072D01*
X-47501Y-12084D01*
X-47539Y-12088D01*
X-47815D01*
X-47815Y-12088D01*
X-47834Y-12086D01*
X-47854Y-12084D01*
X-47882Y-12075D01*
X-47891Y-12072D01*
X-47925Y-12054D01*
X-47955Y-12030D01*
X-48663Y-11321D01*
X-48688Y-11291D01*
X-48706Y-11257D01*
X-48709Y-11248D01*
X-48718Y-11220D01*
X-48719Y-11200D01*
X-48721Y-11181D01*
X-48721Y-11181D01*
X-48721Y-10473D01*
X-48718Y-10434D01*
X-48706Y-10397D01*
X-48688Y-10363D01*
X-48663Y-10333D01*
X-48634Y-10308D01*
X-48599Y-10290D01*
X-48562Y-10278D01*
X-48524Y-10275D01*
X-47539D01*
X-47501Y-10278D01*
D02*
G37*
G36*
X-50060D02*
X-50023Y-10290D01*
X-49988Y-10308D01*
X-49959Y-10333D01*
X-49934Y-10363D01*
X-49916Y-10397D01*
X-49904Y-10434D01*
X-49901Y-10473D01*
X-49901Y-11181D01*
X-49901Y-11181D01*
X-49902Y-11200D01*
X-49904Y-11220D01*
X-49913Y-11248D01*
X-49916Y-11257D01*
X-49934Y-11291D01*
X-49959Y-11321D01*
X-50667Y-12030D01*
X-50697Y-12054D01*
X-50731Y-12072D01*
X-50740Y-12075D01*
X-50769Y-12084D01*
X-50788Y-12086D01*
X-50807Y-12088D01*
X-50807Y-12088D01*
X-51083D01*
X-51121Y-12084D01*
X-51158Y-12072D01*
X-51193Y-12054D01*
X-51223Y-12030D01*
X-51247Y-12000D01*
X-51265Y-11965D01*
X-51277Y-11928D01*
X-51280Y-11890D01*
Y-10473D01*
X-51277Y-10434D01*
X-51265Y-10397D01*
X-51247Y-10363D01*
X-51223Y-10333D01*
X-51193Y-10308D01*
X-51158Y-10290D01*
X-51121Y-10278D01*
X-51083Y-10275D01*
X-50098D01*
X-50060Y-10278D01*
D02*
G37*
G36*
X-49272Y-11344D02*
X-49235Y-11355D01*
X-49201Y-11373D01*
X-49171Y-11398D01*
X-47835Y-12734D01*
X-47810Y-12764D01*
X-47792Y-12798D01*
X-47781Y-12835D01*
X-47777Y-12874D01*
X-47781Y-12913D01*
X-47789Y-12938D01*
X-47792Y-12950D01*
X-47810Y-12984D01*
X-47835Y-13014D01*
X-47835Y-13014D01*
X-49171Y-14350D01*
X-49201Y-14375D01*
X-49235Y-14393D01*
X-49272Y-14404D01*
X-49311Y-14408D01*
X-49350Y-14404D01*
X-49387Y-14393D01*
X-49421Y-14375D01*
X-49451Y-14350D01*
X-49451Y-14350D01*
X-50787Y-13014D01*
X-50812Y-12984D01*
X-50830Y-12950D01*
X-50841Y-12913D01*
X-50845Y-12874D01*
X-50841Y-12835D01*
X-50830Y-12798D01*
X-50812Y-12764D01*
X-50787Y-12734D01*
X-49451Y-11398D01*
X-49421Y-11373D01*
X-49387Y-11355D01*
X-49350Y-11344D01*
X-49311Y-11340D01*
X-49272Y-11344D01*
D02*
G37*
G36*
X-47815Y-13660D02*
X-47539D01*
X-47501Y-13664D01*
X-47464Y-13676D01*
X-47429Y-13694D01*
X-47400Y-13718D01*
X-47375Y-13748D01*
X-47357Y-13783D01*
X-47345Y-13820D01*
X-47342Y-13858D01*
Y-15276D01*
X-47345Y-15314D01*
X-47357Y-15351D01*
X-47375Y-15385D01*
X-47400Y-15416D01*
X-47429Y-15440D01*
X-47464Y-15458D01*
X-47501Y-15470D01*
X-47539Y-15473D01*
X-48524D01*
X-48562Y-15470D01*
X-48599Y-15458D01*
X-48634Y-15440D01*
X-48663Y-15416D01*
X-48688Y-15385D01*
X-48706Y-15351D01*
X-48718Y-15314D01*
X-48721Y-15276D01*
X-48721Y-14567D01*
X-48721Y-14567D01*
X-48719Y-14548D01*
X-48718Y-14528D01*
X-48709Y-14500D01*
X-48706Y-14491D01*
X-48688Y-14457D01*
X-48663Y-14427D01*
X-47955Y-13718D01*
X-47925Y-13694D01*
X-47891Y-13676D01*
X-47882Y-13673D01*
X-47854Y-13664D01*
X-47834Y-13662D01*
X-47815Y-13660D01*
X-47815Y-13660D01*
D02*
G37*
G36*
X-50788Y-13662D02*
X-50769Y-13664D01*
X-50740Y-13673D01*
X-50731Y-13676D01*
X-50697Y-13694D01*
X-50667Y-13718D01*
X-49959Y-14427D01*
X-49934Y-14457D01*
X-49916Y-14491D01*
X-49913Y-14500D01*
X-49904Y-14528D01*
X-49902Y-14548D01*
X-49901Y-14567D01*
X-49901Y-14567D01*
X-49901Y-15276D01*
X-49904Y-15314D01*
X-49916Y-15351D01*
X-49934Y-15385D01*
X-49959Y-15416D01*
X-49988Y-15440D01*
X-50023Y-15458D01*
X-50060Y-15470D01*
X-50098Y-15473D01*
X-51083D01*
X-51121Y-15470D01*
X-51158Y-15458D01*
X-51193Y-15440D01*
X-51223Y-15416D01*
X-51247Y-15385D01*
X-51265Y-15351D01*
X-51277Y-15314D01*
X-51280Y-15276D01*
Y-13858D01*
X-51277Y-13820D01*
X-51265Y-13783D01*
X-51247Y-13748D01*
X-51223Y-13718D01*
X-51193Y-13694D01*
X-51158Y-13676D01*
X-51121Y-13664D01*
X-51083Y-13660D01*
X-50807D01*
X-50807Y-13660D01*
X-50788Y-13662D01*
D02*
G37*
G36*
X-35850Y-32709D02*
X-35813Y-32723D01*
X-35781Y-32743D01*
X-35752Y-32770D01*
X-35730Y-32801D01*
X-35021Y-34029D01*
X-35005Y-34064D01*
X-34996Y-34102D01*
X-34995Y-34140D01*
D01*
Y-34140D01*
X-35001Y-34179D01*
X-35015Y-34215D01*
X-35035Y-34248D01*
X-35062Y-34276D01*
X-35093Y-34299D01*
X-35332Y-34437D01*
X-35367Y-34453D01*
X-35405Y-34461D01*
X-35406Y-34461D01*
X-35444Y-34463D01*
X-35462Y-34460D01*
X-35482Y-34456D01*
X-35482Y-34456D01*
X-36450Y-34197D01*
X-36450Y-34197D01*
X-36479Y-34186D01*
X-36487Y-34183D01*
X-36519Y-34163D01*
X-36548Y-34136D01*
X-36557Y-34123D01*
X-36570Y-34105D01*
X-36570Y-34105D01*
X-36925Y-33491D01*
X-36941Y-33456D01*
X-36949Y-33418D01*
X-36951Y-33379D01*
X-36944Y-33341D01*
X-36931Y-33305D01*
X-36910Y-33272D01*
X-36884Y-33244D01*
X-36852Y-33221D01*
X-36000Y-32729D01*
X-35965Y-32713D01*
X-35927Y-32704D01*
X-35888Y-32703D01*
X-35850Y-32709D01*
D02*
G37*
G36*
X-36851Y-34517D02*
X-35026Y-35006D01*
X-34990Y-35020D01*
X-34957Y-35041D01*
X-34929Y-35067D01*
X-34906Y-35099D01*
X-34890Y-35134D01*
X-34881Y-35172D01*
X-34880Y-35210D01*
X-34886Y-35249D01*
X-35375Y-37074D01*
X-35389Y-37110D01*
X-35409Y-37143D01*
X-35436Y-37172D01*
X-35467Y-37194D01*
X-35503Y-37210D01*
X-35541Y-37219D01*
X-35579Y-37220D01*
X-35618Y-37214D01*
X-37443Y-36725D01*
X-37479Y-36711D01*
X-37512Y-36691D01*
X-37540Y-36664D01*
X-37556Y-36642D01*
X-37563Y-36633D01*
X-37579Y-36597D01*
X-37588Y-36560D01*
X-37589Y-36521D01*
D01*
Y-36521D01*
X-37583Y-36483D01*
X-37094Y-34657D01*
X-37080Y-34621D01*
X-37060Y-34588D01*
X-37033Y-34560D01*
X-37001Y-34537D01*
X-36966Y-34521D01*
X-36928Y-34512D01*
X-36890Y-34511D01*
D01*
X-36890D01*
X-36851Y-34517D01*
D02*
G37*
G36*
X-38066Y-33988D02*
X-38030Y-34002D01*
X-37997Y-34023D01*
X-37968Y-34049D01*
X-37946Y-34081D01*
X-37591Y-34694D01*
X-37591Y-34694D01*
X-37576Y-34730D01*
X-37567Y-34767D01*
X-37565Y-34806D01*
X-37568Y-34824D01*
X-37572Y-34844D01*
X-37572Y-34845D01*
X-37831Y-35813D01*
Y-35813D01*
X-37834Y-35820D01*
X-37845Y-35849D01*
X-37865Y-35882D01*
X-37892Y-35910D01*
X-37923Y-35933D01*
X-38162Y-36070D01*
X-38197Y-36086D01*
X-38235Y-36095D01*
X-38274Y-36097D01*
X-38312Y-36090D01*
X-38348Y-36077D01*
X-38381Y-36056D01*
X-38410Y-36030D01*
X-38432Y-35998D01*
X-39141Y-34771D01*
X-39157Y-34735D01*
X-39166Y-34697D01*
X-39167Y-34659D01*
X-39161Y-34620D01*
X-39147Y-34584D01*
X-39126Y-34551D01*
X-39100Y-34523D01*
X-39068Y-34500D01*
X-38216Y-34008D01*
X-38181Y-33992D01*
X-38143Y-33983D01*
X-38104Y-33982D01*
X-38066Y-33988D01*
D02*
G37*
G36*
X-34157Y-35641D02*
X-34121Y-35655D01*
X-34088Y-35675D01*
X-34059Y-35702D01*
X-34037Y-35733D01*
X-33328Y-36961D01*
X-33312Y-36996D01*
X-33303Y-37034D01*
X-33302Y-37073D01*
X-33308Y-37111D01*
X-33322Y-37147D01*
X-33342Y-37180D01*
X-33369Y-37208D01*
X-33400Y-37231D01*
X-34253Y-37723D01*
X-34288Y-37739D01*
X-34326Y-37748D01*
X-34365Y-37749D01*
X-34403Y-37743D01*
X-34439Y-37729D01*
X-34472Y-37709D01*
X-34500Y-37682D01*
X-34523Y-37651D01*
X-34877Y-37037D01*
X-34877Y-37037D01*
X-34893Y-37002D01*
X-34902Y-36964D01*
X-34903Y-36925D01*
X-34901Y-36908D01*
X-34897Y-36887D01*
X-34897Y-36887D01*
X-34638Y-35919D01*
Y-35919D01*
X-34635Y-35911D01*
X-34624Y-35883D01*
X-34604Y-35850D01*
X-34577Y-35821D01*
X-34546Y-35799D01*
X-34307Y-35661D01*
X-34272Y-35645D01*
X-34234Y-35636D01*
X-34195Y-35635D01*
X-34157Y-35641D01*
D02*
G37*
G36*
X-37007Y-37272D02*
X-36987Y-37275D01*
X-36987Y-37275D01*
X-36019Y-37534D01*
X-36019Y-37534D01*
X-35990Y-37545D01*
X-35982Y-37548D01*
X-35950Y-37569D01*
X-35921Y-37595D01*
X-35912Y-37608D01*
X-35899Y-37627D01*
X-35899Y-37627D01*
X-35544Y-38240D01*
X-35528Y-38276D01*
X-35519Y-38313D01*
X-35518Y-38352D01*
X-35524Y-38390D01*
X-35538Y-38427D01*
X-35559Y-38460D01*
X-35585Y-38488D01*
X-35617Y-38511D01*
X-36469Y-39003D01*
X-36504Y-39019D01*
X-36542Y-39028D01*
X-36581Y-39029D01*
X-36619Y-39022D01*
X-36655Y-39009D01*
X-36688Y-38988D01*
X-36717Y-38962D01*
X-36739Y-38930D01*
X-37448Y-37703D01*
X-37464Y-37668D01*
X-37473Y-37630D01*
X-37474Y-37591D01*
D01*
Y-37591D01*
X-37468Y-37553D01*
X-37454Y-37516D01*
X-37433Y-37484D01*
X-37407Y-37455D01*
X-37376Y-37433D01*
X-37137Y-37295D01*
X-37102Y-37279D01*
X-37064Y-37270D01*
X-37062Y-37270D01*
X-37025Y-37269D01*
X-37007Y-37272D01*
D02*
G37*
G36*
X-14948Y-46281D02*
X-14910Y-46290D01*
X-14875Y-46306D01*
X-13647Y-47015D01*
X-13616Y-47038D01*
X-13589Y-47066D01*
X-13569Y-47099D01*
X-13555Y-47135D01*
X-13549Y-47173D01*
X-13550Y-47212D01*
X-13559Y-47250D01*
X-13575Y-47285D01*
X-13713Y-47524D01*
X-13735Y-47555D01*
X-13763Y-47582D01*
X-13796Y-47602D01*
X-13825Y-47613D01*
X-13833Y-47616D01*
X-13833D01*
X-14801Y-47875D01*
X-14801Y-47875D01*
X-14822Y-47879D01*
X-14839Y-47882D01*
X-14878Y-47880D01*
X-14916Y-47872D01*
X-14951Y-47855D01*
X-14951Y-47855D01*
X-15564Y-47501D01*
X-15596Y-47479D01*
X-15623Y-47450D01*
X-15643Y-47417D01*
X-15657Y-47381D01*
X-15663Y-47343D01*
X-15662Y-47304D01*
X-15653Y-47266D01*
X-15637Y-47231D01*
X-15145Y-46379D01*
X-15122Y-46347D01*
X-15094Y-46321D01*
X-15061Y-46300D01*
X-15025Y-46286D01*
X-14987Y-46280D01*
X-14948Y-46281D01*
D02*
G37*
G36*
X-12015Y-47974D02*
X-11978Y-47983D01*
X-11942Y-47999D01*
X-10715Y-48708D01*
X-10684Y-48730D01*
X-10657Y-48759D01*
X-10637Y-48792D01*
X-10623Y-48828D01*
X-10616Y-48866D01*
X-10618Y-48905D01*
X-10627Y-48943D01*
X-10643Y-48978D01*
X-11135Y-49830D01*
X-11157Y-49862D01*
X-11186Y-49888D01*
X-11219Y-49909D01*
X-11255Y-49923D01*
X-11293Y-49929D01*
X-11332Y-49928D01*
X-11370Y-49919D01*
X-11405Y-49903D01*
X-12019Y-49549D01*
X-12019Y-49549D01*
X-12037Y-49535D01*
X-12050Y-49526D01*
X-12077Y-49498D01*
X-12097Y-49465D01*
X-12100Y-49457D01*
X-12111Y-49428D01*
X-12111Y-49428D01*
X-12370Y-48460D01*
X-12370Y-48460D01*
X-12374Y-48440D01*
X-12376Y-48422D01*
X-12375Y-48384D01*
X-12375Y-48383D01*
X-12366Y-48346D01*
X-12350Y-48310D01*
X-12213Y-48072D01*
X-12190Y-48040D01*
X-12162Y-48013D01*
X-12129Y-47993D01*
X-12093Y-47979D01*
X-12054Y-47973D01*
X-12054D01*
D01*
X-12015Y-47974D01*
D02*
G37*
G36*
X-16227Y-48498D02*
X-16190Y-48506D01*
X-16154Y-48522D01*
X-15540Y-48877D01*
X-15540Y-48877D01*
X-15522Y-48890D01*
X-15509Y-48899D01*
X-15482Y-48928D01*
X-15462Y-48961D01*
X-15459Y-48968D01*
X-15448Y-48997D01*
X-15448Y-48997D01*
X-15189Y-49965D01*
X-15189Y-49965D01*
X-15186Y-49986D01*
X-15183Y-50003D01*
X-15184Y-50041D01*
X-15184Y-50042D01*
X-15193Y-50080D01*
X-15209Y-50115D01*
X-15346Y-50354D01*
X-15369Y-50385D01*
X-15397Y-50412D01*
X-15430Y-50432D01*
X-15466Y-50446D01*
X-15505Y-50452D01*
X-15505D01*
D01*
X-15544Y-50451D01*
X-15581Y-50442D01*
X-15617Y-50426D01*
X-16844Y-49717D01*
X-16876Y-49695D01*
X-16902Y-49667D01*
X-16923Y-49634D01*
X-16936Y-49597D01*
X-16942Y-49559D01*
X-16941Y-49520D01*
X-16932Y-49483D01*
X-16917Y-49447D01*
X-16424Y-48595D01*
X-16402Y-48563D01*
X-16374Y-48537D01*
X-16341Y-48516D01*
X-16304Y-48503D01*
X-16266Y-48496D01*
X-16227Y-48498D01*
D02*
G37*
G36*
X-13086Y-47859D02*
X-13048Y-47868D01*
X-13013Y-47884D01*
X-12981Y-47907D01*
X-12955Y-47935D01*
X-12934Y-47968D01*
X-12920Y-48004D01*
Y-48004D01*
X-12431Y-49830D01*
X-12425Y-49868D01*
X-12426Y-49907D01*
X-12435Y-49944D01*
X-12451Y-49980D01*
X-12474Y-50011D01*
X-12502Y-50038D01*
X-12535Y-50058D01*
X-12571Y-50072D01*
X-12571D01*
X-14396Y-50561D01*
X-14435Y-50567D01*
X-14473Y-50566D01*
X-14511Y-50557D01*
X-14547Y-50541D01*
X-14578Y-50519D01*
X-14605Y-50490D01*
X-14625Y-50457D01*
X-14639Y-50421D01*
X-15128Y-48596D01*
X-15134Y-48557D01*
X-15133Y-48519D01*
X-15124Y-48481D01*
X-15108Y-48446D01*
X-15086Y-48414D01*
X-15057Y-48388D01*
X-15024Y-48367D01*
X-14988Y-48353D01*
X-14988D01*
X-13163Y-47864D01*
X-13124Y-47858D01*
X-13086Y-47859D01*
D02*
G37*
G36*
X-12681Y-50545D02*
X-12643Y-50554D01*
X-12608Y-50570D01*
X-12608Y-50570D01*
X-11994Y-50924D01*
X-11963Y-50947D01*
X-11936Y-50975D01*
X-11916Y-51008D01*
X-11902Y-51044D01*
X-11896Y-51082D01*
X-11897Y-51121D01*
X-11906Y-51159D01*
X-11922Y-51194D01*
X-12414Y-52047D01*
X-12437Y-52078D01*
X-12465Y-52105D01*
X-12498Y-52125D01*
X-12534Y-52139D01*
X-12573Y-52145D01*
X-12611Y-52144D01*
X-12649Y-52135D01*
X-12684Y-52119D01*
X-13912Y-51410D01*
X-13943Y-51388D01*
X-13970Y-51359D01*
X-13990Y-51327D01*
X-14004Y-51290D01*
X-14010Y-51252D01*
X-14009Y-51213D01*
X-14000Y-51175D01*
X-13984Y-51140D01*
X-13847Y-50901D01*
X-13824Y-50870D01*
X-13796Y-50843D01*
X-13763Y-50823D01*
X-13734Y-50812D01*
X-13726Y-50809D01*
X-13726D01*
X-12758Y-50550D01*
X-12758Y-50550D01*
X-12737Y-50546D01*
X-12720Y-50544D01*
X-12681Y-50545D01*
D02*
G37*
G36*
X-9883Y51670D02*
X-9846Y51659D01*
X-9811Y51641D01*
X-9781Y51616D01*
X-9757Y51586D01*
X-9738Y51552D01*
X-9727Y51515D01*
X-9724Y51476D01*
Y50492D01*
X-9727Y50454D01*
X-9738Y50416D01*
X-9757Y50382D01*
X-9781Y50352D01*
X-9811Y50328D01*
X-9846Y50309D01*
X-9883Y50298D01*
X-9921Y50294D01*
X-10630Y50294D01*
X-10630Y50294D01*
X-10649Y50296D01*
X-10668Y50298D01*
X-10697Y50307D01*
X-10706Y50309D01*
X-10740Y50328D01*
X-10770Y50352D01*
X-11478Y51061D01*
X-11503Y51091D01*
X-11521Y51125D01*
X-11524Y51134D01*
X-11533Y51162D01*
X-11535Y51182D01*
X-11536Y51201D01*
X-11536Y51201D01*
Y51476D01*
X-11533Y51515D01*
X-11521Y51552D01*
X-11503Y51586D01*
X-11478Y51616D01*
X-11449Y51641D01*
X-11414Y51659D01*
X-11377Y51670D01*
X-11339Y51674D01*
X-9921D01*
X-9883Y51670D01*
D02*
G37*
G36*
X-13269D02*
X-13231Y51659D01*
X-13197Y51641D01*
X-13167Y51616D01*
X-13143Y51586D01*
X-13124Y51552D01*
X-13113Y51515D01*
X-13109Y51476D01*
Y51201D01*
X-13109Y51201D01*
X-13111Y51182D01*
X-13113Y51162D01*
X-13122Y51134D01*
X-13124Y51125D01*
X-13143Y51091D01*
X-13167Y51061D01*
X-13876Y50352D01*
X-13906Y50328D01*
X-13940Y50309D01*
X-13949Y50307D01*
X-13977Y50298D01*
X-13996Y50296D01*
X-14016Y50294D01*
X-14016Y50294D01*
X-14724Y50294D01*
X-14763Y50298D01*
X-14800Y50309D01*
X-14834Y50328D01*
X-14864Y50352D01*
X-14889Y50382D01*
X-14907Y50416D01*
X-14918Y50454D01*
X-14922Y50492D01*
Y51476D01*
X-14918Y51515D01*
X-14907Y51552D01*
X-14889Y51586D01*
X-14864Y51616D01*
X-14834Y51641D01*
X-14800Y51659D01*
X-14763Y51670D01*
X-14724Y51674D01*
X-13307D01*
X-13269Y51670D01*
D02*
G37*
G36*
X-12284Y51235D02*
X-12247Y51224D01*
X-12213Y51205D01*
X-12183Y51181D01*
X-10847Y49845D01*
X-10822Y49815D01*
X-10804Y49780D01*
X-10793Y49743D01*
X-10789Y49705D01*
X-10793Y49666D01*
X-10804Y49629D01*
X-10822Y49595D01*
X-10847Y49565D01*
X-12183Y48229D01*
X-12213Y48204D01*
X-12247Y48186D01*
X-12284Y48175D01*
X-12323Y48171D01*
X-12361Y48175D01*
X-12387Y48182D01*
X-12398Y48186D01*
X-12433Y48204D01*
X-12463Y48229D01*
X-12463Y48229D01*
X-13799Y49565D01*
X-13824Y49595D01*
X-13842Y49629D01*
X-13853Y49666D01*
X-13857Y49705D01*
X-13853Y49743D01*
X-13842Y49780D01*
X-13824Y49815D01*
X-13799Y49845D01*
X-13799Y49845D01*
X-12463Y51181D01*
X-12433Y51205D01*
X-12398Y51224D01*
X-12361Y51235D01*
X-12323Y51239D01*
X-12284Y51235D01*
D02*
G37*
G36*
X-10630Y49115D02*
X-9921Y49115D01*
X-9883Y49111D01*
X-9846Y49100D01*
X-9811Y49082D01*
X-9781Y49057D01*
X-9757Y49027D01*
X-9738Y48993D01*
X-9727Y48956D01*
X-9724Y48917D01*
Y47933D01*
X-9727Y47894D01*
X-9738Y47857D01*
X-9757Y47823D01*
X-9781Y47793D01*
X-9811Y47769D01*
X-9846Y47750D01*
X-9883Y47739D01*
X-9921Y47735D01*
X-11339D01*
X-11377Y47739D01*
X-11414Y47750D01*
X-11449Y47769D01*
X-11478Y47793D01*
X-11503Y47823D01*
X-11521Y47857D01*
X-11533Y47894D01*
X-11536Y47933D01*
Y48209D01*
X-11536Y48209D01*
X-11535Y48228D01*
X-11533Y48247D01*
X-11524Y48276D01*
X-11521Y48284D01*
X-11503Y48319D01*
X-11478Y48349D01*
X-10770Y49057D01*
X-10740Y49082D01*
X-10706Y49100D01*
X-10697Y49103D01*
X-10668Y49111D01*
X-10649Y49113D01*
X-10630Y49115D01*
X-10630Y49115D01*
D02*
G37*
G36*
X-13996Y49113D02*
X-13977Y49111D01*
X-13949Y49103D01*
X-13940Y49100D01*
X-13906Y49082D01*
X-13876Y49057D01*
X-13167Y48349D01*
X-13143Y48319D01*
X-13124Y48284D01*
X-13122Y48276D01*
X-13113Y48247D01*
X-13111Y48228D01*
X-13109Y48209D01*
X-13109Y48209D01*
Y47933D01*
X-13113Y47894D01*
X-13124Y47857D01*
X-13143Y47823D01*
X-13167Y47793D01*
X-13197Y47769D01*
X-13231Y47750D01*
X-13269Y47739D01*
X-13307Y47735D01*
X-14724D01*
X-14763Y47739D01*
X-14800Y47750D01*
X-14834Y47769D01*
X-14864Y47793D01*
X-14889Y47823D01*
X-14907Y47857D01*
X-14918Y47894D01*
X-14922Y47933D01*
Y48917D01*
X-14918Y48956D01*
X-14907Y48993D01*
X-14889Y49027D01*
X-14864Y49057D01*
X-14834Y49082D01*
X-14800Y49100D01*
X-14763Y49111D01*
X-14724Y49115D01*
X-14016Y49115D01*
X-14016Y49115D01*
X-13996Y49113D01*
D02*
G37*
G36*
X-36483Y37583D02*
X-34657Y37094D01*
X-34621Y37080D01*
X-34588Y37060D01*
X-34560Y37033D01*
X-34537Y37001D01*
X-34521Y36966D01*
X-34512Y36928D01*
X-34511Y36890D01*
D01*
Y36890D01*
X-34517Y36851D01*
X-35006Y35026D01*
X-35020Y34990D01*
X-35041Y34957D01*
X-35067Y34929D01*
X-35099Y34906D01*
X-35134Y34890D01*
X-35172Y34881D01*
X-35210Y34880D01*
X-35249Y34886D01*
X-37074Y35375D01*
X-37110Y35389D01*
X-37143Y35409D01*
X-37172Y35436D01*
X-37194Y35467D01*
X-37210Y35503D01*
X-37219Y35541D01*
X-37220Y35579D01*
X-37214Y35618D01*
X-36725Y37443D01*
X-36711Y37479D01*
X-36691Y37512D01*
X-36664Y37540D01*
X-36642Y37556D01*
X-36633Y37563D01*
X-36597Y37579D01*
X-36560Y37588D01*
X-36521Y37589D01*
D01*
X-36521D01*
X-36483Y37583D01*
D02*
G37*
G36*
X-34620Y39161D02*
X-34584Y39147D01*
X-34551Y39126D01*
X-34523Y39100D01*
X-34500Y39068D01*
X-34008Y38216D01*
X-33992Y38181D01*
X-33983Y38143D01*
X-33982Y38104D01*
X-33988Y38066D01*
X-34002Y38030D01*
X-34023Y37997D01*
X-34049Y37968D01*
X-34081Y37946D01*
X-34694Y37591D01*
X-34694Y37591D01*
X-34730Y37576D01*
X-34767Y37567D01*
X-34806Y37565D01*
X-34824Y37568D01*
X-34844Y37572D01*
X-34845Y37572D01*
X-35813Y37831D01*
X-35813D01*
X-35820Y37834D01*
X-35849Y37845D01*
X-35882Y37865D01*
X-35910Y37892D01*
X-35933Y37923D01*
X-36070Y38162D01*
X-36086Y38197D01*
X-36095Y38235D01*
X-36097Y38274D01*
X-36090Y38312D01*
X-36077Y38348D01*
X-36056Y38381D01*
X-36030Y38410D01*
X-35998Y38432D01*
X-34771Y39141D01*
X-34735Y39157D01*
X-34697Y39166D01*
X-34659Y39167D01*
X-34620Y39161D01*
D02*
G37*
G36*
X-37553Y37468D02*
X-37516Y37454D01*
X-37484Y37433D01*
X-37455Y37407D01*
X-37433Y37376D01*
X-37295Y37137D01*
X-37279Y37102D01*
X-37270Y37064D01*
X-37270Y37062D01*
X-37269Y37025D01*
X-37272Y37007D01*
X-37275Y36987D01*
X-37275Y36987D01*
X-37534Y36019D01*
X-37534Y36019D01*
X-37545Y35990D01*
X-37548Y35982D01*
X-37569Y35950D01*
X-37595Y35921D01*
X-37608Y35912D01*
X-37627Y35899D01*
X-37627Y35899D01*
X-38240Y35544D01*
X-38276Y35528D01*
X-38313Y35519D01*
X-38352Y35518D01*
X-38390Y35524D01*
X-38427Y35538D01*
X-38460Y35559D01*
X-38488Y35585D01*
X-38511Y35617D01*
X-39003Y36469D01*
X-39019Y36504D01*
X-39028Y36542D01*
X-39029Y36581D01*
X-39022Y36619D01*
X-39009Y36655D01*
X-38988Y36688D01*
X-38962Y36717D01*
X-38930Y36739D01*
X-37703Y37448D01*
X-37668Y37464D01*
X-37630Y37473D01*
X-37591Y37474D01*
D01*
X-37591D01*
X-37553Y37468D01*
D02*
G37*
G36*
X-33341Y36944D02*
X-33305Y36931D01*
X-33272Y36910D01*
X-33244Y36884D01*
X-33221Y36852D01*
X-32729Y36000D01*
X-32713Y35965D01*
X-32704Y35927D01*
X-32703Y35888D01*
X-32709Y35850D01*
X-32723Y35813D01*
X-32743Y35781D01*
X-32770Y35752D01*
X-32801Y35730D01*
X-34029Y35021D01*
X-34064Y35005D01*
X-34102Y34996D01*
X-34140Y34995D01*
D01*
X-34140D01*
X-34179Y35001D01*
X-34215Y35015D01*
X-34248Y35035D01*
X-34276Y35062D01*
X-34299Y35093D01*
X-34437Y35332D01*
X-34453Y35367D01*
X-34461Y35405D01*
X-34461Y35406D01*
X-34463Y35444D01*
X-34460Y35462D01*
X-34456Y35482D01*
X-34456Y35482D01*
X-34197Y36450D01*
X-34197Y36450D01*
X-34186Y36479D01*
X-34183Y36487D01*
X-34163Y36519D01*
X-34136Y36548D01*
X-34123Y36557D01*
X-34105Y36570D01*
X-34105Y36570D01*
X-33491Y36925D01*
X-33456Y36941D01*
X-33418Y36949D01*
X-33379Y36951D01*
X-33341Y36944D01*
D02*
G37*
G36*
X-36908Y34901D02*
X-36887Y34897D01*
X-36887Y34897D01*
X-35919Y34638D01*
X-35919D01*
X-35911Y34635D01*
X-35883Y34624D01*
X-35850Y34604D01*
X-35821Y34577D01*
X-35799Y34546D01*
X-35661Y34307D01*
X-35645Y34272D01*
X-35636Y34234D01*
X-35635Y34195D01*
X-35641Y34157D01*
X-35655Y34121D01*
X-35675Y34088D01*
X-35702Y34059D01*
X-35733Y34037D01*
X-36961Y33328D01*
X-36996Y33312D01*
X-37034Y33303D01*
X-37073Y33302D01*
X-37111Y33308D01*
X-37147Y33322D01*
X-37180Y33342D01*
X-37208Y33369D01*
X-37231Y33400D01*
X-37723Y34253D01*
X-37739Y34288D01*
X-37748Y34326D01*
X-37749Y34365D01*
X-37743Y34403D01*
X-37729Y34439D01*
X-37709Y34472D01*
X-37682Y34500D01*
X-37651Y34523D01*
X-37037Y34877D01*
X-37037Y34877D01*
X-37002Y34893D01*
X-36964Y34902D01*
X-36925Y34903D01*
X-36908Y34901D01*
D02*
G37*
G36*
X-49782Y16685D02*
X-49744Y16676D01*
X-49709Y16660D01*
X-48856Y16168D01*
X-48825Y16145D01*
X-48798Y16117D01*
X-48778Y16084D01*
X-48764Y16048D01*
X-48758Y16010D01*
X-48759Y15971D01*
X-48768Y15933D01*
X-48784Y15898D01*
X-49138Y15284D01*
X-49138Y15284D01*
X-49152Y15266D01*
X-49161Y15253D01*
X-49189Y15226D01*
X-49222Y15206D01*
X-49230Y15203D01*
X-49259Y15192D01*
X-49259Y15192D01*
X-50226Y14933D01*
X-50226Y14932D01*
X-50247Y14929D01*
X-50265Y14926D01*
X-50302Y14928D01*
X-50304Y14928D01*
X-50341Y14936D01*
X-50377Y14952D01*
X-50615Y15090D01*
X-50647Y15113D01*
X-50673Y15141D01*
X-50694Y15174D01*
X-50708Y15210D01*
X-50714Y15248D01*
Y15248D01*
D01*
X-50713Y15287D01*
X-50704Y15325D01*
X-50688Y15360D01*
X-49979Y16588D01*
X-49957Y16619D01*
X-49928Y16646D01*
X-49895Y16666D01*
X-49859Y16680D01*
X-49821Y16686D01*
X-49782Y16685D01*
D02*
G37*
G36*
X-47566Y15405D02*
X-47528Y15397D01*
X-47493Y15381D01*
X-46640Y14888D01*
X-46609Y14866D01*
X-46582Y14838D01*
X-46562Y14805D01*
X-46548Y14768D01*
X-46542Y14730D01*
X-46543Y14691D01*
X-46552Y14654D01*
X-46568Y14618D01*
X-47276Y13391D01*
X-47299Y13359D01*
X-47327Y13333D01*
X-47360Y13312D01*
X-47397Y13299D01*
X-47435Y13292D01*
X-47474Y13294D01*
X-47511Y13302D01*
X-47547Y13318D01*
X-47785Y13456D01*
X-47817Y13479D01*
X-47843Y13507D01*
X-47864Y13540D01*
X-47875Y13569D01*
X-47878Y13576D01*
Y13576D01*
X-48137Y14544D01*
X-48137Y14544D01*
X-48140Y14565D01*
X-48143Y14583D01*
X-48142Y14621D01*
X-48133Y14659D01*
X-48117Y14694D01*
X-48117Y14695D01*
X-47763Y15308D01*
X-47740Y15340D01*
X-47712Y15366D01*
X-47679Y15387D01*
X-47643Y15400D01*
X-47605Y15407D01*
X-47566Y15405D01*
D02*
G37*
G36*
X-48780Y14876D02*
X-48742Y14868D01*
X-48707Y14852D01*
X-48676Y14829D01*
X-48649Y14801D01*
X-48629Y14768D01*
X-48615Y14732D01*
Y14732D01*
X-48126Y12906D01*
X-48120Y12868D01*
X-48121Y12829D01*
X-48130Y12791D01*
X-48146Y12756D01*
X-48159Y12738D01*
X-48168Y12725D01*
X-48197Y12698D01*
X-48230Y12678D01*
X-48266Y12664D01*
X-48266D01*
X-50091Y12175D01*
X-50129Y12169D01*
X-50168Y12170D01*
X-50206Y12179D01*
X-50241Y12195D01*
X-50273Y12217D01*
X-50299Y12246D01*
X-50320Y12279D01*
X-50333Y12315D01*
X-50823Y14140D01*
X-50829Y14178D01*
X-50828Y14217D01*
X-50819Y14255D01*
X-50803Y14290D01*
X-50780Y14322D01*
X-50752Y14348D01*
X-50719Y14369D01*
X-50683Y14382D01*
X-48857Y14872D01*
X-48819Y14878D01*
X-48780Y14876D01*
D02*
G37*
G36*
X-51475Y13753D02*
X-51437Y13744D01*
X-51402Y13728D01*
X-51163Y13590D01*
X-51132Y13567D01*
X-51105Y13539D01*
X-51085Y13506D01*
X-51074Y13478D01*
X-51071Y13470D01*
Y13470D01*
X-50812Y12502D01*
X-50811Y12502D01*
X-50808Y12481D01*
X-50805Y12464D01*
X-50806Y12425D01*
X-50815Y12387D01*
X-50831Y12352D01*
X-50831Y12352D01*
X-51186Y11738D01*
X-51208Y11707D01*
X-51236Y11680D01*
X-51270Y11660D01*
X-51306Y11646D01*
X-51344Y11640D01*
X-51383Y11641D01*
X-51420Y11650D01*
X-51456Y11666D01*
X-52308Y12158D01*
X-52340Y12180D01*
X-52366Y12209D01*
X-52387Y12242D01*
X-52400Y12278D01*
X-52407Y12316D01*
X-52405Y12355D01*
X-52397Y12393D01*
X-52381Y12428D01*
X-51672Y13656D01*
X-51649Y13687D01*
X-51621Y13714D01*
X-51588Y13734D01*
X-51552Y13748D01*
X-51514Y13754D01*
X-51475Y13753D01*
D02*
G37*
G36*
X-48646Y12119D02*
X-48645Y12119D01*
X-48607Y12110D01*
X-48572Y12094D01*
X-48333Y11956D01*
X-48302Y11934D01*
X-48275Y11905D01*
X-48255Y11873D01*
X-48241Y11836D01*
X-48235Y11798D01*
Y11798D01*
D01*
X-48236Y11759D01*
X-48245Y11721D01*
X-48261Y11686D01*
X-48969Y10459D01*
X-48992Y10427D01*
X-49020Y10401D01*
X-49053Y10380D01*
X-49090Y10367D01*
X-49128Y10360D01*
X-49167Y10361D01*
X-49204Y10370D01*
X-49240Y10386D01*
X-50092Y10878D01*
X-50124Y10901D01*
X-50150Y10929D01*
X-50170Y10962D01*
X-50184Y10999D01*
X-50191Y11037D01*
X-50189Y11075D01*
X-50180Y11113D01*
X-50164Y11149D01*
X-49810Y11762D01*
X-49810Y11762D01*
X-49797Y11781D01*
X-49788Y11794D01*
X-49759Y11820D01*
X-49726Y11841D01*
X-49718Y11844D01*
X-49690Y11854D01*
X-49690Y11855D01*
X-48722Y12114D01*
X-48722Y12114D01*
X-48701Y12117D01*
X-48684Y12120D01*
X-48646Y12119D01*
D02*
G37*
G36*
X48891Y-10972D02*
X48929Y-10981D01*
X48964Y-10997D01*
X49816Y-11490D01*
X49848Y-11512D01*
X49874Y-11540D01*
X49895Y-11573D01*
X49909Y-11610D01*
X49915Y-11648D01*
X49914Y-11687D01*
X49905Y-11724D01*
X49889Y-11760D01*
X49535Y-12373D01*
X49534Y-12373D01*
X49521Y-12392D01*
X49512Y-12405D01*
X49484Y-12431D01*
X49451Y-12452D01*
X49443Y-12455D01*
X49414Y-12466D01*
X49414Y-12466D01*
X48447Y-12725D01*
X48446Y-12725D01*
X48426Y-12728D01*
X48408Y-12731D01*
X48371Y-12730D01*
X48369Y-12730D01*
X48332Y-12721D01*
X48296Y-12705D01*
X48058Y-12567D01*
X48026Y-12545D01*
X48000Y-12517D01*
X47979Y-12484D01*
X47965Y-12447D01*
X47959Y-12409D01*
Y-12409D01*
D01*
X47960Y-12370D01*
X47969Y-12332D01*
X47985Y-12297D01*
X48694Y-11070D01*
X48716Y-11038D01*
X48745Y-11012D01*
X48778Y-10991D01*
X48814Y-10978D01*
X48852Y-10971D01*
X48891Y-10972D01*
D02*
G37*
G36*
X51107Y-12252D02*
X51145Y-12261D01*
X51180Y-12277D01*
X52033Y-12769D01*
X52064Y-12792D01*
X52091Y-12820D01*
X52111Y-12853D01*
X52125Y-12889D01*
X52131Y-12927D01*
X52130Y-12966D01*
X52121Y-13004D01*
X52105Y-13039D01*
X51396Y-14267D01*
X51374Y-14298D01*
X51345Y-14325D01*
X51313Y-14345D01*
X51276Y-14359D01*
X51238Y-14365D01*
X51199Y-14364D01*
X51161Y-14355D01*
X51126Y-14339D01*
X50888Y-14201D01*
X50856Y-14179D01*
X50829Y-14150D01*
X50809Y-14117D01*
X50798Y-14089D01*
X50795Y-14081D01*
Y-14081D01*
X50536Y-13113D01*
X50536Y-13113D01*
X50533Y-13092D01*
X50530Y-13075D01*
X50531Y-13036D01*
X50540Y-12998D01*
X50556Y-12963D01*
X50556Y-12963D01*
X50910Y-12349D01*
X50933Y-12318D01*
X50961Y-12291D01*
X50994Y-12271D01*
X51030Y-12257D01*
X51068Y-12251D01*
X51107Y-12252D01*
D02*
G37*
G36*
X49893Y-12781D02*
X49930Y-12790D01*
X49966Y-12806D01*
X49997Y-12828D01*
X50024Y-12857D01*
X50044Y-12890D01*
X50058Y-12926D01*
X50547Y-14751D01*
X50553Y-14789D01*
X50552Y-14828D01*
X50543Y-14866D01*
X50527Y-14901D01*
X50505Y-14933D01*
X50476Y-14959D01*
X50443Y-14980D01*
X50407Y-14994D01*
X48582Y-15483D01*
X48544Y-15489D01*
X48505Y-15488D01*
X48467Y-15479D01*
X48432Y-15463D01*
X48400Y-15440D01*
X48374Y-15412D01*
X48353Y-15379D01*
X48340Y-15343D01*
Y-15343D01*
X47850Y-13517D01*
X47844Y-13479D01*
X47845Y-13440D01*
X47854Y-13403D01*
X47870Y-13367D01*
X47883Y-13349D01*
X47893Y-13336D01*
X47921Y-13309D01*
X47954Y-13289D01*
X47990Y-13275D01*
X47990D01*
X49816Y-12786D01*
X49854Y-12780D01*
X49893Y-12781D01*
D02*
G37*
G36*
X47198Y-13905D02*
X47236Y-13914D01*
X47271Y-13930D01*
X47510Y-14067D01*
X47541Y-14090D01*
X47568Y-14118D01*
X47588Y-14151D01*
X47599Y-14180D01*
X47602Y-14187D01*
Y-14187D01*
X47861Y-15155D01*
X47861Y-15156D01*
X47865Y-15176D01*
X47868Y-15194D01*
X47866Y-15233D01*
X47858Y-15270D01*
X47842Y-15306D01*
X47842Y-15306D01*
X47487Y-15919D01*
X47465Y-15951D01*
X47436Y-15977D01*
X47403Y-15998D01*
X47367Y-16012D01*
X47329Y-16018D01*
X47290Y-16016D01*
X47252Y-16008D01*
X47217Y-15992D01*
X46365Y-15500D01*
X46333Y-15477D01*
X46307Y-15449D01*
X46286Y-15416D01*
X46273Y-15380D01*
X46266Y-15341D01*
X46268Y-15303D01*
X46276Y-15265D01*
X46292Y-15229D01*
X47001Y-14002D01*
X47023Y-13970D01*
X47052Y-13944D01*
X47085Y-13923D01*
X47121Y-13910D01*
X47159Y-13904D01*
X47198Y-13905D01*
D02*
G37*
G36*
X50027Y-15539D02*
X50028Y-15539D01*
X50066Y-15547D01*
X50101Y-15563D01*
X50340Y-15701D01*
X50371Y-15724D01*
X50398Y-15752D01*
X50418Y-15785D01*
X50432Y-15821D01*
X50438Y-15860D01*
Y-15860D01*
D01*
X50437Y-15898D01*
X50428Y-15936D01*
X50412Y-15971D01*
X49703Y-17199D01*
X49681Y-17230D01*
X49653Y-17257D01*
X49620Y-17277D01*
X49583Y-17291D01*
X49545Y-17297D01*
X49506Y-17296D01*
X49469Y-17287D01*
X49433Y-17271D01*
X48581Y-16779D01*
X48549Y-16757D01*
X48523Y-16728D01*
X48502Y-16695D01*
X48489Y-16659D01*
X48482Y-16621D01*
X48484Y-16582D01*
X48493Y-16544D01*
X48509Y-16509D01*
X48863Y-15895D01*
X48863Y-15895D01*
X48876Y-15877D01*
X48885Y-15864D01*
X48914Y-15837D01*
X48947Y-15817D01*
X48954Y-15814D01*
X48983Y-15803D01*
X48983Y-15803D01*
X49951Y-15544D01*
X49951Y-15544D01*
X49972Y-15540D01*
X49989Y-15537D01*
X50027Y-15539D01*
D02*
G37*
G36*
X35249Y-34886D02*
X37074Y-35375D01*
X37110Y-35389D01*
X37143Y-35409D01*
X37172Y-35436D01*
X37194Y-35467D01*
X37210Y-35503D01*
X37219Y-35541D01*
X37220Y-35579D01*
X37214Y-35618D01*
X36725Y-37443D01*
X36711Y-37479D01*
X36691Y-37512D01*
X36664Y-37540D01*
X36642Y-37556D01*
X36633Y-37563D01*
X36597Y-37579D01*
X36560Y-37588D01*
X36521Y-37589D01*
D01*
X36521D01*
X36483Y-37583D01*
X34657Y-37094D01*
X34621Y-37080D01*
X34588Y-37060D01*
X34560Y-37033D01*
X34537Y-37001D01*
X34521Y-36966D01*
X34512Y-36928D01*
X34511Y-36890D01*
X34517Y-36851D01*
X35006Y-35026D01*
X35020Y-34990D01*
X35041Y-34957D01*
X35067Y-34929D01*
X35099Y-34906D01*
X35134Y-34890D01*
X35172Y-34881D01*
X35210Y-34880D01*
D01*
X35210D01*
X35249Y-34886D01*
D02*
G37*
G36*
X37111Y-33308D02*
X37147Y-33322D01*
X37180Y-33342D01*
X37208Y-33369D01*
X37231Y-33400D01*
X37723Y-34253D01*
X37739Y-34288D01*
X37748Y-34326D01*
X37749Y-34365D01*
X37743Y-34403D01*
X37729Y-34439D01*
X37709Y-34472D01*
X37682Y-34500D01*
X37651Y-34523D01*
X37037Y-34877D01*
X37037Y-34877D01*
X37002Y-34893D01*
X36964Y-34902D01*
X36925Y-34903D01*
X36908Y-34901D01*
X36887Y-34897D01*
X36887Y-34897D01*
X35919Y-34638D01*
X35919D01*
X35911Y-34635D01*
X35883Y-34624D01*
X35850Y-34604D01*
X35821Y-34577D01*
X35799Y-34546D01*
X35661Y-34307D01*
X35645Y-34272D01*
X35636Y-34234D01*
X35635Y-34195D01*
X35641Y-34157D01*
X35655Y-34121D01*
X35675Y-34088D01*
X35702Y-34059D01*
X35733Y-34037D01*
X36961Y-33328D01*
X36996Y-33312D01*
X37034Y-33303D01*
X37073Y-33302D01*
X37111Y-33308D01*
D02*
G37*
G36*
X34179Y-35001D02*
X34215Y-35015D01*
X34248Y-35035D01*
X34276Y-35062D01*
X34299Y-35093D01*
X34437Y-35332D01*
X34453Y-35367D01*
X34461Y-35405D01*
X34461Y-35406D01*
X34463Y-35444D01*
X34460Y-35462D01*
X34456Y-35482D01*
X34456Y-35482D01*
X34197Y-36450D01*
X34197Y-36450D01*
X34186Y-36479D01*
X34183Y-36487D01*
X34163Y-36519D01*
X34136Y-36548D01*
X34123Y-36557D01*
X34105Y-36570D01*
X34105Y-36570D01*
X33491Y-36925D01*
X33456Y-36941D01*
X33418Y-36949D01*
X33379Y-36951D01*
X33341Y-36944D01*
X33305Y-36931D01*
X33272Y-36910D01*
X33244Y-36884D01*
X33221Y-36852D01*
X32729Y-36000D01*
X32713Y-35965D01*
X32704Y-35927D01*
X32703Y-35888D01*
X32709Y-35850D01*
X32723Y-35813D01*
X32743Y-35781D01*
X32770Y-35752D01*
X32801Y-35730D01*
X34029Y-35021D01*
X34064Y-35005D01*
X34102Y-34996D01*
X34140Y-34995D01*
D01*
X34140D01*
X34179Y-35001D01*
D02*
G37*
G36*
X38390Y-35524D02*
X38427Y-35538D01*
X38460Y-35559D01*
X38488Y-35585D01*
X38511Y-35617D01*
X39003Y-36469D01*
X39019Y-36504D01*
X39028Y-36542D01*
X39029Y-36581D01*
X39022Y-36619D01*
X39009Y-36655D01*
X38988Y-36688D01*
X38962Y-36717D01*
X38930Y-36739D01*
X37703Y-37448D01*
X37668Y-37464D01*
X37630Y-37473D01*
X37591Y-37474D01*
D01*
X37591D01*
X37553Y-37468D01*
X37516Y-37454D01*
X37484Y-37433D01*
X37455Y-37407D01*
X37433Y-37376D01*
X37295Y-37137D01*
X37279Y-37102D01*
X37270Y-37064D01*
X37270Y-37062D01*
X37269Y-37025D01*
X37272Y-37007D01*
X37275Y-36987D01*
X37275Y-36987D01*
X37534Y-36019D01*
X37534Y-36019D01*
X37545Y-35990D01*
X37548Y-35982D01*
X37569Y-35950D01*
X37595Y-35921D01*
X37608Y-35912D01*
X37627Y-35899D01*
X37627Y-35899D01*
X38240Y-35544D01*
X38276Y-35528D01*
X38313Y-35519D01*
X38352Y-35518D01*
X38390Y-35524D01*
D02*
G37*
G36*
X34824Y-37568D02*
X34844Y-37572D01*
X34845Y-37572D01*
X35813Y-37831D01*
X35813D01*
X35820Y-37834D01*
X35849Y-37845D01*
X35882Y-37865D01*
X35910Y-37892D01*
X35933Y-37923D01*
X36070Y-38162D01*
X36086Y-38197D01*
X36095Y-38235D01*
X36097Y-38274D01*
X36090Y-38312D01*
X36077Y-38348D01*
X36056Y-38381D01*
X36030Y-38410D01*
X35998Y-38432D01*
X34771Y-39141D01*
X34735Y-39157D01*
X34697Y-39166D01*
X34659Y-39167D01*
X34620Y-39161D01*
X34584Y-39147D01*
X34551Y-39126D01*
X34523Y-39100D01*
X34500Y-39068D01*
X34008Y-38216D01*
X33992Y-38181D01*
X33983Y-38143D01*
X33982Y-38104D01*
X33988Y-38066D01*
X34002Y-38030D01*
X34023Y-37997D01*
X34049Y-37968D01*
X34081Y-37946D01*
X34694Y-37591D01*
X34694Y-37591D01*
X34730Y-37576D01*
X34767Y-37567D01*
X34806Y-37565D01*
X34824Y-37568D01*
D02*
G37*
G36*
X14920Y-47936D02*
X14958Y-47947D01*
X14992Y-47965D01*
X15022Y-47990D01*
X15046Y-48020D01*
X15065Y-48054D01*
X15076Y-48091D01*
X15080Y-48130D01*
Y-49114D01*
X15076Y-49153D01*
X15065Y-49190D01*
X15046Y-49224D01*
X15022Y-49254D01*
X14992Y-49279D01*
X14958Y-49297D01*
X14920Y-49308D01*
X14882Y-49312D01*
X14173Y-49312D01*
X14173Y-49312D01*
X14154Y-49310D01*
X14135Y-49308D01*
X14106Y-49299D01*
X14097Y-49297D01*
X14063Y-49279D01*
X14033Y-49254D01*
X13325Y-48545D01*
X13300Y-48515D01*
X13282Y-48481D01*
X13279Y-48473D01*
X13271Y-48444D01*
X13269Y-48425D01*
X13267Y-48406D01*
X13267Y-48405D01*
Y-48130D01*
X13271Y-48091D01*
X13282Y-48054D01*
X13300Y-48020D01*
X13325Y-47990D01*
X13355Y-47965D01*
X13389Y-47947D01*
X13426Y-47936D01*
X13465Y-47932D01*
X14882D01*
X14920Y-47936D01*
D02*
G37*
G36*
X11535D02*
X11572Y-47947D01*
X11606Y-47965D01*
X11636Y-47990D01*
X11660Y-48020D01*
X11679Y-48054D01*
X11690Y-48091D01*
X11694Y-48130D01*
Y-48405D01*
X11694Y-48406D01*
X11692Y-48425D01*
X11690Y-48444D01*
X11681Y-48473D01*
X11679Y-48481D01*
X11660Y-48515D01*
X11636Y-48545D01*
X10927Y-49254D01*
X10897Y-49279D01*
X10863Y-49297D01*
X10854Y-49299D01*
X10826Y-49308D01*
X10807Y-49310D01*
X10787Y-49312D01*
X10787Y-49312D01*
X10079Y-49312D01*
X10040Y-49308D01*
X10003Y-49297D01*
X9969Y-49279D01*
X9939Y-49254D01*
X9914Y-49224D01*
X9896Y-49190D01*
X9885Y-49153D01*
X9881Y-49114D01*
Y-48130D01*
X9885Y-48091D01*
X9896Y-48054D01*
X9914Y-48020D01*
X9939Y-47990D01*
X9969Y-47965D01*
X10003Y-47947D01*
X10040Y-47936D01*
X10079Y-47932D01*
X11496D01*
X11535Y-47936D01*
D02*
G37*
G36*
X12519Y-48371D02*
X12545Y-48379D01*
X12556Y-48383D01*
X12590Y-48401D01*
X12620Y-48425D01*
X12620Y-48425D01*
X13957Y-49762D01*
X13981Y-49792D01*
X13999Y-49826D01*
X14011Y-49863D01*
X14014Y-49902D01*
X14011Y-49940D01*
X13999Y-49977D01*
X13981Y-50011D01*
X13957Y-50041D01*
X13956Y-50042D01*
X12620Y-51378D01*
X12590Y-51402D01*
X12556Y-51421D01*
X12519Y-51432D01*
X12480Y-51436D01*
X12442Y-51432D01*
X12405Y-51421D01*
X12370Y-51402D01*
X12341Y-51378D01*
X11004Y-50041D01*
X10980Y-50011D01*
X10961Y-49977D01*
X10950Y-49940D01*
X10946Y-49902D01*
X10950Y-49863D01*
X10961Y-49826D01*
X10980Y-49792D01*
X11004Y-49762D01*
X12340Y-48425D01*
X12370Y-48401D01*
X12405Y-48383D01*
X12442Y-48371D01*
X12480Y-48368D01*
X12519Y-48371D01*
D02*
G37*
G36*
X14173Y-50491D02*
X14882Y-50491D01*
X14920Y-50495D01*
X14958Y-50506D01*
X14992Y-50524D01*
X15022Y-50549D01*
X15046Y-50579D01*
X15065Y-50613D01*
X15076Y-50650D01*
X15080Y-50689D01*
Y-51673D01*
X15076Y-51712D01*
X15065Y-51749D01*
X15046Y-51783D01*
X15022Y-51813D01*
X14992Y-51838D01*
X14958Y-51856D01*
X14920Y-51867D01*
X14882Y-51871D01*
X13465D01*
X13426Y-51867D01*
X13389Y-51856D01*
X13355Y-51838D01*
X13325Y-51813D01*
X13300Y-51783D01*
X13282Y-51749D01*
X13271Y-51712D01*
X13267Y-51673D01*
Y-51398D01*
X13267Y-51398D01*
X13269Y-51378D01*
X13271Y-51359D01*
X13279Y-51331D01*
X13282Y-51322D01*
X13300Y-51288D01*
X13325Y-51258D01*
X14033Y-50549D01*
X14063Y-50524D01*
X14097Y-50506D01*
X14106Y-50504D01*
X14135Y-50495D01*
X14154Y-50493D01*
X14173Y-50491D01*
X14173Y-50491D01*
D02*
G37*
G36*
X10807Y-50493D02*
X10826Y-50495D01*
X10854Y-50504D01*
X10863Y-50506D01*
X10897Y-50524D01*
X10927Y-50549D01*
X11636Y-51258D01*
X11660Y-51288D01*
X11679Y-51322D01*
X11681Y-51331D01*
X11690Y-51359D01*
X11692Y-51378D01*
X11694Y-51398D01*
X11694Y-51398D01*
Y-51673D01*
X11690Y-51712D01*
X11679Y-51749D01*
X11660Y-51783D01*
X11636Y-51813D01*
X11606Y-51838D01*
X11572Y-51856D01*
X11535Y-51867D01*
X11496Y-51871D01*
X10079D01*
X10040Y-51867D01*
X10003Y-51856D01*
X9969Y-51838D01*
X9939Y-51813D01*
X9914Y-51783D01*
X9896Y-51749D01*
X9885Y-51712D01*
X9881Y-51673D01*
Y-50689D01*
X9885Y-50650D01*
X9896Y-50613D01*
X9914Y-50579D01*
X9939Y-50549D01*
X9969Y-50524D01*
X10003Y-50506D01*
X10040Y-50495D01*
X10079Y-50491D01*
X10787Y-50491D01*
X10787Y-50491D01*
X10807Y-50493D01*
D02*
G37*
G36*
X12611Y51356D02*
X12649Y51348D01*
X12684Y51332D01*
X13912Y50623D01*
X13943Y50600D01*
X13970Y50572D01*
X13990Y50539D01*
X14004Y50503D01*
X14010Y50465D01*
X14009Y50426D01*
X14000Y50388D01*
X13984Y50353D01*
X13847Y50114D01*
X13824Y50082D01*
X13796Y50056D01*
X13763Y50036D01*
X13734Y50025D01*
X13726Y50022D01*
X13726D01*
X12758Y49762D01*
X12758Y49762D01*
X12737Y49759D01*
X12720Y49756D01*
X12681Y49758D01*
X12643Y49766D01*
X12608Y49782D01*
X12608Y49782D01*
X11994Y50137D01*
X11963Y50159D01*
X11936Y50187D01*
X11916Y50220D01*
X11902Y50257D01*
X11896Y50295D01*
X11897Y50334D01*
X11906Y50371D01*
X11922Y50407D01*
X12414Y51259D01*
X12437Y51291D01*
X12465Y51317D01*
X12498Y51338D01*
X12534Y51351D01*
X12573Y51358D01*
X12611Y51356D01*
D02*
G37*
G36*
X15544Y49663D02*
X15581Y49655D01*
X15617Y49639D01*
X16844Y48930D01*
X16876Y48907D01*
X16902Y48879D01*
X16923Y48846D01*
X16936Y48810D01*
X16942Y48772D01*
X16941Y48733D01*
X16932Y48695D01*
X16917Y48660D01*
X16424Y47807D01*
X16402Y47776D01*
X16374Y47749D01*
X16341Y47729D01*
X16304Y47715D01*
X16266Y47709D01*
X16227Y47710D01*
X16190Y47719D01*
X16154Y47735D01*
X15540Y48089D01*
X15540Y48089D01*
X15522Y48103D01*
X15509Y48112D01*
X15482Y48140D01*
X15462Y48173D01*
X15459Y48181D01*
X15448Y48209D01*
X15448Y48210D01*
X15189Y49177D01*
X15189Y49178D01*
X15186Y49198D01*
X15183Y49216D01*
X15184Y49253D01*
X15184Y49255D01*
X15193Y49292D01*
X15209Y49328D01*
X15346Y49566D01*
X15369Y49598D01*
X15397Y49624D01*
X15430Y49645D01*
X15466Y49658D01*
X15505Y49665D01*
X15505D01*
D01*
X15544Y49663D01*
D02*
G37*
G36*
X11332Y49140D02*
X11370Y49131D01*
X11405Y49115D01*
X12019Y48761D01*
X12019Y48761D01*
X12037Y48748D01*
X12050Y48739D01*
X12077Y48710D01*
X12097Y48677D01*
X12100Y48669D01*
X12111Y48641D01*
X12111Y48641D01*
X12370Y47673D01*
X12370Y47673D01*
X12374Y47652D01*
X12376Y47635D01*
X12375Y47597D01*
X12375Y47596D01*
X12366Y47558D01*
X12350Y47523D01*
X12213Y47284D01*
X12190Y47253D01*
X12162Y47226D01*
X12129Y47206D01*
X12093Y47192D01*
X12054Y47186D01*
X12054D01*
D01*
X12015Y47187D01*
X11978Y47196D01*
X11942Y47212D01*
X10715Y47920D01*
X10684Y47943D01*
X10657Y47971D01*
X10637Y48004D01*
X10623Y48041D01*
X10616Y48079D01*
X10618Y48118D01*
X10627Y48155D01*
X10643Y48191D01*
X11135Y49043D01*
X11157Y49075D01*
X11186Y49101D01*
X11219Y49121D01*
X11255Y49135D01*
X11293Y49141D01*
X11332Y49140D01*
D02*
G37*
G36*
X14473Y49779D02*
X14511Y49770D01*
X14547Y49754D01*
X14578Y49731D01*
X14605Y49703D01*
X14625Y49670D01*
X14639Y49634D01*
X15128Y47808D01*
X15134Y47770D01*
X15133Y47731D01*
X15124Y47693D01*
X15108Y47658D01*
X15086Y47627D01*
X15057Y47600D01*
X15024Y47580D01*
X14988Y47566D01*
X14988D01*
X13163Y47077D01*
X13124Y47071D01*
X13086Y47072D01*
X13048Y47081D01*
X13013Y47097D01*
X12994Y47110D01*
X12981Y47119D01*
X12955Y47148D01*
X12934Y47181D01*
X12920Y47217D01*
Y47217D01*
X12431Y49042D01*
X12425Y49080D01*
X12426Y49119D01*
X12435Y49157D01*
X12451Y49192D01*
X12474Y49224D01*
X12502Y49250D01*
X12535Y49271D01*
X12571Y49284D01*
X14396Y49773D01*
X14435Y49780D01*
X14473Y49779D01*
D02*
G37*
G36*
X14878Y47093D02*
X14916Y47084D01*
X14951Y47068D01*
X14951Y47068D01*
X15564Y46714D01*
X15596Y46691D01*
X15623Y46663D01*
X15643Y46630D01*
X15657Y46594D01*
X15663Y46556D01*
X15662Y46517D01*
X15653Y46479D01*
X15637Y46444D01*
X15145Y45591D01*
X15122Y45560D01*
X15094Y45533D01*
X15061Y45513D01*
X15025Y45499D01*
X14987Y45493D01*
X14948Y45494D01*
X14910Y45503D01*
X14875Y45519D01*
X13647Y46227D01*
X13616Y46250D01*
X13589Y46278D01*
X13569Y46311D01*
X13555Y46348D01*
X13549Y46386D01*
X13550Y46425D01*
X13559Y46462D01*
X13575Y46498D01*
X13713Y46736D01*
X13735Y46768D01*
X13763Y46794D01*
X13796Y46815D01*
X13825Y46826D01*
X13833Y46828D01*
X13833D01*
X14801Y47088D01*
X14801Y47088D01*
X14822Y47091D01*
X14839Y47094D01*
X14878Y47093D01*
D02*
G37*
G36*
X36867Y39121D02*
X36903Y39107D01*
X36936Y39087D01*
X36964Y39060D01*
X36987Y39029D01*
X37696Y37801D01*
X37712Y37766D01*
X37720Y37728D01*
X37722Y37689D01*
D01*
Y37689D01*
X37715Y37651D01*
X37702Y37615D01*
X37681Y37582D01*
X37655Y37554D01*
X37623Y37531D01*
X37385Y37393D01*
X37349Y37377D01*
X37311Y37369D01*
X37310Y37368D01*
X37273Y37367D01*
X37255Y37370D01*
X37234Y37374D01*
X37234Y37374D01*
X36266Y37633D01*
X36266Y37633D01*
X36238Y37644D01*
X36230Y37647D01*
X36197Y37667D01*
X36169Y37694D01*
X36159Y37707D01*
X36146Y37725D01*
X36146Y37725D01*
X35792Y38339D01*
X35776Y38374D01*
X35767Y38412D01*
X35766Y38451D01*
X35772Y38489D01*
X35786Y38525D01*
X35806Y38558D01*
X35833Y38586D01*
X35864Y38609D01*
X36717Y39101D01*
X36752Y39117D01*
X36790Y39126D01*
X36829Y39127D01*
X36867Y39121D01*
D02*
G37*
G36*
X34651Y37841D02*
X34687Y37828D01*
X34720Y37807D01*
X34748Y37781D01*
X34771Y37749D01*
X35125Y37135D01*
X35125Y37135D01*
X35141Y37100D01*
X35150Y37062D01*
X35151Y37024D01*
X35148Y37006D01*
X35145Y36985D01*
X35145Y36985D01*
X34885Y36017D01*
Y36017D01*
X34883Y36009D01*
X34872Y35981D01*
X34851Y35948D01*
X34825Y35920D01*
X34793Y35897D01*
X34555Y35759D01*
X34519Y35743D01*
X34481Y35735D01*
X34443Y35733D01*
X34405Y35740D01*
X34368Y35753D01*
X34335Y35774D01*
X34307Y35800D01*
X34284Y35832D01*
X33576Y37059D01*
X33560Y37095D01*
X33551Y37132D01*
X33550Y37171D01*
X33556Y37209D01*
X33570Y37246D01*
X33590Y37279D01*
X33617Y37307D01*
X33648Y37329D01*
X34501Y37822D01*
X34536Y37838D01*
X34574Y37846D01*
X34612Y37848D01*
X34651Y37841D01*
D02*
G37*
G36*
X35865Y37312D02*
X37690Y36823D01*
X37727Y36810D01*
X37760Y36789D01*
X37788Y36763D01*
X37804Y36740D01*
X37811Y36731D01*
X37827Y36696D01*
X37835Y36658D01*
X37837Y36619D01*
D01*
Y36619D01*
X37830Y36581D01*
X37341Y34756D01*
X37328Y34719D01*
X37307Y34686D01*
X37281Y34658D01*
X37249Y34636D01*
X37214Y34620D01*
X37176Y34611D01*
X37137Y34609D01*
X37099Y34616D01*
X35274Y35105D01*
X35237Y35119D01*
X35204Y35139D01*
X35176Y35166D01*
X35154Y35197D01*
X35138Y35232D01*
X35129Y35270D01*
X35127Y35309D01*
D01*
Y35309D01*
X35134Y35347D01*
X35623Y37173D01*
X35637Y37209D01*
X35657Y37242D01*
X35684Y37270D01*
X35715Y37293D01*
X35750Y37309D01*
X35788Y37317D01*
X35827Y37319D01*
X35865Y37312D01*
D02*
G37*
G36*
X38560Y36189D02*
X38596Y36175D01*
X38629Y36154D01*
X38657Y36128D01*
X38680Y36097D01*
X39388Y34869D01*
X39404Y34834D01*
X39413Y34796D01*
X39415Y34757D01*
X39408Y34719D01*
X39395Y34683D01*
X39374Y34650D01*
X39348Y34621D01*
X39316Y34599D01*
X38464Y34107D01*
X38428Y34091D01*
X38391Y34082D01*
X38352Y34081D01*
X38314Y34087D01*
X38277Y34101D01*
X38244Y34121D01*
X38216Y34148D01*
X38194Y34179D01*
X37839Y34793D01*
X37839Y34793D01*
X37823Y34828D01*
X37814Y34866D01*
X37813Y34905D01*
X37816Y34922D01*
X37819Y34943D01*
X37819Y34943D01*
X38079Y35911D01*
Y35911D01*
X38082Y35919D01*
X38092Y35947D01*
X38113Y35980D01*
X38139Y36009D01*
X38171Y36031D01*
X38410Y36169D01*
X38445Y36185D01*
X38483Y36194D01*
X38522Y36195D01*
X38560Y36189D01*
D02*
G37*
G36*
X35709Y34558D02*
X35730Y34555D01*
X35730Y34555D01*
X36698Y34295D01*
X36698Y34295D01*
X36726Y34285D01*
X36734Y34282D01*
X36767Y34261D01*
X36795Y34235D01*
X36805Y34222D01*
X36818Y34203D01*
X36818Y34203D01*
X37172Y33590D01*
X37188Y33554D01*
X37197Y33516D01*
X37198Y33478D01*
X37192Y33439D01*
X37178Y33403D01*
X37158Y33370D01*
X37131Y33342D01*
X37100Y33319D01*
X36248Y32827D01*
X36212Y32811D01*
X36174Y32802D01*
X36136Y32801D01*
X36097Y32807D01*
X36061Y32821D01*
X36028Y32842D01*
X36000Y32868D01*
X35977Y32900D01*
X35269Y34127D01*
X35253Y34162D01*
X35244Y34200D01*
X35243Y34239D01*
D01*
Y34239D01*
X35249Y34277D01*
X35263Y34313D01*
X35283Y34346D01*
X35309Y34375D01*
X35341Y34397D01*
X35580Y34535D01*
X35615Y34551D01*
X35653Y34560D01*
X35654Y34560D01*
X35692Y34561D01*
X35709Y34558D01*
D02*
G37*
G36*
X51023Y15194D02*
X51060Y15183D01*
X51094Y15165D01*
X51124Y15140D01*
X51149Y15110D01*
X51167Y15076D01*
X51178Y15039D01*
X51182Y15000D01*
Y13583D01*
X51178Y13544D01*
X51167Y13507D01*
X51149Y13473D01*
X51124Y13443D01*
X51094Y13418D01*
X51060Y13400D01*
X51023Y13389D01*
X50984Y13385D01*
X50709D01*
X50709Y13385D01*
X50689Y13387D01*
X50670Y13389D01*
X50642Y13397D01*
X50633Y13400D01*
X50599Y13418D01*
X50569Y13443D01*
X49860Y14152D01*
X49836Y14182D01*
X49817Y14216D01*
X49815Y14224D01*
X49806Y14253D01*
X49804Y14272D01*
X49802Y14291D01*
X49802Y14291D01*
X49802Y15000D01*
X49806Y15039D01*
X49817Y15076D01*
X49836Y15110D01*
X49860Y15140D01*
X49890Y15165D01*
X49924Y15183D01*
X49961Y15194D01*
X50000Y15198D01*
X50984D01*
X51023Y15194D01*
D02*
G37*
G36*
X48464D02*
X48501Y15183D01*
X48535Y15165D01*
X48565Y15140D01*
X48590Y15110D01*
X48608Y15076D01*
X48619Y15039D01*
X48623Y15000D01*
X48623Y14291D01*
X48623Y14291D01*
X48621Y14272D01*
X48619Y14253D01*
X48611Y14224D01*
X48608Y14216D01*
X48590Y14182D01*
X48565Y14152D01*
X47856Y13443D01*
X47826Y13418D01*
X47792Y13400D01*
X47784Y13397D01*
X47755Y13389D01*
X47736Y13387D01*
X47717Y13385D01*
X47716Y13385D01*
X47441D01*
X47402Y13389D01*
X47365Y13400D01*
X47331Y13418D01*
X47301Y13443D01*
X47276Y13473D01*
X47258Y13507D01*
X47247Y13544D01*
X47243Y13583D01*
Y15000D01*
X47247Y15039D01*
X47258Y15076D01*
X47276Y15110D01*
X47301Y15140D01*
X47331Y15165D01*
X47365Y15183D01*
X47402Y15194D01*
X47441Y15198D01*
X48425D01*
X48464Y15194D01*
D02*
G37*
G36*
X49251Y14129D02*
X49288Y14117D01*
X49323Y14099D01*
X49352Y14075D01*
X49352Y14074D01*
X50689Y12738D01*
X50713Y12708D01*
X50732Y12674D01*
X50743Y12637D01*
X50747Y12598D01*
X50743Y12560D01*
X50732Y12523D01*
X50713Y12489D01*
X50689Y12459D01*
X49352Y11122D01*
X49323Y11098D01*
X49288Y11079D01*
X49251Y11068D01*
X49213Y11064D01*
X49174Y11068D01*
X49137Y11079D01*
X49103Y11098D01*
X49073Y11122D01*
X47736Y12459D01*
X47712Y12489D01*
X47694Y12523D01*
X47682Y12560D01*
X47679Y12598D01*
X47682Y12637D01*
X47690Y12663D01*
X47694Y12674D01*
X47712Y12708D01*
X47736Y12738D01*
X47736Y12738D01*
X49073Y14075D01*
X49103Y14099D01*
X49137Y14117D01*
X49174Y14129D01*
X49213Y14132D01*
X49251Y14129D01*
D02*
G37*
G36*
X50709Y11812D02*
X50984D01*
X51023Y11808D01*
X51060Y11797D01*
X51094Y11779D01*
X51124Y11754D01*
X51149Y11724D01*
X51167Y11690D01*
X51178Y11653D01*
X51182Y11614D01*
Y10197D01*
X51178Y10158D01*
X51167Y10121D01*
X51149Y10087D01*
X51124Y10057D01*
X51094Y10032D01*
X51060Y10014D01*
X51023Y10003D01*
X50984Y9999D01*
X50000D01*
X49961Y10003D01*
X49924Y10014D01*
X49890Y10032D01*
X49860Y10057D01*
X49836Y10087D01*
X49817Y10121D01*
X49806Y10158D01*
X49802Y10197D01*
X49802Y10905D01*
X49802Y10905D01*
X49804Y10925D01*
X49806Y10944D01*
X49815Y10973D01*
X49817Y10981D01*
X49836Y11015D01*
X49860Y11045D01*
X50569Y11754D01*
X50599Y11779D01*
X50633Y11797D01*
X50642Y11800D01*
X50670Y11808D01*
X50689Y11810D01*
X50709Y11812D01*
X50709Y11812D01*
D02*
G37*
G36*
X47736Y11810D02*
X47755Y11808D01*
X47784Y11800D01*
X47792Y11797D01*
X47826Y11779D01*
X47856Y11754D01*
X48565Y11045D01*
X48590Y11015D01*
X48608Y10981D01*
X48611Y10973D01*
X48619Y10944D01*
X48621Y10925D01*
X48623Y10905D01*
X48623Y10905D01*
X48623Y10197D01*
X48619Y10158D01*
X48608Y10121D01*
X48590Y10087D01*
X48565Y10057D01*
X48535Y10032D01*
X48501Y10014D01*
X48464Y10003D01*
X48425Y9999D01*
X47441D01*
X47402Y10003D01*
X47365Y10014D01*
X47331Y10032D01*
X47301Y10057D01*
X47276Y10087D01*
X47258Y10121D01*
X47247Y10158D01*
X47243Y10197D01*
Y11614D01*
X47247Y11653D01*
X47258Y11690D01*
X47276Y11724D01*
X47301Y11754D01*
X47331Y11779D01*
X47365Y11797D01*
X47402Y11808D01*
X47441Y11812D01*
X47716D01*
X47717Y11812D01*
X47736Y11810D01*
D02*
G37*
D18*
X49199Y-14134D02*
D03*
X-49474Y13523D02*
D03*
D19*
X49460Y-16240D02*
D03*
X47244Y-14961D02*
D03*
X48937Y-12028D02*
D03*
X51153Y-13308D02*
D03*
X-49736Y15629D02*
D03*
X-47520Y14349D02*
D03*
X-49213Y11417D02*
D03*
X-51429Y12697D02*
D03*
D20*
X35866Y-36234D02*
D03*
X-35866Y36234D02*
D03*
D21*
X35039Y-38189D02*
D03*
X33760Y-35973D02*
D03*
X36692Y-34280D02*
D03*
X37972Y-36496D02*
D03*
X-35039Y38189D02*
D03*
X-33760Y35973D02*
D03*
X-36692Y34280D02*
D03*
X-37972Y36496D02*
D03*
D22*
X12480Y-49902D02*
D03*
X-12323Y49705D02*
D03*
D23*
X10787Y-51181D02*
D03*
Y-48622D02*
D03*
X14173D02*
D03*
Y-51181D02*
D03*
X-10630Y50984D02*
D03*
Y48425D02*
D03*
X-14016D02*
D03*
Y50984D02*
D03*
D24*
X-13780Y-49213D02*
D03*
X13780Y48425D02*
D03*
D25*
X-15885Y-49474D02*
D03*
X-14606Y-47258D02*
D03*
X-11674Y-48951D02*
D03*
X-12953Y-51167D02*
D03*
X15885Y48687D02*
D03*
X14606Y46471D02*
D03*
X11674Y48164D02*
D03*
X12953Y50380D02*
D03*
D26*
X-36234Y-35866D02*
D03*
X36482Y35964D02*
D03*
D27*
X-38189Y-35039D02*
D03*
X-35973Y-33760D02*
D03*
X-34280Y-36692D02*
D03*
X-36496Y-37972D02*
D03*
X38437Y35138D02*
D03*
X36220Y33858D02*
D03*
X34528Y36790D02*
D03*
X36744Y38070D02*
D03*
D28*
X-49311Y-12874D02*
D03*
X49213Y12598D02*
D03*
D29*
X-50591Y-11181D02*
D03*
X-48031D02*
D03*
Y-14567D02*
D03*
X-50591D02*
D03*
X50492Y10905D02*
D03*
X47933D02*
D03*
Y14291D02*
D03*
X50492D02*
D03*
D53*
X4134Y28937D02*
D03*
X2165D02*
D03*
X197D02*
D03*
X-1772D02*
D03*
X-3740D02*
D03*
X-5709D02*
D03*
X-7677D02*
D03*
X-9646D02*
D03*
Y10039D02*
D03*
X-7677D02*
D03*
X-5709D02*
D03*
X-3740D02*
D03*
X-1772D02*
D03*
X197D02*
D03*
X2165D02*
D03*
X4134D02*
D03*
D54*
X-12205Y26378D02*
D03*
Y24409D02*
D03*
Y22441D02*
D03*
Y20472D02*
D03*
Y18504D02*
D03*
Y16535D02*
D03*
Y14567D02*
D03*
Y12598D02*
D03*
X6693D02*
D03*
Y14567D02*
D03*
Y16535D02*
D03*
Y18504D02*
D03*
Y20472D02*
D03*
Y22441D02*
D03*
Y24409D02*
D03*
Y26378D02*
D03*
D55*
X-2756Y19488D02*
D03*
D56*
X-1969Y-3445D02*
D03*
X0D02*
D03*
X1969D02*
D03*
Y3445D02*
D03*
X0D02*
D03*
X-1969D02*
D03*
D57*
X4429Y-2953D02*
D03*
Y-984D02*
D03*
Y984D02*
D03*
Y2953D02*
D03*
X-4429Y-2953D02*
D03*
Y-984D02*
D03*
Y984D02*
D03*
Y2953D02*
D03*
D58*
X2362Y37402D02*
D03*
X-1575D02*
D03*
X-50050Y-4576D02*
D03*
X-46113D02*
D03*
X50000Y4232D02*
D03*
X46063D02*
D03*
D59*
X-2279Y34475D02*
D03*
Y31877D02*
D03*
X7185Y-3130D02*
D03*
Y-5728D02*
D03*
X-15650Y16752D02*
D03*
Y14153D02*
D03*
D60*
X-10677Y7158D02*
D03*
X-13276D02*
D03*
X-2480Y-6299D02*
D03*
X118D02*
D03*
X7598Y31890D02*
D03*
X5000D02*
D03*
D61*
X6299Y43458D02*
D03*
Y36765D02*
D03*
X-11319Y35335D02*
D03*
Y42028D02*
D03*
D62*
X-41173Y-28839D02*
D03*
X-37764Y-26870D02*
D03*
X41469Y29232D02*
D03*
X38059Y27264D02*
D03*
D63*
X4528Y-52854D02*
D03*
Y-48917D02*
D03*
X-4331Y52264D02*
D03*
Y48327D02*
D03*
X-2559Y-38484D02*
D03*
Y-34547D02*
D03*
X-6398Y36516D02*
D03*
Y32579D02*
D03*
D64*
X-46095Y21161D02*
D03*
X-42685Y19193D02*
D03*
X45307Y-21555D02*
D03*
X41898Y-19587D02*
D03*
D65*
X-30512Y42945D02*
D03*
X-28543Y39535D02*
D03*
X28642Y-41862D02*
D03*
X26673Y-38453D02*
D03*
D66*
X21752Y44421D02*
D03*
X19783Y41012D02*
D03*
D67*
X-5906Y-29331D02*
D03*
X787D02*
D03*
D68*
X9843Y-23524D02*
D03*
X13780D02*
D03*
X-20965Y-31594D02*
D03*
X-24902D02*
D03*
X9843Y-27854D02*
D03*
X13780D02*
D03*
X9843Y-15846D02*
D03*
X13780D02*
D03*
X9843Y-10039D02*
D03*
X13780D02*
D03*
X-21358Y-12106D02*
D03*
X-25295D02*
D03*
X-21457Y-6594D02*
D03*
X-25394D02*
D03*
X13386Y-53543D02*
D03*
X9449D02*
D03*
X-50000Y-8661D02*
D03*
X-46063D02*
D03*
X-12992Y53543D02*
D03*
X-9055D02*
D03*
X50000Y8268D02*
D03*
X46063D02*
D03*
D69*
X-5610Y-9941D02*
D03*
Y-6004D02*
D03*
X4429Y-10630D02*
D03*
Y-6693D02*
D03*
X-10728Y-7283D02*
D03*
Y-3347D02*
D03*
X-22933Y-34646D02*
D03*
Y-38583D02*
D03*
X-6496Y-34547D02*
D03*
Y-38484D02*
D03*
X1772Y-34547D02*
D03*
Y-38484D02*
D03*
X9055Y4331D02*
D03*
Y394D02*
D03*
X-15650Y10335D02*
D03*
Y6398D02*
D03*
X10630Y26772D02*
D03*
Y30709D02*
D03*
X7874Y-50394D02*
D03*
Y-46457D02*
D03*
X-53150Y-13386D02*
D03*
Y-9449D02*
D03*
X-7874Y50394D02*
D03*
Y46457D02*
D03*
X53150Y13386D02*
D03*
Y9449D02*
D03*
D70*
X-57087Y0D02*
D03*
Y-3150D02*
D03*
Y12598D02*
D03*
Y6299D02*
D03*
Y-9449D02*
D03*
Y-12598D02*
D03*
Y-6299D02*
D03*
Y9449D02*
D03*
Y3150D02*
D03*
X-64173Y12598D02*
D03*
Y-9449D02*
D03*
X57087Y-12598D02*
D03*
Y12598D02*
D03*
Y9449D02*
D03*
Y6299D02*
D03*
Y3150D02*
D03*
Y0D02*
D03*
Y-3150D02*
D03*
Y-6299D02*
D03*
Y-9449D02*
D03*
X64173Y9449D02*
D03*
Y-12598D02*
D03*
D71*
X-52588Y-23088D02*
D03*
X-55738Y-17633D02*
D03*
X-43139Y-39454D02*
D03*
X-44714Y-36726D02*
D03*
X-46289Y-33999D02*
D03*
X-47864Y-31271D02*
D03*
X-49439Y-28543D02*
D03*
X-51013Y-25816D02*
D03*
X-54163Y-20360D02*
D03*
X-50851Y-40270D02*
D03*
X-61875Y-21176D02*
D03*
X55738Y17633D02*
D03*
X43139Y39454D02*
D03*
X44714Y36726D02*
D03*
X46289Y33999D02*
D03*
X47864Y31271D02*
D03*
X49439Y28543D02*
D03*
X51013Y25816D02*
D03*
X52588Y23088D02*
D03*
X54163Y20360D02*
D03*
X50851Y40270D02*
D03*
X61875Y21176D02*
D03*
D72*
X-46289Y33999D02*
D03*
X43139Y-39454D02*
D03*
X55738Y-17633D02*
D03*
X54163Y-20360D02*
D03*
X52588Y-23088D02*
D03*
X51013Y-25816D02*
D03*
X49439Y-28543D02*
D03*
X47864Y-31271D02*
D03*
X46289Y-33999D02*
D03*
X44714Y-36726D02*
D03*
X60300Y-23904D02*
D03*
X49276Y-42997D02*
D03*
X-43139Y39454D02*
D03*
X-55738Y17633D02*
D03*
X-54163Y20360D02*
D03*
X-52588Y23088D02*
D03*
X-51013Y25816D02*
D03*
X-49439Y28543D02*
D03*
X-47864Y31271D02*
D03*
X-44714Y36726D02*
D03*
X-60300Y23904D02*
D03*
X-49276Y42997D02*
D03*
D73*
X-23088Y52588D02*
D03*
X17633Y-55738D02*
D03*
X39454Y-43139D02*
D03*
X36726Y-44714D02*
D03*
X33999Y-46289D02*
D03*
X31271Y-47864D02*
D03*
X28543Y-49439D02*
D03*
X25816Y-51013D02*
D03*
X23088Y-52588D02*
D03*
X20360Y-54163D02*
D03*
X40270Y-50851D02*
D03*
X21176Y-61875D02*
D03*
X-17633Y55738D02*
D03*
X-39454Y43139D02*
D03*
X-36726Y44714D02*
D03*
X-33999Y46289D02*
D03*
X-31271Y47864D02*
D03*
X-28543Y49439D02*
D03*
X-25816Y51013D02*
D03*
X-20360Y54163D02*
D03*
X-40270Y50851D02*
D03*
X-21176Y61875D02*
D03*
D74*
X-12598Y-57087D02*
D03*
X12598D02*
D03*
X9449D02*
D03*
X6299D02*
D03*
X3150D02*
D03*
X0D02*
D03*
X-3150D02*
D03*
X-6299D02*
D03*
X-9449D02*
D03*
X9449Y-64173D02*
D03*
X-12598D02*
D03*
X12598Y57087D02*
D03*
X-12598D02*
D03*
X-9449D02*
D03*
X-6299D02*
D03*
X-3150D02*
D03*
X0D02*
D03*
X3150D02*
D03*
X6299D02*
D03*
X9449D02*
D03*
X-9449Y64173D02*
D03*
X12598D02*
D03*
D75*
X-39454Y-43139D02*
D03*
X-17633Y-55738D02*
D03*
X-20360Y-54163D02*
D03*
X-23088Y-52588D02*
D03*
X-25816Y-51013D02*
D03*
X-28543Y-49439D02*
D03*
X-31271Y-47864D02*
D03*
X-33999Y-46289D02*
D03*
X-36726Y-44714D02*
D03*
X-23904Y-60300D02*
D03*
X-42997Y-49276D02*
D03*
X39454Y43139D02*
D03*
X17633Y55738D02*
D03*
X20360Y54163D02*
D03*
X23088Y52588D02*
D03*
X25816Y51013D02*
D03*
X28543Y49439D02*
D03*
X31271Y47864D02*
D03*
X33999Y46289D02*
D03*
X36726Y44714D02*
D03*
X23904Y60300D02*
D03*
X42997Y49276D02*
D03*
D76*
X22736Y26575D02*
D03*
Y10433D02*
D03*
X16437Y26575D02*
D03*
Y10433D02*
D03*
D77*
X52756Y-15094D02*
D03*
X50787Y-18504D02*
D03*
X-17913Y-47768D02*
D03*
X-15945Y-44358D02*
D03*
X-52953Y14831D02*
D03*
X-50984Y18240D02*
D03*
X18110Y46457D02*
D03*
X16142Y43047D02*
D03*
D78*
X47374Y-17913D02*
D03*
X43964Y-15945D02*
D03*
X-15224Y-52953D02*
D03*
X-18634Y-50984D02*
D03*
X-48162Y17520D02*
D03*
X-44752Y15551D02*
D03*
X15224Y52165D02*
D03*
X18634Y50197D02*
D03*
D79*
X38319Y-39567D02*
D03*
X34909Y-41535D02*
D03*
X-39106Y-32480D02*
D03*
X-35697Y-30512D02*
D03*
X-38319Y39567D02*
D03*
X-34909Y41535D02*
D03*
X39370Y32677D02*
D03*
X35961Y30709D02*
D03*
D80*
X32480Y-39500D02*
D03*
X30512Y-36090D02*
D03*
X-39567Y-38319D02*
D03*
X-41535Y-34909D02*
D03*
X-32677Y39236D02*
D03*
X-30709Y35827D02*
D03*
X39567Y38319D02*
D03*
X41535Y34909D02*
D03*
D81*
X7283Y-101969D02*
D03*
X2362D02*
D03*
X-2559D02*
D03*
X-7480D02*
D03*
D82*
X103991Y60039D02*
D03*
X-103991D02*
D03*
X0Y-120079D02*
D03*
M02*
