G04*
G04 #@! TF.GenerationSoftware,Altium Limited,Altium Designer,21.5.1 (32)*
G04*
G04 Layer_Physical_Order=1*
G04 Layer_Color=255*
%FSLAX25Y25*%
%MOIN*%
G70*
G04*
G04 #@! TF.SameCoordinates,27F4FA08-B883-49DC-8838-6B3E8E1CA851*
G04*
G04*
G04 #@! TF.FilePolarity,Positive*
G04*
G01*
G75*
%ADD10C,0.00787*%
%ADD11C,0.00984*%
G04:AMPARAMS|DCode=13|XSize=23.62mil|YSize=39.37mil|CornerRadius=0mil|HoleSize=0mil|Usage=FLASHONLY|Rotation=240.000|XOffset=0mil|YOffset=0mil|HoleType=Round|Shape=Rectangle|*
%AMROTATEDRECTD13*
4,1,4,-0.01114,0.02007,0.02295,0.00039,0.01114,-0.02007,-0.02295,-0.00039,-0.01114,0.02007,0.0*
%
%ADD13ROTATEDRECTD13*%

G04:AMPARAMS|DCode=14|XSize=23.62mil|YSize=39.37mil|CornerRadius=0mil|HoleSize=0mil|Usage=FLASHONLY|Rotation=210.000|XOffset=0mil|YOffset=0mil|HoleType=Round|Shape=Rectangle|*
%AMROTATEDRECTD14*
4,1,4,0.00039,0.02295,0.02007,-0.01114,-0.00039,-0.02295,-0.02007,0.01114,0.00039,0.02295,0.0*
%
%ADD14ROTATEDRECTD14*%

%ADD15R,0.02362X0.03937*%
G04:AMPARAMS|DCode=16|XSize=23.62mil|YSize=39.37mil|CornerRadius=0mil|HoleSize=0mil|Usage=FLASHONLY|Rotation=150.000|XOffset=0mil|YOffset=0mil|HoleType=Round|Shape=Rectangle|*
%AMROTATEDRECTD16*
4,1,4,0.02007,0.01114,0.00039,-0.02295,-0.02007,-0.01114,-0.00039,0.02295,0.02007,0.01114,0.0*
%
%ADD16ROTATEDRECTD16*%

G04:AMPARAMS|DCode=17|XSize=23.62mil|YSize=39.37mil|CornerRadius=0mil|HoleSize=0mil|Usage=FLASHONLY|Rotation=120.000|XOffset=0mil|YOffset=0mil|HoleType=Round|Shape=Rectangle|*
%AMROTATEDRECTD17*
4,1,4,0.02295,-0.00039,-0.01114,-0.02007,-0.02295,0.00039,0.01114,0.02007,0.02295,-0.00039,0.0*
%
%ADD17ROTATEDRECTD17*%

%ADD18R,0.03937X0.02362*%
%ADD19P,0.01114X4X285.0*%
%ADD20P,0.00557X4X285.0*%
%ADD21P,0.01114X4X255.0*%
%ADD22P,0.00557X4X255.0*%
%ADD23R,0.00787X0.00787*%
%ADD24R,0.00394X0.00394*%
%ADD25P,0.01114X4X195.0*%
%ADD26P,0.00557X4X195.0*%
%ADD27P,0.01114X4X165.0*%
%ADD28P,0.00557X4X165.0*%
%ADD29R,0.00787X0.00787*%
%ADD30R,0.00394X0.00394*%
%ADD31O,0.03347X0.00984*%
%ADD32O,0.00984X0.03347*%
%ADD33R,0.22047X0.22047*%
%ADD34R,0.03937X0.03543*%
G04:AMPARAMS|DCode=35|XSize=23.62mil|YSize=23.62mil|CornerRadius=2.36mil|HoleSize=0mil|Usage=FLASHONLY|Rotation=90.000|XOffset=0mil|YOffset=0mil|HoleType=Round|Shape=RoundedRectangle|*
%AMROUNDEDRECTD35*
21,1,0.02362,0.01890,0,0,90.0*
21,1,0.01890,0.02362,0,0,90.0*
1,1,0.00472,0.00945,0.00945*
1,1,0.00472,0.00945,-0.00945*
1,1,0.00472,-0.00945,-0.00945*
1,1,0.00472,-0.00945,0.00945*
%
%ADD35ROUNDEDRECTD35*%
G04:AMPARAMS|DCode=36|XSize=23.62mil|YSize=23.62mil|CornerRadius=2.36mil|HoleSize=0mil|Usage=FLASHONLY|Rotation=0.000|XOffset=0mil|YOffset=0mil|HoleType=Round|Shape=RoundedRectangle|*
%AMROUNDEDRECTD36*
21,1,0.02362,0.01890,0,0,0.0*
21,1,0.01890,0.02362,0,0,0.0*
1,1,0.00472,0.00945,-0.00945*
1,1,0.00472,-0.00945,-0.00945*
1,1,0.00472,-0.00945,0.00945*
1,1,0.00472,0.00945,0.00945*
%
%ADD36ROUNDEDRECTD36*%
G04:AMPARAMS|DCode=37|XSize=31.5mil|YSize=31.5mil|CornerRadius=3.94mil|HoleSize=0mil|Usage=FLASHONLY|Rotation=90.000|XOffset=0mil|YOffset=0mil|HoleType=Round|Shape=RoundedRectangle|*
%AMROUNDEDRECTD37*
21,1,0.03150,0.02362,0,0,90.0*
21,1,0.02362,0.03150,0,0,90.0*
1,1,0.00787,0.01181,0.01181*
1,1,0.00787,0.01181,-0.01181*
1,1,0.00787,-0.01181,-0.01181*
1,1,0.00787,-0.01181,0.01181*
%
%ADD37ROUNDEDRECTD37*%
G04:AMPARAMS|DCode=38|XSize=31.5mil|YSize=31.5mil|CornerRadius=3.94mil|HoleSize=0mil|Usage=FLASHONLY|Rotation=0.000|XOffset=0mil|YOffset=0mil|HoleType=Round|Shape=RoundedRectangle|*
%AMROUNDEDRECTD38*
21,1,0.03150,0.02362,0,0,0.0*
21,1,0.02362,0.03150,0,0,0.0*
1,1,0.00787,0.01181,-0.01181*
1,1,0.00787,-0.01181,-0.01181*
1,1,0.00787,-0.01181,0.01181*
1,1,0.00787,0.01181,0.01181*
%
%ADD38ROUNDEDRECTD38*%
%ADD39R,0.03150X0.01181*%
%ADD40R,0.03150X0.01575*%
G04:AMPARAMS|DCode=41|XSize=19.68mil|YSize=23.62mil|CornerRadius=1.97mil|HoleSize=0mil|Usage=FLASHONLY|Rotation=150.000|XOffset=0mil|YOffset=0mil|HoleType=Round|Shape=RoundedRectangle|*
%AMROUNDEDRECTD41*
21,1,0.01968,0.01968,0,0,150.0*
21,1,0.01575,0.02362,0,0,150.0*
1,1,0.00394,-0.00190,0.01246*
1,1,0.00394,0.01174,0.00459*
1,1,0.00394,0.00190,-0.01246*
1,1,0.00394,-0.01174,-0.00459*
%
%ADD41ROUNDEDRECTD41*%
G04:AMPARAMS|DCode=42|XSize=19.68mil|YSize=23.62mil|CornerRadius=1.97mil|HoleSize=0mil|Usage=FLASHONLY|Rotation=60.000|XOffset=0mil|YOffset=0mil|HoleType=Round|Shape=RoundedRectangle|*
%AMROUNDEDRECTD42*
21,1,0.01968,0.01968,0,0,60.0*
21,1,0.01575,0.02362,0,0,60.0*
1,1,0.00394,0.01246,0.00190*
1,1,0.00394,0.00459,-0.01174*
1,1,0.00394,-0.01246,-0.00190*
1,1,0.00394,-0.00459,0.01174*
%
%ADD42ROUNDEDRECTD42*%
G04:AMPARAMS|DCode=43|XSize=19.68mil|YSize=23.62mil|CornerRadius=1.97mil|HoleSize=0mil|Usage=FLASHONLY|Rotation=120.000|XOffset=0mil|YOffset=0mil|HoleType=Round|Shape=RoundedRectangle|*
%AMROUNDEDRECTD43*
21,1,0.01968,0.01968,0,0,120.0*
21,1,0.01575,0.02362,0,0,120.0*
1,1,0.00394,0.00459,0.01174*
1,1,0.00394,0.01246,-0.00190*
1,1,0.00394,-0.00459,-0.01174*
1,1,0.00394,-0.01246,0.00190*
%
%ADD43ROUNDEDRECTD43*%
G04:AMPARAMS|DCode=44|XSize=19.68mil|YSize=23.62mil|CornerRadius=1.97mil|HoleSize=0mil|Usage=FLASHONLY|Rotation=30.000|XOffset=0mil|YOffset=0mil|HoleType=Round|Shape=RoundedRectangle|*
%AMROUNDEDRECTD44*
21,1,0.01968,0.01968,0,0,30.0*
21,1,0.01575,0.02362,0,0,30.0*
1,1,0.00394,0.01174,-0.00459*
1,1,0.00394,-0.00190,-0.01246*
1,1,0.00394,-0.01174,0.00459*
1,1,0.00394,0.00190,0.01246*
%
%ADD44ROUNDEDRECTD44*%
G04:AMPARAMS|DCode=45|XSize=19.68mil|YSize=23.62mil|CornerRadius=1.97mil|HoleSize=0mil|Usage=FLASHONLY|Rotation=90.000|XOffset=0mil|YOffset=0mil|HoleType=Round|Shape=RoundedRectangle|*
%AMROUNDEDRECTD45*
21,1,0.01968,0.01968,0,0,90.0*
21,1,0.01575,0.02362,0,0,90.0*
1,1,0.00394,0.00984,0.00787*
1,1,0.00394,0.00984,-0.00787*
1,1,0.00394,-0.00984,-0.00787*
1,1,0.00394,-0.00984,0.00787*
%
%ADD45ROUNDEDRECTD45*%
G04:AMPARAMS|DCode=46|XSize=19.68mil|YSize=23.62mil|CornerRadius=1.97mil|HoleSize=0mil|Usage=FLASHONLY|Rotation=0.000|XOffset=0mil|YOffset=0mil|HoleType=Round|Shape=RoundedRectangle|*
%AMROUNDEDRECTD46*
21,1,0.01968,0.01968,0,0,0.0*
21,1,0.01575,0.02362,0,0,0.0*
1,1,0.00394,0.00787,-0.00984*
1,1,0.00394,-0.00787,-0.00984*
1,1,0.00394,-0.00787,0.00984*
1,1,0.00394,0.00787,0.00984*
%
%ADD46ROUNDEDRECTD46*%
G04:AMPARAMS|DCode=47|XSize=39.37mil|YSize=35.43mil|CornerRadius=4.43mil|HoleSize=0mil|Usage=FLASHONLY|Rotation=0.000|XOffset=0mil|YOffset=0mil|HoleType=Round|Shape=RoundedRectangle|*
%AMROUNDEDRECTD47*
21,1,0.03937,0.02657,0,0,0.0*
21,1,0.03051,0.03543,0,0,0.0*
1,1,0.00886,0.01526,-0.01329*
1,1,0.00886,-0.01526,-0.01329*
1,1,0.00886,-0.01526,0.01329*
1,1,0.00886,0.01526,0.01329*
%
%ADD47ROUNDEDRECTD47*%
G04:AMPARAMS|DCode=48|XSize=39.37mil|YSize=35.43mil|CornerRadius=4.43mil|HoleSize=0mil|Usage=FLASHONLY|Rotation=270.000|XOffset=0mil|YOffset=0mil|HoleType=Round|Shape=RoundedRectangle|*
%AMROUNDEDRECTD48*
21,1,0.03937,0.02657,0,0,270.0*
21,1,0.03051,0.03543,0,0,270.0*
1,1,0.00886,-0.01329,-0.01526*
1,1,0.00886,-0.01329,0.01526*
1,1,0.00886,0.01329,0.01526*
1,1,0.00886,0.01329,-0.01526*
%
%ADD48ROUNDEDRECTD48*%
%ADD49R,0.01890X0.01654*%
%ADD77C,0.01772*%
%ADD78C,0.00787*%
%ADD79C,0.01968*%
%ADD80C,0.01968*%
%ADD81C,0.01181*%
%ADD82C,0.02362*%
%ADD83O,0.03150X0.04724*%
G36*
X-47421Y-12087D02*
X-47815Y-12087D01*
X-48642Y-11260D01*
X-48642Y-10276D01*
X-47421D01*
Y-12087D01*
D02*
G37*
G36*
X-49980Y-11260D02*
X-50807Y-12087D01*
X-51201Y-12087D01*
Y-10276D01*
X-49980D01*
X-49980Y-11260D01*
D02*
G37*
G36*
X-47696Y-12874D02*
X-49311Y-14489D01*
X-50926Y-12874D01*
X-49311Y-11259D01*
X-47696Y-12874D01*
D02*
G37*
G36*
X-47421Y-13661D02*
Y-15472D01*
X-48642D01*
X-48642Y-14488D01*
X-47815Y-13661D01*
X-47421Y-13661D01*
D02*
G37*
G36*
X-49980Y-14488D02*
X-49980Y-15473D01*
X-51201D01*
Y-13661D01*
X-50807Y-13661D01*
X-49980Y-14488D01*
D02*
G37*
G36*
X-34991Y-34239D02*
X-35332Y-34436D01*
X-36462Y-34133D01*
X-36954Y-33281D01*
X-35897Y-32671D01*
X-34991Y-34239D01*
D02*
G37*
G36*
X-37621Y-34803D02*
X-37924Y-35932D01*
X-38265Y-36129D01*
X-39170Y-34560D01*
X-38113Y-33950D01*
X-37621Y-34803D01*
D02*
G37*
G36*
X-34836Y-35058D02*
X-35427Y-37264D01*
X-37633Y-36673D01*
X-37042Y-34467D01*
X-34836Y-35058D01*
D02*
G37*
G36*
X-33299Y-37171D02*
X-34356Y-37781D01*
X-34848Y-36929D01*
X-34545Y-35800D01*
X-34204Y-35603D01*
X-33299Y-37171D01*
D02*
G37*
G36*
X-36007Y-37598D02*
X-35515Y-38451D01*
X-36572Y-39061D01*
X-37477Y-37492D01*
X-37136Y-37296D01*
X-36007Y-37598D01*
D02*
G37*
G36*
X-13517Y-47182D02*
X-13713Y-47523D01*
X-14843Y-47826D01*
X-15695Y-47334D01*
X-15085Y-46277D01*
X-13517Y-47182D01*
D02*
G37*
G36*
X-10584Y-48875D02*
X-11195Y-49932D01*
X-12047Y-49440D01*
X-12350Y-48311D01*
X-12153Y-47970D01*
X-10584Y-48875D01*
D02*
G37*
G36*
X-15512Y-48985D02*
X-15209Y-50115D01*
X-15406Y-50455D01*
X-16975Y-49550D01*
X-16364Y-48493D01*
X-15512Y-48985D01*
D02*
G37*
G36*
X-12381Y-50020D02*
X-14587Y-50611D01*
X-15178Y-48405D01*
X-12972Y-47814D01*
X-12381Y-50020D01*
D02*
G37*
G36*
X-11864Y-51091D02*
X-12474Y-52148D01*
X-14042Y-51243D01*
X-13846Y-50902D01*
X-12716Y-50599D01*
X-11864Y-51091D01*
D02*
G37*
G36*
X-9724Y50374D02*
X-10709Y50374D01*
X-11535Y51201D01*
X-11535Y51595D01*
X-9724D01*
Y50374D01*
D02*
G37*
G36*
X-13110Y51201D02*
X-13937Y50374D01*
X-14921Y50374D01*
Y51595D01*
X-13110D01*
X-13110Y51201D01*
D02*
G37*
G36*
X-10708Y49705D02*
X-12323Y48090D01*
X-13938Y49705D01*
X-12323Y51319D01*
X-10708Y49705D01*
D02*
G37*
G36*
X-9724Y47815D02*
X-11535D01*
X-11535Y48209D01*
X-10709Y49035D01*
X-9724Y49035D01*
Y47815D01*
D02*
G37*
G36*
X-13937Y49035D02*
X-13110Y48209D01*
X-13110Y47815D01*
X-14921D01*
Y49035D01*
X-13937Y49035D01*
D02*
G37*
G36*
X-33950Y38113D02*
X-34803Y37621D01*
X-35932Y37924D01*
X-36129Y38265D01*
X-34560Y39170D01*
X-33950Y38113D01*
D02*
G37*
G36*
X-37296Y37136D02*
X-37598Y36007D01*
X-38451Y35515D01*
X-39061Y36572D01*
X-37492Y37477D01*
X-37296Y37136D01*
D02*
G37*
G36*
X-32671Y35897D02*
X-34239Y34991D01*
X-34436Y35332D01*
X-34133Y36462D01*
X-33281Y36954D01*
X-32671Y35897D01*
D02*
G37*
G36*
X-34467Y37042D02*
X-35058Y34836D01*
X-37264Y35427D01*
X-36673Y37633D01*
X-34467Y37042D01*
D02*
G37*
G36*
X-35800Y34545D02*
X-35603Y34204D01*
X-37171Y33299D01*
X-37781Y34356D01*
X-36929Y34848D01*
X-35800Y34545D01*
D02*
G37*
G36*
X-48755Y16108D02*
X-49247Y15256D01*
X-50376Y14953D01*
X-50717Y15150D01*
X-49812Y16718D01*
X-48755Y16108D01*
D02*
G37*
G36*
X-46538Y14829D02*
X-47444Y13260D01*
X-47785Y13457D01*
X-48087Y14586D01*
X-47595Y15439D01*
X-46538Y14829D01*
D02*
G37*
G36*
X-48076Y12716D02*
X-50282Y12125D01*
X-50873Y14331D01*
X-48667Y14921D01*
X-48076Y12716D01*
D02*
G37*
G36*
X-51164Y13589D02*
X-50861Y12460D01*
X-51353Y11608D01*
X-52410Y12218D01*
X-51504Y13786D01*
X-51164Y13589D01*
D02*
G37*
G36*
X-48231Y11896D02*
X-49137Y10328D01*
X-50194Y10938D01*
X-49702Y11791D01*
X-48572Y12093D01*
X-48231Y11896D01*
D02*
G37*
G36*
X49918Y-11549D02*
X49426Y-12402D01*
X48297Y-12704D01*
X47956Y-12507D01*
X48861Y-10939D01*
X49918Y-11549D01*
D02*
G37*
G36*
X52135Y-12829D02*
X51229Y-14397D01*
X50888Y-14200D01*
X50585Y-13071D01*
X51078Y-12219D01*
X52135Y-12829D01*
D02*
G37*
G36*
X50597Y-14942D02*
X48391Y-15533D01*
X47800Y-13327D01*
X50006Y-12736D01*
X50597Y-14942D01*
D02*
G37*
G36*
X47509Y-14068D02*
X47812Y-15197D01*
X47320Y-16050D01*
X46263Y-15440D01*
X47168Y-13871D01*
X47509Y-14068D01*
D02*
G37*
G36*
X50441Y-15761D02*
X49536Y-17330D01*
X48479Y-16719D01*
X48971Y-15867D01*
X50101Y-15564D01*
X50441Y-15761D01*
D02*
G37*
G36*
X37781Y-34356D02*
X36929Y-34848D01*
X35800Y-34545D01*
X35603Y-34204D01*
X37171Y-33299D01*
X37781Y-34356D01*
D02*
G37*
G36*
X34436Y-35332D02*
X34133Y-36462D01*
X33281Y-36954D01*
X32671Y-35897D01*
X34239Y-34991D01*
X34436Y-35332D01*
D02*
G37*
G36*
X39061Y-36572D02*
X37492Y-37477D01*
X37296Y-37136D01*
X37598Y-36007D01*
X38451Y-35515D01*
X39061Y-36572D01*
D02*
G37*
G36*
X37264Y-35427D02*
X36673Y-37633D01*
X34467Y-37042D01*
X35058Y-34836D01*
X37264Y-35427D01*
D02*
G37*
G36*
X35932Y-37924D02*
X36129Y-38265D01*
X34560Y-39170D01*
X33950Y-38113D01*
X34803Y-37621D01*
X35932Y-37924D01*
D02*
G37*
G36*
X15079Y-49232D02*
X14094Y-49232D01*
X13268Y-48406D01*
X13268Y-48012D01*
X15079D01*
Y-49232D01*
D02*
G37*
G36*
X11693Y-48406D02*
X10866Y-49232D01*
X9882Y-49232D01*
Y-48012D01*
X11693D01*
X11693Y-48406D01*
D02*
G37*
G36*
X14095Y-49902D02*
X12480Y-51516D01*
X10866Y-49902D01*
X12480Y-48287D01*
X14095Y-49902D01*
D02*
G37*
G36*
X15079Y-51791D02*
X13268D01*
X13268Y-51398D01*
X14094Y-50571D01*
X15079Y-50571D01*
Y-51791D01*
D02*
G37*
G36*
X10866Y-50571D02*
X11693Y-51398D01*
X11693Y-51791D01*
X9882D01*
Y-50571D01*
X10866Y-50571D01*
D02*
G37*
G36*
X14042Y50455D02*
X13846Y50115D01*
X12716Y49812D01*
X11864Y50304D01*
X12474Y51361D01*
X14042Y50455D01*
D02*
G37*
G36*
X16975Y48763D02*
X16364Y47706D01*
X15512Y48198D01*
X15209Y49327D01*
X15406Y49668D01*
X16975Y48763D01*
D02*
G37*
G36*
X12047Y48652D02*
X12350Y47523D01*
X12153Y47182D01*
X10584Y48088D01*
X11195Y49145D01*
X12047Y48652D01*
D02*
G37*
G36*
X15178Y47618D02*
X12972Y47027D01*
X12381Y49233D01*
X14587Y49824D01*
X15178Y47618D01*
D02*
G37*
G36*
X15695Y46546D02*
X15085Y45489D01*
X13517Y46395D01*
X13713Y46736D01*
X14843Y47038D01*
X15695Y46546D01*
D02*
G37*
G36*
X37725Y37591D02*
X37384Y37394D01*
X36255Y37697D01*
X35763Y38549D01*
X36819Y39159D01*
X37725Y37591D01*
D02*
G37*
G36*
X35095Y37027D02*
X34793Y35898D01*
X34452Y35701D01*
X33546Y37270D01*
X34603Y37880D01*
X35095Y37027D01*
D02*
G37*
G36*
X37881Y36771D02*
X37289Y34566D01*
X35084Y35157D01*
X35675Y37363D01*
X37881Y36771D01*
D02*
G37*
G36*
X39418Y34659D02*
X38361Y34049D01*
X37869Y34901D01*
X38171Y36030D01*
X38512Y36227D01*
X39418Y34659D01*
D02*
G37*
G36*
X36709Y34232D02*
X37202Y33379D01*
X36145Y32769D01*
X35239Y34337D01*
X35580Y34534D01*
X36709Y34232D01*
D02*
G37*
G36*
X51102Y13386D02*
X50709Y13386D01*
X49882Y14212D01*
X49882Y15197D01*
X51102D01*
Y13386D01*
D02*
G37*
G36*
X48543Y14212D02*
X47717Y13386D01*
X47323Y13386D01*
Y15197D01*
X48543D01*
X48543Y14212D01*
D02*
G37*
G36*
X50827Y12598D02*
X49213Y10984D01*
X47598Y12598D01*
X49213Y14213D01*
X50827Y12598D01*
D02*
G37*
G36*
X51102Y11811D02*
Y10000D01*
X49882D01*
X49882Y10984D01*
X50709Y11811D01*
X51102Y11811D01*
D02*
G37*
G36*
X48543Y10984D02*
X48543Y10000D01*
X47323D01*
Y11811D01*
X47717Y11811D01*
X48543Y10984D01*
D02*
G37*
D10*
X-18056Y3050D02*
G03*
X-19030Y2809I-54J-1869D01*
G01*
X-19146Y2755D02*
G03*
X-19030Y2809I-275J738D01*
G01*
X-26350Y1167D02*
G03*
X-26124Y1741I-1604J961D01*
G01*
X-30191Y-5239D02*
G03*
X-30117Y-5137I-603J507D01*
G01*
X-30426Y-5491D02*
G03*
X-30191Y-5239I-2251J2342D01*
G01*
X12772Y-19838D02*
G03*
X12749Y-19828I-324J-718D01*
G01*
X12781Y-19842D02*
G03*
X12773Y-19839I-333J-714D01*
G01*
X6791Y-29001D02*
G03*
X5490Y-28394I-1990J-2567D01*
G01*
X-1792Y-27872D02*
G03*
X-1922Y-27416I-1849J-278D01*
G01*
X-2788Y-17865D02*
G03*
X-2827Y-18348I1828J-393D01*
G01*
X14728Y-25037D02*
G03*
X15243Y-25118I546J1789D01*
G01*
X-980Y-20240D02*
G03*
X-1040Y-20224I-233J-752D01*
G01*
X48507Y-25569D02*
G03*
X48337Y-25552I-182J-967D01*
G01*
X10969Y-17446D02*
G03*
X11594Y-17871I941J714D01*
G01*
X-2684Y-22862D02*
G03*
X-2657Y-22467I-1842J323D01*
G01*
X-2757Y-19854D02*
G03*
X-2758Y-19838I-1869J-71D01*
G01*
X1398Y-27172D02*
G03*
X2354Y-27712I1358J1286D01*
G01*
X18546Y-59998D02*
G03*
X18227Y-60475I623J-762D01*
G01*
X24082Y-63389D02*
G03*
X24137Y-63231I-899J400D01*
G01*
X25828Y-56562D02*
G03*
X25841Y-56511I-1813J460D01*
G01*
X8131Y-90554D02*
G03*
X8255Y-90273I-1643J892D01*
G01*
X15842Y-68328D02*
G03*
X15866Y-68256I-1767J611D01*
G01*
X36270Y11126D02*
G03*
X35197Y11760I-2412J-2858D01*
G01*
X13055Y26358D02*
G03*
X12979Y26189I1664J-853D01*
G01*
X12692Y20307D02*
G03*
X12256Y21656I-3234J-301D01*
G01*
X22240Y16729D02*
G03*
X21670Y16850I-670J-1746D01*
G01*
X20262Y-52527D02*
G03*
X20240Y-52398I-785J-65D01*
G01*
X35143Y43473D02*
G03*
X35147Y43481I-711J338D01*
G01*
X31376Y35561D02*
G03*
X31274Y35302I1777J-846D01*
G01*
X35147Y43481D02*
G03*
X35161Y43513I-715J331D01*
G01*
X35458Y43876D02*
G03*
X35161Y43513I434J-657D01*
G01*
X-44994Y-14774D02*
G03*
X-44812Y-14622I-1168J1585D01*
G01*
X-35610Y-5958D02*
G03*
X-35617Y-5964I533J-580D01*
G01*
X-47071Y-16285D02*
G03*
X-46864Y-16152I-960J1718D01*
G01*
X-52811Y-19493D02*
G03*
X-52852Y-19518I384J-687D01*
G01*
X-35610Y-5958D02*
G03*
X-35566Y-5916I-1273J1369D01*
G01*
X-32575Y-37676D02*
G03*
X-32482Y-37495I-1705J984D01*
G01*
X-22806Y-5315D02*
G03*
X-22612Y-5305I-74J3247D01*
G01*
X-31569Y-35448D02*
G03*
X-31399Y-34720I-1797J803D01*
G01*
X-22806Y-5315D02*
G03*
X-24089Y-6161I21J-1427D01*
G01*
X-9705Y-48951D02*
G03*
X-9706Y-48905I-1969J0D01*
G01*
X-9707Y-31219D02*
G03*
X-10039Y-32316I1538J-1064D01*
G01*
X-3935Y-55329D02*
G03*
X-3854Y-55677I787J0D01*
G01*
X-3937Y-31932D02*
G03*
X-3939Y-31988I785J-56D01*
G01*
X6050Y-30176D02*
G03*
X5165Y-29733I-1249J-1392D01*
G01*
X8875Y-32729D02*
G03*
X8666Y-32524I-2379J-2211D01*
G01*
X-3652Y-24946D02*
G03*
X-3866Y-25021I150J-773D01*
G01*
X-2788Y-17865D02*
G03*
X-2747Y-17307I-1824J413D01*
G01*
X2755Y-29255D02*
G03*
X2438Y-29220I-364J-1834D01*
G01*
X20907Y-47720D02*
G03*
X20655Y-47379I-1619J-935D01*
G01*
X5907Y-45406D02*
G03*
X5906Y-45472I1179J-66D01*
G01*
X-17674Y-4892D02*
G03*
X-17851Y-4898I-18J-1870D01*
G01*
X-30820Y-21253D02*
G03*
X-30905Y-21617I899J-401D01*
G01*
X-44822Y-31951D02*
G03*
X-44776Y-31893I-746J642D01*
G01*
X-22835Y-3937D02*
G03*
X-22659Y-3925I-46J1870D01*
G01*
X-22835Y-3937D02*
G03*
X-25045Y-5080I49J-2805D01*
G01*
X-21190Y-2266D02*
G03*
X-20584Y-2238I218J1857D01*
G01*
X-15333Y-22477D02*
G03*
X-14913Y-22245I-1596J3382D01*
G01*
X-26450Y-27702D02*
G03*
X-26355Y-27663I-322J930D01*
G01*
X-25257Y-27147D02*
G03*
X-25256Y-27146I-332J714D01*
G01*
X-17731Y9850D02*
G03*
X-19041Y9791I-576J-1779D01*
G01*
X-21561Y8863D02*
G03*
X-20863Y9013I-36J1870D01*
G01*
X-20510Y7654D02*
G03*
X-20462Y7743I-668J417D01*
G01*
X-20068Y8553D02*
G03*
X-20163Y8396I623J-482D01*
G01*
X-13767Y6890D02*
G03*
X-13777Y6890I0J-787D01*
G01*
X-22791Y7892D02*
G03*
X-22790Y7892I-555J559D01*
G01*
X-22958Y7765D02*
G03*
X-22791Y7892I-387J685D01*
G01*
X-14674Y4922D02*
G03*
X-14642Y4921I33J787D01*
G01*
X-16761Y5063D02*
G03*
X-16322Y4990I522J1796D01*
G01*
X32707Y26230D02*
G03*
X32721Y26233I-424J1821D01*
G01*
X6104Y28925D02*
G03*
X6545Y28211I1770J603D01*
G01*
X54703Y-2073D02*
G03*
X54792Y-2110I415J892D01*
G01*
X18150Y12723D02*
G03*
X19194Y12367I1098J1514D01*
G01*
X43384Y3320D02*
G03*
X44097Y2865I2089J2487D01*
G01*
X42495Y2267D02*
G03*
X43061Y1859I2977J3540D01*
G01*
X21907Y12246D02*
G03*
X21510Y12301I-450J-1815D01*
G01*
X35382Y10073D02*
G03*
X34625Y10502I-1524J-1805D01*
G01*
X34498Y9016D02*
G03*
X34095Y9223I-640J-748D01*
G01*
X54610Y-5173D02*
G03*
X54792Y-5260I508J843D01*
G01*
X18293Y525D02*
G03*
X19173Y-233I959J223D01*
G01*
X25032Y-2182D02*
G03*
X24980Y-2175I-131J-776D01*
G01*
X22783Y-3822D02*
G03*
X22780Y-3821I-93J-782D01*
G01*
X18922Y-1591D02*
G03*
X19026Y-1603I330J2339D01*
G01*
X33895Y-6891D02*
G03*
X33888Y-6890I-37J-984D01*
G01*
X14715Y-992D02*
G03*
X14615Y-984I-111J-780D01*
G01*
X27351Y-6692D02*
G03*
X27429Y-6696I138J1865D01*
G01*
X25821Y-6576D02*
G03*
X26009Y-6593I262J1852D01*
G01*
X25650Y-2290D02*
G03*
X25548Y-2270I-413J-1824D01*
G01*
X14681Y-2957D02*
G03*
X14598Y-2953I-83J-783D01*
G01*
X41038Y-5774D02*
G03*
X41069Y-5781I300J1345D01*
G01*
X41036Y-5773D02*
G03*
X41038Y-5774I303J1344D01*
G01*
X26031Y-6594D02*
G03*
X26010Y-6593I-58J-785D01*
G01*
X16604Y1436D02*
G03*
X16292Y1271I203J-761D01*
G01*
X21195Y-235D02*
G03*
X21396Y-203I-53J983D01*
G01*
X7864Y-33665D02*
G03*
X7532Y-33384I-1368J-1276D01*
G01*
X21901Y-46727D02*
G03*
X21662Y-46440I-2614J-1928D01*
G01*
X-9484Y-27984D02*
G03*
X-9689Y-28109I872J-1655D01*
G01*
X-7312Y-18100D02*
G03*
X-7486Y-18386I2686J-1826D01*
G01*
X-6137Y-16370D02*
G03*
X-6158Y-16401I1525J-1082D01*
G01*
X-5841Y-18504D02*
G03*
X-6276Y-19044I1215J-1421D01*
G01*
X-5067Y-14865D02*
G03*
X-4921Y-14420I-642J456D01*
G01*
X-10563Y-16567D02*
G03*
X-10611Y-16626I582J-531D01*
G01*
X-9963Y-20041D02*
G03*
X-9812Y-19804I-1496J1122D01*
G01*
X-11566Y-23938D02*
G03*
X-10462Y-23002I-1494J2884D01*
G01*
X-8861Y-20868D02*
G03*
X-8598Y-20456I-2599J1949D01*
G01*
X-24146Y-37810D02*
G03*
X-24057Y-37725I-1248J1393D01*
G01*
X-14642Y-28224D02*
G03*
X-15308Y-28787I2640J-3799D01*
G01*
X-7758Y-21694D02*
G03*
X-7384Y-21108I-3701J2775D01*
G01*
X-13850Y-29351D02*
G03*
X-13830Y-29337I-793J1127D01*
G01*
X-26446Y-29669D02*
G03*
X-26340Y-29625I-326J929D01*
G01*
X-10180Y-24674D02*
G03*
X-9361Y-23832I-2880J3620D01*
G01*
X-26446Y-31637D02*
G03*
X-26319Y-31583I-326J929D01*
G01*
X-12239Y-22734D02*
G03*
X-11564Y-22176I-821J1680D01*
G01*
X-13067Y-30485D02*
G03*
X-13353Y-30729I1065J-1538D01*
G01*
X-13850Y-29351D02*
G03*
X-14342Y-29770I1847J-2671D01*
G01*
X-20296Y-35967D02*
G03*
X-20302Y-35973I994J-955D01*
G01*
X-9736Y-15660D02*
G03*
X-9719Y-15642I-1091J995D01*
G01*
X-8608Y-17570D02*
G03*
X-8701Y-17736I3982J-2355D01*
G01*
X-20791Y-38494D02*
G03*
X-20976Y-38768I712J-680D01*
G01*
X-21791Y-37546D02*
G03*
X-21873Y-37637I1713J-1627D01*
G01*
X55382Y5695D02*
G03*
X55673Y5747I9J787D01*
G01*
X52601Y20267D02*
G03*
X52296Y20185I47J-786D01*
G01*
Y20185D02*
G03*
X52251Y20161I352J-704D01*
G01*
X33918Y-6892D02*
G03*
X33895Y-6891I-60J-982D01*
G01*
X33938Y-6893D02*
G03*
X33918Y-6892I-80J-981D01*
G01*
X29849Y-14471D02*
G03*
X29755Y-14437I-518J-1277D01*
G01*
X23096Y-12249D02*
G03*
X23319Y-12354I526J832D01*
G01*
X14860Y-8983D02*
G03*
X14435Y-8858I-425J-663D01*
G01*
X16214Y9036D02*
G03*
X16434Y9054I48J786D01*
G01*
X16210Y9037D02*
G03*
X15825Y9022I-123J-1866D01*
G01*
X18789Y5459D02*
G03*
X19851Y5973I-242J1854D01*
G01*
X35615Y28359D02*
G03*
X36090Y28510I-113J1176D01*
G01*
X20072Y3444D02*
G03*
X19987Y3445I-52J-1869D01*
G01*
X16636Y3386D02*
G03*
X16432Y3361I17J-984D01*
G01*
X27550Y1441D02*
G03*
X28684Y2309I-483J1807D01*
G01*
X19872Y-289D02*
G03*
X20120Y-293I148J1864D01*
G01*
X11010Y18962D02*
G03*
X10770Y21339I-1552J1044D01*
G01*
X22686Y31960D02*
G03*
X22766Y32060I-1427J1209D01*
G01*
X29746Y46815D02*
G03*
X29751Y46821I-598J513D01*
G01*
X29913Y46967D02*
G03*
X29751Y46821I441J-653D01*
G01*
X8729Y55647D02*
G03*
X8650Y55351I707J-347D01*
G01*
X7284Y34044D02*
G03*
X7654Y33407I1771J601D01*
G01*
X5639Y39209D02*
G03*
X5737Y38612I1870J0D01*
G01*
X3014Y20233D02*
G03*
X2961Y20696I-1870J20D01*
G01*
X-934Y17974D02*
G03*
X-936Y17952I1863J-164D01*
G01*
X-688Y20629D02*
G03*
X-719Y20422I1832J-375D01*
G01*
X-937Y17946D02*
G03*
X-941Y17836I1865J-135D01*
G01*
X11193Y23458D02*
G03*
X10887Y23848I-1611J-950D01*
G01*
X10875Y23859D02*
G03*
X10887Y23848I558J555D01*
G01*
X36101Y27047D02*
G03*
X36483Y27171I-599J2488D01*
G01*
X6963Y16921D02*
G03*
X6994Y17105I-756J221D01*
G01*
X6939Y15819D02*
G03*
X6923Y16015I-787J33D01*
G01*
X6963Y16921D02*
G03*
X6923Y16015I1792J-534D01*
G01*
X44266Y4378D02*
G03*
X45472Y3937I1206J1429D01*
G01*
X19530Y19207D02*
G03*
X19636Y19211I17J787D01*
G01*
X18591Y19255D02*
G03*
X18915Y19220I364J1834D01*
G01*
X17932Y35866D02*
G03*
X17889Y35787I1619J-935D01*
G01*
X22954Y8991D02*
G03*
X22936Y8973I668J-723D01*
G01*
X3089Y37845D02*
G03*
X3125Y37732I4420J1364D01*
G01*
X15945Y20944D02*
G03*
X15722Y20712I1230J-1409D01*
G01*
X48479Y25564D02*
G03*
X48507Y25569I-155J972D01*
G01*
X50015Y22831D02*
G03*
X50081Y22841I-116J977D01*
G01*
X-30913Y3356D02*
G03*
X-30416Y3550I-423J1822D01*
G01*
X-31649Y-4685D02*
G03*
X-31136Y-3922I-1248J1393D01*
G01*
X-40911Y4530D02*
G03*
X-40879Y4532I-132J3245D01*
G01*
X-55658Y8735D02*
G03*
X-55358Y8655I349J706D01*
G01*
X-41043Y5906D02*
G03*
X-40756Y5928I0J1870D01*
G01*
X-36055Y4776D02*
G03*
X-35991Y4781I-95J1868D01*
G01*
X-16277Y949D02*
G03*
X-16539Y904I0J-787D01*
G01*
X-20768Y29881D02*
G03*
X-20876Y30753I-3248J41D01*
G01*
X-21022Y13260D02*
G03*
X-20941Y13945I-3167J721D01*
G01*
X-23283Y11543D02*
G03*
X-23369Y10133I1685J-810D01*
G01*
X-22146Y29901D02*
G03*
X-22395Y30854I-1870J20D01*
G01*
X-46965Y29910D02*
G03*
X-46804Y29734I655J437D01*
G01*
X-45383Y32627D02*
G03*
X-45210Y32441I655J437D01*
G01*
X-24611Y9615D02*
G03*
X-24413Y9535I392J683D01*
G01*
X-17017Y-42327D02*
G03*
X-17157Y-42522I882J-785D01*
G01*
X-16194Y-41403D02*
G03*
X-16029Y-41145I-735J654D01*
G01*
X-15944Y-21242D02*
G03*
X-14884Y-20277I-985J2147D01*
G01*
X-11395Y-14928D02*
G03*
X-12230Y-15689I783J-1698D01*
G01*
X-16521Y-19990D02*
G03*
X-15956Y-19244I-408J896D01*
G01*
X-25386Y-23914D02*
G03*
X-24708Y-23745I-106J1867D01*
G01*
X21654Y-18110D02*
G03*
X22116Y-18828I787J0D01*
G01*
X22753Y-19151D02*
G03*
X22511Y-19006I-745J-967D01*
G01*
X14084Y-27927D02*
G03*
X14967Y-28067I1163J4477D01*
G01*
X36305Y-29529D02*
G03*
X35542Y-29314I-876J-1652D01*
G01*
X14258Y-26543D02*
G03*
X15063Y-26692I989J3094D01*
G01*
X35730Y-27875D02*
G03*
X35621Y-27860I-163J-770D01*
G01*
X5755Y-23825D02*
G03*
X5384Y-23746I-572J-1780D01*
G01*
X1097Y-15742D02*
G03*
X1093Y-15698I-1864J-156D01*
G01*
X29223Y-46397D02*
G03*
X29185Y-46365I-642J-746D01*
G01*
X46012Y-31134D02*
G03*
X46207Y-31172I246J748D01*
G01*
X36569Y-28065D02*
G03*
X36348Y-28005I-669J-2059D01*
G01*
X43819Y-35450D02*
G03*
X43526Y-35199I-643J-454D01*
G01*
X9934Y-18359D02*
G03*
X10788Y-19033I1975J1627D01*
G01*
D02*
G03*
X10955Y-19107I1121J2300D01*
G01*
X9604Y-19923D02*
G03*
X9870Y-20100I2306J3191D01*
G01*
X8930Y-19306D02*
G03*
X9154Y-19545I2979J2574D01*
G01*
D02*
G03*
X9604Y-19923I2755J2812D01*
G01*
X-985Y-13674D02*
G03*
X-981Y-13793I787J-33D01*
G01*
X-985Y-13670D02*
G03*
X-984Y-13632I-786J38D01*
G01*
X13681Y10827D02*
G03*
X13802Y10836I0J787D01*
G01*
X18528Y22910D02*
G03*
X17725Y22499I426J-1821D01*
G01*
X4922Y14676D02*
G03*
X4921Y14655I787J-21D01*
G01*
X984Y14659D02*
G03*
X984Y14671I-787J-2D01*
G01*
X4262Y39145D02*
G03*
X4433Y38167I3247J64D01*
G01*
X5979Y33602D02*
G03*
X6116Y33263I3076J1044D01*
G01*
X-24508Y-25143D02*
G03*
X-24133Y-24997I-984J3095D01*
G01*
X17057Y40869D02*
G03*
X17357Y41216I-725J932D01*
G01*
X20304Y46320D02*
G03*
X20307Y46325I-1020J596D01*
G01*
X-4285Y19882D02*
G03*
X-4134Y20522I-1276J639D01*
G01*
Y23573D02*
G03*
X-4319Y24276I-1427J0D01*
G01*
X-22839Y50068D02*
G03*
X-22841Y50081I-970J-169D01*
G01*
X-44119Y-15840D02*
G03*
X-43929Y-15682I-2043J2651D01*
G01*
X-19396Y30169D02*
G03*
X-19459Y30717I-4619J-248D01*
G01*
X-22502Y13173D02*
G03*
X-22319Y13960I-1687J807D01*
G01*
X-29059Y-6029D02*
G03*
X-28954Y-5875I-1735J1296D01*
G01*
X-46397Y-29223D02*
G03*
X-46355Y-29171I-746J642D01*
G01*
X-13830Y-29337D02*
X-4526Y-22539D01*
X-35991Y4781D02*
X-31336Y5178D01*
X-46804Y29734D02*
X-26461Y13333D01*
X-21399Y1914D02*
X-19146Y2755D01*
X-50043Y-24346D02*
X-30426Y-5491D01*
X-30191Y-5239D02*
Y-5239D01*
X-30117Y-5137D02*
X-26350Y1167D01*
X-26124Y1741D02*
X-25819Y3182D01*
X12781Y-19842D02*
X16929Y-21555D01*
X12772Y-19838D02*
X12773Y-19839D01*
X2354Y-27712D02*
X5490Y-28394D01*
X48507Y-25569D02*
X49256Y-25710D01*
X-2172Y-19970D02*
X-1040Y-20224D01*
X-3652Y-24946D02*
X-3652Y-24946D01*
X6791Y-29001D02*
X29185Y-46365D01*
X-2827Y-18348D02*
X-2758Y-19838D01*
X-2938Y-25033D02*
X-1922Y-27416D01*
X-980Y-20240D02*
X14728Y-25037D01*
X-1792Y-27872D02*
X2362Y-55512D01*
X-2758Y-19838D02*
X-2172Y-19970D01*
X15243Y-25118D02*
X48337Y-25552D01*
X12745Y-19827D02*
X12749Y-19828D01*
X11594Y-17871D02*
X20276Y-20276D01*
X21063Y-21063D01*
X10955Y-19107D02*
X12745Y-19827D01*
X-2684Y-22862D02*
X1398Y-27172D01*
X-2758Y-19838D02*
X-2758D01*
X-2757Y-19854D02*
X-2657Y-22467D01*
X-3652Y-24946D02*
X-3028Y-24822D01*
X7283Y-101181D02*
X24082Y-63389D01*
X24137Y-63231D02*
X25828Y-56562D01*
X25841Y-56511D02*
X26202Y-54897D01*
X15866Y-68256D02*
X18227Y-60475D01*
X8255Y-90273D02*
X15842Y-68328D01*
X18546Y-59998D02*
X21934Y-57232D01*
X7283Y-101969D02*
Y-101181D01*
X18528Y22910D02*
X32707Y26230D01*
X12970Y17314D02*
X14187Y18817D01*
X12092Y23936D02*
X12094Y23942D01*
X6545Y28211D02*
X10875Y23859D01*
X12165Y24123D02*
X12168Y24130D01*
X11619Y22736D02*
X12256Y21656D01*
X13652Y17277D02*
X14508Y17232D01*
X36270Y11126D02*
X44266Y4378D01*
X12970Y17314D02*
X13652Y17277D01*
X12094Y23942D02*
X12165Y24123D01*
X10827Y14665D02*
X12970Y17314D01*
X10827Y13484D02*
Y14665D01*
X12692Y20307D02*
X12970Y17314D01*
X11759Y23092D02*
X12092Y23936D01*
X17932Y35866D02*
X25674Y49276D01*
X20262Y-52527D02*
X20262Y-52531D01*
X19287Y-48655D02*
X20240Y-52398D01*
X16875Y-54357D02*
X17633Y-55738D01*
X16768Y-54161D02*
X16875Y-54357D01*
X2362Y-101181D02*
X8131Y-90554D01*
X2362Y-101969D02*
Y-101181D01*
X-6299Y-57087D02*
X-5812Y-55512D01*
X-9705D02*
Y-48951D01*
X-5812Y-55512D02*
Y-31932D01*
X-9705Y-55512D02*
X-9449Y-57087D01*
X-12598D02*
X-12574Y-57308D01*
X31376Y35561D02*
X35143Y43473D01*
X29232Y28740D02*
X31274Y35302D01*
X-44812Y-14622D02*
X-35617Y-5964D01*
X-45521Y-15162D02*
X-44994Y-14774D01*
X-46864Y-16152D02*
X-45521Y-15162D01*
X-52811Y-19493D02*
X-47071Y-16285D01*
X-54163Y-20360D02*
X-52852Y-19518D01*
X-35566Y-5916D02*
X-32896Y-3291D01*
X-22806Y-5315D02*
X-22806Y-5315D01*
X-36726Y-44714D02*
X-35873Y-43388D01*
X-32482Y-37495D02*
X-31569Y-35448D01*
X-35873Y-43388D02*
X-32575Y-37676D01*
X-31399Y-34720D02*
X-30905Y-21617D01*
X-10039Y-32316D02*
X-9706Y-48905D01*
X-9707Y-31219D02*
X-8613Y-29638D01*
X-3939Y-31988D02*
X-3939Y-31988D01*
X-3937Y-31932D02*
X-3642Y-28150D01*
X-3939Y-31988D02*
X-3935Y-55329D01*
X8875Y-32729D02*
X21662Y-46440D01*
X2755Y-29255D02*
X5165Y-29733D01*
X991Y-29184D02*
X2438Y-29220D01*
X-3028Y-24822D02*
X-2938Y-25033D01*
X6050Y-30176D02*
X8666Y-32524D01*
X20907Y-47720D02*
X22772Y-50952D01*
X23088Y-52588D01*
X5906Y-55512D02*
Y-45472D01*
X5907Y-45406D02*
X6496Y-34941D01*
X2895Y-23477D02*
X5384Y-23746D01*
X2953Y-14665D02*
X5777Y-19135D01*
X-14913Y-22245D02*
X-13060Y-21053D01*
X-16029Y-41145D02*
X-12002Y-32023D01*
X2953Y-14665D02*
Y-13484D01*
X4921Y-14665D02*
Y-13484D01*
X9870Y-20100D02*
X9870Y-20100D01*
X4921Y-14665D02*
X8930Y-19306D01*
X-17674Y-4892D02*
X-14665Y-4921D01*
X-30820Y-21253D02*
X-24089Y-6161D01*
X-22612Y-5305D02*
X-17851Y-4898D01*
X-14665Y-4921D02*
X-13484D01*
X-14665Y-6890D02*
X-13484D01*
X-15452Y-7054D02*
X-14665Y-6890D01*
X-44776Y-31893D02*
X-25045Y-5080D01*
X-22835Y-3937D02*
X-22835Y-3937D01*
X-22659Y-3925D02*
X-14665Y-2953D01*
X-22881Y-2068D02*
X-21190Y-2266D01*
X-20584Y-2238D02*
X-14665Y-984D01*
Y-2953D02*
X-13484D01*
X-14665Y-984D02*
X-13484D01*
X-15340Y-22480D02*
X-15333Y-22477D01*
X-25256Y-27146D02*
X-25252Y-27145D01*
X-27165Y-27953D02*
X-26450Y-27702D01*
X-26355Y-27663D02*
X-25257Y-27147D01*
X-25252Y-27145D02*
X-15340Y-22480D01*
X-26450Y-27702D02*
X-26450Y-27702D01*
X-28954Y-5875D02*
X-20510Y7654D01*
X-28954Y-5875D02*
X-28954Y-5875D01*
X-20163Y8396D02*
X-20163Y8396D01*
X-20462Y7743D02*
X-20163Y8396D01*
X-19952Y9402D02*
X-19041Y9791D01*
X-20357Y9229D02*
X-19952Y9402D01*
X-20863Y9013D02*
X-20357Y9229D01*
X-20068Y8553D02*
X-19952Y9402D01*
X-16228Y6859D02*
X-13777Y6890D01*
X-13767Y6890D02*
X-13484D01*
X-22790Y7892D02*
X-21819Y8858D01*
X-22791Y7892D02*
X-22790Y7892D01*
X-21819Y8858D02*
X-21561Y8863D01*
X-16322Y4990D02*
X-14674Y4922D01*
X-19291Y5807D02*
X-16761Y5063D01*
X-14665Y8858D02*
X-13484D01*
X-14642Y4921D02*
X-13484D01*
X-17731Y9850D02*
X-14665Y8858D01*
X3125Y37732D02*
X6104Y28925D01*
X25674Y49276D02*
X25816Y51013D01*
X14508Y17232D02*
X21670Y16850D01*
X13055Y26358D02*
X17889Y35787D01*
X22240Y16729D02*
X35197Y11760D01*
X35382Y10073D02*
X43384Y3320D01*
X44097Y2865D02*
X54703Y-2073D01*
X19194Y12367D02*
X21510Y12301D01*
X43061Y1859D02*
X54610Y-5173D01*
X15354Y14751D02*
X18150Y12723D01*
X21374Y14983D02*
X21571D01*
X34498Y9015D02*
X42495Y2267D01*
X21907Y12246D02*
X34095Y9223D01*
X21571Y14983D02*
X34625Y10502D01*
X13802Y10836D02*
X16142Y11200D01*
X17047Y1436D02*
X17309Y1282D01*
X18150Y1142D01*
X20120Y-293D02*
X21195Y-235D01*
X16292Y1271D02*
X16459Y1416D01*
X13484Y-2953D02*
X14597D01*
X24976Y-2175D02*
X24980Y-2175D01*
X14681Y-2957D02*
X16732Y-3176D01*
X22783Y-3822D02*
X25237Y-4114D01*
X14715Y-992D02*
X18922Y-1591D01*
X27429Y-6696D02*
X33888Y-6890D01*
X19026Y-1603D02*
X24976Y-2175D01*
X26031Y-6594D02*
X27351Y-6692D01*
X25650Y-2290D02*
X41036Y-5773D01*
X16732Y-3176D02*
X22776Y-3821D01*
X23043Y-6179D02*
X25821Y-6576D01*
X14597Y-2953D02*
X14598Y-2953D01*
X14609Y-984D02*
X14615Y-984D01*
X22776Y-3821D02*
X22780Y-3821D01*
X13484Y-984D02*
X14609D01*
X26009Y-6593D02*
X26010Y-6593D01*
X25032Y-2182D02*
X25548Y-2270D01*
X14665Y-4921D02*
X23043Y-6179D01*
X19173Y-233D02*
X19872Y-289D01*
X18150Y1142D02*
X18293Y525D01*
X13484Y984D02*
X14665D01*
X21396Y-203D02*
X27550Y1441D01*
X28684Y2309D02*
X30315Y5118D01*
X41069Y-5781D02*
X55512Y-8661D01*
X57087Y-9449D01*
X14665Y984D02*
X16292Y1271D01*
X20262Y-52531D02*
X20263Y-52537D01*
X7864Y-33665D02*
X20655Y-47379D01*
X4800Y-31567D02*
X7532Y-33384D01*
X24346Y-50043D02*
X25816Y-51013D01*
X20263Y-52540D02*
X20360Y-54163D01*
X20263Y-52537D02*
X20263Y-52540D01*
X32529Y-45319D02*
X33999Y-46289D01*
X21901Y-46727D02*
X24346Y-50043D01*
X-13830Y-29337D02*
X-13830Y-29337D01*
X-13067Y-30485D02*
X-9689Y-28109D01*
X-9484Y-27984D02*
X-3866Y-25021D01*
X-7492Y-18396D02*
X-7486Y-18386D01*
X-5841Y-18504D02*
X-4611Y-17452D01*
X-3028Y-24822D02*
X-2684Y-22862D01*
X-8598Y-20456D02*
X-7492Y-18396D01*
X-4921Y-14414D02*
Y-13484D01*
X-4921Y-14420D02*
X-4921Y-14414D01*
X-6137Y-16370D02*
X-5067Y-14865D01*
X-2953Y-14665D02*
X-2747Y-17307D01*
X-7312Y-18100D02*
X-6158Y-16401D01*
X-7384Y-21108D02*
X-6354Y-19190D01*
X-2953Y-14665D02*
Y-13484D01*
X-6354Y-19190D02*
X-6276Y-19044D01*
X16604Y1436D02*
X17047D01*
X30315Y5118D02*
X31890Y6496D01*
X-10563Y-16567D02*
X-9736Y-15660D01*
X-9812Y-19804D02*
X-8701Y-17736D01*
X-24057Y-37725D02*
X-15308Y-28787D01*
X-20296Y-35967D02*
X-14342Y-29770D01*
X-14642Y-28224D02*
X-10180Y-24674D01*
X29223Y-46397D02*
X29802Y-46894D01*
X-9361Y-23832D02*
X-7758Y-21694D01*
X-11564Y-22176D02*
X-9963Y-20041D01*
X-26319Y-31583D02*
X-11566Y-23938D01*
X-9719Y-15642D02*
X-8858Y-14665D01*
Y-13484D01*
X-27165Y-29921D02*
X-26446Y-29669D01*
X-26340Y-29625D02*
X-12239Y-22734D01*
X-8608Y-17570D02*
X-6890Y-14665D01*
X-27165Y-31890D02*
X-26446Y-31637D01*
X-6890Y-14665D02*
Y-13484D01*
X-10462Y-23002D02*
X-8861Y-20868D01*
X-20791Y-38494D02*
X-13353Y-30729D01*
X-2788Y-17865D02*
X-2788Y-17865D01*
X-13850Y-29351D02*
X-13850Y-29351D01*
X-21791Y-37546D02*
X-20302Y-35973D01*
X45472Y5807D02*
X55382Y5695D01*
X55673Y5747D02*
X57087Y6299D01*
X40642Y13390D02*
X52251Y20161D01*
X52601Y20267D02*
X52601Y20267D01*
X54163Y20360D01*
X33940Y-6893D02*
X36319Y-7087D01*
X13484Y-4921D02*
X14665D01*
X36319Y-7087D02*
X37106Y-7874D01*
X33938Y-6893D02*
X33940Y-6893D01*
X23319Y-12354D02*
X29755Y-14437D01*
X13484Y-8858D02*
X14435D01*
Y-8858D02*
Y-8858D01*
X14860Y-8983D02*
X24803Y-15362D01*
X16434Y9054D02*
X19219Y9663D01*
X16434Y9054D02*
X16434Y9054D01*
X16210Y9037D02*
X16214Y9036D01*
X19851Y5973D02*
X22936Y8973D01*
X36090Y28510D02*
X44752Y33511D01*
X14665Y4921D02*
X18789Y5459D01*
X22954Y8991D02*
X23769Y9744D01*
X13484Y4921D02*
X14665D01*
X16636Y3386D02*
X19987Y3445D01*
X20072Y3444D02*
X27067Y3248D01*
X14665Y2953D02*
X16432Y3361D01*
X9123Y16156D02*
X11010Y18962D01*
X17175Y19536D02*
X18591Y19255D01*
X8650Y55351D02*
X8650Y55352D01*
X7509Y39209D02*
X8650Y55351D01*
X19636Y19211D02*
X50015Y22831D01*
X22766Y32060D02*
X32529Y45319D01*
X33999Y46289D01*
X15211Y23138D02*
X22686Y31960D01*
X19551Y34931D02*
X29746Y46815D01*
X5639Y39209D02*
Y55512D01*
X6299Y57087D01*
X8729Y55647D02*
X9449Y57087D01*
X-934Y17974D02*
X-719Y20422D01*
X-5512Y55512D02*
X2961Y20696D01*
X-937Y17946D02*
X-936Y17952D01*
X-688Y20629D02*
X-394Y22047D01*
X45472Y3937D02*
X55512D01*
X57087Y3150D01*
X12168Y24130D02*
X12979Y26189D01*
X-2362Y55512D02*
X3089Y37845D01*
X15945Y20944D02*
X17725Y22499D01*
X11619Y22736D02*
X11759Y23092D01*
X11193Y23458D02*
X11619Y22736D01*
X9582Y22508D02*
X10770Y21339D01*
X8858Y14665D02*
X9123Y16156D01*
X8858Y13484D02*
Y14665D01*
X6890Y13484D02*
Y14665D01*
X6923Y16015D02*
X6923D01*
X6890Y14665D02*
X6939Y15819D01*
X6994Y17109D02*
X7087Y19291D01*
X6994Y17105D02*
X6994Y17109D01*
X18915Y19220D02*
X19530Y19207D01*
X35458Y43876D02*
X36726Y44714D01*
X32721Y26233D02*
X36101Y27047D01*
X14187Y18817D02*
X15722Y20712D01*
X21654Y21455D02*
X48479Y25564D01*
X29913Y46967D02*
X29917Y46970D01*
X-46355Y-29171D02*
X-29059Y-6029D01*
X-23041Y9177D02*
X-21819Y8858D01*
X-23369Y10133D02*
X-23041Y9177D01*
X-30416Y3550D02*
X-22958Y7765D01*
X-24413Y9535D02*
X-23041Y9177D01*
X-55512Y-2362D02*
X-30913Y3356D01*
X-57087Y-3150D02*
X-55512Y-2362D01*
X-43929Y-15682D02*
X-31649Y-4685D01*
X-31136Y-3922D02*
X-29652Y218D01*
X-52588Y23088D02*
X-51073Y22563D01*
X-40879Y4532D02*
X-36055Y4776D01*
X-55512Y3937D02*
X-40911Y4530D01*
X-40756Y5928D02*
X-36150Y6644D01*
X-55358Y8655D02*
X-41043Y7776D01*
X-57087Y9449D02*
X-55658Y8735D01*
X-57087Y3150D02*
X-55512Y3937D01*
X-57087Y6299D02*
X-55512Y5906D01*
X-16277Y949D02*
X-13520D01*
X-18677Y149D02*
X-16539Y904D01*
X-18056Y3050D02*
X-14665Y2953D01*
X-13913Y10827D02*
Y11532D01*
X-13908Y13569D01*
X-20941Y13945D02*
X-20768Y29881D01*
X-25710Y49256D02*
X-20876Y30753D01*
X-21597Y10733D02*
X-21022Y13260D01*
X-50043Y24346D02*
X-24611Y9615D01*
X-33999Y46289D02*
X-32811Y45156D01*
X-31166Y46106D02*
X-22395Y30854D01*
X-32811Y45156D02*
X-24016Y29921D01*
X-47864Y31271D02*
X-46965Y29910D01*
X-26370Y17856D02*
X-24414Y16332D01*
X-45210Y32441D02*
X-26370Y17856D01*
X-44714Y36726D02*
X-43803Y35346D01*
X-43744Y35257D01*
X-43717Y35239D02*
X-26181Y23819D01*
X-43744Y35257D02*
X-43717Y35239D01*
X-16142Y16142D02*
X-13500Y15396D01*
X-10827Y14665D01*
X-13913Y10827D02*
X-13484D01*
X-46289Y33999D02*
X-45383Y32627D01*
X-22319Y13960D02*
X-22146Y29901D01*
X-28346Y-30118D02*
X-27165Y-29921D01*
X-22212Y-51276D02*
X-17157Y-42522D01*
X-17017Y-42327D02*
X-16194Y-41403D01*
X-23088Y-52588D02*
X-22212Y-51276D01*
X5906Y-55512D02*
X6299Y-57087D01*
X-11395Y-14928D02*
X-10827Y-14665D01*
X-24133Y-24997D02*
X-15944Y-21242D01*
X-14884Y-20277D02*
X-12230Y-15689D01*
X-10827Y-14665D02*
Y-13484D01*
X-27165Y-25984D02*
X-24508Y-25143D01*
X-24708Y-23745D02*
X-16521Y-19990D01*
X-15956Y-19244D02*
X-14665Y-10827D01*
X8858Y-14665D02*
X10969Y-17446D01*
X8858Y-14665D02*
Y-13484D01*
X22116Y-18828D02*
X22511Y-19006D01*
X22753Y-19151D02*
X24213Y-20276D01*
X25000Y-21063D01*
X21654Y-18110D02*
Y-17126D01*
X21457Y-16929D02*
X21654Y-17126D01*
X14967Y-28067D02*
X35542Y-29314D01*
X5183Y-25605D02*
X14084Y-27927D01*
X36305Y-29529D02*
X44531Y-33893D01*
X36569Y-28065D02*
X46012Y-31134D01*
X35617Y-27860D02*
X35621Y-27860D01*
X15063Y-26692D02*
X35617Y-27860D01*
X5755Y-23825D02*
X14258Y-26543D01*
X1097Y-15742D02*
X1350Y-18757D01*
X984Y-14665D02*
X1093Y-15698D01*
X9870Y-20100D02*
X12567Y-21858D01*
X35730Y-27875D02*
X36348Y-28005D01*
X43821Y-35452D02*
X44714Y-36726D01*
X35428Y-31181D02*
X43526Y-35199D01*
X46207Y-31172D02*
X47864Y-31271D01*
X43819Y-35450D02*
X43821Y-35452D01*
X44531Y-33893D02*
X46289Y-33999D01*
X29802Y-46894D02*
X31271Y-47864D01*
X18061Y-31960D02*
X32529Y-45319D01*
X6890Y-14665D02*
X9932Y-18357D01*
X9934Y-18359D01*
X-3854Y-55677D02*
X-3150Y-57087D01*
X2362Y-55512D02*
X3150Y-57087D01*
X37106Y-11811D02*
X37894Y-11024D01*
X41339D01*
X42520Y-9941D01*
X13484Y-6890D02*
X14665D01*
X23096Y-12249D01*
X-55512Y5906D02*
X-41043D01*
X984Y-14665D02*
Y-13484D01*
X-981Y-13793D02*
X-981Y-13793D01*
X-766Y-15898D01*
X-984Y-13632D02*
X-984Y-13632D01*
X-985Y-13674D02*
X-985Y-13670D01*
X-984Y-13632D02*
Y-13484D01*
X6890Y-14665D02*
Y-13484D01*
X13484Y10827D02*
X13681D01*
X54792Y-2110D02*
X55512Y-2362D01*
X3150Y57087D02*
X3937Y55512D01*
X6116Y33263D02*
X7874Y29528D01*
X4921Y13484D02*
Y14655D01*
X4922Y14676D02*
X5217Y25591D01*
X29917Y46970D02*
X31271Y47864D01*
X7654Y33407D02*
X11897Y28607D01*
X984Y14659D02*
X984Y14658D01*
Y13484D02*
Y14658D01*
X929Y17811D02*
X984Y14671D01*
X4433Y38167D02*
X5979Y33602D01*
X5737Y38612D02*
X7284Y34044D01*
X36483Y27171D02*
X46106Y31166D01*
X9055Y34646D02*
X17057Y40869D01*
X3937Y55512D02*
X4262Y39145D01*
X-46289Y-33999D02*
X-45319Y-32529D01*
X-44822Y-31951D01*
X-57087Y-6299D02*
X-55512Y-5512D01*
X-10827Y13484D02*
Y14665D01*
X-22839Y50068D02*
X-19459Y30717D01*
X-32529Y-45319D02*
X-24146Y-37810D01*
X13484Y8858D02*
X14665D01*
X-25816Y-51013D02*
X-25710Y-49256D01*
X49256Y-25710D02*
X51013Y-25816D01*
X-20360Y54163D02*
X-20255Y52405D01*
X-4319Y24276D01*
X-4134Y20522D02*
Y23573D01*
X-6890Y14665D02*
X-4285Y19882D01*
X14665Y6890D02*
X16087Y7170D01*
X13484Y2953D02*
X14665D01*
X44752Y33511D02*
X46289Y33999D01*
X-28346Y-32087D02*
X-27165Y-31890D01*
X-25710Y-49256D02*
X-20976Y-38768D01*
X-33999Y-46289D02*
X-32529Y-45319D01*
X2953Y13484D02*
Y14665D01*
X-6299Y57087D02*
X-5512Y55512D01*
X2953Y14665D02*
X3014Y20233D01*
X-23283Y11543D02*
X-22502Y13173D01*
X-51013Y-25816D02*
X-50043Y-24346D01*
X-51618Y-21619D02*
X-44119Y-15840D01*
X50831Y-22983D02*
X52588Y-23088D01*
X29849Y-14471D02*
X50831Y-22983D01*
X-27165Y-24016D02*
X-25386Y-23914D01*
X-28346Y-24213D02*
X-27165Y-24016D01*
X-14665Y-10827D02*
X-13484D01*
X-47864Y-31271D02*
X-46894Y-29802D01*
X-51013Y25816D02*
X-50043Y24346D01*
X-46894Y-29802D02*
X-46397Y-29223D01*
X-23088Y52588D02*
X-22983Y50831D01*
X-52588Y-23088D02*
X-51618Y-21619D01*
X-31271Y47864D02*
X-31166Y46106D01*
X-28346Y-26181D02*
X-27165Y-25984D01*
X-6890Y13484D02*
Y14665D01*
X-28346Y-28150D02*
X-27165Y-27953D01*
X-984Y13484D02*
Y14665D01*
X14665Y8858D02*
X15825Y9022D01*
X13484Y6890D02*
X14665D01*
X50081Y22841D02*
X50831Y22983D01*
X52588Y23088D01*
X-24606Y-34055D02*
X-24409Y-34252D01*
X-28346Y-34055D02*
X-24606D01*
X-984Y14665D02*
X-941Y17836D01*
X-31271Y-47864D02*
X-29802Y-46894D01*
X-25816Y51013D02*
X-25710Y49256D01*
X49256Y25710D02*
X51013Y25816D01*
X-14665Y2953D02*
X-13484D01*
X-29802Y-46894D02*
X-21873Y-37637D01*
X-13520Y949D02*
X-13484Y984D01*
X48507Y25569D02*
X49256Y25710D01*
X-22983Y50831D02*
X-22841Y50081D01*
X55512Y-2362D02*
X57087Y-3150D01*
X17357Y41216D02*
X20304Y46320D01*
X20307Y46325D02*
X22927Y50863D01*
X23088Y52588D01*
X-19396Y30169D02*
X-18523Y13899D01*
X-55512Y-5512D02*
X-36884Y-4589D01*
X55512Y-5512D02*
X57087Y-6299D01*
X32283Y28051D02*
X35615Y28359D01*
X-51073Y22563D02*
X-38305Y15191D01*
X54792Y-5260D02*
X55512Y-5512D01*
X46106Y31166D02*
X47864Y31271D01*
X-3150Y57087D02*
X-2362Y55512D01*
D11*
X8022Y-50461D02*
X8366Y-49705D01*
X7874Y-50787D02*
X8022Y-50461D01*
X-39370Y-32283D02*
X-39075Y-32358D01*
X-38264Y-32562D01*
X-17963Y-47719D02*
X-17913Y-47768D01*
X-17143Y-47417D02*
X-14606Y-47258D01*
X-17592Y-47768D02*
X-15885Y-49474D01*
X-17913Y-47768D02*
X-17592D01*
X-28248Y-36122D02*
X-25902D01*
X-25607Y-36417D01*
X-25394D01*
X-28346Y-36024D02*
X-28248Y-36122D01*
X-25591Y-22146D02*
X-25492Y-22047D01*
X-28346Y-22244D02*
X-28248Y-22146D01*
X-25591D01*
X-33760Y35973D02*
X-32759Y38394D01*
X-35039Y38189D02*
X-33240Y39228D01*
X-38670Y38796D02*
X-38319Y39567D01*
X-38670Y38796D02*
X-37972Y36496D01*
X-49736Y15629D02*
X-48770Y17303D01*
X-47811Y16749D02*
X-47520Y14349D01*
X-52871Y13988D02*
X-51429Y12697D01*
X-52953Y14831D02*
X-52871Y13988D01*
X-50000Y-8661D02*
X-49311Y-9154D01*
X-48031Y-11181D01*
X-50591Y-9154D02*
X-50000Y-8661D01*
X-50591Y-11181D02*
Y-9154D01*
X-53150Y-13386D02*
X-52658Y-14075D01*
X-50591Y-14567D01*
X-38264Y-32562D02*
X-35973Y-33760D01*
X-39280Y-33149D02*
X-38189Y-35039D01*
X-39567Y-38319D02*
X-38796Y-38670D01*
X-36854Y-38178D01*
X-15224Y-52953D02*
X-14382Y-52871D01*
X-12953Y-51167D01*
X14075Y-53051D02*
X14173Y-51181D01*
X13386Y-53543D02*
X14075Y-53051D01*
X8366Y-49705D02*
X10787Y-48622D01*
X8366Y-51083D02*
X10787Y-51181D01*
X7874Y-50787D02*
X8366Y-51083D01*
X32562Y-38657D02*
X33760Y-35973D01*
X32283Y-39370D02*
X32562Y-38657D01*
X32979Y-39379D02*
X35039Y-38189D01*
X38319Y-39567D02*
X38670Y-38796D01*
X37972Y-36496D02*
X38670Y-38796D01*
X47023Y-17143D02*
X47208Y-17951D01*
X47244Y-18110D01*
X46890Y-15574D02*
X47023Y-17143D01*
X48217Y-17832D02*
X49460Y-16240D01*
X52674Y-14252D02*
X52756Y-15094D01*
X51153Y-13308D02*
X52674Y-14252D01*
X49311Y8760D02*
X50000Y8268D01*
X47933Y10905D02*
X49311Y8760D01*
X50000Y8268D02*
X50492Y8760D01*
Y10905D01*
Y14291D02*
X52658Y14075D01*
X53150Y13386D01*
X36220Y33858D02*
X38527Y32759D01*
X39370Y32677D01*
X39489Y33314D01*
X38437Y35138D02*
X39489Y33314D01*
X38796Y38670D02*
X39567Y38319D01*
X37102Y38277D02*
X38796Y38670D01*
X14382Y52084D02*
X15224Y52165D01*
X12953Y50380D02*
X14382Y52084D01*
X17340Y46106D02*
X18110Y46457D01*
X15220Y46116D02*
X17340Y46106D01*
X18029Y47299D02*
X18110Y46457D01*
X15885Y48687D02*
X18029Y47299D01*
X-14016Y50984D02*
X-13681Y53051D01*
X-13681Y53051D01*
X-8268Y49803D02*
Y50394D01*
Y50886D01*
X-10630Y48425D02*
X-9646D01*
X-8268Y49803D01*
X-8366Y50984D02*
X-8268Y50886D01*
X-10630Y50984D02*
X-8366D01*
D13*
X43139Y-39454D02*
D03*
X55738Y-17633D02*
D03*
X54163Y-20360D02*
D03*
X52588Y-23088D02*
D03*
X51013Y-25816D02*
D03*
X49439Y-28543D02*
D03*
X47864Y-31271D02*
D03*
X46289Y-33999D02*
D03*
X44714Y-36726D02*
D03*
X60300Y-23904D02*
D03*
X49276Y-42997D02*
D03*
X-43139Y39454D02*
D03*
X-55738Y17633D02*
D03*
X-54163Y20360D02*
D03*
X-52588Y23088D02*
D03*
X-51013Y25816D02*
D03*
X-49439Y28543D02*
D03*
X-47864Y31271D02*
D03*
X-46289Y33999D02*
D03*
X-44714Y36726D02*
D03*
X-60300Y23904D02*
D03*
X-49276Y42997D02*
D03*
D14*
X17633Y-55738D02*
D03*
X39454Y-43139D02*
D03*
X36726Y-44714D02*
D03*
X33999Y-46289D02*
D03*
X31271Y-47864D02*
D03*
X28543Y-49439D02*
D03*
X25816Y-51013D02*
D03*
X23088Y-52588D02*
D03*
X20360Y-54163D02*
D03*
X40270Y-50851D02*
D03*
X21176Y-61875D02*
D03*
X-17633Y55738D02*
D03*
X-39454Y43139D02*
D03*
X-36726Y44714D02*
D03*
X-33999Y46289D02*
D03*
X-31271Y47864D02*
D03*
X-28543Y49439D02*
D03*
X-25816Y51013D02*
D03*
X-23088Y52588D02*
D03*
X-20360Y54163D02*
D03*
X-40270Y50851D02*
D03*
X-21176Y61875D02*
D03*
D15*
X-12598Y-57087D02*
D03*
X12598D02*
D03*
X9449D02*
D03*
X6299D02*
D03*
X3150D02*
D03*
X0D02*
D03*
X-3150D02*
D03*
X-6299D02*
D03*
X-9449D02*
D03*
X9449Y-64173D02*
D03*
X-12598D02*
D03*
X12598Y57087D02*
D03*
X-12598D02*
D03*
X-9449D02*
D03*
X-6299D02*
D03*
X-3150D02*
D03*
X0D02*
D03*
X3150D02*
D03*
X6299D02*
D03*
X9449D02*
D03*
X-9449Y64173D02*
D03*
X12598D02*
D03*
D16*
X-39454Y-43139D02*
D03*
X-17633Y-55738D02*
D03*
X-20360Y-54163D02*
D03*
X-23088Y-52588D02*
D03*
X-25816Y-51013D02*
D03*
X-28543Y-49439D02*
D03*
X-31271Y-47864D02*
D03*
X-33999Y-46289D02*
D03*
X-36726Y-44714D02*
D03*
X-23904Y-60300D02*
D03*
X-42997Y-49276D02*
D03*
X39454Y43139D02*
D03*
X17633Y55738D02*
D03*
X20360Y54163D02*
D03*
X23088Y52588D02*
D03*
X25816Y51013D02*
D03*
X28543Y49439D02*
D03*
X31271Y47864D02*
D03*
X33999Y46289D02*
D03*
X36726Y44714D02*
D03*
X23904Y60300D02*
D03*
X42997Y49276D02*
D03*
D17*
X-55738Y-17633D02*
D03*
X-43139Y-39454D02*
D03*
X-44714Y-36726D02*
D03*
X-46289Y-33999D02*
D03*
X-47864Y-31271D02*
D03*
X-49439Y-28543D02*
D03*
X-51013Y-25816D02*
D03*
X-52588Y-23088D02*
D03*
X-54163Y-20360D02*
D03*
X-50851Y-40270D02*
D03*
X-61875Y-21176D02*
D03*
X55738Y17633D02*
D03*
X43139Y39454D02*
D03*
X44714Y36726D02*
D03*
X46289Y33999D02*
D03*
X47864Y31271D02*
D03*
X49439Y28543D02*
D03*
X51013Y25816D02*
D03*
X52588Y23088D02*
D03*
X54163Y20360D02*
D03*
X50851Y40270D02*
D03*
X61875Y21176D02*
D03*
D18*
X-57087Y12598D02*
D03*
Y-12598D02*
D03*
Y-9449D02*
D03*
Y-6299D02*
D03*
Y-3150D02*
D03*
Y0D02*
D03*
Y3150D02*
D03*
Y6299D02*
D03*
Y9449D02*
D03*
X-64173Y-9449D02*
D03*
Y12598D02*
D03*
X57087Y-12598D02*
D03*
Y12598D02*
D03*
Y9449D02*
D03*
Y6299D02*
D03*
Y3150D02*
D03*
Y0D02*
D03*
Y-3150D02*
D03*
Y-6299D02*
D03*
Y-9449D02*
D03*
X64173Y9449D02*
D03*
Y-12598D02*
D03*
D19*
X49199Y-14134D02*
D03*
X-49474Y13523D02*
D03*
D20*
X49460Y-16240D02*
D03*
X47244Y-14961D02*
D03*
X48937Y-12028D02*
D03*
X51153Y-13308D02*
D03*
X-49736Y15629D02*
D03*
X-47520Y14349D02*
D03*
X-49213Y11417D02*
D03*
X-51429Y12697D02*
D03*
D21*
X35866Y-36234D02*
D03*
X-35866Y36234D02*
D03*
D22*
X35039Y-38189D02*
D03*
X33760Y-35973D02*
D03*
X36692Y-34280D02*
D03*
X37972Y-36496D02*
D03*
X-35039Y38189D02*
D03*
X-33760Y35973D02*
D03*
X-36692Y34280D02*
D03*
X-37972Y36496D02*
D03*
D23*
X12480Y-49902D02*
D03*
X-12323Y49705D02*
D03*
D24*
X10787Y-51181D02*
D03*
Y-48622D02*
D03*
X14173D02*
D03*
Y-51181D02*
D03*
X-10630Y50984D02*
D03*
Y48425D02*
D03*
X-14016D02*
D03*
Y50984D02*
D03*
D25*
X-13780Y-49213D02*
D03*
X13780Y48425D02*
D03*
D26*
X-15885Y-49474D02*
D03*
X-14606Y-47258D02*
D03*
X-11674Y-48951D02*
D03*
X-12953Y-51167D02*
D03*
X15885Y48687D02*
D03*
X14606Y46471D02*
D03*
X11674Y48164D02*
D03*
X12953Y50380D02*
D03*
D27*
X-36234Y-35866D02*
D03*
X36482Y35964D02*
D03*
D28*
X-38189Y-35039D02*
D03*
X-35973Y-33760D02*
D03*
X-34280Y-36692D02*
D03*
X-36496Y-37972D02*
D03*
X38437Y35138D02*
D03*
X36220Y33858D02*
D03*
X34528Y36790D02*
D03*
X36744Y38070D02*
D03*
D29*
X-49311Y-12874D02*
D03*
X49213Y12598D02*
D03*
D30*
X-50591Y-11181D02*
D03*
X-48031D02*
D03*
Y-14567D02*
D03*
X-50591D02*
D03*
X50492Y10905D02*
D03*
X47933D02*
D03*
Y14291D02*
D03*
X50492D02*
D03*
D31*
X13484Y-10827D02*
D03*
Y-8858D02*
D03*
Y-6890D02*
D03*
Y-4921D02*
D03*
Y-2953D02*
D03*
Y-984D02*
D03*
Y984D02*
D03*
Y2953D02*
D03*
Y4921D02*
D03*
Y6890D02*
D03*
Y8858D02*
D03*
Y10827D02*
D03*
X-13484D02*
D03*
Y8858D02*
D03*
Y6890D02*
D03*
Y4921D02*
D03*
Y2953D02*
D03*
Y984D02*
D03*
Y-984D02*
D03*
Y-2953D02*
D03*
Y-4921D02*
D03*
Y-6890D02*
D03*
Y-8858D02*
D03*
Y-10827D02*
D03*
D32*
X10827Y13484D02*
D03*
X8858D02*
D03*
X6890D02*
D03*
X4921D02*
D03*
X2953D02*
D03*
X984D02*
D03*
X-984D02*
D03*
X-2953D02*
D03*
X-4921D02*
D03*
X-6890D02*
D03*
X-8858D02*
D03*
X-10827D02*
D03*
Y-13484D02*
D03*
X-8858D02*
D03*
X-6890D02*
D03*
X-4921D02*
D03*
X-2953D02*
D03*
X-984D02*
D03*
X984D02*
D03*
X2953D02*
D03*
X4921D02*
D03*
X6890D02*
D03*
X8858D02*
D03*
X10827D02*
D03*
D33*
X0Y0D02*
D03*
D34*
X25591Y-9646D02*
D03*
Y6496D02*
D03*
X31890Y-9646D02*
D03*
Y6496D02*
D03*
D35*
X21063Y-21063D02*
D03*
X25000D02*
D03*
D36*
X37106Y-7874D02*
D03*
Y-11811D02*
D03*
D37*
X42520Y-3248D02*
D03*
Y-9941D02*
D03*
D38*
X28150Y-16929D02*
D03*
X21457D02*
D03*
D39*
X-28346Y-36024D02*
D03*
Y-34055D02*
D03*
Y-32087D02*
D03*
Y-30118D02*
D03*
Y-28150D02*
D03*
Y-26181D02*
D03*
Y-24213D02*
D03*
Y-22244D02*
D03*
D40*
X-18504Y-39961D02*
D03*
Y-18307D02*
D03*
D41*
X52756Y-15094D02*
D03*
X50787Y-18504D02*
D03*
X-17913Y-47768D02*
D03*
X-15945Y-44358D02*
D03*
X-52953Y14831D02*
D03*
X-50984Y18240D02*
D03*
X18110Y46457D02*
D03*
X16142Y43047D02*
D03*
D42*
X47374Y-17913D02*
D03*
X43964Y-15945D02*
D03*
X-15224Y-52953D02*
D03*
X-18634Y-50984D02*
D03*
X-48162Y17520D02*
D03*
X-44752Y15551D02*
D03*
X15224Y52165D02*
D03*
X18634Y50197D02*
D03*
D43*
X38319Y-39567D02*
D03*
X34909Y-41535D02*
D03*
X-39106Y-32480D02*
D03*
X-35697Y-30512D02*
D03*
X-38319Y39567D02*
D03*
X-34909Y41535D02*
D03*
X39370Y32677D02*
D03*
X35961Y30709D02*
D03*
D44*
X32480Y-39500D02*
D03*
X30512Y-36090D02*
D03*
X-39567Y-38319D02*
D03*
X-41535Y-34909D02*
D03*
X-32677Y39236D02*
D03*
X-30709Y35827D02*
D03*
X39567Y38319D02*
D03*
X41535Y34909D02*
D03*
D45*
X13386Y-53543D02*
D03*
X9449D02*
D03*
X-50000Y-8661D02*
D03*
X-46063D02*
D03*
X-12992Y53543D02*
D03*
X-9055D02*
D03*
X50000Y8268D02*
D03*
X46063D02*
D03*
X12894Y-15945D02*
D03*
X16831D02*
D03*
X-8268Y17323D02*
D03*
X-12205D02*
D03*
D46*
X7874Y-50394D02*
D03*
Y-46457D02*
D03*
X-53150Y-13386D02*
D03*
Y-9449D02*
D03*
X-7874Y50394D02*
D03*
Y46457D02*
D03*
X53150Y13386D02*
D03*
Y9449D02*
D03*
X-17323Y-9449D02*
D03*
Y-13386D02*
D03*
D47*
X-21260Y-14764D02*
D03*
Y-8071D02*
D03*
D48*
X-13583Y22047D02*
D03*
X-6890D02*
D03*
D49*
X17598Y1575D02*
D03*
X20197D02*
D03*
D77*
X-30610Y7480D02*
D03*
X-21399Y1914D02*
D03*
X-27954Y2129D02*
D03*
X-25819Y3182D02*
D03*
X16929Y-21555D02*
D03*
X15274Y-23248D02*
D03*
X-4526Y-22539D02*
D03*
X40270Y-50851D02*
D03*
X49276Y-42997D02*
D03*
X60300Y-23904D02*
D03*
X64173Y-12598D02*
D03*
Y9449D02*
D03*
X61875Y21176D02*
D03*
X50851Y40270D02*
D03*
X42997Y49276D02*
D03*
X23904Y60300D02*
D03*
X12598Y64173D02*
D03*
X-9449D02*
D03*
X-21176Y61875D02*
D03*
X-40270Y50851D02*
D03*
X-49276Y42997D02*
D03*
X-60300Y23904D02*
D03*
X-64173Y-9449D02*
D03*
Y12598D02*
D03*
X-50851Y-40270D02*
D03*
X-61875Y-21176D02*
D03*
X-42997Y-49276D02*
D03*
X-23904Y-60300D02*
D03*
X-12598Y-61417D02*
D03*
X9364Y-64678D02*
D03*
X21358Y-64173D02*
D03*
X24016Y-56102D02*
D03*
X14075Y-67716D02*
D03*
X14719Y25505D02*
D03*
X19287Y-48655D02*
D03*
X16768Y-54161D02*
D03*
X21934Y-57232D02*
D03*
X26202Y-54897D02*
D03*
X6488Y-89662D02*
D03*
X27676Y-47882D02*
D03*
X14173Y-62992D02*
D03*
X9467Y-54638D02*
D03*
X-7972Y-60532D02*
D03*
X-19148Y-52085D02*
D03*
X-98Y-56004D02*
D03*
X6496Y-80610D02*
D03*
X5315Y-77067D02*
D03*
X-7733Y-53534D02*
D03*
X-12574Y-57308D02*
D03*
X7874Y-50787D02*
D03*
X33153Y34714D02*
D03*
X10827Y46752D02*
D03*
X-12907Y46419D02*
D03*
X-34646Y32776D02*
D03*
X-46161Y-13189D02*
D03*
X-33366Y-34646D02*
D03*
X-8169Y-32283D02*
D03*
X-5812Y-31932D02*
D03*
X2165Y-41319D02*
D03*
X3445Y-49313D02*
D03*
X991Y-29184D02*
D03*
X4800Y-31567D02*
D03*
X6496Y-34941D02*
D03*
X2391Y-31089D02*
D03*
X5183Y-25605D02*
D03*
X2895Y-23477D02*
D03*
X5777Y-19135D02*
D03*
X7874Y-46457D02*
D03*
X-13060Y-21053D02*
D03*
X-11459Y-18919D02*
D03*
X2756Y-25886D02*
D03*
X-959Y-18259D02*
D03*
X-8613Y-29638D02*
D03*
X-12002Y-32023D02*
D03*
X-17323Y-13386D02*
D03*
X-17692Y-6762D02*
D03*
X-15255Y-6955D02*
D03*
X-22881Y-2068D02*
D03*
X-12992Y-13386D02*
D03*
X-35236Y8858D02*
D03*
X-18264Y8057D02*
D03*
X-16228Y6859D02*
D03*
X-19412Y11644D02*
D03*
X-27362Y21752D02*
D03*
X19248Y14237D02*
D03*
X21571Y14983D02*
D03*
X21457Y10431D02*
D03*
X27067Y3248D02*
D03*
X26503Y5658D02*
D03*
X27489Y-4827D02*
D03*
X25237Y-4114D02*
D03*
X20020Y1575D02*
D03*
X16292Y1271D02*
D03*
X15846Y-46850D02*
D03*
X18061Y-31960D02*
D03*
X16256Y-30437D02*
D03*
X4134Y-34744D02*
D03*
X-4611Y-17452D02*
D03*
X-4626Y-19925D02*
D03*
X-10611Y-16626D02*
D03*
X45472Y5807D02*
D03*
X46063Y8268D02*
D03*
X39342Y15502D02*
D03*
X40642Y13390D02*
D03*
X27657Y-16142D02*
D03*
X24803Y-15362D02*
D03*
X18548Y7313D02*
D03*
X24508Y7382D02*
D03*
X23769Y9744D02*
D03*
X31952Y30438D02*
D03*
X16093Y42962D02*
D03*
X15211Y23138D02*
D03*
X21260Y33169D02*
D03*
X19551Y34931D02*
D03*
X8545Y36952D02*
D03*
X7509Y39209D02*
D03*
X9635Y27928D02*
D03*
X11897Y28607D02*
D03*
X3445Y27165D02*
D03*
X-394Y22047D02*
D03*
X1144Y20254D02*
D03*
X9458Y20006D02*
D03*
X9582Y22508D02*
D03*
X9123Y16156D02*
D03*
X15354Y14751D02*
D03*
X13976Y12795D02*
D03*
X17175Y19536D02*
D03*
X18955Y21089D02*
D03*
X29232Y28740D02*
D03*
X32283Y28051D02*
D03*
X21654Y21455D02*
D03*
X-38386Y12795D02*
D03*
X-38305Y15191D02*
D03*
X-31336Y5178D02*
D03*
X-36150Y6644D02*
D03*
X-41043Y7776D02*
D03*
X-40354Y10039D02*
D03*
X-18677Y149D02*
D03*
X-20972Y-409D02*
D03*
X-19291Y5807D02*
D03*
X-29652Y218D02*
D03*
X-35194Y-2743D02*
D03*
X-32896Y-3291D02*
D03*
X-21597Y10733D02*
D03*
X-16128Y13706D02*
D03*
X-13711Y13471D02*
D03*
X-24016Y29921D02*
D03*
X-26461Y13333D02*
D03*
X-24189Y13980D02*
D03*
X-24414Y16332D02*
D03*
X-25000Y27756D02*
D03*
X-26181Y23819D02*
D03*
X-16142Y16142D02*
D03*
X-12205Y17323D02*
D03*
X-16045Y-44857D02*
D03*
X-17963Y-47719D02*
D03*
X1350Y-18757D02*
D03*
X7579Y-20669D02*
D03*
X12567Y-21858D02*
D03*
X35428Y-31181D02*
D03*
X-3642Y-28150D02*
D03*
X-21260Y-14764D02*
D03*
X42520Y-3445D02*
D03*
X19219Y9663D02*
D03*
X16142Y11200D02*
D03*
X-766Y-15898D02*
D03*
X5217Y25591D02*
D03*
X929Y17811D02*
D03*
X7874Y29528D02*
D03*
X-36884Y-4589D02*
D03*
X-13583Y22047D02*
D03*
X-51873Y18866D02*
D03*
X30512Y-36090D02*
D03*
X43139Y-39454D02*
D03*
X34252Y-33563D02*
D03*
X12500Y-46850D02*
D03*
X-35612Y-30463D02*
D03*
X-46063Y-8661D02*
D03*
X-46850Y11417D02*
D03*
X-44667Y15502D02*
D03*
X-49439Y28543D02*
D03*
X-30659Y35741D02*
D03*
X-7874Y46457D02*
D03*
X35961Y30709D02*
D03*
X45768Y13091D02*
D03*
X46555Y-12008D02*
D03*
X43964Y-15945D02*
D03*
X16831D02*
D03*
X9843Y-9843D02*
D03*
X-18523Y13899D02*
D03*
X-9843Y3937D02*
D03*
Y9843D02*
D03*
X3937D02*
D03*
X-3937D02*
D03*
X-9843Y-3937D02*
D03*
X-3937Y-9843D02*
D03*
X3937D02*
D03*
X9843Y-3937D02*
D03*
Y3937D02*
D03*
Y9843D02*
D03*
X-9843Y-9843D02*
D03*
X0Y0D02*
D03*
X-28543Y-49439D02*
D03*
X35447Y-42475D02*
D03*
X49439Y-28543D02*
D03*
X51736Y-19026D02*
D03*
X57087Y-12598D02*
D03*
Y0D02*
D03*
X54232Y9449D02*
D03*
X55738Y17633D02*
D03*
X49439Y28543D02*
D03*
X42475Y35447D02*
D03*
X39454Y43139D02*
D03*
X28543Y49439D02*
D03*
X18634Y50197D02*
D03*
X12598Y57087D02*
D03*
X0D02*
D03*
X-9210Y54626D02*
D03*
X-17633Y55738D02*
D03*
X-28543Y49439D02*
D03*
X-35447Y42475D02*
D03*
X-43139Y39454D02*
D03*
X-57087Y12598D02*
D03*
Y0D02*
D03*
X-54232Y-9449D02*
D03*
X-55738Y-17633D02*
D03*
X-49439Y-28543D02*
D03*
X-42126Y-35236D02*
D03*
X-39454Y-43139D02*
D03*
X-11909Y-46654D02*
D03*
X-25492Y-22047D02*
D03*
X-25394Y-36417D02*
D03*
X-29232Y-54528D02*
D03*
X-27461Y-59153D02*
D03*
X-30315Y-63386D02*
D03*
X-31988Y-67618D02*
D03*
X16087Y7170D02*
D03*
X-24409Y-34252D02*
D03*
X-6890Y22047D02*
D03*
X-21260Y-8071D02*
D03*
X12894Y-15945D02*
D03*
X18110Y46457D02*
D03*
X39370Y32677D02*
D03*
X50000Y8268D02*
D03*
X47244Y-18110D02*
D03*
X32283Y-39370D02*
D03*
X-8268Y50394D02*
D03*
X-32677Y39370D02*
D03*
X-48031Y17717D02*
D03*
X-50000Y-8661D02*
D03*
X-39370Y-32283D02*
D03*
X7087Y19291D02*
D03*
X9055Y34646D02*
D03*
D78*
X14187Y18817D02*
D03*
X-3939Y-31988D02*
D03*
X16434Y9054D02*
D03*
D79*
X12955Y-49512D02*
G03*
X12849Y-49594I1219J-1669D01*
G01*
X12923Y-49028D02*
G03*
X13071Y-48405I-1230J622D01*
G01*
X13071Y-48011D02*
G03*
X12714Y-47087I-1378J-0D01*
G01*
X36081Y-35660D02*
G03*
X36031Y-35783I1890J-836D01*
G01*
X34633Y-33671D02*
G03*
X34615Y-33666I-394J-1320D01*
G01*
X35432Y-34302D02*
G03*
X34633Y-33671I-1193J-689D01*
G01*
X35812Y-35256D02*
G03*
X35629Y-34643I-1376J-76D01*
G01*
X34630Y-33670D02*
G03*
X34615Y-33666I-391J-1321D01*
G01*
X49098Y-13529D02*
G03*
X49117Y-13661I2055J221D01*
G01*
X48663Y-13314D02*
G03*
X48195Y-12873I-1154J-754D01*
G01*
X47857Y-12678D02*
G03*
X47797Y-12645I-689J-1194D01*
G01*
X48823Y13073D02*
G03*
X48905Y12968I1669J1219D01*
G01*
X48339Y13041D02*
G03*
X47716Y13189I-622J-1230D01*
G01*
X47322Y13189D02*
G03*
X47233Y13186I0J-1378D01*
G01*
X34553Y35532D02*
G03*
X34544Y35527I686J-1195D01*
G01*
X35504Y35910D02*
G03*
X34888Y35726I76J-1376D01*
G01*
X11674Y48164D02*
G03*
X11970Y48014I1030J1678D01*
G01*
X12959Y47889D02*
G03*
X12736Y47707I754J-1154D01*
G01*
X-12797Y49315D02*
G03*
X-12692Y49397I-1219J1670D01*
G01*
X-12765Y48831D02*
G03*
X-12913Y48208I1230J-622D01*
G01*
X-12913Y47815D02*
G03*
X-12913Y47809I1378J0D01*
G01*
X-35812Y35256D02*
G03*
X-35655Y34690I1376J76D01*
G01*
X-36081Y35660D02*
G03*
X-36031Y35783I-1890J836D01*
G01*
X-48133Y12067D02*
G03*
X-48065Y12030I689J1194D01*
G01*
X-48939Y12703D02*
G03*
X-48477Y12265I1154J754D01*
G01*
X-49374Y12918D02*
G03*
X-49392Y13050I-2055J-221D01*
G01*
X-47421Y-13465D02*
G03*
X-47083Y-13422I-0J1378D01*
G01*
X-47421Y-13465D02*
G03*
X-47083Y-13422I-0J1378D01*
G01*
X-48437Y-13316D02*
G03*
X-47814Y-13465I622J1230D01*
G01*
X-48921Y-13348D02*
G03*
X-49003Y-13243I-1669J-1219D01*
G01*
X-34302Y-35432D02*
G03*
X-34082Y-35274I-689J1193D01*
G01*
X-35256Y-35812D02*
G03*
X-34643Y-35629I-76J1376D01*
G01*
X-12960Y-48677D02*
G03*
X-12520Y-48212I-754J1154D01*
G01*
X-12323Y-47871D02*
G03*
X-12201Y-47591I-1194J689D01*
G01*
X-13174Y-49112D02*
G03*
X-13306Y-49131I221J-2055D01*
G01*
X-12598Y-64173D02*
Y-61417D01*
X12955Y-49512D02*
X14173Y-48622D01*
X13071Y-48011D02*
X13071Y-48405D01*
X12500Y-46850D02*
X12714Y-47087D01*
X12480Y-49902D02*
X12923Y-49028D01*
X12500Y-46850D02*
X14173Y-48622D01*
X12480Y-49902D02*
X12849Y-49594D01*
X35866Y-36234D02*
X36031Y-35783D01*
X36081Y-35660D02*
X36692Y-34280D01*
X34633Y-33671D02*
X36692Y-34280D01*
X34630Y-33670D02*
X34633Y-33671D01*
X35812Y-35256D02*
X35866Y-36234D01*
X35432Y-34302D02*
X35629Y-34643D01*
X34252Y-33563D02*
X34615Y-33666D01*
X48937Y-12028D02*
X49098Y-13529D01*
X49117Y-13661D02*
X49199Y-14134D01*
X46555Y-12008D02*
X48937Y-12028D01*
X47857Y-12678D02*
X48195Y-12873D01*
X46555Y-12008D02*
X47797Y-12645D01*
X48663Y-13314D02*
X49199Y-14134D01*
X47933Y14291D02*
X48823Y13073D01*
X48905Y12968D02*
X49213Y12598D01*
X45768Y13091D02*
X47933Y14291D01*
X47322Y13189D02*
X47716Y13189D01*
X45768Y13091D02*
X47233Y13186D01*
X48339Y13041D02*
X49213Y12598D01*
X34528Y36790D02*
X36482Y35964D01*
X33153Y34714D02*
X34528Y36790D01*
X33153Y34714D02*
X34544Y35527D01*
X34553Y35532D02*
X34888Y35726D01*
X35504Y35910D02*
X36482Y35964D01*
X11970Y48014D02*
X12736Y47707D01*
X11674Y48164D02*
X11674Y48164D01*
X10827Y46752D02*
X12049Y47258D01*
X12959Y47889D02*
X13780Y48425D01*
X-12913Y48208D02*
X-12913Y47815D01*
X-14016Y48425D02*
X-12797Y49315D01*
X-12913Y47809D02*
X-12907Y46419D01*
X-12765Y48831D02*
X-12323Y49705D01*
X-14016Y48425D02*
X-12907Y46419D01*
X-12692Y49397D02*
X-12323Y49705D01*
X-35866Y36234D02*
X-35812Y35256D01*
X-36692Y34280D02*
X-36081Y35660D01*
X-35655Y34690D02*
X-34646Y32776D01*
X-36692Y34280D02*
X-34646Y32776D01*
X-36031Y35783D02*
X-35866Y36234D01*
X-49474Y13523D02*
X-48939Y12703D01*
X-48477Y12265D02*
X-48133Y12067D01*
X-48065Y12030D02*
X-46850Y11417D01*
X-49213D02*
X-46850D01*
X-49374Y12918D02*
X-49213Y11417D01*
X-49474Y13523D02*
X-49392Y13050D01*
X-49311Y-12874D02*
X-48437Y-13316D01*
X-47814Y-13465D02*
X-47602Y-13465D01*
X-47083Y-13422D02*
X-46161Y-13189D01*
X-47602Y-13465D02*
X-47421Y-13465D01*
X-47814Y-13465D02*
X-47602Y-13465D01*
X-48407Y-14052D02*
X-48031Y-14567D01*
X-47227Y-13974D02*
X-46161Y-13189D01*
X-49311Y-12874D02*
X-49003Y-13243D01*
X-48921Y-13348D02*
X-48031Y-14567D01*
X-48026Y-14563D02*
X-47227Y-13974D01*
X-48031Y-14567D02*
X-48026Y-14563D01*
X-36234Y-35866D02*
X-35256Y-35812D01*
X-34643Y-35629D02*
X-34302Y-35432D01*
X-34082Y-35274D02*
X-33366Y-34646D01*
X-34280Y-36692D02*
X-33366Y-34646D01*
X-36234Y-35866D02*
X-34280Y-36692D01*
X-13780Y-49213D02*
X-12960Y-48677D01*
X-12520Y-48212D02*
X-12323Y-47871D01*
X-12201Y-47591D02*
X-11909Y-46654D01*
X-11674Y-48951D01*
X-13174Y-49112D02*
X-11674Y-48951D01*
X-13780Y-49213D02*
X-13306Y-49131D01*
D80*
X-47814Y-13465D02*
D03*
D81*
X-15452Y-9121D02*
G03*
X-15157Y-9099I0J2067D01*
G01*
X-17323Y-9449D02*
X-16929Y-9121D01*
X-15157Y-9099D02*
X-13484Y-8858D01*
X-16929Y-9121D02*
X-15452D01*
X12303Y-15551D02*
X12894Y-15945D01*
X10827Y-13484D02*
X12303Y-15551D01*
X-21260Y-8071D02*
X-20208Y-9123D01*
X-17649D01*
X-17323Y-9449D01*
X-6890Y18504D02*
Y22047D01*
X-8071Y17323D02*
X-6890Y18504D01*
X-8366Y17323D02*
X-8071D01*
X-8760Y16929D02*
X-8366Y17323D01*
X-8760Y14461D02*
Y16929D01*
X-8858Y13484D02*
Y14363D01*
X-8760Y14461D01*
D82*
X-51803Y18817D02*
G03*
X-51904Y18887I-1395J-1906D01*
G01*
X9449Y-54638D02*
X9467D01*
X9449Y-57087D02*
Y-54638D01*
X-20360Y-54163D02*
X-18634Y-50984D01*
X9449Y-54638D02*
Y-53543D01*
X34909Y-41535D02*
X36726Y-44714D01*
X-36726Y44714D02*
X-34909Y41535D01*
X-51909Y18890D02*
X-51904Y18887D01*
X-51803Y18817D02*
X-51112Y18314D01*
X-54163Y20360D02*
X-51909Y18890D01*
X-57087Y-9449D02*
X-53150D01*
X-44714Y-36726D02*
X-41535Y-34909D01*
X50787Y-18504D02*
X54163Y-20360D01*
X53150Y9449D02*
X57087D01*
X41535Y34909D02*
X44714Y36726D01*
X19967Y53481D02*
X20360Y54163D01*
X18634Y50197D02*
X19967Y53481D01*
X-9449Y56299D02*
X-9055Y53543D01*
X-9449Y56299D02*
Y57087D01*
X-12598Y56299D02*
Y57087D01*
X-39454Y43139D02*
X-38319Y39567D01*
X-55738Y17633D02*
X-52953Y14831D01*
X-57087Y-12598D02*
X-53150Y-13386D01*
X-43139Y-39454D02*
X-39567Y-38319D01*
X-17633Y-55738D02*
X-15224Y-52953D01*
X12598Y-57087D02*
X13386Y-53543D01*
X38319Y-39567D02*
X39454Y-43139D01*
X52756Y-15094D02*
X55738Y-17633D01*
X53150Y13386D02*
X57087Y12598D01*
X39567Y38319D02*
X43139Y39454D01*
X15224Y52165D02*
X17633Y55738D01*
X-12992Y53543D02*
X-12598Y56299D01*
D83*
X7283Y-101969D02*
D03*
X2362D02*
D03*
X-2559D02*
D03*
X-7480D02*
D03*
M02*
