M48
;Layer_Color=9474304
;FILE_FORMAT=2:5
INCH,LZ
;TYPE=PLATED
T1F00S00C0.00787
T2F00S00C0.01968
;TYPE=NON_PLATED
T3F00S00C0.07874
%
T01
X0006488Y-0089662
X0006496Y-008061
X0005315Y-0077067
X0009364Y-0064678
X0014173Y-0062992
X0014075Y-0067716
X0021358Y-0064173
X0023327Y-0059941
X0025394Y-005876
X0027685Y-0059333
X0026673Y-0044685
X0028346Y-0043012
X0032283Y-003937
X0030512Y-003609
X0034252Y-0033563
X0035422Y-0031291
X0035447Y-0042475
X0043139Y-0039454
X0049276Y-0042997
X004027Y-0050851
X0019287Y-0048655
X0017028Y-0049508
X0016768Y-0054161
X0009467Y-0054638
X0007874Y-0050787
Y-0046457
X00125Y-004685
X0003445Y-0049313
X0002181Y-004132
X0000204Y-0036534
X-0002067Y-0037303
X-0001505Y-0033116
X-0003839Y-0032579
X-0005315Y-0034449
X-0009932Y-0032947
X-001118Y-0034952
X-0013091Y-0033563
X-001306Y-002102
X-0011459Y-0018919
X-0010611Y-0016626
X-0012992Y-0013386
X-0016926Y-001333
X-0021848Y-0013271
X-0019567Y-0009252
X-00176Y-0006791
X-0015244Y-0006956
X-0009746Y-000968
X-0009843Y-0003937
Y0003937
Y0009843
X-0003746Y0009649
X0003937Y0009843
X0009865Y0009838
X0012695Y0012823
X0014658Y0014137
X0016849Y0015673
X0017094Y0019634
X0018955Y0021089
X0021255Y0021628
X002185Y0015945
X0020276Y0014173
X0019169Y00106
X002155Y0010595
X0023769Y0009744
X0024508Y0007382
X0020636Y0008416
X0018402Y0006682
X0016087Y000717
X0017618Y0000886
X002002Y0001575
X0027067Y0003248
X0028177Y0005658
X0029331Y0014469
X0030807Y0016339
X0039342Y0015502
X0040642Y001339
X0045768Y0013091
X0046063Y0008268
X0045472Y0005807
X005Y0008268
X0054232Y0009449
X0055738Y0017633
X0061875Y0021176
X0064173Y0009449
Y-0012598
X0057087
X0046555Y-0012008
X0043964Y-0015945
X0047244Y-001811
X0051736Y-0019026
X00603Y-0023904
X0033465Y-0020571
X0034744Y-0018504
X0027431Y-0015969
X0025098Y-0016339
X0016831Y-0015945
X0012894
X0011024Y-0022539
X0008563Y-0023327
X0006596Y-0022019
X0004162Y-0024378
X0005791Y-0026088
X0007972Y-0027264
X0005007Y-0030444
X0004626Y-0032776
X0004127Y-0035138
X0006496Y-0034941
X001565Y-003189
X0018061Y-003196
X0016734Y-0025635
X0016443Y-0023019
X0018406Y-0021698
X0000069Y-0022554
X-0002264Y-0022146
X-0004608Y-0021853
X-0004746Y-0017976
X-0003458Y-0015982
X0000797Y-0015504
X-0000098Y-0017717
X-0001246Y-0019782
X-0001331Y-0027013
X0000013Y-0028955
X-0003051Y-0025394
X-000376Y-0009615
X0003937Y-0009843
X0009843
X0009941Y-0004036
X0009843Y0001969
X0Y0
X-0016732Y0000787
X-0019094Y0000098
X-0021172Y-0001097
X-0019641Y0005239
X-0017127Y0004613
X-0015412Y0002988
X-0021298Y0007272
X-0023623Y0006854
X-0025886Y0009941
X-0027756Y0011417
X-0028186Y0005683
X-0029528Y000372
X-0030709Y0001673
X-0032932Y-0001484
X-0034837Y-0000088
X-0035827Y-0002559
X-0036237Y0006781
X-0035039Y0008858
X-0033169Y0007087
X-0041043Y0007776
X-0040354Y0010039
X-0038382Y0012637
X-003844Y0014999
X-0044649Y0015463
X-0048031Y0017717
X-0051873Y0018866
X-005705Y0012618
X-0064173Y0012598
X-00603Y0023904
X-0060039Y004311
X-0059153Y0045374
X-0049276Y0042997
X-0042268Y0038383
X-004036Y0036382
X-0034941Y0033661
X-0031074Y0036287
X-0032677Y003937
X-0035447Y0042475
X-004027Y0050851
X-0043723Y0031123
X-0044293Y0028831
X-0043218Y0026565
X-0041396Y0025062
X-0040151Y0027073
X-0030295Y0025485
X-0027559Y0025
X-0029232Y0023327
X-0028248Y002874
X-0026523Y0030354
X-0018012Y0027165
X-0016142Y0028642
X-001722Y0032876
X-0017316Y0035438
X-0014956Y0035541
X-000886Y0028833
X-0008661Y0026476
X-0012402Y002374
X-0011496Y0017041
X-0008241Y0017077
X-0000787Y0020965
Y0023327
X0004445Y0023875
X0003624Y002609
X0006201Y0025591
X0007874Y0029528
X0009635Y0027928
X0011897Y0028607
X0014677Y0026082
X0016831Y0024409
X0010728Y0023031
X000857Y0021786
X0007087Y0019291
X0008755Y0016388
X0010925Y001752
X0002756Y0029823
X0002351Y003215
X-0001378Y0031594
X-0003543Y0032677
X-0007874Y0046457
X-0008268Y0050394
X-000921Y0054626
X-0017633Y0055738
X-0021176Y0061875
X-0009449Y0064173
X-0012907Y0046419
X0010827Y0046752
X0010236Y0041831
X0008268Y0043307
X0016093Y0042962
X001811Y0046457
X0018634Y0050197
X0012598Y0057087
Y0064173
X0022147Y0060338
X0019551Y0034931
X002126Y0033169
X0015059Y0035236
X0012992Y0036614
X0033153Y0034714
X0032079Y0030428
X0029724Y003061
X0032283Y0028051
X0035961Y0030709
X003937Y0032677
X0042475Y0035447
X003947Y0042719
X0042997Y0049276
X0050851Y004027
X004252Y-0003445
X0029626Y-0004921
X0027272Y-0004725
X-0029244Y-0009056
X-0031035Y-0010906
X-0027756Y-0020965
X-0025591Y-0033957
X-002815Y-0037008
X-0033366Y-0034646
X-0035612Y-0030463
X-003937Y-0032283
X-0042126Y-0035236
X-0039454Y-0043139
X-0042997Y-0049276
X-0050851Y-004027
X-0055738Y-0017633
X-0061875Y-0021176
X-0064173Y-0009449
X-0054232
X-005Y-0008661
X-0046063
X-0046161Y-0013189
X-0045571Y0002264
X-0043209Y0002657
X-0053618Y0002689
X-0053642Y0000295
X-004685Y0011417
X-0025226Y001942
X-0023552Y0017752
X-0021294Y001697
X-0016045Y-0044857
X-0017963Y-0047719
X-0019094Y-0051279
X-0011909Y-0046654
X-0007742Y-0053534
X-0007972Y-0060532
X-0012574Y-0057308
X-0023904Y-00603
X-0027461Y-0059153
X-0029268Y-0054589
X-0030315Y-0063386
X-0031988Y-0067618
X-0073327Y0036319
T02
X-000748Y-0101969
X-0002559
X0002362
X0007283
T03
X0Y-0120079
X-0103991Y0060039
X0103991
M30
