M48
;Layer_Color=9474304
;FILE_FORMAT=2:5
INCH,LZ
;TYPE=PLATED
T1F00S00C0.00787
T2F00S00C0.01968
;TYPE=NON_PLATED
T3F00S00C0.07874
%
T01
X0005813Y-0089346
X0013288Y-0082288
X0017815Y-0082284
X0006496Y-008061
X0005315Y-0077067
X0004724Y-006063
X-0001181Y-0060532
X-0000492Y-0058169
X-000476Y-0060487
X-0004528Y-005187
X-0002603Y-0053477
X-0008366Y-0052067
X-0007776Y-0049803
X-0009981Y-0045463
X-0011867Y-0047064
X-0013408Y-0044885
X-0015894Y-0045031
X-0018242Y-0048317
X-0018874Y-0051381
X-0023008Y-0052312
X-0023031Y-0058563
X-0012574Y-0057308
X-0012894Y-0039272
X-0013878Y-0037106
X-001593Y-0038461
X-0017925Y-0037196
X-0019879Y-0038673
X-0020866Y-0034154
X-0020965Y-0031594
X-0021457Y-0025886
X-002126Y-0018012
X-0021358Y-0012106
X-0026772
X-0028346Y-0009902
X-0030703Y-0009735
X-0030827Y-0012205
X-0030433Y-0006004
X-0026676Y-0006155
X-0026082Y-0002437
X-0023984Y-0001352
X-0022047Y0
X-0021457Y-0006594
X-001063Y-0006684
X-0008268
X-000561Y-0009941
X-0000395Y-0008374
X-0002559Y-0005315
X0003535Y-0005742
X0004429Y-0009941
X0009843Y-0010039
X0015453
X001939Y-0009843
Y-0015748
X001565Y-0015846
X0009843
X0009843Y-0023524
Y-0027854
X001565Y-0027756
X0019429Y-0027852
X001941Y-0023681
X001565Y-002372
X0016947Y-0040523
X0019203Y-0039587
X0021457Y-0038878
X0023886Y-003894
X0026248Y-0038979
X0032283Y-003937
X0030512Y-003609
X0034249Y-0033569
X0041554Y-0033296
X0042224Y-003563
X0041845Y-0038138
X0042815Y-0031299
X0044587Y-0029725
X0044582Y-0027363
X0046556Y-0026066
X0047678Y-0023987
X0047244Y-001811
X0051736Y-0019026
X0041898Y-0019587
X0043964Y-0015945
X0046555Y-0012008
X004702Y-0009551
X004776Y-0007301
X0045669Y-0006201
X004311Y-000561
X0040748Y-0004528
X0037637Y-0004894
X0037992Y-0002559
X0035421Y-0005714
X0033169Y-000689
X0032382Y-0004528
X0028642Y-0004035
X0028642Y-0001673
X0028069Y-0006327
X0020522Y-0001906
X0021063Y0000394
X0021813Y0002646
X0022583Y0004879
X0023097Y0007185
X0023809Y0009733
X0030413Y001378
X0030719Y0016122
X0033111Y0016036
X0033735Y0018431
X0036122Y0018504
X0038059Y0027264
X0035961Y0030709
X003937Y0032677
X0042615Y0035554
X003435Y0035433
X0030217Y0035039
X0027787Y0035275
X0027362Y0037598
X0024979Y0037213
X0024016Y003937
X0021644Y0038919
X0020071Y0040682
X0016584Y0043159
X0018036Y0045022
X0011319Y0045177
X0004233Y0042719
X000188Y0042928
X-0000984Y0043409
X-0003254Y0042754
X-0005906Y0041929
X-0008357Y0043799
X-0010276Y0042421
X-0015295Y0042224
X-0017854Y0041833
X-0018504Y0044783
X-0016135Y0045177
X-000748Y0047539
X-000921Y0054626
X-0017633Y0055738
X-0021176Y0061875
X-0009449Y0064173
X0012598
Y0057087
X0021654Y0059547
X0020307Y0050099
X0043241Y0049948
X0038295Y0041058
X0051209Y0040524
X0054181Y0016255
X0054232Y0009449
X005Y0008268
X0046047Y0008292
X0046088Y0004254
X0052817Y0003564
X0064075Y0003051
X0063494Y0009074
X0062Y0021261
X0045773Y0013088
X0054487Y-0009831
X005573Y-0012106
X0066634Y-0013703
X0060404Y-0023958
X0050369Y-0043264
X0035454Y-0042469
X0040538Y-005125
X0025526Y-0056747
X002313Y-0056988
X0021049Y-0061704
X0016929Y-0063189
X0014567Y-0062894
X0009449Y-0064173
X0009744Y-0059646
X0009467Y-0054638
X0007874Y-0050787
X0007874Y-004685
X00125Y-004685
X0010719Y-0038967
X0007677Y-0039173
X0009055Y-0037205
X000187Y-0035827
X0001378Y-0040256
X-0002559Y-0038484
X-0006398Y-0040059
Y-0035827
X-0005906Y-0029331
X-0005512Y-0022835
X-0003814Y-004704
X0001516Y-0047756
X0001899Y-0050177
X0018723Y-005213
X0017118Y-0053863
X0018209Y-004252
X-0024508Y-0041634
X-0026785Y-004311
X-0028839Y-0036417
X-0033661Y-0035948
X-0031182Y-0031142
X-0027344Y-0031079
X-0035584Y-0030444
X-003875Y-0032614
X-0038014Y-0026291
X-0037888Y-0023933
X-0040648Y-0025845
X-0043898Y-0027461
X-0044783Y-0029724
X-0043395Y-0035976
X-0036655Y-0040519
X-0036292Y-0048943
X-0045472Y-005187
X-0051993Y-0040176
X-0054426Y-0016669
X-0054232Y-0009449
X-005Y-000965
X-0046752Y-0008662
X-0046161Y-0013189
X-0045965Y-0004134
X-0048082Y-0002258
X-0049729Y-0000475
X-0047712Y0001149
X-0048923Y0003178
X-0047244Y0004921
X-0044889Y0004688
X-0042913Y0006201
X-004685Y0011417
X-0045669Y0016142
X-0048031Y0017717
X-0051873Y0018866
X-0042726Y0019186
X-0041038Y0021311
X-003904Y0020051
X-0037199Y0021799
X-0035314Y0020375
X-0033328Y0022058
X-0031574Y0020476
X-0029763Y0021993
X-002881Y0029152
X-0030807Y0030413
X-002686Y0030874
X-0024918Y0029528
X-0022547Y0030656
X-002128Y0028662
X-0018996Y0029921
X-0017618Y0018799
X-0014746Y0019171
X-0015593Y0016727
X-0017945Y0012326
X-0016833Y0006413
X-001318Y0007214
X-0013285Y0004854
X-0013199Y0001762
X-0011112Y-0001042
X-0009477Y0004714
X-0005334Y0005035
X-0000325Y0006697
X0001998Y000482
X0004331Y0004429
X0009055Y0004331
X0012894Y000374
X0010728Y0011998
X000992Y0014218
X0008399Y0011272
X000315Y0013583
X000315Y0019488
X-0002756
Y0025394
X-0008661Y0025394
X-0008661Y0019488
X-0008661Y0013583
X-0002756Y0013583
X000315Y0025394
X0002528Y0031225
X0000055Y0031107
X0001397Y0033365
X-0002339Y0034384
X0007758Y0031785
X0011319Y003002
X0010473Y0027464
X0017419Y0023291
X001939Y002185
X0016535Y0017224
X0014726Y0018785
X0014674Y0015596
X0022528Y0026403
X0031155Y0032872
X-0030905Y0036416
X-0032677Y003937
X-0035427Y004245
X-0034941Y0033661
X-004124Y0037894
X-0049276Y0042997
X-004027Y0050851
X-00603Y0023904
X-0055812Y0012576
X-0064837Y0012572
X-0064173Y-0009449
X-0062897Y-0021162
X-0041836Y-0021872
X-0040962Y-0019678
X-0031791Y-0069587
X-0027264Y-0071555
X-0022638Y-0078642
X-0018406Y-0080315
T02
X-000748Y-0101969
X-0002559
X0002362
X0007283
T03
X0Y-0120079
X-0103991Y0060039
X0103991
M30
